<svg xmlns="http://www.w3.org/2000/svg" xmlns:xlink="http://www.w3.org/1999/xlink" xmlns:inkscape="http://www.inkscape.org/namespaces/inkscape" version="1.1" width="69" height="54" viewBox="0 0 69 54">
<defs>
<path id="font_1_1" d="M.30299378 .3244629H.3999939C.47499085 .3244629 .48298646 .30848695 .48298646 .27954103 .48298646 .2725525 .48298646 .26057435 .47599793 .2306366 .47399903 .22564698 .47299195 .22164917 .47299195 .21965027 .47299195 .21166992 .47898866 .20767212 .4850006 .20767212 .49499513 .20767212 .49499513 .21066284 .5 .2286377L.5549927 .44551087C.55799868 .45651246 .55799868 .45851136 .55799868 .46151734 .55799868 .46351625 .55599978 .47251893 .54599 .47251893 .5359955 .47251893 .5349884 .46751405 .5309906 .45150758 .5099945 .37347413 .4869995 .35546876 .4019928 .35546876H.31098939L.375 .6095886C.38398744 .64460757 .3849945 .64860537 .42900086 .64860537H.5609894C.6839905 .64860537 .70700076 .6156006 .70700076 .53855898 .70700076 .5155487 .70700076 .51153567 .70399478 .4845276 .70199587 .4715271 .70199587 .46951295 .70199587 .46652223 .70199587 .46151734 .7049866 .45451356 .71398928 .45451356 .72499087 .45451356 .7259979 .46051026 .7279968 .4795227L.7480011 .65260317C.7509918 .6796112 .74598696 .6796112 .72099307 .6796112H.23098755C.21099854 .6796112 .20098877 .6796112 .20098877 .65960696 .20098877 .64860537 .20999146 .64860537 .22898865 .64860537 .2659912 .64860537 .2939911 .64860537 .2939911 .6306 .2939911 .6266022 .2939911 .6246033 .2889862 .60658267L.15699768 .07791138C.14698792 .038970949 .14498902 .0309906 .06599426 .0309906 .04899597 .0309906 .037994386 .0309906 .037994386 .011993408 .037994386 0 .049987794 0 .052993776 0 .08198547 0 .1559906 .0029907227 .18499756 .0029907227 .21798706 .0029907227 .30099488 0 .33399964 0 .34298707 0 .35499574 0 .35499574 .018997193 .35499574 .026992798 .34899903 .0289917 .34899903 .02999878 .34599305 .0309906 .34399415 .0309906 .32099916 .0309906 .29899598 .0309906 .2939911 .0309906 .2689972 .032989503 .23999024 .035980226 .23699951 .039978029 .23699951 .052947999 .23699951 .0549469 .23699951 .060943605 .24099732 .075912479L.30299378 .3244629Z"/>
<path id="font_1_3" d="M.33399964 .30233766C.33999635 .32835389 .36299134 .42037965 .43299867 .42037965 .43798829 .42037965 .46199037 .42037965 .48298646 .40734864 .45498658 .402359 .43499757 .37734986 .43499757 .35334779 .43499757 .33735658 .44599916 .31835938 .47299195 .31835938 .49499513 .31835938 .5269928 .3363495 .5269928 .37635804 .5269928 .42837525 .46798707 .4423828 .43399049 .4423828 .37599183 .4423828 .34098817 .38935853 .32899476 .36634828 .3039856 .43237306 .25 .4423828 .22099304 .4423828 .116989139 .4423828 .05999756 .3133545 .05999756 .28834535 .05999756 .27833558 .069992069 .27833558 .07199097 .27833558 .07998657 .27833558 .08299255 .28033448 .084991458 .28933717 .11898804 .39535523 .18499756 .42037965 .21899414 .42037965 .23799134 .42037965 .272995 .4113617 .272995 .35334779 .272995 .32235719 .2559967 .25532533 .21899414 .11528015 .20298767 .053268434 .16799927 .011245728 .12399292 .011245728 .117996219 .011245728 .09498596 .011245728 .07398987 .024276734 .09899902 .029266358 .12098694 .05027771 .12098694 .07827759 .12098694 .105270389 .09899902 .11328125 .083999637 .11328125 .053985597 .11328125 .0289917 .08728027 .0289917 .055267335 .0289917 .009246826 .07899475-.0107421879 .12298584-.0107421879 .18899536-.0107421879 .22499085 .059280397 .22799683 .0652771 .23999024 .028274537 .27598573-.0107421879 .33599855-.0107421879 .43899537-.0107421879 .49598695 .118270877 .49598695 .14328003 .49598695 .1532898 .4869995 .1532898 .48399354 .1532898 .47499085 .1532898 .47299195 .14929199 .47099305 .14228821 .43798829 .03527832 .36999513 .011245728 .33799745 .011245728 .29899598 .011245728 .2829895 .043273927 .2829895 .07727051 .2829895 .09927368 .2889862 .121276859 .2999878 .16529846L.33399964 .30233766Z"/>
<path id="font_1_4" d="M.48599244 .38136292C.48999024 .39537049 .48999024 .39736939 .48999024 .40437318 .48999024 .42237855 .47599793 .43138124 .46099855 .43138124 .45098878 .43138124 .43499757 .42536927 .42599488 .41036988 .42399598 .405365 .41600038 .37435914 .4119873 .35635377 .40499879 .33035279 .397995 .30334474 .3919983 .27633668L.34700013 .09628296C.34298707 .08126831 .2999878 .011245728 .23399353 .011245728 .18299866 .011245728 .17199707 .055267335 .17199707 .0922699 .17199707 .1382904 .18899536 .20030213 .22299195 .28833009 .23899842 .3293457 .24299622 .3403473 .24299622 .36035157 .24299622 .405365 .21099854 .4423828 .16099549 .4423828 .06599426 .4423828 .0289917 .29733277 .0289917 .28833009 .0289917 .27833558 .038986207 .27833558 .040985109 .27833558 .050994874 .27833558 .051986696 .28033448 .056991579 .29634095 .083999637 .3903656 .12399292 .42037965 .1579895 .42037965 .1659851 .42037965 .18299866 .42037965 .18299866 .3883667 .18299866 .36335755 .17298889 .3373413 .1659851 .31834413 .12599182 .21231079 .10798645 .1552887 .10798645 .10827637 .10798645 .019256592 .17098999-.0107421879 .22999573-.0107421879 .2689972-.0107421879 .30299378 .0062561037 .33099366 .03425598 .31799317-.017745972 .30599977-.06674194 .2659912-.11973572 .23999024-.15385437 .20199585-.18309021 .1559906-.18309021 .14199829-.18309021 .09700012-.18005371 .07998657-.14074707 .09599304-.14074707 .10899353-.14074707 .12298584-.1287384 .1329956-.11973572 .14299011-.10673523 .14299011-.08773804 .14299011-.056747438 .115997318-.052734376 .10598755-.052734376 .08299255-.052734376 .049987794-.068740848 .049987794-.11773682 .049987794-.16796875 .09399414-.20507813 .1559906-.20507813 .25898744-.20507813 .3619995-.11373901 .3899994-.00074768069L.48599244 .38136292Z"/>
<path id="font_1_2" d="M.7599945 .69506838C.7599945 .69807437 .7579956 .7050781 .7489929 .7050781 .74598696 .7050781 .7449951 .70407107 .73399356 .69306948L.6639862 .61598208C.6549988 .6300049 .60899356 .7050781 .49798585 .7050781 .2749939 .7050781 .049987794 .4837799 .049987794 .25144959 .049987794 .09249878 .16099549-.022460938 .32299806-.022460938 .36698915-.022460938 .4119873-.013473511 .44799806 .0015258789 .49798585 .021530152 .5169983 .042526246 .5349884 .06251526 .5439911 .037521364 .56999209 .0005340576 .5799866 .0005340576 .58499148 .0005340576 .58699038 .0035247803 .58699038 .0045318605 .58898928 .0065307619 .598999 .044525148 .60398867 .06550598L.6230011 .14248657C.6269989 .15948487 .6319885 .1764679 .6359863 .19346619 .6469879 .2384491 .647995 .240448 .7049866 .24145508 .70999148 .24145508 .72099307 .2424469 .72099307 .26145936 .72099307 .26844789 .71598818 .27246095 .70799258 .27246095 .68499758 .27246095 .6259918 .26945497 .6029968 .26945497 .57199099 .26945497 .49398805 .27246095 .46299745 .27246095 .45399476 .27246095 .44198609 .27246095 .44198609 .25245667 .44198609 .24145508 .44999696 .24145508 .47200013 .24145508 .47299195 .24145508 .5019989 .24145508 .5249939 .23945618 .5509949 .2364502 .55599978 .23345948 .55599978 .22045899 .55599978 .2114563 .54499819 .16647339 .5349884 .12948609 .5069885 .01953125 .3769989 .008529663 .34199525 .008529663 .24598694 .008529663 .14099121 .06550598 .14099121 .21846009 .14099121 .24945069 .15098572 .41467286 .2559967 .5448761 .30999757 .6129761 .40699769 .67407229 .5059967 .67407229 .60798647 .67407229 .6669922 .59695437 .6669922 .48077394 .6669922 .44070436 .6639862 .43971253 .6639862 .4296875 .6639862 .41967774 .6749878 .41967774 .67900088 .41967774 .69200137 .41967774 .69200137 .42167665 .69699099 .43971253L.7599945 .69506838Z"/>
<path id="font_2_2" d="M.34199525 .32141114H.44898988C.5249939 .32141114 .5379944 .30943299 .5379944 .27648927 .5379944 .2615204 .5379944 .25952149 .5309906 .23156739 .5289917 .22558594 .5279999 .22259522 .5279999 .21958924 .5279999 .20960999 .5349884 .20462036 .54499819 .20462036 .55799868 .20462036 .5589905 .20960999 .56399539 .22758484L.6179962 .43946839C.61898806 .44247438 .621994 .457489 .621994 .45948792 .621994 .46949769 .61499026 .4744873 .6049957 .4744873 .59098818 .4744873 .58999636 .4684906 .58499148 .45048524 .5649872 .37242127 .5359955 .35742188 .45098878 .35742188H.35099793L.4139862 .60858157C.42199708 .63960269 .4229889 .64260867 .46499635 .64260867H.6179962C.7509918 .64260867 .776001 .6105957 .776001 .52752688 .776001 .49450685 .7719879 .47349549 .7719879 .46548463 .7719879 .457489 .7749939 .44847108 .78900149 .44847108 .80400088 .44847108 .8049927 .457489 .8069916 .4744873L.82499697 .64860537C.8279877 .6786041 .82099917 .6786041 .79599 .6786041H.2619934C.24299622 .6786041 .22999573 .6786041 .22999573 .6566162 .22999573 .64260867 .24198914 .64260867 .2619934 .64260867 .2630005 .64260867 .28199769 .64260867 .2999878 .64060977 .32099916 .63861086 .32299806 .63661196 .32299806 .6266022 .32299806 .6195984 .31999208 .6095886 .31900025 .60458377L.18798828 .081848148C.17799378 .042907716 .1769867 .03591919 .09899902 .03591919 .08198547 .03591919 .068984989 .03591919 .068984989 .014923096 .068984989 .004928589 .07598877-.000076293948 .084991458-.000076293948 .11399841-.000076293948 .18798828 .003921509 .21699524 .003921509L.2939911 .0029296876C.31999208 .0029296876 .34799195-.000076293948 .37298585-.000076293948 .37998963-.000076293948 .394989-.000076293948 .394989 .02192688 .394989 .03591919 .3829956 .03591919 .3600006 .03591919 .35798646 .03591919 .33299256 .03591919 .30799867 .03791809 .2869873 .039916994 .2769928 .040908815 .2769928 .054885866 .2769928 .058883668 .2769928 .06187439 .27999879 .07286072L.34199525 .32141114Z"/>
<path id="font_2_4" d="M.40699769 .39465333H.5049896C.5249939 .39465333 .5379944 .39465333 .5379944 .4166565 .5379944 .43066407 .5249939 .43066407 .5069885 .43066407H.4139862C.43699647 .5580139 .44499208 .6040497 .45298768 .63305667 .45799256 .6550598 .47999574 .6760864 .5039978 .6760864 .5049896 .6760864 .5319977 .6760864 .5509949 .6640625 .5099945 .651062 .5069885 .61505129 .5069885 .60905459 .5069885 .5870514 .5239868 .572052 .5469971 .572052 .57398989 .572052 .60398867 .59506228 .60398867 .63305667 .60398867 .6790924 .5549927 .70410159 .5039978 .70410159 .45999146 .70410159 .41099549 .6790924 .38398744 .62905886 .3639984 .5920563 .35598756 .5469818 .33499146 .43066407H.2559967C.23599243 .43066407 .22299195 .43066407 .22299195 .4086609 .22299195 .39465333 .23599243 .39465333 .2539978 .39465333H.32798768C.32699586 .38865663 .2639923 .028869629 .23999024-.078063968 .23498535-.10006714 .21798706-.17610169 .16999817-.17610169 .16899109-.17610169 .14498902-.17610169 .12599182-.1640625 .16699219-.15107727 .16999817-.11506653 .16999817-.109069827 .16999817-.08706665 .15299988-.07206726 .12998963-.07206726 .102996829-.07206726 .07299805-.095077518 .07299805-.1330719 .07299805-.17811585 .11999512-.20410156 .16999817-.20410156 .23399353-.20410156 .27799989-.13807678 .2899933-.11607361 .32598878-.049087526 .34899903 .07385254 .35099793 .08584595L.40699769 .39465333Z"/>
<path id="font_2_1" d="M.5589905 .27233888C.56599429 .300354 .5669861 .3043518 .5669861 .32736207 .5669861 .34336854 .5669861 .38539125 .5299988 .4143982 .5130005 .42739869 .48399354 .44140626 .43699647 .44140626 .394989 .44140626 .33299256 .43040467 .2679901 .35136415 .26098634 .4263916 .19299317 .44140626 .1619873 .44140626 .12298584 .44140626 .09899902 .41540528 .08299255 .38838197 .06298828 .35437013 .04699707 .29434205 .04699707 .28834535 .04699707 .2753296 .06098938 .2753296 .06399536 .2753296 .07798767 .2753296 .07899475 .27833558 .085998538 .30534364 .100997928 .3633728 .11999512 .4133911 .15899658 .4133911 .18499756 .4133911 .19198609 .39138795 .19198609 .36437989 .19198609 .34536744 .18299866 .3083496 .17599488 .28134156 .16899109 .2543335 .15899658 .21330261 .1539917 .19129944L.12199402 .06324768C.117996219 .050231935 .11199951 .025222779 .11199951 .022216797 .11199951 .00021362305 .12998963-.009796143 .1459961-.009796143 .1639862-.009796143 .17999268 .0032196046 .18499756 .01222229 .18998719 .021224976 .19799805 .053237916 .20298767 .07424927 .20799256 .09324646 .21899414 .13926697 .22499085 .16429138 .23098755 .18629456 .23699951 .20829773 .24198914 .23132324 .25299073 .27433778 .25299073 .27633668 .272995 .30734254 .30499269 .35636903 .35499574 .4133911 .43299867 .4133911 .4889984 .4133911 .49198915 .3673706 .49198915 .34336854 .49198915 .31636048 .48999024 .30734254 .4850006 .28834535L.37199403-.16085816C.36799623-.1758728 .36799623-.18086243 .36799623-.1818695 .36799623-.20387268 .38598634-.21386719 .4019928-.21386719 .43798829-.21386719 .44699098-.1798706 .44999696-.16586304L.5589905 .27233888Z"/>
<path id="font_3_1" d="M.62098696 .39237977C.57499697 .3783722 .57499697 .3343506 .57499697 .33335877 .57499697 .3163452 .58699038 .29234315 .6199951 .29234315 .647995 .29234315 .6819916 .3163452 .6819916 .36036683 .6819916 .41937257 .6159973 .4423828 .5629883 .4423828 .49798585 .4423828 .45599366 .40037538 .43598939 .37435914 .40299989 .43138124 .33898927 .4423828 .30299378 .4423828 .17799378 .4423828 .10699463 .32435609 .10699463 .28733827 .10699463 .2733307 .12298584 .2733307 .12799073 .2733307 .13699341 .2733307 .14498902 .27433778 .14898682 .28533937 .1789856 .38336183 .26098634 .40837098 .29899598 .40837098 .33198548 .40837098 .36999513 .39437867 .36999513 .34135438 .36999513 .3163452 .35198976 .24732971 .31799317 .11427307 .30299378 .057266237 .25698854 .023254395 .21398926 .023254395 .20698548 .023254395 .17799378 .023254395 .1539917 .039260866 .19898987 .055267335 .19898987 .09327698 .19898987 .09727478 .19898987 .12628174 .1769867 .13928223 .15499878 .13928223 .12998963 .13928223 .09298706 .119277957 .09298706 .0712738 .09298706 .010253906 .16099549-.0107421879 .21199036-.0107421879 .2669983-.0107421879 .31199647 .021255494 .33599855 .057266237 .37599183-.002746582 .43998719-.0107421879 .47099305-.0107421879 .5970001-.0107421879 .66799929 .10827637 .66799929 .14428711 .66799929 .15829468 .651001 .15829468 .6469879 .15829468 .6299896 .15829468 .6279907 .15229798 .625 .14329529 .59599307 .053253175 .5189972 .023254395 .47499085 .023254395 .44499208 .023254395 .4039917 .03425598 .4039917 .090270999 .4039917 .10227966 .4039917 .10928345 .4119873 .14329529 .42900086 .21331787 .45599366 .32435609 .46398927 .34236146 .47698976 .36836244 .5099945 .40837098 .5609894 .40837098 .56399539 .40837098 .59799197 .40837098 .62098696 .39237977Z"/>
<path id="font_3_2" d="M.6619873 .3733673C.66600039 .3883667 .66600039 .39537049 .66600039 .39637757 .66600039 .41838075 .647995 .43138124 .6289978 .43138124 .58898928 .43138124 .58099368 .39637757 .57398989 .3693695L.5529938 .28633119 .5219879 .16130066C.5179901 .14828491 .5130005 .12728882 .5119934 .121276859 .5109863 .11727905 .45700074 .023254395 .37199403 .023254395 .32598878 .023254395 .2899933 .04525757 .2899933 .10928345 .2899933 .16429138 .31999208 .23731995 .34899903 .30934144 .35398866 .3213501 .36099244 .33735658 .36099244 .35435487 .36099244 .40338136 .31399537 .4423828 .2519989 .4423828 .14698792 .4423828 .09098816 .3143463 .09098816 .28733827 .09098816 .2733307 .10699463 .2733307 .11199951 .2733307 .1289978 .2733307 .12998963 .27833558 .1349945 .29333497 .1559906 .36236573 .20298767 .40837098 .24798584 .40837098 .2669983 .40837098 .27799989 .39736939 .27799989 .37036134 .27799989 .35035707 .27198792 .3363495 .2649994 .31834413 .21598816 .1993103 .20698548 .16329956 .20698548 .123291019 .20698548 .012252808 .2999878-.0107421879 .36698915-.0107421879 .42399598-.0107421879 .46598817 .01725769 .4909973 .038253786 .47698976-.01777649 .46598817-.061904909 .4189911-.10990906 .3959961-.13290406 .34899903-.17108155 .2869873-.17108155 .2689972-.17108155 .23199463-.1680603 .20899964-.14691162 .2539978-.13591004 .25898744-.09690857 .25898744-.0868988 .25898744-.057907106 .23599243-.045898439 .21499634-.045898439 .18598938-.045898439 .1519928-.06990051 .1519928-.11590576 .1519928-.16604615 .20298767-.20507813 .2869873-.20507813 .40098573-.20507813 .5359955-.12890625 .56799319-.00074768069L.6619873 .3733673Z"/>
<path id="font_2_3" d="M.84298709 .6901245C.84298709 .69511416 .83999636 .703125 .8299866 .703125 .82299807 .703125 .82099917 .70111086 .81199648 .69111636L.7389984 .614151C.7299957 .6261444 .673996 .703125 .5509949 .703125 .30799867 .703125 .069992069 .4882202 .069992069 .26235963 .069992069 .107421878 .18798828-.01953125 .37998963-.01953125 .46798707-.01953125 .5609894 .0034637452 .61299136 .059448244 .6230011 .03744507 .6499939 .0014648438 .6619873 .0014648438 .67099 .0014648438 .6729889 .0054626467 .6779938 .02645874L.69699099 .10342407C.70199587 .121414188 .71598818 .18138123 .71899417 .19337464 .73098757 .23835755 .7319946 .23936463 .79100039 .24035645 .7979889 .24035645 .8129883 .24035645 .8129883 .26135255 .8129883 .2713623 .80599978 .2763672 .7979889 .2763672 .7649994 .2763672 .72299197 .27235414 .6879883 .27235414 .6629944 .27235414 .6299896 .27235414 .6049957 .2733612 .5799866 .27435304 .5509949 .2763672 .526001 .2763672 .5189972 .2763672 .5039978 .2763672 .5039978 .254364 .5039978 .24035645 .5149994 .24035645 .5399933 .24035645 .5589905 .24035645 .57899478 .24035645 .59799197 .23835755 .6299896 .23536682 .6309967 .23136902 .6309967 .21936035 .6309967 .21536255 .6309967 .21336365 .6239929 .18737793 .61698916 .15939331 .60598757 .1144104 .60198977 .10441589 .57299807 .043441774 .47999574 .016464234 .4019928 .016464234 .3019867 .016464234 .17098999 .064437869 .17098999 .23336792 .17098999 .34031678 .22099304 .47424317 .29499818 .54919436 .397995 .65112307 .5049896 .66711428 .5609894 .66711428 .6769867 .66711428 .7449951 .58317568 .7449951 .47123719 .7449951 .44325257 .74198916 .43626405 .74198916 .43026734 .74198916 .41726686 .7549896 .41726686 .7599945 .41726686 .776001 .41726686 .776001 .42027284 .7809906 .43925477L.84298709 .6901245Z"/>
</defs>
<use data-text="F" xlink:href="#font_1_1" transform="matrix(9.9626,0,0,-9.9626,5.1940004,12.782999)"/>
<use data-text="x" xlink:href="#font_1_3" transform="matrix(9.9626,0,0,-9.9626,12.974777,12.782999)"/>
<use data-text="F" xlink:href="#font_1_1" transform="matrix(9.9626,0,0,-9.9626,51.218996,12.782999)"/>
<use data-text="y" xlink:href="#font_1_4" transform="matrix(9.9626,0,0,-9.9626,58.99977,12.782999)"/>
<use data-text="G" xlink:href="#font_1_2" transform="matrix(9.9626,0,0,-9.9626,5.171997,46.760004)"/>
<use data-text="x" xlink:href="#font_1_3" transform="matrix(9.9626,0,0,-9.9626,13.002594,46.760004)"/>
<use data-text="G" xlink:href="#font_1_2" transform="matrix(9.9626,0,0,-9.9626,51.19699,46.760004)"/>
<use data-text="y" xlink:href="#font_1_4" transform="matrix(9.9626,0,0,-9.9626,59.027589,46.760004)"/>
<path transform="matrix(1,0,0,-1,34.723,27.336)" stroke-width=".39848" stroke-linecap="butt" stroke-miterlimit="10" stroke-linejoin="miter" fill="none" stroke="#000000" d="M-11.55147 17.04425H11.60498"/>
<path transform="matrix(1,0,0,-1,46.52723,10.29175)" stroke-width=".39848" stroke-linecap="round" stroke-linejoin="round" fill="none" stroke="#000000" d="M-2.07213 2.39091C-1.69356 .95633-.84995 .27893 0 0-.84995-.27893-1.69356-.95633-2.07213-2.39091"/>
<use data-text="F" xlink:href="#font_2_2" transform="matrix(6.9738,0,0,-6.9738,29.553002,6.59)"/>
<use data-text="f" xlink:href="#font_2_4" transform="matrix(6.9738,0,0,-6.9738,35.66903,6.59)"/>
<path transform="matrix(1,0,0,-1,34.723,27.336)" stroke-width=".39848" stroke-linecap="butt" stroke-miterlimit="10" stroke-linejoin="miter" fill="none" stroke="#000000" d="M-22.78685 10.70444V-8.36877"/>
<path transform="matrix(0,1,1,0,11.93615,35.90401)" stroke-width=".39848" stroke-linecap="round" stroke-linejoin="round" fill="none" stroke="#000000" d="M-2.07213 2.39091C-1.69356 .95633-.84995 .27893 0 0-.84995-.27893-1.69356-.95633-2.07213-2.39091"/>
<use data-text="&#x03b7;" xlink:href="#font_2_1" transform="matrix(6.9738,0,0,-6.9738,1.0429993,27.191)"/>
<use data-text="x" xlink:href="#font_3_1" transform="matrix(4.9813,0,0,-4.9813,5.1480028,28.187)"/>
<path transform="matrix(1,0,0,-1,34.723,27.336)" stroke-width=".39848" stroke-linecap="butt" stroke-miterlimit="10" stroke-linejoin="miter" fill="none" stroke="#000000" d="M23.01283 8.76724V-8.36877"/>
<path transform="matrix(0,1,1,0,57.735834,35.90401)" stroke-width=".39848" stroke-linecap="round" stroke-linejoin="round" fill="none" stroke="#000000" d="M-2.07213 2.39091C-1.69356 .95633-.84995 .27893 0 0-.84995-.27893-1.69356-.95633-2.07213-2.39091"/>
<use data-text="&#x03b7;" xlink:href="#font_2_1" transform="matrix(6.9738,0,0,-6.9738,60.082,27.855)"/>
<use data-text="y" xlink:href="#font_3_2" transform="matrix(4.9813,0,0,-4.9813,64.187007,28.851002)"/>
<path transform="matrix(1,0,0,-1,34.723,27.336)" stroke-width=".39848" stroke-linecap="butt" stroke-miterlimit="10" stroke-linejoin="miter" fill="none" stroke="#000000" d="M-11.53004-16.93355H11.58356"/>
<path transform="matrix(1,0,0,-1,46.50579,44.26955)" stroke-width=".39848" stroke-linecap="round" stroke-linejoin="round" fill="none" stroke="#000000" d="M-2.07213 2.39091C-1.69356 .95633-.84995 .27893 0 0-.84995-.27893-1.69356-.95633-2.07213-2.39091"/>
<use data-text="G" xlink:href="#font_2_3" transform="matrix(6.9738,0,0,-6.9738,29.514,51.459)"/>
<use data-text="f" xlink:href="#font_2_4" transform="matrix(6.9738,0,0,-6.9738,35.713708,51.459)"/>
</svg>
