<svg xmlns="http://www.w3.org/2000/svg" xmlns:xlink="http://www.w3.org/1999/xlink" xmlns:inkscape="http://www.inkscape.org/namespaces/inkscape" version="1.1" width="122" height="76" viewBox="0 0 122 76">
<defs>
<path id="font_1_4" d="M.7200012 .6586151C.72099307 .6626129 .72299197 .66760256 .72299197 .6736145 .72299197 .6826172 .71798709 .6826172 .69799807 .6826172H.27598573C.2519989 .6826172 .25099183 .6816101 .24499512 .6626129L.18998719 .4827118C.18798828 .47772218 .18699646 .47071839 .18699646 .46871949 .18699646 .46772767 .18699646 .45773316 .19898987 .45773316 .20799256 .45773316 .20999146 .46472169 .21199036 .46772767 .25 .5856476 .3019867 .6516113 .45799256 .6516113H.62098696L.06199646 .026992798C.06199646 .025985718 .057998659 .011993408 .057998659 .008987427 .057998659 0 .06498718 0 .08299255 0H.5179901C.5419922 0 .54299929 .0009918213 .548996 .019989014L.6199951 .24085999C.62098696 .24485779 .6239929 .25186158 .6239929 .25585938 .6239929 .260849 .6199951 .2668457 .61099246 .2668457 .60198977 .2668457 .6009979 .2628479 .59399417 .24186707 .5499878 .10594177 .5019989 .033996583 .33198548 .033996583H.16099549L.7200012 .6586151Z"/>
<path id="font_1_3" d="M.5970001 .5686493 .61099246 .5826416C.6409912 .6126251 .673996 .64660647 .74198916 .6516113 .7529907 .65260317 .7619934 .65260317 .7619934 .6706085 .7619934 .6786041 .7569885 .6826172 .7489929 .6826172 .72299197 .6826172 .69400027 .6796112 .6669922 .6796112 .6339874 .6796112 .598999 .6826172 .5669861 .6826172 .5609894 .6826172 .5479889 .6826172 .5479889 .66360476 .5479889 .65260317 .55799868 .6516113 .5629883 .6516113 .56999209 .6516113 .598999 .6496124 .598999 .62861636 .598999 .6116333 .57598879 .5856476 .57199099 .5806427L.33999635 .31381227 .22999573 .6106262C.22399903 .62461856 .22399903 .62661746 .22399903 .6276245 .22399903 .6516113 .272995 .6516113 .2829895 .6516113 .29699708 .6516113 .30699159 .6516113 .30699159 .6716156 .30699159 .6826172 .29499818 .6826172 .2919922 .6826172 .2639923 .6826172 .19400025 .6796112 .1659851 .6796112 .14099121 .6796112 .07899475 .6826172 .053985597 .6826172 .04798889 .6826172 .034988405 .6826172 .034988405 .6626129 .034988405 .6516113 .04499817 .6516113 .057998659 .6516113 .117996219 .6516113 .12199402 .64260867 .1309967 .61763L.2539978 .28883363C.25498963 .28582765 .2579956 .2748413 .2579956 .27183534 .2579956 .2688446 .21798706 .107940677 .21299744 .08995056 .19999695 .034988405 .19898987 .03199768 .11898804 .0309906 .099990848 .0309906 .09199524 .0309906 .09199524 .010986328 .09199524 0 .10398865 0 .10598755 0 .13398743 0 .20399475 .0029907227 .23199463 .0029907227 .2599945 .0029907227 .33198548 0 .3600006 0 .36698915 0 .3789978 0 .3789978 .019989014 .3789978 .0309906 .36999513 .0309906 .35099793 .0309906 .34899903 .0309906 .32998658 .0309906 .31298829 .032989503 .2919922 .034988405 .28599549 .036987306 .28599549 .048980714 .28599549 .05596924 .29499818 .09095764 .2999878 .11193848L.33499146 .2528534C.33999635 .27183534 .34098817 .2748413 .34899903 .28382875L.5970001 .5686493Z"/>
<path id="font_1_2" d="M.4850006 .41075135 .40098573 .6096344C.397995 .61763 .3959961 .6216278 .3959961 .6226196 .3959961 .62861636 .41299439 .6476135 .45498658 .6516113 .46499635 .65260317 .47499085 .6536102 .47499085 .6706085 .47499085 .6826172 .46299745 .6826172 .45999146 .6826172 .4189911 .6826172 .37599183 .6796112 .33399964 .6796112 .30899049 .6796112 .24699402 .6826172 .22200012 .6826172 .21598816 .6826172 .20399475 .6826172 .20399475 .6626129 .20399475 .6516113 .21398926 .6516113 .22698975 .6516113 .2869873 .6516113 .29299928 .6416168 .3019867 .6196289L.41999818 .34080506 .20899964 .11393738 .19599915 .10295105C.14698792 .049987794 .099990848 .033996583 .04899597 .0309906 .035995485 .02999878 .026992798 .02999878 .026992798 .010986328 .026992798 .009994507 .026992798 0 .039993287 0 .069992069 0 .102996829 .0029907227 .13398743 .0029907227 .17098999 .0029907227 .20999146 0 .24598694 0 .2519989 0 .2639923 0 .2639923 .019989014 .2639923 .02999878 .2539978 .0309906 .2519989 .0309906 .24299622 .03199768 .21199036 .033996583 .21199036 .061965944 .21199036 .07795715 .22698975 .093948367 .23899842 .10694885L.34098817 .21487427 .43099977 .31282044 .5319977 .07395935C.5359955 .06297302 .5369873 .061965944 .5369873 .05996704 .5369873 .051986696 .5179901 .034988405 .47898866 .0309906 .46798707 .02999878 .45899964 .0289917 .45899964 .011993408 .45899964 0 .46998597 0 .47399903 0 .5019989 0 .57199099 .0029907227 .59999087 .0029907227 .625 .0029907227 .6859894 0 .71099856 0 .71798709 0 .7299957 0 .7299957 .018997193 .7299957 .0309906 .7200012 .0309906 .71199038 .0309906 .644989 .03199768 .6429901 .034988405 .6259918 .07496643 .58699038 .16790772 .519989 .32380677 .49699403 .3837738 .5649872 .45373536 .66999819 .5726471 .70199587 .6006317 .73098757 .62461856 .7689972 .64860537 .82899478 .6516113 .84199526 .65260317 .8509979 .65260317 .8509979 .6716156 .8509979 .6726074 .8509979 .6826172 .83799746 .6826172 .80799868 .6826172 .7749939 .6796112 .74398806 .6796112 .70700076 .6796112 .6689911 .6826172 .6329956 .6826172 .6269989 .6826172 .6139984 .6826172 .6139984 .6626129 .6139984 .65560916 .61898806 .65260317 .6259918 .6516113 .6349945 .65060427 .66600039 .64860537 .66600039 .6206207 .66600039 .6066284 .6549988 .5936432 .6469879 .5846405L.4850006 .41075135Z"/>
<path id="font_2_1" d="M.61099246 .6046295C.61099246 .6456146 .61099246 .6516113 .6879883 .6516113 .70700076 .6516113 .71398928 .6516113 .71398928 .66760256 .71398928 .6826172 .70399478 .6826172 .69699099 .6826172 .6689911 .6826172 .5970001 .6796112 .56900027 .6796112 .5479889 .6796112 .526001 .680603 .5049896 .680603 .48399354 .680603 .46199037 .6826172 .44099427 .6826172 .43399049 .6826172 .42399598 .6826172 .42399598 .66760256 .42399598 .6516113 .42999269 .6516113 .45498658 .6516113 .5269928 .6516113 .5269928 .64460757 .5269928 .6046295V.0309906H.22200012V.6046295C.22200012 .6456146 .22200012 .6516113 .29899598 .6516113 .31799317 .6516113 .32499696 .6516113 .32499696 .66760256 .32499696 .6826172 .31498719 .6826172 .30799867 .6826172 .27999879 .6826172 .20799256 .6796112 .17999268 .6796112 .15899658 .6796112 .13699341 .680603 .115997318 .680603 .09498596 .680603 .07299805 .6826172 .051986696 .6826172 .04499817 .6826172 .034988405 .6826172 .034988405 .66760256 .034988405 .6516113 .040985109 .6516113 .06599426 .6516113 .13798523 .6516113 .13798523 .64460757 .13798523 .6046295V.07795715C.13798523 .036987306 .13798523 .0309906 .06098938 .0309906 .041992189 .0309906 .034988405 .0309906 .034988405 .01499939 .034988405 0 .041992189 0 .06298828 0H.6859894C.70700076 0 .71398928 0 .71398928 .01499939 .71398928 .0309906 .70799258 .0309906 .68299868 .0309906 .61099246 .0309906 .61099246 .037994386 .61099246 .07795715V.6046295Z"/>
<path id="font_3_1" d="M.7829895 .6436157C.79100039 .6516113 .7969971 .6586151 .7969971 .6716156 .7969971 .6826172 .78900149 .6826172 .769989 .6826172H.30299378C.2769928 .6826172 .27598573 .6816101 .269989 .6626129L.21398926 .4827118C.20999146 .47071839 .20999146 .46972657 .20999146 .46672059 .20999146 .46173097 .21398926 .45272828 .22698975 .45272828 .23999024 .45272828 .24198914 .45872499 .24499512 .46871949 .29299928 .6096344 .37098695 .64660647 .5 .64660647H.6799927L.09700012 .04399109C.08999634 .036987306 .07998657 .026992798 .07998657 .010986328 .07998657 0 .08898926 0 .10699463 0H.59098818C.61698916 0 .6179962 .0009918213 .6239929 .019989014L.69599917 .24285889C.69999697 .25585938 .69999697 .25785829 .69999697 .2588501 .69999697 .25985719 .69999697 .2728424 .6839905 .2728424 .67099 .2728424 .6689911 .2688446 .6619873 .24685669 .6159973 .109954837 .5649872 .039993287 .3909912 .039993287H.19999695L.7829895 .6436157Z"/>
<path id="font_1_1" d="M.9169922 .5666046C.94200137 .61061099 .96598818 .64660647 1.0289917 .6516113 1.0379944 .65260317 1.0479889 .65260317 1.0479889 .6716156 1.0479889 .6756134 1.0439911 .6826172 1.0359955 .6826172 1.0119934 .6826172 .98399356 .6796112 .95899966 .6796112 .9249878 .6796112 .8880005 .6826172 .8549957 .6826172 .848999 .6826172 .83599856 .6826172 .83599856 .66360476 .83599856 .65260317 .8450012 .6516113 .8509979 .6516113 .875 .65060427 .9099884 .64260867 .9099884 .61260989 .9099884 .6016083 .9049988 .5935974 .8969879 .5796051L.6269989 .108551029 .58999636 .604599C.58898928 .6246033 .58699038 .65060427 .6599884 .6516113 .6769867 .6516113 .68699648 .6516113 .68699648 .6716156 .68699648 .6816101 .6759949 .6826172 .6719971 .6826172 .6319885 .6826172 .58999636 .6796112 .5499878 .6796112 .5269928 .6796112 .46798707 .6826172 .44499208 .6826172 .43899537 .6826172 .42599488 .6826172 .42599488 .6626129 .42599488 .6516113 .43598939 .6516113 .44999696 .6516113 .49398805 .6516113 .5009918 .6456146 .5029907 .6266022L.5089874 .54959109 .2559967 .108551029 .21798706 .6156006C.21798706 .62760928 .21798706 .65060427 .2939911 .6516113 .3039856 .6516113 .31498719 .6516113 .31498719 .6716156 .31498719 .6826172 .30299378 .6826172 .30099488 .6826172 .26098634 .6826172 .21899414 .6796112 .17799378 .6796112 .14299011 .6796112 .10699463 .6826172 .07299805 .6826172 .067993167 .6826172 .054992677 .6826172 .054992677 .66360476 .054992677 .6516113 .06399536 .6516113 .07998657 .6516113 .12998963 .6516113 .1309967 .64260867 .1329956 .61460879L.17799378 .0035247803C.1789856-.014465332 .17999268-.022460938 .19400025-.022460938 .20599365-.022460938 .20899964-.016464234 .21798706-.0014648438L.5119934 .5085907 .548996 .0035247803C.5509949-.017471314 .5529938-.022460938 .5649872-.022460938 .5779877-.022460938 .58399966-.012466431 .58898928-.0034637452L.9169922 .5666046Z"/>
<path id="font_4_1" d="M.21899414 .65885928C.21899414 .69485476 .18798828 .7138672 .1619873 .7138672 .1329956 .7138672 .10398865 .69285586 .10398865 .65885928L.14299011 .21783448C.14498902 .1958313 .147995 .1938324 .1619873 .1938324 .1749878 .1938324 .17799378 .1958313 .17999268 .21684265L.21899414 .65885928M.21899414 .057998659C.21899414 .08898926 .19299317 .114990238 .1619873 .114990238 .1269989 .114990238 .10398865 .08699036 .10398865 .057998659 .10398865 .022994996 .13198853 0 .16099549 0 .19400025 0 .21899414 .024993897 .21899414 .057998659Z"/>
</defs>
<use data-text="Z" xlink:href="#font_1_4" transform="matrix(9.963397,0,0,-9.963098,1.9510346,8.058807)"/>
<use data-text="Y" xlink:href="#font_1_3" transform="matrix(9.963397,0,0,-9.963098,56.403398,8.058807)"/>
<use data-text="X" xlink:href="#font_1_2" transform="matrix(9.963397,0,0,-9.963098,1.1899719,40.100408)"/>
<use data-text="X" xlink:href="#font_1_2" transform="matrix(9.963397,0,0,-9.963098,42.727296,40.100408)"/>
<use data-text="&#x2a3f;" xlink:href="#font_2_1" transform="matrix(9.963397,0,0,-9.963098,53.978197,40.100408)"/>
<use data-text="Z" xlink:href="#font_3_1" transform="matrix(6.974358,0,0,-6.9741489,61.45079,41.59548)"/>
<use data-text="Y" xlink:href="#font_1_3" transform="matrix(9.963397,0,0,-9.963098,70.07948,40.100408)"/>
<use data-text="W" xlink:href="#font_1_1" transform="matrix(9.963397,0,0,-9.963098,110.5797,73.637088)"/>
<path transform="matrix(1.00008,0,0,-1.00005,61.282777,37.44327)" stroke-width=".39848" stroke-linecap="butt" stroke-miterlimit="10" stroke-linejoin="miter" fill="none" stroke="#000000" d="M-47.31915 31.87457H-9.76929"/>
<path transform="matrix(1.00008,0,0,-1.00005,51.71196,5.567108)" stroke-width=".39848" stroke-linecap="round" stroke-linejoin="round" fill="none" stroke="#000000" d="M-2.07213 2.39091C-1.69356 .95633-.84995 .27893 0 0-.84995-.27893-1.69356-.95633-2.07213-2.39091"/>
<path transform="matrix(1.00008,0,0,-1.00005,61.282777,37.44327)" stroke-width=".39848" stroke-linecap="butt" stroke-miterlimit="10" stroke-linejoin="miter" fill="none" stroke="#000000" d="M-55.56915 25.53476V8.39873"/>
<path transform="matrix(0,1.00005,1.00008,0,5.7091829,29.243382)" stroke-width=".39848" stroke-linecap="round" stroke-linejoin="round" fill="none" stroke="#000000" d="M-2.07213 2.39091C-1.69356 .95633-.84995 .27893 0 0-.84995-.27893-1.69356-.95633-2.07213-2.39091"/>
<path transform="matrix(1.00008,0,0,-1.00005,61.282777,37.44327)" stroke-width=".39848" stroke-linecap="butt" stroke-miterlimit="10" stroke-linejoin="miter" fill="none" stroke="#000000" d="M-.87866 25.53476V8.39873"/>
<path transform="matrix(0,1.00005,1.00008,0,60.404047,29.243382)" stroke-width=".39848" stroke-linecap="round" stroke-linejoin="round" fill="none" stroke="#000000" d="M-2.07213 2.39091C-1.69356 .95633-.84995 .27893 0 0-.84995-.27893-1.69356-.95633-2.07213-2.39091"/>
<path transform="matrix(1.00008,0,0,-1.00005,61.282777,37.44327)" stroke-width=".39848" stroke-linecap="butt" stroke-miterlimit="10" stroke-linejoin="miter" fill="none" stroke="#000000" d="M4.49278 25.53476 47.5175-25.23079"/>
<path transform="matrix(.64656177,.7628681,.76289108,-.6465423,108.93289,62.82732)" stroke-width=".39848" stroke-linecap="round" stroke-linejoin="round" fill="none" stroke="#000000" d="M-2.07213 2.39091C-1.69356 .95633-.84995 .27893 0 0-.84995-.27893-1.69356-.95633-2.07213-2.39091"/>
<path transform="matrix(1.00008,0,0,-1.00005,61.282777,37.44327)" stroke-width=".39848" stroke-linecap="butt" stroke-miterlimit="10" stroke-linejoin="miter" fill="none" stroke="#000000" d="M-46.55812-.16605H-23.44452"/>
<path transform="matrix(1.00008,0,0,-1.00005,38.035646,37.60933)" stroke-width=".39848" stroke-linecap="round" stroke-linejoin="round" fill="none" stroke="#000000" d="M-2.07213 2.39091C-1.69356 .95633-.84995 .27893 0 0-.84995-.27893-1.69356-.95633-2.07213-2.39091"/>
<path transform="matrix(1.00008,0,0,-1.00005,61.282777,37.44327)" stroke-width=".39848" stroke-linecap="butt" stroke-miterlimit="10" stroke-linejoin="miter" fill="none" stroke="#000000" d="M-46.55812-2.90457 44.41957-30.5782"/>
<path transform="matrix(.95675656,.29101456,.29102329,-.9567278,105.896518,68.08095)" stroke-width=".39848" stroke-linecap="round" stroke-linejoin="round" fill="none" stroke="#000000" d="M-2.07213 2.39091C-1.69356 .95633-.84995 .27893 0 0-.84995-.27893-1.69356-.95633-2.07213-2.39091"/>
<path transform="matrix(1.00008,0,0,-1.00005,61.282777,37.44327)" stroke-width=".39848" stroke-linecap="butt" stroke-miterlimit="10" stroke-linejoin="miter" fill="none" stroke="#000000" d="M12.10017-8.00024 44.45964-27.53186"/>
<path transform="matrix(.85617849,.51676586,.51678135,-.8561527,105.916538,65.07945)" stroke-width=".39848" stroke-linecap="round" stroke-linejoin="round" fill="none" stroke="#000000" d="M-2.07213 2.39091C-1.69356 .95633-.84995 .27893 0 0-.84995-.27893-1.69356-.95633-2.07213-2.39091"/>
<path transform="matrix(1.00008,0,0,-1.00005,61.282777,37.44327)" d="M25.17577-22.43745H31.72517V-13.30052H25.17577Z" fill="#ffffff"/>
<use data-text="!" xlink:href="#font_4_1" transform="matrix(6.974358,0,0,-6.9741489,88.60796,57.734289)"/>
</svg>
