<svg xmlns="http://www.w3.org/2000/svg" xmlns:xlink="http://www.w3.org/1999/xlink" xmlns:inkscape="http://www.inkscape.org/namespaces/inkscape" version="1.1" width="262" height="51" viewBox="0 0 262 51">
<defs>
<path id="font_1_1" d="M.19198609 .2502594C.19198609 .2792511 .16799927 .30325318 .13899231 .30325318 .10998535 .30325318 .085998538 .2792511 .085998538 .2502594 .085998538 .22125244 .10998535 .19726563 .13899231 .19726563 .16799927 .19726563 .19198609 .22125244 .19198609 .2502594Z"/>
<path id="font_2_1" d="M.7599945 .69506838C.7599945 .69807437 .7579956 .7050781 .7489929 .7050781 .74598696 .7050781 .7449951 .70407107 .73399356 .69306948L.6639862 .61602786C.6549988 .6300354 .60899356 .7050781 .49798585 .7050781 .2749939 .7050781 .049987794 .48391725 .049987794 .25172425 .049987794 .08659363 .16799927-.022460938 .32099916-.022460938 .4079895-.022460938 .48399354 .017532349 .5369873 .063583377 .6299896 .14564514 .6469879 .2367096 .6469879 .23971558 .6469879 .24972534 .6369934 .24972534 .6349945 .24972534 .6289978 .24972534 .6239929 .24772644 .621994 .23971558 .61299136 .21069336 .58999636 .13963318 .5209961 .081588748 .45199586 .025543213 .3889923 .008529663 .33699037 .008529663 .24699402 .008529663 .14099121 .060577394 .14099121 .21670532 .14099121 .27374269 .1619873 .43588258 .2619934 .55296328 .32299806 .62402346 .4169922 .67407229 .5059967 .67407229 .60798647 .67407229 .6669922 .5970001 .6669922 .48091126 .6669922 .44088746 .6639862 .43988038 .6639862 .4298706 .6639862 .41986085 .6749878 .41986085 .67900088 .41986085 .69200137 .41986085 .69200137 .42185975 .69699099 .43988038L.7599945 .69506838Z"/>
<path id="font_3_5" d="M.12199402 .06324768C.117996219 .050247194 .11199951 .025222779 .11199951 .022232056 .11199951 .00022888184 .12998963-.009765625 .1459961-.009765625 .1639862-.009765625 .17999268 .0032196046 .18499756 .01222229 .18998719 .021224976 .19799805 .053237916 .20298767 .07424927 .20799256 .09326172 .21899414 .13928223 .22499085 .16429138 .23098755 .18629456 .23699951 .20831299 .24198914 .23132324 .25299073 .27233888 .25498963 .28033448 .28399659 .32136537 .31199647 .3613739 .35899354 .4133911 .43399049 .4133911 .49198915 .4133911 .49299623 .36238099 .49299623 .34336854 .49299623 .28334046 .44999696 .17228699 .43399049 .13027954 .4229889 .102264408 .4189911 .09326172 .4189911 .07624817 .4189911 .023223877 .46299745-.009765625 .5139923-.009765625 .6139984-.009765625 .6579895 .12828064 .6579895 .14328003 .6579895 .15628052 .644989 .15628052 .6419983 .15628052 .6279907 .15628052 .6269989 .15028382 .6230011 .13928223 .59999087 .059249879 .5569916 .018234253 .5169983 .018234253 .49598695 .018234253 .49198915 .032226564 .49198915 .053237916 .49198915 .07624817 .49699403 .089263919 .5149994 .13427735 .5269928 .1652832 .56799319 .2713318 .56799319 .32736207 .56799319 .4243927 .4909973 .44140626 .43798829 .44140626 .35499574 .44140626 .29899598 .39038087 .2689972 .3503723 .2619934 .41940309 .20298767 .44140626 .1619873 .44140626 .11898804 .44140626 .09599304 .4104004 .08299255 .38739015 .06098938 .3503723 .04699707 .29335023 .04699707 .28834535 .04699707 .27534486 .06098938 .27534486 .06399536 .27534486 .07798767 .27534486 .07899475 .27833558 .085998538 .3053589 .100997928 .36437989 .11999512 .4133911 .15899658 .4133911 .18499756 .4133911 .19198609 .39138795 .19198609 .36437989 .19198609 .34536744 .18299866 .3083496 .17599488 .28134156 .16899109 .2543335 .15899658 .21331787 .1539917 .19129944L.12199402 .06324768Z"/>
<path id="font_4_1" d="M.46299745 .2263794H.7689972C.7819977 .2263794 .80599978 .2263794 .80599978 .25038148 .80599978 .27539063 .7829895 .27539063 .7689972 .27539063H.46299745V.5821533C.46299745 .59513857 .46299745 .6191406 .43899537 .6191406 .4139862 .6191406 .4139862 .5961304 .4139862 .5821533V.27539063H.10699463C.09399414 .27539063 .069992069 .27539063 .069992069 .25138856 .069992069 .2263794 .09298706 .2263794 .10699463 .2263794H.4139862V-.08114624C.4139862-.09416199 .4139862-.11816406 .43798829-.11816406 .46299745-.11816406 .46299745-.09516907 .46299745-.08114624V.2263794Z"/>
<path id="font_4_2" d="M.33499146 .63612368C.33499146 .6630554 .33299256 .6640625 .30499269 .6640625 .24099732 .6014404 .1499939 .6004486 .10899353 .6004486V.5644531C.1329956 .5644531 .19898987 .5644531 .2539978 .592453V.08203125C.2539978 .04899597 .2539978 .035995485 .1539917 .035995485H.115997318V0C.13398743 .0009918213 .25698854 .0039978029 .2939911 .0039978029 .32499696 .0039978029 .45098878 .0009918213 .47299195 0V.035995485H.43499757C.33499146 .035995485 .33499146 .04899597 .33499146 .08203125V.63612368Z"/>
<path id="font_5_1" d="M.33099366-.2400055C.33099366-.23701477 .33099366-.23500061 .31399537-.21800232 .18899536-.0920105 .15699768 .09700012 .15699768 .25 .15699768 .42399598 .19499207 .59799197 .31799317 .72299197 .33099366 .73498538 .33099366 .7369995 .33099366 .73999026 .33099366 .746994 .32699586 .75 .32099916 .75 .31098939 .75 .22099304 .6819916 .1619873 .5549927 .11099243 .44499208 .09899902 .33399964 .09899902 .25 .09899902 .17199707 .10998535 .050994874 .16499329-.06201172 .22499085-.18501282 .31098939-.25 .32099916-.25 .32699586-.25 .33099366-.24700928 .33099366-.2400055Z"/>
<path id="font_2_2" d="M.4850006 .41075135 .40098573 .6096344C.397995 .61763 .3959961 .6216278 .3959961 .6226196 .3959961 .62861636 .41299439 .6476135 .45498658 .6516113 .46499635 .65260317 .47499085 .6536102 .47499085 .6706085 .47499085 .6826172 .46299745 .6826172 .45999146 .6826172 .4189911 .6826172 .37599183 .6796112 .33399964 .6796112 .30899049 .6796112 .24699402 .6826172 .22200012 .6826172 .21598816 .6826172 .20399475 .6826172 .20399475 .6626129 .20399475 .6516113 .21398926 .6516113 .22698975 .6516113 .2869873 .6516113 .29299928 .6416168 .3019867 .6196289L.41999818 .34080506 .20899964 .11393738 .19599915 .10295105C.14698792 .049987794 .099990848 .033996583 .04899597 .0309906 .035995485 .02999878 .026992798 .02999878 .026992798 .010986328 .026992798 .009994507 .026992798 0 .039993287 0 .069992069 0 .102996829 .0029907227 .13398743 .0029907227 .17098999 .0029907227 .20999146 0 .24598694 0 .2519989 0 .2639923 0 .2639923 .019989014 .2639923 .02999878 .2539978 .0309906 .2519989 .0309906 .24299622 .03199768 .21199036 .033996583 .21199036 .061965944 .21199036 .07795715 .22698975 .093948367 .23899842 .10694885L.34098817 .21487427 .43099977 .31282044 .5319977 .07395935C.5359955 .06297302 .5369873 .061965944 .5369873 .05996704 .5369873 .051986696 .5179901 .034988405 .47898866 .0309906 .46798707 .02999878 .45899964 .0289917 .45899964 .011993408 .45899964 0 .46998597 0 .47399903 0 .5019989 0 .57199099 .0029907227 .59999087 .0029907227 .625 .0029907227 .6859894 0 .71099856 0 .71798709 0 .7299957 0 .7299957 .018997193 .7299957 .0309906 .7200012 .0309906 .71199038 .0309906 .644989 .03199768 .6429901 .034988405 .6259918 .07496643 .58699038 .16790772 .519989 .32380677 .49699403 .3837738 .5649872 .45373536 .66999819 .5726471 .70199587 .6006317 .73098757 .62461856 .7689972 .64860537 .82899478 .6516113 .84199526 .65260317 .8509979 .65260317 .8509979 .6716156 .8509979 .6726074 .8509979 .6826172 .83799746 .6826172 .80799868 .6826172 .7749939 .6796112 .74398806 .6796112 .70700076 .6796112 .6689911 .6826172 .6329956 .6826172 .6269989 .6826172 .6139984 .6826172 .6139984 .6626129 .6139984 .65560916 .61898806 .65260317 .6259918 .6516113 .6349945 .65060427 .66600039 .64860537 .66600039 .6206207 .66600039 .6066284 .6549988 .5936432 .6469879 .5846405L.4850006 .41075135Z"/>
<path id="font_5_2" d="M.2889862 .25C.2889862 .32798768 .27799989 .44898988 .22299195 .56199648 .16299439 .68499758 .07699585 .75 .066986087 .75 .06098938 .75 .056991579 .74598696 .056991579 .73999026 .056991579 .7369995 .056991579 .73498538 .07598877 .71699526 .17399597 .6179962 .23098755 .45899964 .23098755 .25 .23098755 .07899475 .19400025-.09700012 .069992069-.2230072 .056991579-.23500061 .056991579-.23701477 .056991579-.2400055 .056991579-.2460022 .06098938-.25 .066986087-.25 .07699585-.25 .16699219-.18200684 .22599793-.055007936 .2769928 .054992677 .2889862 .16600037 .2889862 .25Z"/>
<path id="font_6_1" d="M.74398806 .2263794C.7599945 .2263794 .7839966 .2263794 .7839966 .25038148 .7839966 .27539063 .7609863 .27539063 .74398806 .27539063H.147995C.13198853 .27539063 .10798645 .27539063 .10798645 .25138856 .10798645 .2263794 .1309967 .2263794 .147995 .2263794H.74398806Z"/>
<path id="font_2_3" d="M.5970001 .5686493 .61099246 .5826416C.6409912 .6126251 .673996 .64660647 .74198916 .6516113 .7529907 .65260317 .7619934 .65260317 .7619934 .6706085 .7619934 .6786041 .7569885 .6826172 .7489929 .6826172 .72299197 .6826172 .69400027 .6796112 .6669922 .6796112 .6339874 .6796112 .598999 .6826172 .5669861 .6826172 .5609894 .6826172 .5479889 .6826172 .5479889 .66360476 .5479889 .65260317 .55799868 .6516113 .5629883 .6516113 .56999209 .6516113 .598999 .6496124 .598999 .62861636 .598999 .6116333 .57598879 .5856476 .57199099 .5806427L.33999635 .31381227 .22999573 .6106262C.22399903 .62461856 .22399903 .62661746 .22399903 .6276245 .22399903 .6516113 .272995 .6516113 .2829895 .6516113 .29699708 .6516113 .30699159 .6516113 .30699159 .6716156 .30699159 .6826172 .29499818 .6826172 .2919922 .6826172 .2639923 .6826172 .19400025 .6796112 .1659851 .6796112 .14099121 .6796112 .07899475 .6826172 .053985597 .6826172 .04798889 .6826172 .034988405 .6826172 .034988405 .6626129 .034988405 .6516113 .04499817 .6516113 .057998659 .6516113 .117996219 .6516113 .12199402 .64260867 .1309967 .61763L.2539978 .28883363C.25498963 .28582765 .2579956 .2748413 .2579956 .27183534 .2579956 .2688446 .21798706 .107940677 .21299744 .08995056 .19999695 .034988405 .19898987 .03199768 .11898804 .0309906 .099990848 .0309906 .09199524 .0309906 .09199524 .010986328 .09199524 0 .10398865 0 .10598755 0 .13398743 0 .20399475 .0029907227 .23199463 .0029907227 .2599945 .0029907227 .33198548 0 .3600006 0 .36698915 0 .3789978 0 .3789978 .019989014 .3789978 .0309906 .36999513 .0309906 .35099793 .0309906 .34899903 .0309906 .32998658 .0309906 .31298829 .032989503 .2919922 .034988405 .28599549 .036987306 .28599549 .048980714 .28599549 .05596924 .29499818 .09095764 .2999878 .11193848L.33499146 .2528534C.33999635 .27183534 .34098817 .2748413 .34899903 .28382875L.5970001 .5686493Z"/>
<path id="font_3_1" d="M.5249939 .33813478C.5109863 .3960724 .46598817 .4560547 .37199403 .4560547 .23199463 .4560547 .115997318 .35112 .07998657 .2612152 .07398987 .24423218 .05999756 .20327759 .05999756 .16331482 .05999756 .09437561 .11399841-.01953125 .269989-.01953125 .5289917-.01953125 .6339874 .30317689 .6339874 .4450531 .6339874 .61631777 .5219879 .7138672 .3880005 .7138672 .22499085 .7138672 .17999268 .58436587 .17999268 .55336 .17999268 .5453644 .18499756 .5173645 .21998596 .5173645 .25498963 .5173645 .27598573 .54837039 .27598573 .57237246 .27598573 .59936526 .2559967 .6083679 .23699951 .6103668 .2869873 .6848602 .36898805 .6848602 .38598634 .6848602 .46099855 .6848602 .5499878 .63816836 .5499878 .4962616 .5499878 .4530487 .54499819 .4180603 .526001 .33813478H.5249939M.27198792 .012466431C.15899658 .012466431 .1459961 .09738159 .1459961 .12834168 .1459961 .16731262 .17298889 .265213 .18299866 .29019166 .20098877 .33613587 .2630005 .42803956 .37599183 .42803956 .47299195 .42803956 .5049896 .35212709 .5049896 .2921753 .5049896 .22525025 .43998719 .012466431 .27198792 .012466431Z"/>
<path id="font_3_3" d="M.40699769 .39465333H.5049896C.5249939 .39465333 .5379944 .39465333 .5379944 .4166565 .5379944 .43066407 .5249939 .43066407 .5069885 .43066407H.4139862C.43699647 .5580139 .44499208 .6040497 .45298768 .63305667 .45799256 .6550598 .47999574 .6760864 .5039978 .6760864 .5049896 .6760864 .5319977 .6760864 .5509949 .6640625 .5099945 .651062 .5069885 .61505129 .5069885 .60905459 .5069885 .5870514 .5239868 .572052 .5469971 .572052 .57398989 .572052 .60398867 .59506228 .60398867 .63305667 .60398867 .6790924 .5549927 .70410159 .5039978 .70410159 .45999146 .70410159 .41099549 .6790924 .38398744 .62905886 .3639984 .5920563 .35598756 .5469818 .33499146 .43066407H.2559967C.23599243 .43066407 .22299195 .43066407 .22299195 .4086609 .22299195 .39465333 .23599243 .39465333 .2539978 .39465333H.32798768C.32699586 .38865663 .2639923 .028869629 .23999024-.078063968 .23498535-.10006714 .21798706-.17610169 .16999817-.17610169 .16899109-.17610169 .14498902-.17610169 .12599182-.1640625 .16699219-.15107727 .16999817-.11506653 .16999817-.109069827 .16999817-.08706665 .15299988-.07206726 .12998963-.07206726 .102996829-.07206726 .07299805-.095077518 .07299805-.1330719 .07299805-.17811585 .11999512-.20410156 .16999817-.20410156 .23399353-.20410156 .27799989-.13807678 .2899933-.11607361 .32598878-.049087526 .34899903 .07385254 .35099793 .08584595L.40699769 .39465333Z"/>
<path id="font_7_1" d="M.3809967-.023864747V-.12182617C.3809967-.1388092 .3809967-.15480042 .397995-.15480042 .3999939-.15480042 .4139862-.15180969 .4189911-.14581299 .4229889-.1408081 .4229889-.1368103 .4229889-.11882019V-.010879517C.43399049-.007873535 .44699098-.0038757325 .45700074 .00012207031 .47200013 .0051116945 .47200013 .009109497 .47200013 .033096315V.064086917C.47200013 .08308411 .47200013 .097076419 .45498658 .097076419 .44799806 .097076419 .42900086 .09007263 .4229889 .08807373V.41990663C.43399049 .4229126 .44699098 .4269104 .45700074 .4309082 .47200013 .43589784 .47200013 .43989564 .47200013 .46388246V.49487306C.47200013 .513855 .47200013 .5278473 .45498658 .5278473 .44799806 .5278473 .42900086 .52085879 .4229889 .51885989V.68577578C.4229889 .7027588 .4229889 .71777346 .4059906 .71777346 .40499879 .71777346 .3899994 .7157593 .3849945 .7097626 .3809967 .70477297 .3809967 .7007599 .3809967 .6827698V.5058594L.21598816 .45489503V.6218109C.21598816 .63879397 .21598816 .65478518 .19898987 .65478518 .19699097 .65478518 .18299866 .65179446 .17799378 .6457977 .17399597 .64079287 .17399597 .63679507 .17399597 .61880496V.44189454C.16299439 .4389038 .14898682 .434906 .13999939 .4309082 .125 .42590333 .125 .41990663 .125 .3979187V.3669281C.125 .34794618 .125 .33395387 .14199829 .33395387 .14898682 .33395387 .16799927 .34094239 .17399597 .34294129V.011108398C.16299439 .008117676 .14898682 .004119873 .13999939 .00012207031 .125-.0048828127 .125-.010879517 .125-.03286743V-.06384277C.125-.082839969 .125-.096832279 .14199829-.096832279 .14898682-.096832279 .16799927-.08982849 .17399597-.08782959V-.18579102C.17399597-.20277405 .17399597-.21777344 .19099427-.21777344 .19198609-.21777344 .20698548-.21577454 .21199036-.20977783 .21598816-.20478821 .21598816-.20077515 .21598816-.18278504V-.07484436L.3809967-.023864747M.3809967 .4069214V.0750885L.21598816 .024108887V.35594178L.3809967 .4069214Z"/>
<path id="font_3_4" d="M.5319977 .36935426C.5359955 .3843689 .5359955 .38937379 .5359955 .39038087 .5359955 .4123993 .5179901 .4223938 .5019989 .4223938 .47898866 .4223938 .45999146 .4033966 .45599366 .3843689 .43899537 .4113922 .40499879 .44140626 .35299684 .44140626 .22799683 .44140626 .09700012 .3072815 .09700012 .1641388 .09700012 .061019899 .16699219 0 .24899292 0 .29499818 0 .33898927 .022994996 .37399293 .054016115L.35198976-.036026C.34098817-.07803345 .33399964-.105041507 .29599-.13903809 .2519989-.17610169 .20899964-.17610169 .18399048-.17610169 .13798523-.17610169 .125-.17308045 .10699463-.16903687 .13198853-.15704346 .13899231-.13304138 .13899231-.11903381 .13899231-.09503174 .11999512-.08203125 .099990848-.08203125 .07199097-.08203125 .042999269-.105041507 .042999269-.14303589 .042999269-.20310974 .1289978-.20410156 .18499756-.20410156 .34199525-.20410156 .40899659-.1240387 .4229889-.06703186L.5319977 .36935426M.3939972 .13310242C.3899994 .11808777 .3899994 .11608887 .37298585 .096069339 .33799745 .054016115 .2899933 .027999878 .2519989 .027999878 .20098877 .027999878 .1769867 .07104492 .1769867 .12309265 .1769867 .16714478 .20399475 .2792511 .22999573 .32330323 .27198792 .39338685 .31900025 .4133911 .35299684 .4133911 .4229889 .4133911 .44198609 .33831788 .44198609 .3283081 .44198609 .3263092 .44198609 .3243103 .43899537 .31329347L.3939972 .13310242Z"/>
<path id="font_3_2" d="M.34098817 .30978395H.5219879C.69099429 .30978395 .83399966 .41773988 .83399966 .52667239 .83399966 .6106262 .7519989 .6826172 .61499026 .6826172H.2649994C.24499512 .6826172 .23298645 .6826172 .23298645 .660614 .23298645 .64660647 .24398804 .64660647 .2659912 .64660647 .28199769 .64660647 .28599549 .64660647 .3039856 .64460757 .32398988 .64260867 .32598878 .64060977 .32598878 .63061526 .32598878 .62861636 .32598878 .6236267 .32199098 .6086273L.18998719 .081954959C.17999268 .04298401 .1789856 .035995485 .100997928 .035995485 .08299255 .035995485 .070999149 .035995485 .070999149 .01399231 .070999149 .0129852299 .070999149 0 .08699036 0 .115997318 0 .18798828 .0039978029 .21699524 .0039978029 .23399353 .0039978029 .2689972 .0039978029 .28599549 .0029907227 .30599977 .0019989014 .33099366 0 .34999085 0 .35598756 0 .37098695 0 .37098695 .021987915 .37098695 .035995485 .35899354 .035995485 .33898927 .035995485 .33799745 .035995485 .31900025 .035995485 .30099488 .037994386 .27799989 .039993287 .27799989 .04298401 .27799989 .052978517 .27799989 .053985597 .27799989 .05996704 .28199769 .07496643L.34098817 .30978395M.41299439 .6126251C.42099 .6436157 .42199708 .64660647 .46398927 .64660647H.58099368C.673996 .64660647 .7319946 .6186218 .7319946 .54766848 .7319946 .51667788 .7200012 .43772889 .66999819 .39276124 .6339874 .3607788 .57699587 .34179688 .5049896 .34179688H.34498597L.41299439 .6126251Z"/>
<path id="font_7_2" d="M.19499207 .09828186C.18899536 .073272708 .17799378 .029251099 .17799378 .024246216 .17799378 .002243042 .19599915-.0107421879 .21499634-.0107421879 .22999573-.0107421879 .2519989-.002746582 .2630005 .022247315 .2639923 .027252198 .27598573 .07426453 .28199769 .10028076 .31599427 .23532105 .31599427 .23731995 .31799317 .24131775 .33099366 .2683258 .40299989 .40837098 .5249939 .40837098 .57398989 .40837098 .59498599 .38136292 .59498599 .3363495 .59498599 .27934266 .5529938 .17630005 .5299988 .119277957 .5249939 .107284549 .519989 .0942688 .519989 .07727051 .519989 .025253296 .56999209-.0107421879 .6289978-.0107421879 .73599246-.0107421879 .79100039 .119277957 .79100039 .14428711 .79100039 .15829468 .7739868 .15829468 .769989 .15829468 .7529907 .15829468 .7519989 .15429688 .74598696 .13528443 .72698977 .07527161 .68099978 .023254395 .6329956 .023254395 .6100006 .023254395 .6029968 .039260866 .6029968 .061264039 .6029968 .08227539 .6069946 .0922699 .6159973 .11427307 .6329956 .15429688 .67900088 .2683258 .67900088 .323349 .67900088 .39736939 .6259918 .4423828 .5309906 .4423828 .43998719 .4423828 .3769989 .38737489 .34199525 .34335328 .33699037 .42536927 .25698854 .4423828 .21998596 .4423828 .11999512 .4423828 .09098816 .28933717 .09098816 .28733827 .09098816 .2733307 .10699463 .2733307 .11199951 .2733307 .1289978 .2733307 .1309967 .27934266 .1349945 .29234315 .1499939 .35035707 .17298889 .40837098 .21499634 .40837098 .24899292 .40837098 .2559967 .3763733 .2559967 .35536195 .2559967 .34135438 .24598694 .30334474 .23999024 .2773285 .23298645 .25032044 .22299195 .20930481 .21798706 .18730164L.19499207 .09828186Z"/>
<path id="font_8_1" d="M.8799896 .2223053C.8959961 .2223053 .9229889 .2223053 .9229889 .25030519 .9229889 .2783203 .8959961 .2783203 .8799896 .2783203H.20298767C.18699646 .2783203 .1599884 .2783203 .1599884 .25030519 .1599884 .2223053 .18699646 .2223053 .20298767 .2223053H.8799896Z"/>
<path id="font_9_1" d="M.397995 .63591006C.397995 .6660156 .394989 .6660156 .3619995 .6660156 .29100038 .6016083 .17999268 .6016083 .1599884 .6016083H.14299011V.5576172H.1599884C.18299866 .5576172 .24798584 .5606079 .30599977 .58561709V.08596802C.30599977 .054977418 .30599977 .04399109 .19999695 .04399109H.1499939V0C.20498657 .0039978029 .2939911 .0039978029 .35198976 .0039978029 .4099884 .0039978029 .49899293 .0039978029 .55400088 0V.04399109H.5039978C.397995 .04399109 .397995 .054977418 .397995 .08596802V.63591006Z"/>
</defs>
<use data-text="&#x00b7;" xlink:href="#font_1_1" transform="matrix(9.963596,0,0,-9.963098,.1887207,11.42687)"/>
<use data-text="&#x00b7;" xlink:href="#font_1_1" transform="matrix(9.963596,0,0,-9.963098,4.6026,11.42687)"/>
<use data-text="&#x00b7;" xlink:href="#font_1_1" transform="matrix(9.963596,0,0,-9.963098,9.0264439,11.42687)"/>
<use data-text="C" xlink:href="#font_2_1" transform="matrix(9.963596,0,0,-9.963098,44.314149,11.42687)"/>
<use data-text="n" xlink:href="#font_3_5" transform="matrix(6.974498,0,0,-6.9741489,51.435853,12.920944)"/>
<use data-text="+" xlink:href="#font_4_1" transform="matrix(6.974498,0,0,-6.9741489,56.36133,12.920944)"/>
<use data-text="1" xlink:href="#font_4_2" transform="matrix(6.974498,0,0,-6.9741489,62.477968,12.920944)"/>
<use data-text="(" xlink:href="#font_5_1" transform="matrix(9.963596,0,0,-9.963098,66.94739,11.42687)"/>
<use data-text="X" xlink:href="#font_2_2" transform="matrix(9.963596,0,0,-9.963098,70.82175,11.42687)"/>
<use data-text=")" xlink:href="#font_5_2" transform="matrix(9.963596,0,0,-9.963098,79.85867,11.42687)"/>
<use data-text="C" xlink:href="#font_2_1" transform="matrix(9.963596,0,0,-9.963098,116.23534,11.42687)"/>
<use data-text="n" xlink:href="#font_3_5" transform="matrix(6.974498,0,0,-6.9741489,123.35603,12.920944)"/>
<use data-text="(" xlink:href="#font_5_1" transform="matrix(9.963596,0,0,-9.963098,128.77959,11.42687)"/>
<use data-text="X" xlink:href="#font_2_2" transform="matrix(9.963596,0,0,-9.963098,132.65499,11.42687)"/>
<use data-text=")" xlink:href="#font_5_2" transform="matrix(9.963596,0,0,-9.963098,141.69087,11.42687)"/>
<use data-text="C" xlink:href="#font_2_1" transform="matrix(9.963596,0,0,-9.963098,178.0675,11.42687)"/>
<use data-text="n" xlink:href="#font_3_5" transform="matrix(6.974498,0,0,-6.9741489,185.1882,12.920944)"/>
<use data-text="&#x2212;" xlink:href="#font_6_1" transform="matrix(6.974498,0,0,-6.9741489,190.11371,12.920944)"/>
<use data-text="1" xlink:href="#font_4_2" transform="matrix(6.974498,0,0,-6.9741489,196.34131,12.920944)"/>
<use data-text="(" xlink:href="#font_5_1" transform="matrix(9.963596,0,0,-9.963098,200.81076,11.42687)"/>
<use data-text="X" xlink:href="#font_2_2" transform="matrix(9.963596,0,0,-9.963098,204.68512,11.42687)"/>
<use data-text=")" xlink:href="#font_5_2" transform="matrix(9.963596,0,0,-9.963098,213.72205,11.42687)"/>
<use data-text="&#x00b7;" xlink:href="#font_1_1" transform="matrix(9.963596,0,0,-9.963098,250.09772,11.42687)"/>
<use data-text="&#x00b7;" xlink:href="#font_1_1" transform="matrix(9.963596,0,0,-9.963098,254.5116,11.42687)"/>
<use data-text="&#x00b7;" xlink:href="#font_1_1" transform="matrix(9.963596,0,0,-9.963098,258.93544,11.42687)"/>
<use data-text="&#x00b7;" xlink:href="#font_1_1" transform="matrix(9.963596,0,0,-9.963098,.1887207,46.623628)"/>
<use data-text="&#x00b7;" xlink:href="#font_1_1" transform="matrix(9.963596,0,0,-9.963098,4.6026,46.623628)"/>
<use data-text="&#x00b7;" xlink:href="#font_1_1" transform="matrix(9.963596,0,0,-9.963098,9.0264439,46.623628)"/>
<use data-text="C" xlink:href="#font_2_1" transform="matrix(9.963596,0,0,-9.963098,44.833208,46.623628)"/>
<use data-text="n" xlink:href="#font_3_5" transform="matrix(6.974498,0,0,-6.9741489,51.95491,48.117704)"/>
<use data-text="+" xlink:href="#font_4_1" transform="matrix(6.974498,0,0,-6.9741489,56.880388,48.117704)"/>
<use data-text="1" xlink:href="#font_4_2" transform="matrix(6.974498,0,0,-6.9741489,62.997026,48.117704)"/>
<use data-text="(" xlink:href="#font_5_1" transform="matrix(9.963596,0,0,-9.963098,67.466449,46.623628)"/>
<use data-text="Y" xlink:href="#font_2_3" transform="matrix(9.963596,0,0,-9.963098,71.340808,46.623628)"/>
<use data-text=")" xlink:href="#font_5_2" transform="matrix(9.963596,0,0,-9.963098,79.339618,46.623628)"/>
<use data-text="C" xlink:href="#font_2_1" transform="matrix(9.963596,0,0,-9.963098,116.754398,46.623628)"/>
<use data-text="n" xlink:href="#font_3_5" transform="matrix(6.974498,0,0,-6.9741489,123.87509,48.117704)"/>
<use data-text="(" xlink:href="#font_5_1" transform="matrix(9.963596,0,0,-9.963098,129.29865,46.623628)"/>
<use data-text="Y" xlink:href="#font_2_3" transform="matrix(9.963596,0,0,-9.963098,133.17404,46.623628)"/>
<use data-text=")" xlink:href="#font_5_2" transform="matrix(9.963596,0,0,-9.963098,141.17282,46.623628)"/>
<use data-text="C" xlink:href="#font_2_1" transform="matrix(9.963596,0,0,-9.963098,178.58655,46.623628)"/>
<use data-text="n" xlink:href="#font_3_5" transform="matrix(6.974498,0,0,-6.9741489,185.70725,48.117704)"/>
<use data-text="&#x2212;" xlink:href="#font_6_1" transform="matrix(6.974498,0,0,-6.9741489,190.63275,48.117704)"/>
<use data-text="1" xlink:href="#font_4_2" transform="matrix(6.974498,0,0,-6.9741489,196.86035,48.117704)"/>
<use data-text="(" xlink:href="#font_5_1" transform="matrix(9.963596,0,0,-9.963098,201.3298,46.623628)"/>
<use data-text="Y" xlink:href="#font_2_3" transform="matrix(9.963596,0,0,-9.963098,205.20417,46.623628)"/>
<use data-text=")" xlink:href="#font_5_2" transform="matrix(9.963596,0,0,-9.963098,213.20294,46.623628)"/>
<use data-text="&#x00b7;" xlink:href="#font_1_1" transform="matrix(9.963596,0,0,-9.963098,250.09772,46.623628)"/>
<use data-text="&#x00b7;" xlink:href="#font_1_1" transform="matrix(9.963596,0,0,-9.963098,254.5116,46.623628)"/>
<use data-text="&#x00b7;" xlink:href="#font_1_1" transform="matrix(9.963596,0,0,-9.963098,258.93544,46.623628)"/>
<path transform="matrix(1.0001,0,0,-1.00005,130.9578,26.534626)" stroke-width=".39848" stroke-linecap="butt" stroke-miterlimit="10" stroke-linejoin="miter" fill="none" stroke="#000000" d="M-114.6387 17.59776H-91.5251"/>
<path transform="matrix(1.0001,0,0,-1.00005,39.622797,8.935987)" stroke-width=".39848" stroke-linecap="round" stroke-linejoin="round" fill="none" stroke="#000000" d="M-2.07213 2.39091C-1.69356 .95633-.84995 .27893 0 0-.84995-.27893-1.69356-.95633-2.07213-2.39091"/>
<path transform="matrix(1.0001,0,0,-1.00005,130.9578,26.534626)" stroke-width=".39848" stroke-linecap="butt" stroke-miterlimit="10" stroke-linejoin="miter" fill="none" stroke="#000000" d="M-42.72472 17.59776H-19.61111"/>
<path transform="matrix(1.0001,0,0,-1.00005,111.54398,8.935987)" stroke-width=".39848" stroke-linecap="round" stroke-linejoin="round" fill="none" stroke="#000000" d="M-2.07213 2.39091C-1.69356 .95633-.84995 .27893 0 0-.84995-.27893-1.69356-.95633-2.07213-2.39091"/>
<use data-text="&#x2202;" xlink:href="#font_3_1" transform="matrix(6.974498,0,0,-6.9741489,97.64446,6.58963)"/>
<path transform="matrix(1.0001,0,0,-1.00005,130.9578,26.534626)" stroke-width=".39848" stroke-linecap="butt" stroke-miterlimit="10" stroke-linejoin="miter" fill="none" stroke="#000000" d="M-64.52109 8.76724V-8.36877"/>
<path transform="matrix(0,1.00005,1.0001,0,66.43025,35.103067)" stroke-width=".39848" stroke-linecap="round" stroke-linejoin="round" fill="none" stroke="#000000" d="M-2.07213 2.39091C-1.69356 .95633-.84995 .27893 0 0-.84995-.27893-1.69356-.95633-2.07213-2.39091"/>
<use data-text="f" xlink:href="#font_3_3" transform="matrix(6.974498,0,0,-6.9741489,68.77658,27.943696)"/>
<use data-text="&#x266f;" xlink:href="#font_7_1" transform="matrix(4.981798,0,0,-4.981549,72.66196,29.000748)"/>
<path transform="matrix(1.0001,0,0,-1.00005,130.9578,26.534626)" stroke-width=".39848" stroke-linecap="butt" stroke-miterlimit="10" stroke-linejoin="miter" fill="none" stroke="#000000" d="M-69.33026 8.76724V-8.36877"/>
<path transform="matrix(0,1.00005,1.0001,0,61.620599,35.103067)" stroke-width=".39848" stroke-linecap="round" stroke-linejoin="round" fill="none" stroke="#000000" d="M-2.07213 2.39091C-1.69356 .95633-.84995 .27893 0 0-.84995-.27893-1.69356-.95633-2.07213-2.39091"/>
<use data-text="g" xlink:href="#font_3_4" transform="matrix(6.974498,0,0,-6.9741489,51.913896,27.022652)"/>
<use data-text="&#x266f;" xlink:href="#font_7_1" transform="matrix(4.981798,0,0,-4.981549,55.80127,28.079705)"/>
<path transform="matrix(1.0001,0,0,-1.00005,130.9578,26.534626)" stroke-width=".39848" stroke-linecap="butt" stroke-miterlimit="10" stroke-linejoin="miter" fill="none" stroke="#000000" d="M19.10193 17.59776H42.21553"/>
<path transform="matrix(1.0001,0,0,-1.00005,173.37682,8.935987)" stroke-width=".39848" stroke-linecap="round" stroke-linejoin="round" fill="none" stroke="#000000" d="M-2.07213 2.39091C-1.69356 .95633-.84995 .27893 0 0-.84995-.27893-1.69356-.95633-2.07213-2.39091"/>
<use data-text="&#x2202;" xlink:href="#font_3_1" transform="matrix(6.974498,0,0,-6.9741489,159.47666,6.58963)"/>
<path transform="matrix(1.0001,0,0,-1.00005,130.9578,26.534626)" stroke-width=".39848" stroke-linecap="butt" stroke-miterlimit="10" stroke-linejoin="miter" fill="none" stroke="#000000" d="M2.34923 8.76724V-8.36877"/>
<path transform="matrix(0,1.00005,1.0001,0,133.30727,35.103067)" stroke-width=".39848" stroke-linecap="round" stroke-linejoin="round" fill="none" stroke="#000000" d="M-2.07213 2.39091C-1.69356 .95633-.84995 .27893 0 0-.84995-.27893-1.69356-.95633-2.07213-2.39091"/>
<use data-text="f" xlink:href="#font_3_3" transform="matrix(6.974498,0,0,-6.9741489,135.65326,27.943696)"/>
<use data-text="&#x266f;" xlink:href="#font_7_1" transform="matrix(4.981798,0,0,-4.981549,139.53864,29.000748)"/>
<path transform="matrix(1.0001,0,0,-1.00005,130.9578,26.534626)" stroke-width=".39848" stroke-linecap="butt" stroke-miterlimit="10" stroke-linejoin="miter" fill="none" stroke="#000000" d="M-2.45993 8.76724V-8.36877"/>
<path transform="matrix(0,1.00005,1.0001,0,128.49762,35.103067)" stroke-width=".39848" stroke-linecap="round" stroke-linejoin="round" fill="none" stroke="#000000" d="M-2.07213 2.39091C-1.69356 .95633-.84995 .27893 0 0-.84995-.27893-1.69356-.95633-2.07213-2.39091"/>
<use data-text="g" xlink:href="#font_3_4" transform="matrix(6.974498,0,0,-6.9741489,118.79057,27.022652)"/>
<use data-text="&#x266f;" xlink:href="#font_7_1" transform="matrix(4.981798,0,0,-4.981549,122.67795,28.079705)"/>
<path transform="matrix(1.0001,0,0,-1.00005,130.9578,26.534626)" stroke-width=".39848" stroke-linecap="butt" stroke-dasharray="2.78941,1.59395" stroke-miterlimit="10" stroke-linejoin="miter" fill="none" stroke="#000000" d="M-16.83015 8.76724-49.79651-8.5817"/>
<path transform="matrix(-.8849885,.46569325,.46571658,.8849442,80.97998,35.20953)" stroke-width=".39848" stroke-linecap="round" stroke-linejoin="round" fill="none" stroke="#000000" d="M-2.07213 2.39091C-1.69356 .95633-.84995 .27893 0 0-.84995-.27893-1.69356-.95633-2.07213-2.39091"/>
<use data-text="P" xlink:href="#font_3_2" transform="matrix(6.974498,0,0,-6.9741489,99.811679,33.64698)"/>
<use data-text="n" xlink:href="#font_7_2" transform="matrix(4.981798,0,0,-4.981549,104.884189,34.643033)"/>
<path transform="matrix(1.0001,0,0,-1.00005,130.9578,26.534626)" stroke-width=".39848" stroke-linecap="butt" stroke-miterlimit="10" stroke-linejoin="miter" fill="none" stroke="#000000" d="M91.12663 17.59776H114.24023"/>
<path transform="matrix(1.0001,0,0,-1.00005,245.4087,8.935987)" stroke-width=".39848" stroke-linecap="round" stroke-linejoin="round" fill="none" stroke="#000000" d="M-2.07213 2.39091C-1.69356 .95633-.84995 .27893 0 0-.84995-.27893-1.69356-.95633-2.07213-2.39091"/>
<path transform="matrix(1.0001,0,0,-1.00005,130.9578,26.534626)" stroke-width=".39848" stroke-linecap="butt" stroke-miterlimit="10" stroke-linejoin="miter" fill="none" stroke="#000000" d="M69.2749 8.76724V-8.36877"/>
<path transform="matrix(0,1.00005,1.0001,0,200.23963,35.103067)" stroke-width=".39848" stroke-linecap="round" stroke-linejoin="round" fill="none" stroke="#000000" d="M-2.07213 2.39091C-1.69356 .95633-.84995 .27893 0 0-.84995-.27893-1.69356-.95633-2.07213-2.39091"/>
<use data-text="f" xlink:href="#font_3_3" transform="matrix(6.974498,0,0,-6.9741489,202.58597,27.943696)"/>
<use data-text="&#x266f;" xlink:href="#font_7_1" transform="matrix(4.981798,0,0,-4.981549,206.47135,29.000748)"/>
<path transform="matrix(1.0001,0,0,-1.00005,130.9578,26.534626)" stroke-width=".39848" stroke-linecap="butt" stroke-miterlimit="10" stroke-linejoin="miter" fill="none" stroke="#000000" d="M64.46573 8.76724V-8.36877"/>
<path transform="matrix(0,1.00005,1.0001,0,195.42996,35.103067)" stroke-width=".39848" stroke-linecap="round" stroke-linejoin="round" fill="none" stroke="#000000" d="M-2.07213 2.39091C-1.69356 .95633-.84995 .27893 0 0-.84995-.27893-1.69356-.95633-2.07213-2.39091"/>
<use data-text="g" xlink:href="#font_3_4" transform="matrix(6.974498,0,0,-6.9741489,185.72327,27.022652)"/>
<use data-text="&#x266f;" xlink:href="#font_7_1" transform="matrix(4.981798,0,0,-4.981549,189.61064,28.079705)"/>
<path transform="matrix(1.0001,0,0,-1.00005,130.9578,26.534626)" stroke-width=".39848" stroke-linecap="butt" stroke-dasharray="2.78941,1.59395" stroke-miterlimit="10" stroke-linejoin="miter" fill="none" stroke="#000000" d="M50.08163 8.76724 17.08775-8.58182"/>
<path transform="matrix(-.8851485,.46540327,.46542657,.88510426,147.87091,35.209589)" stroke-width=".39848" stroke-linecap="round" stroke-linejoin="round" fill="none" stroke="#000000" d="M-2.07213 2.39091C-1.69356 .95633-.84995 .27893 0 0-.84995-.27893-1.69356-.95633-2.07213-2.39091"/>
<use data-text="P" xlink:href="#font_3_2" transform="matrix(6.974498,0,0,-6.9741489,166.71637,33.64698)"/>
<use data-text="n" xlink:href="#font_7_2" transform="matrix(4.981798,0,0,-4.981549,171.78888,34.643033)"/>
<use data-text="&#x2212;" xlink:href="#font_8_1" transform="matrix(4.981798,0,0,-4.981549,176.17733,34.643033)"/>
<use data-text="1" xlink:href="#font_9_1" transform="matrix(4.981798,0,0,-4.981549,181.57386,34.643033)"/>
<path transform="matrix(1.0001,0,0,-1.00005,130.9578,26.534626)" stroke-width=".39848" stroke-linecap="butt" stroke-miterlimit="10" stroke-linejoin="miter" fill="none" stroke="#000000" d="M-114.6387-17.59776H-91.00623"/>
<path transform="matrix(1.0001,0,0,-1.00005,40.141725,44.133264)" stroke-width=".39848" stroke-linecap="round" stroke-linejoin="round" fill="none" stroke="#000000" d="M-2.07213 2.39091C-1.69356 .95633-.84995 .27893 0 0-.84995-.27893-1.69356-.95633-2.07213-2.39091"/>
<path transform="matrix(1.0001,0,0,-1.00005,130.9578,26.534626)" stroke-width=".39848" stroke-linecap="butt" stroke-miterlimit="10" stroke-linejoin="miter" fill="none" stroke="#000000" d="M-43.24359-17.59776H-19.09222"/>
<path transform="matrix(1.0001,0,0,-1.00005,112.062938,44.133264)" stroke-width=".39848" stroke-linecap="round" stroke-linejoin="round" fill="none" stroke="#000000" d="M-2.07213 2.39091C-1.69356 .95633-.84995 .27893 0 0-.84995-.27893-1.69356-.95633-2.07213-2.39091"/>
<use data-text="&#x2202;" xlink:href="#font_3_1" transform="matrix(6.974498,0,0,-6.9741489,97.64446,41.787389)"/>
<path transform="matrix(1.0001,0,0,-1.00005,130.9578,26.534626)" stroke-width=".39848" stroke-linecap="butt" stroke-miterlimit="10" stroke-linejoin="miter" fill="none" stroke="#000000" d="M18.58304-17.59776H42.73442"/>
<path transform="matrix(1.0001,0,0,-1.00005,173.89575,44.133264)" stroke-width=".39848" stroke-linecap="round" stroke-linejoin="round" fill="none" stroke="#000000" d="M-2.07213 2.39091C-1.69356 .95633-.84995 .27893 0 0-.84995-.27893-1.69356-.95633-2.07213-2.39091"/>
<use data-text="&#x2202;" xlink:href="#font_3_1" transform="matrix(6.974498,0,0,-6.9741489,159.47666,41.787389)"/>
<path transform="matrix(1.0001,0,0,-1.00005,130.9578,26.534626)" stroke-width=".39848" stroke-linecap="butt" stroke-miterlimit="10" stroke-linejoin="miter" fill="none" stroke="#000000" d="M90.60774-17.59776H114.24023"/>
<path transform="matrix(1.0001,0,0,-1.00005,245.4087,44.133264)" stroke-width=".39848" stroke-linecap="round" stroke-linejoin="round" fill="none" stroke="#000000" d="M-2.07213 2.39091C-1.69356 .95633-.84995 .27893 0 0-.84995-.27893-1.69356-.95633-2.07213-2.39091"/>
</svg>
