<svg xmlns="http://www.w3.org/2000/svg" xmlns:xlink="http://www.w3.org/1999/xlink" xmlns:inkscape="http://www.inkscape.org/namespaces/inkscape" version="1.1" width="220" height="237" viewBox="0 0 220 237">
<defs>
<path id="font_1_2" d="M.04499817-.122177127C.036987306-.15631104 .034988405-.16334534-.009002686-.16334534-.021011353-.16334534-.03201294-.16334534-.03201294-.18234253-.03201294-.19033814-.027008057-.19433594-.019012452-.19433594 .0079956059-.19433594 .036987306-.19134522 .06498718-.19134522 .09799194-.19134522 .13198853-.19433594 .1639862-.19433594 .16899109-.19433594 .18199158-.19433594 .18199158-.17434693 .18199158-.16334534 .17199707-.16334534 .1579895-.16334534 .10798645-.16334534 .10798645-.15631104 .10798645-.14727783 .10798645-.13523865 .1499939 .028259278 .15699768 .053268434 .16999817 .024261475 .19799805-.0107421879 .24899292-.0107421879 .36499024-.0107421879 .48999024 .13528443 .48999024 .28233338 .48999024 .37635804 .43299867 .4423828 .35699464 .4423828 .30699159 .4423828 .25898744 .40637208 .22599793 .36735536 .21598816 .42137147 .17298889 .4423828 .13598633 .4423828 .08999634 .4423828 .070999149 .4033661 .06199646 .38536073 .04399109 .35134889 .0309906 .29133607 .0309906 .28833009 .0309906 .27833558 .040985109 .27833558 .042999269 .27833558 .052993776 .27833558 .053985597 .2793274 .05999756 .30133058 .07699585 .37236024 .09700012 .42037965 .1329956 .42037965 .1499939 .42037965 .1639862 .41236878 .1639862 .37435914 .1639862 .35134889 .16099549 .3403473 .15699768 .323349L.04499817-.122177127M.22099304 .3123474C.22799683 .33935548 .25498963 .36735536 .272995 .38235475 .30799867 .41337586 .33699037 .42037965 .35398866 .42037965 .3939972 .42037965 .41799928 .38536073 .41799928 .32633973 .41799928 .26733399 .3849945 .15229798 .36698915 .11428833 .33299256 .044265748 .2849884 .011245728 .24798584 .011245728 .18199158 .011245728 .16899109 .0942688 .16899109 .10028076 .16899109 .10227966 .16899109 .104278568 .17199707 .11628723L.22099304 .3123474Z"/>
<path id="font_2_5" d="M.68699648 .32714845C.70199587 .32714845 .72099307 .32714845 .72099307 .34713746 .72099307 .36714173 .70199587 .36714173 .6879883 .36714173H.08898926C.07499695 .36714173 .055999757 .36714173 .055999757 .34713746 .055999757 .32714845 .07499695 .32714845 .08999634 .32714845H.68699648M.6879883 .13284302C.70199587 .13284302 .72099307 .13284302 .72099307 .15284729 .72099307 .17285156 .70199587 .17285156 .68699648 .17285156H.08999634C.07499695 .17285156 .055999757 .17285156 .055999757 .15284729 .055999757 .13284302 .07499695 .13284302 .08898926 .13284302H.6879883Z"/>
<path id="font_2_1" d="M.33099366-.2400055C.33099366-.23701477 .33099366-.23500061 .31399537-.21800232 .18899536-.0920105 .15699768 .09700012 .15699768 .25 .15699768 .42399598 .19499207 .59799197 .31799317 .72299197 .33099366 .73498538 .33099366 .7369995 .33099366 .73999026 .33099366 .746994 .32699586 .75 .32099916 .75 .31098939 .75 .22099304 .6819916 .1619873 .5549927 .11099243 .44499208 .09899902 .33399964 .09899902 .25 .09899902 .17199707 .10998535 .050994874 .16499329-.06201172 .22499085-.18501282 .31098939-.25 .32099916-.25 .32699586-.25 .33099366-.24700928 .33099366-.2400055Z"/>
<path id="font_2_3" d="M.45999146 .31976319C.45999146 .39982606 .45498658 .47988893 .41999818 .5539398 .37399293 .65000918 .2919922 .6660156 .25 .6660156 .18998719 .6660156 .116989139 .64001467 .07598877 .54693606 .04399109 .47789 .038986207 .39982606 .038986207 .31976319 .038986207 .24472046 .042999269 .15464783 .083999637 .07859802 .1269989-.0024719239 .19999695-.022460938 .24899292-.022460938 .30299378-.022460938 .3789978-.0014648438 .4229889 .09359741 .45498658 .16265869 .45999146 .2407074 .45999146 .31976319M.24899292-.00047302247C.20999146-.00047302247 .15098572 .024551392 .1329956 .12062073 .12199402 .18066406 .12199402 .2727356 .12199402 .3317871 .12199402 .39582826 .12199402 .46188355 .12998963 .5159149 .14898682 .63500979 .22399903 .64401248 .24899292 .64401248 .28199769 .64401248 .34799195 .6259918 .36698915 .52693179 .3769989 .47088624 .3769989 .39482118 .3769989 .3317871 .3769989 .25672914 .3769989 .18867493 .3659973 .12461853 .35099793 .029556275 .2939911-.00047302247 .24899292-.00047302247Z"/>
<path id="font_1_1" d="M.20298767 .0009918213C.20298767 .066986087 .17799378 .10598755 .13899231 .10598755 .10598755 .10598755 .085998538 .08099365 .085998538 .052993776 .085998538 .025985718 .10598755 0 .13899231 0 .15098572 0 .1639862 .0039978029 .17399597 .0129852299 .1769867 .01499939 .17799378 .015991211 .1789856 .015991211 .17999268 .015991211 .18099976 .01499939 .18099976 .0009918213 .18099976-.07316589 .1459961-.13328552 .11299133-.16635132 .101989749-.17736817 .101989749-.17936707 .101989749-.18237305 .101989749-.18936157 .10699463-.19335938 .11199951-.19335938 .12298584-.19335938 .20298767-.116256717 .20298767 .0009918213Z"/>
<path id="font_2_4" d="M.1269989 .07699585 .23298645 .18003845C.3889923 .31811524 .44898988 .3721466 .44898988 .47216798 .44898988 .5860901 .35899354 .6660156 .23699951 .6660156 .12399292 .6660156 .049987794 .57411196 .049987794 .48516847 .049987794 .4291687 .099990848 .4291687 .102996829 .4291687 .11999512 .4291687 .15499878 .44117738 .15499878 .48217774 .15499878 .5081787 .13699341 .5341797 .101989749 .5341797 .09399414 .5341797 .09199524 .5341797 .08898926 .5331726 .11199951 .59806826 .1659851 .63500979 .22399903 .63500979 .31498719 .63500979 .35798646 .5541382 .35798646 .47216798 .35798646 .39215089 .30799867 .31311036 .25299073 .25108338L.06098938 .036987306C.049987794 .025985718 .049987794 .023986817 .049987794 0H.42099L.44898988 .17404175H.42399598C.4189911 .14402771 .4119873 .1000061 .4019928 .084991458 .394989 .07699585 .32899476 .07699585 .30699159 .07699585H.1269989Z"/>
<path id="font_2_2" d="M.2889862 .25C.2889862 .32798768 .27799989 .44898988 .22299195 .56199648 .16299439 .68499758 .07699585 .75 .066986087 .75 .06098938 .75 .056991579 .74598696 .056991579 .73999026 .056991579 .7369995 .056991579 .73498538 .07598877 .71699526 .17399597 .6179962 .23098755 .45899964 .23098755 .25 .23098755 .07899475 .19400025-.09700012 .069992069-.2230072 .056991579-.23500061 .056991579-.23701477 .056991579-.2400055 .056991579-.2460022 .06098938-.25 .066986087-.25 .07699585-.25 .16699219-.18200684 .22599793-.055007936 .2769928 .054992677 .2889862 .16600037 .2889862 .25Z"/>
<path id="font_3_3" d="M.6539917 .67807009C.6569977 .68907168 .6569977 .69107058 .6569977 .69407656 .6569977 .69506838 .6559906 .7050781 .644989 .7050781 .6399994 .7050781 .6389923 .70407107 .6269989 .6900635 .61299136 .6750641 .625 .6880646 .57899478 .6340332 .5419922 .6900635 .48399354 .7050781 .43099977 .7050781 .3019867 .7050781 .17999268 .58999636 .17999268 .46990968 .17999268 .42886354 .19299317 .39483644 .21899414 .3668213 .24798584 .336792 .272995 .3307953 .34498597 .31178285L.42900086 .29075624C.46099855 .27975465 .49398805 .24871826 .49398805 .19168091 .49398805 .1026001 .40899659 .008529663 .30899049 .008529663 .25 .008529663 .1309967 .026550293 .1309967 .15464783 .1309967 .16365052 .1309967 .17866516 .13699341 .20869446 .13899231 .21269226 .13899231 .21469116 .13899231 .21569824 .13899231 .21969605 .13699341 .22669983 .125 .22669983 .11299133 .22669983 .11199951 .2217102 .10798645 .20469666L.054992677-.011474609C.054992677-.017471314 .05999756-.022460938 .066986087-.022460938 .07199097-.022460938 .07299805-.021469117 .085998538-.007461548 .09199524-.00047302247 .12098694 .03555298 .1329956 .048568727 .18499756-.018463135 .2769928-.022460938 .30699159-.022460938 .44499208-.022460938 .5649872 .10661316 .5649872 .23271179 .5649872 .35681153 .46699525 .38183595 .43598939 .38883973L.34498597 .41285707C.31199647 .42086793 .25099183 .4368744 .25099183 .51293948 .25099183 .5890045 .33099366 .677063 .43099977 .677063 .47099305 .677063 .5099945 .6660614 .5379944 .63804629 .57598879 .6010132 .57699587 .54696658 .57699587 .5209503 .57699587 .48791505 .57299807 .47691346 .57299807 .4689026 .57299807 .46089173 .57699587 .45588685 .58699038 .45588685 .59799197 .45588685 .59799197 .457901 .6029968 .47691346L.6539917 .67807009Z"/>
<path id="font_4_1" d="M.35899354 .6349335C.35899354 .66503909 .35499574 .66503909 .32499696 .66503909 .25898744 .60058596 .15699768 .60058596 .12098694 .60058596V.5615845C.14698792 .5615845 .21299744 .5615845 .272995 .58958438V.08496094C.272995 .051986696 .272995 .038986207 .16999817 .038986207H.1269989V0C.18199158 .0039978029 .2599945 .0039978029 .31599427 .0039978029 .37199403 .0039978029 .44999696 .0039978029 .5049896 0V.038986207H.46199037C.35899354 .038986207 .35899354 .051986696 .35899354 .08496094V.6349335Z"/>
<path id="font_5_1" d="M.6329956 .45401C.6439972 .4650116 .6469879 .47001649 .6469879 .47702027 .6469879 .49002076 .6369934 .49902345 .6259918 .49902345 .6179962 .49902345 .61698916 .49700929 .6049957 .48602296L.39898683 .2809906 .18399048 .49501039C.1789856 .49902345 .17399597 .49902345 .17298889 .49902345 .16099549 .49902345 .15098572 .48901368 .15098572 .47702027 .15098572 .4690094 .15499878 .4650116 .1659851 .45401L.36898805 .25097657 .1659851 .047943117C.1519928 .033950807 .15098572 .028945923 .15098572 .02394104 .15098572 .011947632 .16099549 .001953125 .17298889 .001953125 .17399597 .001953125 .1789856 .001953125 .18399048 .0049438478L.39898683 .2199707 .60798647 .011947632C.6139984 .0059509279 .61698916 .001953125 .6259918 .001953125 .6369934 .001953125 .6469879 .010940552 .6469879 .02394104 .6469879 .027938843 .644989 .033950807 .6419983 .035949708 .6399994 .03994751 .46299745 .21697998 .42900086 .24998474L.6329956 .45401Z"/>
<path id="font_6_3" d="M.2619934-.25V-.20700073H.16299439V.7069855H.2619934V.75H.11999512V-.25H.2619934Z"/>
<path id="font_6_1" d="M.47299195 .31976319C.47299195 .38682557 .46998597 .47288514 .43499757 .5479431 .3909912 .64201357 .31498719 .6660156 .25698854 .6660156 .19699097 .6660156 .12098694 .64201357 .07699585 .5459442 .04499817 .47688294 .039993287 .39582826 .039993287 .31976319 .039993287 .25471498 .041992189 .15765381 .084991458 .07858276 .13198853-.0064697267 .20999146-.022460938 .2559967-.022460938 .32099916-.022460938 .394989 .0055389406 .43699647 .097595218 .46699525 .1646576 .47299195 .23971558 .47299195 .31976319M.25698854 .002532959C.22698975 .002532959 .15499878 .016540528 .13598633 .12962342 .12599182 .18867493 .12599182 .2747345 .12599182 .33177186 .12599182 .39982606 .12599182 .47888185 .13798523 .53393557 .1579895 .6230011 .22200012 .64100649 .2559967 .64100649 .2939911 .64100649 .35699464 .62098696 .37599183 .5279236 .3869934 .47288514 .3869934 .39482118 .3869934 .33177186 .3869934 .2697296 .3869934 .18566895 .3769989 .12661743 .35598756 .012542725 .28199769 .002532959 .25698854 .002532959Z"/>
<path id="font_3_1" d="M.18199158 .015991211C.18199158-.017044068 .18199158-.09921265 .10798645-.17036438 .101989749-.17636109 .101989749-.17736817 .101989749-.18136597 .101989749-.18836975 .10899353-.19335938 .114990238-.19335938 .12599182-.19335938 .20698548-.115249637 .20698548 .0019989014 .20698548 .06399536 .18499756 .10798645 .14199829 .10798645 .10798645 .10798645 .08799744 .08198547 .08799744 .053985597 .08799744 .025985718 .10798645 0 .14199829 0 .15699768 0 .17199707 .004989624 .18199158 .015991211Z"/>
<path id="font_6_2" d="M.3039856 .6392822C.3039856 .6642761 .30299378 .666275 .27799989 .666275 .21598816 .60227969 .12399292 .60227969 .09298706 .60227969V.57128909C.11199951 .57128909 .17298889 .57128909 .22698975 .5972748V.08001709C.22698975 .042999269 .22399903 .0309906 .1309967 .0309906H.09899902V0C.1349945 .0029907227 .22399903 .0029907227 .2649994 .0029907227 .30599977 .0029907227 .3959961 .0029907227 .43199159 0V.0309906H.3999939C.30699159 .0309906 .3039856 .042999269 .3039856 .08001709V.6392822Z"/>
<path id="font_6_4" d="M.1639862-.25V.75H.021987915V.7069855H.12098694V-.20700073H.021987915V-.25H.1639862Z"/>
<path id="font_3_2" d="M.16099549 .07595825C.1519928 .039993287 .1499939 .0309906 .07499695 .0309906 .055999757 .0309906 .04499817 .0309906 .04499817 .0129852299 .04499817 0 .054992677 0 .07299805 0H.4099884C.6239929 0 .82299807 .21188355 .82299807 .42774964 .82299807 .56466677 .7369995 .6826172 .58099368 .6826172H.23799134C.21998596 .6826172 .20799256 .6826172 .20799256 .6646118 .20799256 .6516113 .21699524 .6516113 .23799134 .6516113 .24198914 .6516113 .2599945 .6516113 .27598573 .6496124 .29299928 .6476135 .2999878 .6456146 .2999878 .63461306 .2999878 .6296234 .29899598 .6256256 .29599 .614624L.16099549 .07595825M.3809967 .6126251C.3899994 .64860537 .3919983 .6516113 .43399049 .6516113H.5469971C.651001 .6516113 .73399356 .5936432 .73399356 .46472169 .73399356 .40675355 .70899966 .24685669 .6309967 .1479187 .58499148 .09095764 .5019989 .0309906 .3919983 .0309906H.27198792C.2579956 .0309906 .2559967 .0309906 .2519989 .03199768 .24198914 .032989503 .23899842 .033996583 .23899842 .040985109 .23899842 .04399109 .23899842 .04598999 .24398804 .063964847L.3809967 .6126251Z"/>
<path id="font_4_2" d="M.5379944 .18702698H.5009918C.49899293 .17301941 .4889984 .10699463 .47399903 .09599304 .46699525 .08999634 .38598634 .08999634 .37199403 .08999634H.18499756L.31298829 .19403076C.34700013 .22103882 .43598939 .28504945 .46699525 .31506349 .49699403 .3450775 .5379944 .39608766 .5379944 .46710206 .5379944 .5920563 .4249878 .66503909 .29100038 .66503909 .1619873 .66503909 .07199097 .58006289 .07199097 .48609925 .07199097 .43510438 .114990238 .42910768 .12599182 .42910768 .15098572 .42910768 .17999268 .44709779 .17999268 .48310853 .17999268 .50509646 .16699219 .5371094 .12298584 .5371094 .1459961 .5880585 .20698548 .6260376 .27598573 .6260376 .3809967 .6260376 .43699647 .5480957 .43699647 .46710206 .43699647 .39608766 .3899994 .32305909 .31999208 .25904847L.08299255 .041992189C.07299805 .03199768 .07199097 .0309906 .07199097 0H.5069885L.5379944 .18702698Z"/>
<path id="font_5_2" d="M.2919922 .5760956C.2919922 .63604739 .2919922 .65904238 .32499696 .6890259 .34498597 .7060089 .375 .7220001 .42099 .72499087 .43199159 .7259979 .43998719 .7259979 .43998719 .7369995 .43998719 .75 .43099977 .75 .41799928 .75 .31999208 .75 .22200012 .7030029 .22099304 .62405398V.3682251C.21998596 .33424378 .19099427 .2682953 .085998538 .2632904 .07699585 .26229859 .07299805 .25630189 .07299805 .25028993 .07299805 .23829651 .08299255 .23730469 .09098816 .23730469 .16099549 .2342987 .20899964 .1942749 .21899414 .14723206 .22099304 .13822937 .22099304 .13623047 .22099304 .10121155V-.09692383C.22099304-.13595581 .22099304-.1849823 .29100038-.2210083 .34399415-.24900818 .40699769-.25 .41799928-.25 .43099977-.25 .43998719-.25 .43998719-.23701477 .43998719-.22601319 .42999269-.2250061 .4249878-.2250061 .33299256-.2190094 .3019867-.16897583 .29499818-.14195252 .2919922-.12994385 .2919922-.12794495 .2919922-.091918949V.058181764C.2919922 .08720398 .2919922 .13623047 .29100038 .14523316 .2809906 .20127869 .23199463 .2342987 .17599488 .25028993 .2919922 .28327943 .2919922 .3522339 .2919922 .39620973V.5760956Z"/>
<path id="font_5_3" d="M.2919922 .13223267C.29299928 .1662445 .32199098 .2322998 .4269867 .23730469 .43598939 .23829651 .43998719 .24429322 .43998719 .25028993 .43998719 .26229859 .42999269 .2632904 .42199708 .2632904 .35198976 .2662964 .3039856 .3062744 .2939911 .35324098 .2919922 .3622284 .2919922 .3642273 .2919922 .3992157V.5970764C.2919922 .63604739 .2919922 .6850281 .22200012 .72099307 .16899109 .74798586 .10598755 .75 .09498596 .75 .08299255 .75 .07299805 .75 .07299805 .7369995 .07299805 .7259979 .08299255 .72499087 .08799744 .72499087 .17999268 .71899417 .21099854 .66903689 .21798706 .64204409 .22099304 .63005068 .22099304 .62805178 .22099304 .5920868V.44218446C.22099304 .41319276 .22099304 .3642273 .22200012 .35523988 .23199463 .29927064 .2809906 .2662964 .33699037 .25028993 .22099304 .21728516 .22099304 .14823914 .22099304 .10420227V-.075912479C.22099304-.13595581 .22099304-.15896607 .18798828-.1889801 .16799927-.20599365 .13798523-.22200012 .09199524-.2250061 .08099365-.22601319 .07299805-.22601319 .07299805-.23701477 .07299805-.25 .08299255-.25 .09498596-.25 .19299317-.25 .29100038-.20298767 .2919922-.12394714V.13223267Z"/>
</defs>
<path transform="matrix(1.00003,0,0,-1.00005,117.874088,199.09729)" d="M-51.02432 0V102.04868C-51.02432 93.5945-28.18031 86.74124 0 86.74124 28.18031 86.74124 51.02432 93.5945 51.02432 102.04868V0C51.02432-8.45416 28.18031-15.30743 0-15.30743-28.18031-15.30743-51.02432-8.45416-51.02432 0" fill="#f9f9f9"/>
<path transform="matrix(1.00003,0,0,-1.00005,117.874088,199.09729)" stroke-width=".3985" stroke-linecap="butt" stroke-miterlimit="10" stroke-linejoin="miter" fill="none" stroke="#cccccc" d="M-51.02432 0V102.04868C-51.02432 93.5945-28.18031 86.74124 0 86.74124 28.18031 86.74124 51.02432 93.5945 51.02432 102.04868V0C51.02432-8.45416 28.18031-15.30743 0-15.30743-28.18031-15.30743-51.02432-8.45416-51.02432 0"/>
<path transform="matrix(1.00003,0,0,-1.00005,117.874088,199.09729)" d="M51.02432 0C51.02432 8.45416 28.18031 15.30743 0 15.30743-28.18031 15.30743-51.02432 8.45416-51.02432 0-51.02432-8.45416-28.18031-15.30743 0-15.30743 28.18031-15.30743 51.02432-8.45416 51.02432 0ZM0 0" fill="#e6e6ff"/>
<path transform="matrix(1.00003,0,0,-1.00005,117.874088,199.09729)" stroke-width=".3985" stroke-linecap="butt" stroke-miterlimit="10" stroke-linejoin="miter" fill="none" stroke="#b3b3ff" d="M51.02432 0C51.02432 8.45416 28.18031 15.30743 0 15.30743-28.18031 15.30743-51.02432 8.45416-51.02432 0-51.02432-8.45416-28.18031-15.30743 0-15.30743 28.18031-15.30743 51.02432-8.45416 51.02432 0ZM0 0"/>
<path transform="matrix(1.00003,0,0,-1.00005,117.874088,199.09729)" stroke-width=".79701" stroke-linecap="butt" stroke-miterlimit="10" stroke-linejoin="miter" fill="none" stroke="#ff6666" d="M-51.02432 0V102.04868"/>
<path transform="matrix(1.00003,0,0,-1.00005,117.874088,199.09729)" stroke-width=".79701" stroke-linecap="butt" stroke-miterlimit="10" stroke-linejoin="miter" fill="none" stroke="#ff6666" d="M51.02432 0V102.04868"/>
<path transform="matrix(1.00003,0,0,-1.00005,117.874088,199.09729)" stroke-width=".3985" stroke-linecap="butt" stroke-miterlimit="10" stroke-linejoin="miter" fill="none" stroke="#b2b3b2" d="M51.02432 102.04868C51.02432 110.50284 28.18031 117.35611 0 117.35611-28.18031 117.35611-51.02432 110.50284-51.02432 102.04868-51.02432 93.5945-28.18031 86.74124 0 86.74124 28.18031 86.74124 51.02432 93.5945 51.02432 102.04868ZM0 102.04868"/>
<path transform="matrix(1.00003,0,0,-1.00005,117.874088,199.09729)" stroke-width=".79701" stroke-linecap="butt" stroke-miterlimit="10" stroke-linejoin="miter" fill="none" stroke="#ff6666" d="M51.02432 102.04868C51.02432 93.5945 28.18031 86.74124 0 86.74124-28.18031 86.74124-51.02432 93.5945-51.02432 102.04868"/>
<path transform="matrix(1.00003,0,0,-1.00005,117.874088,199.09729)" stroke-width=".79701" stroke-linecap="butt" stroke-miterlimit="10" stroke-linejoin="miter" fill="none" stroke="#6666ff" d="M51.02432 0C51.02432 8.45416 28.18031 15.30743 0 15.30743-28.18031 15.30743-51.02432 8.45416-51.02432 0-51.02432-8.45416-28.18031-15.30743 0-15.30743 28.18031-15.30743 51.02432-8.45416 51.02432 0ZM0 0"/>
<path transform="matrix(1.00003,0,0,-1.00005,117.874088,199.09729)" d="M2.15193 183.68791C2.15193 184.8764 1.18848 185.83986 0 185.83986-1.18848 185.83986-2.15193 184.8764-2.15193 183.68791-2.15193 182.49942-1.18848 181.53597 0 181.53597 1.18848 181.53597 2.15193 182.49942 2.15193 183.68791ZM0 183.68791"/>
<use data-text="p" xlink:href="#font_1_2" transform="matrix(9.962899,0,0,-9.963098,97.65548,9.389816)"/>
<use data-text="=" xlink:href="#font_2_5" transform="matrix(9.962899,0,0,-9.963098,105.43572,9.389816)"/>
<use data-text="(" xlink:href="#font_2_1" transform="matrix(9.962899,0,0,-9.963098,115.93661,9.389816)"/>
<use data-text="0" xlink:href="#font_2_3" transform="matrix(9.962899,0,0,-9.963098,119.80222,9.389816)"/>
<use data-text="," xlink:href="#font_1_1" transform="matrix(9.962899,0,0,-9.963098,124.807308,9.389816)"/>
<use data-text="2" xlink:href="#font_2_4" transform="matrix(9.962899,0,0,-9.963098,129.23545,9.389816)"/>
<use data-text=")" xlink:href="#font_2_2" transform="matrix(9.962899,0,0,-9.963098,134.21686,9.389816)"/>
<path transform="matrix(1.00003,0,0,-1.00005,117.874088,199.09729)" stroke-width=".3985" stroke-linecap="butt" stroke-dasharray="2.98883,1.99255" stroke-miterlimit="10" stroke-linejoin="miter" fill="none" stroke="#a6a6a6" d="M0 183.68791-51.02432 71.43376"/>
<path transform="matrix(1.00003,0,0,-1.00005,117.874088,199.09729)" stroke-width=".3985" stroke-linecap="butt" stroke-dasharray="2.98883,1.99255" stroke-miterlimit="10" stroke-linejoin="miter" fill="none" stroke="#a6a6a6" d="M0 183.68791 51.02432 51.02432"/>
<path transform="matrix(1.00003,0,0,-1.00005,117.874088,199.09729)" stroke-width=".3985" stroke-linecap="butt" stroke-dasharray="2.98883,1.99255" stroke-miterlimit="10" stroke-linejoin="miter" fill="none" stroke="#a6a6a6" d="M0 183.68791 25.51215 0"/>
<path transform="matrix(1.00003,0,0,-1.00005,117.874088,199.09729)" stroke-width=".3985" stroke-linecap="butt" stroke-dasharray="2.98883,1.99255" stroke-miterlimit="10" stroke-linejoin="miter" fill="none" stroke="#a6a6a6" d="M0 183.68791-20.40941 0"/>
<path transform="matrix(1.00003,0,0,-1.00005,117.874088,199.09729)" d="M-49.23102 71.43376C-49.23102 72.42418-50.0339 73.22705-51.02432 73.22705-52.01474 73.22705-52.81763 72.42418-52.81763 71.43376-52.81763 70.44333-52.01474 69.64046-51.02432 69.64046-50.0339 69.64046-49.23102 70.44333-49.23102 71.43376ZM-51.02432 71.43376" fill="#ff4d4d"/>
<path transform="matrix(1.00003,0,0,-1.00005,117.874088,199.09729)" d="M52.81763 51.02432C52.81763 52.01474 52.01474 52.81763 51.02432 52.81763 50.0339 52.81763 49.23102 52.01474 49.23102 51.02432 49.23102 50.0339 50.0339 49.23102 51.02432 49.23102 52.01474 49.23102 52.81763 50.0339 52.81763 51.02432ZM51.02432 51.02432" fill="#ff4d4d"/>
<path transform="matrix(1.00003,0,0,-1.00005,117.874088,199.09729)" d="M27.30545 0C27.30545 .99042 26.50258 1.79329 25.51215 1.79329 24.52173 1.79329 23.71884 .99042 23.71884 0 23.71884-.99042 24.52173-1.79329 25.51215-1.79329 26.50258-1.79329 27.30545-.99042 27.30545 0ZM25.51215 0" fill="#4d4dff"/>
<path transform="matrix(1.00003,0,0,-1.00005,117.874088,199.09729)" d="M-18.6161 0C-18.6161 .99042-19.41899 1.79329-20.40941 1.79329-21.39983 1.79329-22.20271 .99042-22.20271 0-22.20271-.99042-21.39983-1.79329-20.40941-1.79329-19.41899-1.79329-18.6161-.99042-18.6161 0ZM-20.40941 0" fill="#4d4dff"/>
<use data-text="S" xlink:href="#font_3_3" transform="matrix(8.966669,0,0,-8.966848,180.07295,150.78089)"/>
<use data-text="1" xlink:href="#font_4_1" transform="matrix(5.97778,0,0,-5.9778988,186.21215,146.97168)"/>
<use data-text="&#x00d7;" xlink:href="#font_5_1" transform="matrix(8.966669,0,0,-8.966848,192.41135,150.78089)"/>
<use data-text="[" xlink:href="#font_6_3" transform="matrix(8.966669,0,0,-8.966848,201.62763,150.78089)"/>
<use data-text="0" xlink:href="#font_6_1" transform="matrix(8.966669,0,0,-8.966848,204.18312,150.78089)"/>
<use data-text="," xlink:href="#font_3_1" transform="matrix(8.966669,0,0,-8.966848,208.79483,150.78089)"/>
<use data-text="1" xlink:href="#font_6_2" transform="matrix(8.966669,0,0,-8.966848,212.89095,150.78089)"/>
<use data-text="]" xlink:href="#font_6_4" transform="matrix(8.966669,0,0,-8.966848,217.49085,150.78089)"/>
<use data-text="D" xlink:href="#font_3_2" transform="matrix(8.966669,0,0,-8.966848,99.32753,233.241)"/>
<use data-text="2" xlink:href="#font_4_2" transform="matrix(5.97778,0,0,-5.9778988,107.18277,229.43181)"/>
<use data-text="&#x00d7;" xlink:href="#font_5_1" transform="matrix(8.966669,0,0,-8.966848,113.38196,233.241)"/>
<use data-text="{" xlink:href="#font_5_2" transform="matrix(8.966669,0,0,-8.966848,122.59073,233.241)"/>
<use data-text="0" xlink:href="#font_6_1" transform="matrix(8.966669,0,0,-8.966848,127.20537,233.241)"/>
<use data-text="}" xlink:href="#font_5_3" transform="matrix(8.966669,0,0,-8.966848,131.8135,233.241)"/>
<use data-text="D" xlink:href="#font_3_2" transform="matrix(8.966669,0,0,-8.966848,1.2165833,150.78089)"/>
<use data-text="2" xlink:href="#font_4_2" transform="matrix(5.97778,0,0,-5.9778988,9.071823,146.97168)"/>
<use data-text="&#x00d7;" xlink:href="#font_5_1" transform="matrix(8.966669,0,0,-8.966848,15.271011,150.78089)"/>
<use data-text="[" xlink:href="#font_6_3" transform="matrix(8.966669,0,0,-8.966848,24.486283,150.78089)"/>
<use data-text="0" xlink:href="#font_6_1" transform="matrix(8.966669,0,0,-8.966848,27.041779,150.78089)"/>
<use data-text="," xlink:href="#font_3_1" transform="matrix(8.966669,0,0,-8.966848,31.654496,150.78089)"/>
<use data-text="1" xlink:href="#font_6_2" transform="matrix(8.966669,0,0,-8.966848,35.74962,150.78089)"/>
<use data-text="]" xlink:href="#font_6_4" transform="matrix(8.966669,0,0,-8.966848,40.349519,150.78089)"/>
</svg>
