<svg xmlns="http://www.w3.org/2000/svg" xmlns:xlink="http://www.w3.org/1999/xlink" xmlns:inkscape="http://www.inkscape.org/namespaces/inkscape" version="1.1" width="150" height="61" viewBox="0 0 150 61">
<defs>
<path id="font_1_2" d="M.37399293 .6046295C.3829956 .64060977 .38598634 .6516113 .47999574 .6516113 .5099945 .6516113 .5179901 .6516113 .5179901 .6706085 .5179901 .6826172 .5069885 .6826172 .5019989 .6826172 .46899415 .6826172 .3869934 .6796112 .35398866 .6796112 .32398988 .6796112 .25099183 .6826172 .22099304 .6826172 .21398926 .6826172 .20199585 .6826172 .20199585 .6626129 .20199585 .6516113 .21099854 .6516113 .22999573 .6516113 .23199463 .6516113 .25099183 .6516113 .2679901 .6496124 .28599549 .6476135 .29499818 .64660647 .29499818 .6336212 .29499818 .6296234 .2939911 .62661746 .29100038 .614624L.15699768 .07795715C.14698792 .038986207 .14498902 .0309906 .06599426 .0309906 .04899597 .0309906 .038986207 .0309906 .038986207 .010986328 .038986207 0 .04798889 0 .06599426 0H.5289917C.5529938 0 .55400088 0 .55999758 .016998291L.6389923 .23286438C.6429901 .24386597 .6429901 .24586487 .6429901 .24685669 .6429901 .2508545 .6399994 .25785829 .6309967 .25785829 .621994 .25785829 .62098696 .2528534 .6139984 .23686219 .5799866 .14492798 .5359955 .0309906 .36299134 .0309906H.2689972C.25498963 .0309906 .25299073 .0309906 .24699402 .03199768 .23699951 .032989503 .23399353 .033996583 .23399353 .041992189 .23399353 .04498291 .23399353 .04698181 .23899842 .064971927L.37399293 .6046295Z"/>
<path id="font_1_1" d="M.7599945 .69506838C.7599945 .69807437 .7579956 .7050781 .7489929 .7050781 .74598696 .7050781 .7449951 .70407107 .73399356 .69306948L.6639862 .61602786C.6549988 .6300354 .60899356 .7050781 .49798585 .7050781 .2749939 .7050781 .049987794 .48391725 .049987794 .25172425 .049987794 .08659363 .16799927-.022460938 .32099916-.022460938 .4079895-.022460938 .48399354 .017532349 .5369873 .063583377 .6299896 .14564514 .6469879 .2367096 .6469879 .23971558 .6469879 .24972534 .6369934 .24972534 .6349945 .24972534 .6289978 .24972534 .6239929 .24772644 .621994 .23971558 .61299136 .21069336 .58999636 .13963318 .5209961 .081588748 .45199586 .025543213 .3889923 .008529663 .33699037 .008529663 .24699402 .008529663 .14099121 .060577394 .14099121 .21670532 .14099121 .27374269 .1619873 .43588258 .2619934 .55296328 .32299806 .62402346 .4169922 .67407229 .5059967 .67407229 .60798647 .67407229 .6669922 .5970001 .6669922 .48091126 .6669922 .44088746 .6639862 .43988038 .6639862 .4298706 .6639862 .41986085 .6749878 .41986085 .67900088 .41986085 .69200137 .41986085 .69200137 .42185975 .69699099 .43988038L.7599945 .69506838Z"/>
<path id="font_2_3" d="M.12199402 .06324768C.117996219 .050247194 .11199951 .025222779 .11199951 .022232056 .11199951 .00022888184 .12998963-.009765625 .1459961-.009765625 .1639862-.009765625 .17999268 .0032196046 .18499756 .01222229 .18998719 .021224976 .19799805 .053237916 .20298767 .07424927 .20799256 .09326172 .21899414 .13928223 .22499085 .16429138 .23098755 .18629456 .23699951 .20831299 .24198914 .23132324 .25299073 .27233888 .25498963 .28033448 .28399659 .32136537 .31199647 .3613739 .35899354 .4133911 .43399049 .4133911 .49198915 .4133911 .49299623 .36238099 .49299623 .34336854 .49299623 .28334046 .44999696 .17228699 .43399049 .13027954 .4229889 .102264408 .4189911 .09326172 .4189911 .07624817 .4189911 .023223877 .46299745-.009765625 .5139923-.009765625 .6139984-.009765625 .6579895 .12828064 .6579895 .14328003 .6579895 .15628052 .644989 .15628052 .6419983 .15628052 .6279907 .15628052 .6269989 .15028382 .6230011 .13928223 .59999087 .059249879 .5569916 .018234253 .5169983 .018234253 .49598695 .018234253 .49198915 .032226564 .49198915 .053237916 .49198915 .07624817 .49699403 .089263919 .5149994 .13427735 .5269928 .1652832 .56799319 .2713318 .56799319 .32736207 .56799319 .4243927 .4909973 .44140626 .43798829 .44140626 .35499574 .44140626 .29899598 .39038087 .2689972 .3503723 .2619934 .41940309 .20298767 .44140626 .1619873 .44140626 .11898804 .44140626 .09599304 .4104004 .08299255 .38739015 .06098938 .3503723 .04699707 .29335023 .04699707 .28834535 .04699707 .27534486 .06098938 .27534486 .06399536 .27534486 .07798767 .27534486 .07899475 .27833558 .085998538 .3053589 .100997928 .36437989 .11999512 .4133911 .15899658 .4133911 .18499756 .4133911 .19198609 .39138795 .19198609 .36437989 .19198609 .34536744 .18299866 .3083496 .17599488 .28134156 .16899109 .2543335 .15899658 .21331787 .1539917 .19129944L.12199402 .06324768Z"/>
<path id="font_3_2" d="M.33099366-.2400055C.33099366-.23701477 .33099366-.23500061 .31399537-.21800232 .18899536-.0920105 .15699768 .09700012 .15699768 .25 .15699768 .42399598 .19499207 .59799197 .31799317 .72299197 .33099366 .73498538 .33099366 .7369995 .33099366 .73999026 .33099366 .746994 .32699586 .75 .32099916 .75 .31098939 .75 .22099304 .6819916 .1619873 .5549927 .11099243 .44499208 .09899902 .33399964 .09899902 .25 .09899902 .17199707 .10998535 .050994874 .16499329-.06201172 .22499085-.18501282 .31098939-.25 .32099916-.25 .32699586-.25 .33099366-.24700928 .33099366-.2400055Z"/>
<path id="font_3_1" d="M.44198609 .69781497C.43499757 .7108154 .43299867 .7158203 .41600038 .7158203 .39898683 .7158203 .39698792 .7108154 .3899994 .69781497L.051986696 .019989014C.04699707 .010986328 .04699707 .008987427 .04699707 .0079956059 .04699707 0 .052993776 0 .068984989 0H.7630005C.7789917 0 .7849884 0 .7849884 .0079956059 .7849884 .008987427 .7849884 .010986328 .7799988 .019989014L.44198609 .69781497M.38398744 .61582949 .6529999 .07598877H.11399841L.38398744 .61582949Z"/>
<path id="font_3_3" d="M.2889862 .25C.2889862 .32798768 .27799989 .44898988 .22299195 .56199648 .16299439 .68499758 .07699585 .75 .066986087 .75 .06098938 .75 .056991579 .74598696 .056991579 .73999026 .056991579 .7369995 .056991579 .73498538 .07598877 .71699526 .17399597 .6179962 .23098755 .45899964 .23098755 .25 .23098755 .07899475 .19400025-.09700012 .069992069-.2230072 .056991579-.23500061 .056991579-.23701477 .056991579-.2400055 .056991579-.2460022 .06098938-.25 .066986087-.25 .07699585-.25 .16699219-.18200684 .22599793-.055007936 .2769928 .054992677 .2889862 .16600037 .2889862 .25Z"/>
<path id="font_4_1" d="M.46299745 .2263794H.7689972C.7819977 .2263794 .80599978 .2263794 .80599978 .25038148 .80599978 .27539063 .7829895 .27539063 .7689972 .27539063H.46299745V.5821533C.46299745 .59513857 .46299745 .6191406 .43899537 .6191406 .4139862 .6191406 .4139862 .5961304 .4139862 .5821533V.27539063H.10699463C.09399414 .27539063 .069992069 .27539063 .069992069 .25138856 .069992069 .2263794 .09298706 .2263794 .10699463 .2263794H.4139862V-.08114624C.4139862-.09416199 .4139862-.11816406 .43798829-.11816406 .46299745-.11816406 .46299745-.09516907 .46299745-.08114624V.2263794Z"/>
<path id="font_4_2" d="M.33499146 .63612368C.33499146 .6630554 .33299256 .6640625 .30499269 .6640625 .24099732 .6014404 .1499939 .6004486 .10899353 .6004486V.5644531C.1329956 .5644531 .19898987 .5644531 .2539978 .592453V.08203125C.2539978 .04899597 .2539978 .035995485 .1539917 .035995485H.115997318V0C.13398743 .0009918213 .25698854 .0039978029 .2939911 .0039978029 .32499696 .0039978029 .45098878 .0009918213 .47299195 0V.035995485H.43499757C.33499146 .035995485 .33499146 .04899597 .33499146 .08203125V.63612368Z"/>
<path id="font_1_3" d="M.4850006 .41075135 .40098573 .6096344C.397995 .61763 .3959961 .6216278 .3959961 .6226196 .3959961 .62861636 .41299439 .6476135 .45498658 .6516113 .46499635 .65260317 .47499085 .6536102 .47499085 .6706085 .47499085 .6826172 .46299745 .6826172 .45999146 .6826172 .4189911 .6826172 .37599183 .6796112 .33399964 .6796112 .30899049 .6796112 .24699402 .6826172 .22200012 .6826172 .21598816 .6826172 .20399475 .6826172 .20399475 .6626129 .20399475 .6516113 .21398926 .6516113 .22698975 .6516113 .2869873 .6516113 .29299928 .6416168 .3019867 .6196289L.41999818 .34080506 .20899964 .11393738 .19599915 .10295105C.14698792 .049987794 .099990848 .033996583 .04899597 .0309906 .035995485 .02999878 .026992798 .02999878 .026992798 .010986328 .026992798 .009994507 .026992798 0 .039993287 0 .069992069 0 .102996829 .0029907227 .13398743 .0029907227 .17098999 .0029907227 .20999146 0 .24598694 0 .2519989 0 .2639923 0 .2639923 .019989014 .2639923 .02999878 .2539978 .0309906 .2519989 .0309906 .24299622 .03199768 .21199036 .033996583 .21199036 .061965944 .21199036 .07795715 .22698975 .093948367 .23899842 .10694885L.34098817 .21487427 .43099977 .31282044 .5319977 .07395935C.5359955 .06297302 .5369873 .061965944 .5369873 .05996704 .5369873 .051986696 .5179901 .034988405 .47898866 .0309906 .46798707 .02999878 .45899964 .0289917 .45899964 .011993408 .45899964 0 .46998597 0 .47399903 0 .5019989 0 .57199099 .0029907227 .59999087 .0029907227 .625 .0029907227 .6859894 0 .71099856 0 .71798709 0 .7299957 0 .7299957 .018997193 .7299957 .0309906 .7200012 .0309906 .71199038 .0309906 .644989 .03199768 .6429901 .034988405 .6259918 .07496643 .58699038 .16790772 .519989 .32380677 .49699403 .3837738 .5649872 .45373536 .66999819 .5726471 .70199587 .6006317 .73098757 .62461856 .7689972 .64860537 .82899478 .6516113 .84199526 .65260317 .8509979 .65260317 .8509979 .6716156 .8509979 .6726074 .8509979 .6826172 .83799746 .6826172 .80799868 .6826172 .7749939 .6796112 .74398806 .6796112 .70700076 .6796112 .6689911 .6826172 .6329956 .6826172 .6269989 .6826172 .6139984 .6826172 .6139984 .6626129 .6139984 .65560916 .61898806 .65260317 .6259918 .6516113 .6349945 .65060427 .66600039 .64860537 .66600039 .6206207 .66600039 .6066284 .6549988 .5936432 .6469879 .5846405L.4850006 .41075135Z"/>
<path id="font_2_2" d="M.48599244 .6046295C.49299623 .63360598 .49499513 .63661196 .5169983 .63861086 .5219879 .63960269 .5569916 .63960269 .57699587 .63960269 .6380005 .63960269 .6639862 .63960269 .68899539 .63160708 .73399356 .61761477 .73599246 .5886383 .73599246 .5526581 .73599246 .53666689 .73599246 .52368167 .72898867 .4717102L.72698977 .46072389C.72698977 .45072938 .73399356 .4457245 .74398806 .4457245 .7589874 .4457245 .7609863 .45472718 .7630005 .47071839L.7899933 .66160586C.7899933 .6756134 .7779999 .6756134 .7599945 .6756134H.14498902C.11999512 .6756134 .117996219 .6756134 .11099243 .65460208L.04798889 .4777069C.04699707 .4737091 .042999269 .46472169 .042999269 .4597168 .042999269 .455719 .04499817 .4457245 .05999756 .4457245 .07299805 .4457245 .07499695 .45072938 .08099365 .4697113 .13899231 .62960818 .17199707 .63960269 .32398988 .63960269H.3659973C.3959961 .63960269 .39698792 .63861086 .39698792 .62960818 .39698792 .62861636 .39698792 .62361147 .3929901 .6086273L.26098634 .082962039C.2519989 .04598999 .24899292 .035995485 .14399719 .035995485 .10798645 .035995485 .09899902 .035995485 .09899902 .01399231 .09899902 .010986328 .100997928 0 .115997318 0 .14399719 0 .17399597 .0029907227 .20199585 .0029907227 .22999573 .0029907227 .2599945 .0039978029 .28799439 .0039978029 .31599427 .0039978029 .34999085 .0039978029 .37799073 .0029907227 .40499879 .0019989014 .43499757 0 .46199037 0 .46998597 0 .4850006 0 .4850006 .021987915 .4850006 .035995485 .47499085 .035995485 .44400025 .035995485 .4249878 .035995485 .40499879 .036987306 .38598634 .037994386 .35198976 .040985109 .34999085 .04498291 .34999085 .05697632 .34999085 .0639801 .34999085 .065979007 .35398866 .07997131L.48599244 .6046295Z"/>
<path id="font_2_1" d="M.58499148 .36265565C.60198977 .36265565 .61099246 .36265565 .621994 .37065126 .6349945 .38165284 .6380005 .3956604 .6380005 .40264894 .6380005 .43066407 .6119995 .43066407 .59498599 .43066407H.33898927C.1789856 .43066407 .05899048 .2728119 .05899048 .15299988 .05899048 .060150148 .12799073-.009765625 .22999573-.009765625 .35598756-.009765625 .5 .1040802 .5 .25683595 .5 .2728119 .5 .31773377 .46998597 .36265565H.58499148M.23098755 .018234253C.1769867 .018234253 .13198853 .0541687 .13198853 .12504578 .13198853 .15499878 .1499939 .36265565 .32199098 .36265565 .37298585 .36265565 .4249878 .34368897 .4249878 .267807 .4249878 .24984741 .41600038 .1599884 .36698915 .09310913 .32499696 .03819275 .2689972 .018234253 .23098755 .018234253Z"/>
<path id="font_5_1" d="M.3809967-.023864747V-.12182617C.3809967-.1388092 .3809967-.15480042 .397995-.15480042 .3999939-.15480042 .4139862-.15180969 .4189911-.14581299 .4229889-.1408081 .4229889-.1368103 .4229889-.11882019V-.010879517C.43399049-.007873535 .44699098-.0038757325 .45700074 .00012207031 .47200013 .0051116945 .47200013 .009109497 .47200013 .033096315V.064086917C.47200013 .08308411 .47200013 .097076419 .45498658 .097076419 .44799806 .097076419 .42900086 .09007263 .4229889 .08807373V.41990663C.43399049 .4229126 .44699098 .4269104 .45700074 .4309082 .47200013 .43589784 .47200013 .43989564 .47200013 .46388246V.49487306C.47200013 .513855 .47200013 .5278473 .45498658 .5278473 .44799806 .5278473 .42900086 .52085879 .4229889 .51885989V.68577578C.4229889 .7027588 .4229889 .71777346 .4059906 .71777346 .40499879 .71777346 .3899994 .7157593 .3849945 .7097626 .3809967 .70477297 .3809967 .7007599 .3809967 .6827698V.5058594L.21598816 .45489503V.6218109C.21598816 .63879397 .21598816 .65478518 .19898987 .65478518 .19699097 .65478518 .18299866 .65179446 .17799378 .6457977 .17399597 .64079287 .17399597 .63679507 .17399597 .61880496V.44189454C.16299439 .4389038 .14898682 .434906 .13999939 .4309082 .125 .42590333 .125 .41990663 .125 .3979187V.3669281C.125 .34794618 .125 .33395387 .14199829 .33395387 .14898682 .33395387 .16799927 .34094239 .17399597 .34294129V.011108398C.16299439 .008117676 .14898682 .004119873 .13999939 .00012207031 .125-.0048828127 .125-.010879517 .125-.03286743V-.06384277C.125-.082839969 .125-.096832279 .14199829-.096832279 .14898682-.096832279 .16799927-.08982849 .17399597-.08782959V-.18579102C.17399597-.20277405 .17399597-.21777344 .19099427-.21777344 .19198609-.21777344 .20698548-.21577454 .21199036-.20977783 .21598816-.20478821 .21598816-.20077515 .21598816-.18278504V-.07484436L.3809967-.023864747M.3809967 .4069214V.0750885L.21598816 .024108887V.35594178L.3809967 .4069214Z"/>
</defs>
<use data-text="L" xlink:href="#font_1_2" transform="matrix(9.962799,0,0,-9.963098,1.189743,11.349867)"/>
<use data-text="C" xlink:href="#font_1_1" transform="matrix(9.962799,0,0,-9.963098,7.964447,11.349867)"/>
<use data-text="n" xlink:href="#font_2_3" transform="matrix(6.97394,0,0,-6.9741489,15.090012,12.844942)"/>
<use data-text="(" xlink:href="#font_3_2" transform="matrix(9.962799,0,0,-9.963098,20.513123,11.349867)"/>
<use data-text="&#x2206;" xlink:href="#font_3_1" transform="matrix(9.962799,0,0,-9.963098,24.378693,11.349867)"/>
<use data-text="n" xlink:href="#font_2_3" transform="matrix(6.97394,0,0,-6.9741489,32.69037,7.734686)"/>
<use data-text=")" xlink:href="#font_3_3" transform="matrix(9.962799,0,0,-9.963098,38.11348,11.349867)"/>
<use data-text="L" xlink:href="#font_1_2" transform="matrix(9.962799,0,0,-9.963098,98.3967,11.349867)"/>
<use data-text="C" xlink:href="#font_1_1" transform="matrix(9.962799,0,0,-9.963098,105.17142,11.349867)"/>
<use data-text="n" xlink:href="#font_2_3" transform="matrix(6.97394,0,0,-6.9741489,112.29797,12.844942)"/>
<use data-text="+" xlink:href="#font_4_1" transform="matrix(6.97394,0,0,-6.9741489,117.22305,12.844942)"/>
<use data-text="1" xlink:href="#font_4_2" transform="matrix(6.97394,0,0,-6.9741489,123.3392,12.844942)"/>
<use data-text="(" xlink:href="#font_3_2" transform="matrix(9.962799,0,0,-9.963098,127.80826,11.349867)"/>
<use data-text="&#x2206;" xlink:href="#font_3_1" transform="matrix(9.962799,0,0,-9.963098,131.67383,11.349867)"/>
<use data-text="n" xlink:href="#font_2_3" transform="matrix(6.97394,0,0,-6.9741489,139.9855,7.734686)"/>
<use data-text=")" xlink:href="#font_3_3" transform="matrix(9.962799,0,0,-9.963098,145.40863,11.349867)"/>
<use data-text="C" xlink:href="#font_1_1" transform="matrix(9.962799,0,0,-9.963098,6.9248659,55.514078)"/>
<use data-text="n" xlink:href="#font_2_3" transform="matrix(6.97394,0,0,-6.9741489,14.044998,57.00815)"/>
<use data-text="(" xlink:href="#font_3_2" transform="matrix(9.962799,0,0,-9.963098,19.46811,55.514078)"/>
<use data-text="X" xlink:href="#font_1_3" transform="matrix(9.962799,0,0,-9.963098,23.3432,55.514078)"/>
<use data-text=")" xlink:href="#font_3_3" transform="matrix(9.962799,0,0,-9.963098,32.378374,55.514078)"/>
<use data-text="C" xlink:href="#font_1_1" transform="matrix(9.962799,0,0,-9.963098,104.13182,55.514078)"/>
<use data-text="n" xlink:href="#font_2_3" transform="matrix(6.97394,0,0,-6.9741489,111.252979,57.00815)"/>
<use data-text="+" xlink:href="#font_4_1" transform="matrix(6.97394,0,0,-6.9741489,116.178058,57.00815)"/>
<use data-text="1" xlink:href="#font_4_2" transform="matrix(6.97394,0,0,-6.9741489,122.294208,57.00815)"/>
<use data-text="(" xlink:href="#font_3_2" transform="matrix(9.962799,0,0,-9.963098,126.76326,55.514078)"/>
<use data-text="X" xlink:href="#font_1_3" transform="matrix(9.962799,0,0,-9.963098,130.63835,55.514078)"/>
<use data-text=")" xlink:href="#font_3_3" transform="matrix(9.962799,0,0,-9.963098,139.67351,55.514078)"/>
<path transform="matrix(1.00002,0,0,-1.00005,75.23723,30.940846)" stroke-width=".39848" stroke-linecap="butt" stroke-miterlimit="10" stroke-linejoin="miter" fill="none" stroke="#000000" d="M-28.75508 22.08098H18.26924"/>
<path transform="matrix(1.00002,0,0,-1.00005,93.70608,8.858763)" stroke-width=".39848" stroke-linecap="round" stroke-linejoin="round" fill="none" stroke="#000000" d="M-2.07213 2.39091C-1.69356 .95633-.84995 .27893 0 0-.84995-.27893-1.69356-.95633-2.07213-2.39091"/>
<use data-text="T" xlink:href="#font_2_2" transform="matrix(6.97394,0,0,-6.9741489,67.30407,6.5126249)"/>
<path transform="matrix(1.00002,0,0,-1.00005,75.23723,30.940846)" stroke-width=".39848" stroke-linecap="butt" stroke-miterlimit="10" stroke-linejoin="miter" fill="none" stroke="#000000" d="M-53.64735 13.25046V-12.85199"/>
<path transform="matrix(0,1.00005,1.00002,0,21.588803,43.992719)" stroke-width=".39848" stroke-linecap="round" stroke-linejoin="round" fill="none" stroke="#000000" d="M-2.07213 2.39091C-1.69356 .95633-.84995 .27893 0 0-.84995-.27893-1.69356-.95633-2.07213-2.39091"/>
<use data-text="&#x03c3;" xlink:href="#font_2_1" transform="matrix(6.97394,0,0,-6.9741489,11.152954,31.428872)"/>
<use data-text="&#x266f;" xlink:href="#font_5_1" transform="matrix(4.9813997,0,0,-4.981549,15.77005,32.48592)"/>
<path transform="matrix(1.00002,0,0,-1.00005,75.23723,30.940846)" stroke-width=".39848" stroke-linecap="butt" stroke-miterlimit="10" stroke-linejoin="miter" fill="none" stroke="#000000" d="M48.60367 13.25046V-12.85199"/>
<path transform="matrix(0,1.00005,1.00002,0,123.84187,43.992719)" stroke-width=".39848" stroke-linecap="round" stroke-linejoin="round" fill="none" stroke="#000000" d="M-2.07213 2.39091C-1.69356 .95633-.84995 .27893 0 0-.84995-.27893-1.69356-.95633-2.07213-2.39091"/>
<use data-text="&#x03c3;" xlink:href="#font_2_1" transform="matrix(6.97394,0,0,-6.9741489,126.18825,31.428872)"/>
<use data-text="&#x266f;" xlink:href="#font_5_1" transform="matrix(4.9813997,0,0,-4.981549,130.80535,32.48592)"/>
<path transform="matrix(1.00002,0,0,-1.00005,75.23723,30.940846)" stroke-width=".39848" stroke-linecap="butt" stroke-miterlimit="10" stroke-linejoin="miter" fill="none" stroke="#000000" d="M-34.49005-22.08098H24.00424"/>
<path transform="matrix(1.00002,0,0,-1.00005,99.44119,53.022928)" stroke-width=".39848" stroke-linecap="round" stroke-linejoin="round" fill="none" stroke="#000000" d="M-2.07213 2.39091C-1.69356 .95633-.84995 .27893 0 0-.84995-.27893-1.69356-.95633-2.07213-2.39091"/>
<use data-text="T" xlink:href="#font_2_2" transform="matrix(6.97394,0,0,-6.9741489,67.30407,60.135309)"/>
</svg>
