<svg xmlns="http://www.w3.org/2000/svg" xmlns:xlink="http://www.w3.org/1999/xlink" xmlns:inkscape="http://www.inkscape.org/namespaces/inkscape" version="1.1" width="310" height="62" viewBox="0 0 310 62">
<defs>
<path id="font_1_1" d="M.19198609 .2502594C.19198609 .2792511 .16799927 .30325318 .13899231 .30325318 .10998535 .30325318 .085998538 .2792511 .085998538 .2502594 .085998538 .22125244 .10998535 .19726563 .13899231 .19726563 .16799927 .19726563 .19198609 .22125244 .19198609 .2502594Z"/>
<path id="font_2_1" d="M.7599945 .69506838C.7599945 .69807437 .7579956 .7050781 .7489929 .7050781 .74598696 .7050781 .7449951 .70407107 .73399356 .69306948L.6639862 .61602786C.6549988 .6300354 .60899356 .7050781 .49798585 .7050781 .2749939 .7050781 .049987794 .48391725 .049987794 .25172425 .049987794 .08659363 .16799927-.022460938 .32099916-.022460938 .4079895-.022460938 .48399354 .017532349 .5369873 .063583377 .6299896 .14564514 .6469879 .2367096 .6469879 .23971558 .6469879 .24972534 .6369934 .24972534 .6349945 .24972534 .6289978 .24972534 .6239929 .24772644 .621994 .23971558 .61299136 .21069336 .58999636 .13963318 .5209961 .081588748 .45199586 .025543213 .3889923 .008529663 .33699037 .008529663 .24699402 .008529663 .14099121 .060577394 .14099121 .21670532 .14099121 .27374269 .1619873 .43588258 .2619934 .55296328 .32299806 .62402346 .4169922 .67407229 .5059967 .67407229 .60798647 .67407229 .6669922 .5970001 .6669922 .48091126 .6669922 .44088746 .6639862 .43988038 .6639862 .4298706 .6639862 .41986085 .6749878 .41986085 .67900088 .41986085 .69200137 .41986085 .69200137 .42185975 .69699099 .43988038L.7599945 .69506838Z"/>
<path id="font_3_4" d="M.12199402 .06324768C.117996219 .050247194 .11199951 .025222779 .11199951 .022232056 .11199951 .00022888184 .12998963-.009765625 .1459961-.009765625 .1639862-.009765625 .17999268 .0032196046 .18499756 .01222229 .18998719 .021224976 .19799805 .053237916 .20298767 .07424927 .20799256 .09326172 .21899414 .13928223 .22499085 .16429138 .23098755 .18629456 .23699951 .20831299 .24198914 .23132324 .25299073 .27233888 .25498963 .28033448 .28399659 .32136537 .31199647 .3613739 .35899354 .4133911 .43399049 .4133911 .49198915 .4133911 .49299623 .36238099 .49299623 .34336854 .49299623 .28334046 .44999696 .17228699 .43399049 .13027954 .4229889 .102264408 .4189911 .09326172 .4189911 .07624817 .4189911 .023223877 .46299745-.009765625 .5139923-.009765625 .6139984-.009765625 .6579895 .12828064 .6579895 .14328003 .6579895 .15628052 .644989 .15628052 .6419983 .15628052 .6279907 .15628052 .6269989 .15028382 .6230011 .13928223 .59999087 .059249879 .5569916 .018234253 .5169983 .018234253 .49598695 .018234253 .49198915 .032226564 .49198915 .053237916 .49198915 .07624817 .49699403 .089263919 .5149994 .13427735 .5269928 .1652832 .56799319 .2713318 .56799319 .32736207 .56799319 .4243927 .4909973 .44140626 .43798829 .44140626 .35499574 .44140626 .29899598 .39038087 .2689972 .3503723 .2619934 .41940309 .20298767 .44140626 .1619873 .44140626 .11898804 .44140626 .09599304 .4104004 .08299255 .38739015 .06098938 .3503723 .04699707 .29335023 .04699707 .28834535 .04699707 .27534486 .06098938 .27534486 .06399536 .27534486 .07798767 .27534486 .07899475 .27833558 .085998538 .3053589 .100997928 .36437989 .11999512 .4133911 .15899658 .4133911 .18499756 .4133911 .19198609 .39138795 .19198609 .36437989 .19198609 .34536744 .18299866 .3083496 .17599488 .28134156 .16899109 .2543335 .15899658 .21331787 .1539917 .19129944L.12199402 .06324768Z"/>
<path id="font_4_1" d="M.46299745 .2263794H.7689972C.7819977 .2263794 .80599978 .2263794 .80599978 .25038148 .80599978 .27539063 .7829895 .27539063 .7689972 .27539063H.46299745V.5821533C.46299745 .59513857 .46299745 .6191406 .43899537 .6191406 .4139862 .6191406 .4139862 .5961304 .4139862 .5821533V.27539063H.10699463C.09399414 .27539063 .069992069 .27539063 .069992069 .25138856 .069992069 .2263794 .09298706 .2263794 .10699463 .2263794H.4139862V-.08114624C.4139862-.09416199 .4139862-.11816406 .43798829-.11816406 .46299745-.11816406 .46299745-.09516907 .46299745-.08114624V.2263794Z"/>
<path id="font_4_2" d="M.33499146 .63612368C.33499146 .6630554 .33299256 .6640625 .30499269 .6640625 .24099732 .6014404 .1499939 .6004486 .10899353 .6004486V.5644531C.1329956 .5644531 .19898987 .5644531 .2539978 .592453V.08203125C.2539978 .04899597 .2539978 .035995485 .1539917 .035995485H.115997318V0C.13398743 .0009918213 .25698854 .0039978029 .2939911 .0039978029 .32499696 .0039978029 .45098878 .0009918213 .47299195 0V.035995485H.43499757C.33499146 .035995485 .33499146 .04899597 .33499146 .08203125V.63612368Z"/>
<path id="font_5_1" d="M.33099366-.2400055C.33099366-.23701477 .33099366-.23500061 .31399537-.21800232 .18899536-.0920105 .15699768 .09700012 .15699768 .25 .15699768 .42399598 .19499207 .59799197 .31799317 .72299197 .33099366 .73498538 .33099366 .7369995 .33099366 .73999026 .33099366 .746994 .32699586 .75 .32099916 .75 .31098939 .75 .22099304 .6819916 .1619873 .5549927 .11099243 .44499208 .09899902 .33399964 .09899902 .25 .09899902 .17199707 .10998535 .050994874 .16499329-.06201172 .22499085-.18501282 .31098939-.25 .32099916-.25 .32699586-.25 .33099366-.24700928 .33099366-.2400055Z"/>
<path id="font_2_2" d="M.4850006 .41075135 .40098573 .6096344C.397995 .61763 .3959961 .6216278 .3959961 .6226196 .3959961 .62861636 .41299439 .6476135 .45498658 .6516113 .46499635 .65260317 .47499085 .6536102 .47499085 .6706085 .47499085 .6826172 .46299745 .6826172 .45999146 .6826172 .4189911 .6826172 .37599183 .6796112 .33399964 .6796112 .30899049 .6796112 .24699402 .6826172 .22200012 .6826172 .21598816 .6826172 .20399475 .6826172 .20399475 .6626129 .20399475 .6516113 .21398926 .6516113 .22698975 .6516113 .2869873 .6516113 .29299928 .6416168 .3019867 .6196289L.41999818 .34080506 .20899964 .11393738 .19599915 .10295105C.14698792 .049987794 .099990848 .033996583 .04899597 .0309906 .035995485 .02999878 .026992798 .02999878 .026992798 .010986328 .026992798 .009994507 .026992798 0 .039993287 0 .069992069 0 .102996829 .0029907227 .13398743 .0029907227 .17098999 .0029907227 .20999146 0 .24598694 0 .2519989 0 .2639923 0 .2639923 .019989014 .2639923 .02999878 .2539978 .0309906 .2519989 .0309906 .24299622 .03199768 .21199036 .033996583 .21199036 .061965944 .21199036 .07795715 .22698975 .093948367 .23899842 .10694885L.34098817 .21487427 .43099977 .31282044 .5319977 .07395935C.5359955 .06297302 .5369873 .061965944 .5369873 .05996704 .5369873 .051986696 .5179901 .034988405 .47898866 .0309906 .46798707 .02999878 .45899964 .0289917 .45899964 .011993408 .45899964 0 .46998597 0 .47399903 0 .5019989 0 .57199099 .0029907227 .59999087 .0029907227 .625 .0029907227 .6859894 0 .71099856 0 .71798709 0 .7299957 0 .7299957 .018997193 .7299957 .0309906 .7200012 .0309906 .71199038 .0309906 .644989 .03199768 .6429901 .034988405 .6259918 .07496643 .58699038 .16790772 .519989 .32380677 .49699403 .3837738 .5649872 .45373536 .66999819 .5726471 .70199587 .6006317 .73098757 .62461856 .7689972 .64860537 .82899478 .6516113 .84199526 .65260317 .8509979 .65260317 .8509979 .6716156 .8509979 .6726074 .8509979 .6826172 .83799746 .6826172 .80799868 .6826172 .7749939 .6796112 .74398806 .6796112 .70700076 .6796112 .6689911 .6826172 .6329956 .6826172 .6269989 .6826172 .6139984 .6826172 .6139984 .6626129 .6139984 .65560916 .61898806 .65260317 .6259918 .6516113 .6349945 .65060427 .66600039 .64860537 .66600039 .6206207 .66600039 .6066284 .6549988 .5936432 .6469879 .5846405L.4850006 .41075135Z"/>
<path id="font_5_2" d="M.2889862 .25C.2889862 .32798768 .27799989 .44898988 .22299195 .56199648 .16299439 .68499758 .07699585 .75 .066986087 .75 .06098938 .75 .056991579 .74598696 .056991579 .73999026 .056991579 .7369995 .056991579 .73498538 .07598877 .71699526 .17399597 .6179962 .23098755 .45899964 .23098755 .25 .23098755 .07899475 .19400025-.09700012 .069992069-.2230072 .056991579-.23500061 .056991579-.23701477 .056991579-.2400055 .056991579-.2460022 .06098938-.25 .066986087-.25 .07699585-.25 .16699219-.18200684 .22599793-.055007936 .2769928 .054992677 .2889862 .16600037 .2889862 .25Z"/>
<path id="font_6_1" d="M.74398806 .2263794C.7599945 .2263794 .7839966 .2263794 .7839966 .25038148 .7839966 .27539063 .7609863 .27539063 .74398806 .27539063H.147995C.13198853 .27539063 .10798645 .27539063 .10798645 .25138856 .10798645 .2263794 .1309967 .2263794 .147995 .2263794H.74398806Z"/>
<path id="font_3_1" d="M.5249939 .33813478C.5109863 .3960724 .46598817 .4560547 .37199403 .4560547 .23199463 .4560547 .115997318 .35112 .07998657 .2612152 .07398987 .24423218 .05999756 .20327759 .05999756 .16331482 .05999756 .09437561 .11399841-.01953125 .269989-.01953125 .5289917-.01953125 .6339874 .30317689 .6339874 .4450531 .6339874 .61631777 .5219879 .7138672 .3880005 .7138672 .22499085 .7138672 .17999268 .58436587 .17999268 .55336 .17999268 .5453644 .18499756 .5173645 .21998596 .5173645 .25498963 .5173645 .27598573 .54837039 .27598573 .57237246 .27598573 .59936526 .2559967 .6083679 .23699951 .6103668 .2869873 .6848602 .36898805 .6848602 .38598634 .6848602 .46099855 .6848602 .5499878 .63816836 .5499878 .4962616 .5499878 .4530487 .54499819 .4180603 .526001 .33813478H.5249939M.27198792 .012466431C.15899658 .012466431 .1459961 .09738159 .1459961 .12834168 .1459961 .16731262 .17298889 .265213 .18299866 .29019166 .20098877 .33613587 .2630005 .42803956 .37599183 .42803956 .47299195 .42803956 .5049896 .35212709 .5049896 .2921753 .5049896 .22525025 .43998719 .012466431 .27198792 .012466431Z"/>
<path id="font_3_2" d="M.70999148 .6901245C.70999148 .69511416 .70700076 .703125 .69699099 .703125 .69099429 .703125 .6899872 .7021179 .6769867 .68911746L.6279907 .6321411C.58999636 .6851196 .5269928 .703125 .46598817 .703125 .32499696 .703125 .19999695 .5891571 .19999695 .4742279 .19999695 .45922853 .20298767 .4192505 .23298645 .38227845 .2669983 .34228517 .3039856 .33329774 .37199403 .31730653 .3919983 .31230165 .44198609 .3013153 .45700074 .2973175 .4889984 .2893219 .5499878 .26733399 .5499878 .19236756 .5499878 .11140442 .46499635 .016464234 .35099793 .016464234 .2630005 .016464234 .15699768 .047439577 .15699768 .15838623 .15699768 .16838074 .15899658 .19036865 .16299439 .20835877 .1639862 .21235657 .1639862 .21336365 .1639862 .21435547 .1639862 .22735596 .1519928 .22735596 .147995 .22735596 .13398743 .22735596 .1329956 .22535706 .1289978 .20736695L.07798767 .007461548C.07699585 .0034637452 .07499695-.002532959 .07499695-.007537842 .07499695-.013534546 .07899475-.01953125 .08898926-.01953125 .09498596-.01953125 .09599304-.018539429 .10899353-.0055389406 .11999512 .006454468 .1459961 .03845215 .15699768 .050445558 .20999146-.007537842 .28799439-.01953125 .34799195-.01953125 .49899293-.01953125 .62098696 .1104126 .62098696 .22834778 .62098696 .2723236 .6029968 .31230165 .58099368 .33529664 .54599 .37127687 .5309906 .37527467 .4019928 .40525819 .3809967 .41026307 .34799195 .41825868 .33898927 .4212494 .31399537 .43025209 .27198792 .4552307 .27198792 .51220706 .27198792 .591156 .36099244 .67111209 .46499635 .67111209 .57299807 .67111209 .625 .6101532 .625 .51519778 .625 .5022125 .62098696 .47921754 .62098696 .4702301 .62098696 .4562378 .6329956 .4562378 .6380005 .4562378 .6529999 .4562378 .6539917 .46122743 .6579895 .4782257L.70999148 .6901245Z"/>
<path id="font_4_4" d="M.21099854 .6168213C.21099854 .645813 .18699646 .6738281 .15299988 .6738281 .12298584 .6738281 .09599304 .64982607 .09599304 .6168213 .09599304 .5808258 .125 .55882266 .15299988 .55882266 .18499756 .55882266 .21099854 .5838165 .21099854 .6168213M.05899048 .43040467V.39439393C.12199402 .39439393 .1309967 .38839723 .1309967 .3393402V.07904053C.1309967 .035995485 .12098694 .035995485 .055999757 .035995485V0C.057998659 0 .12799073 .0039978029 .16799927 .0039978029 .20298767 .0039978029 .23899842 .0029907227 .27398683 0V.035995485C.21598816 .035995485 .20599365 .035995485 .20599365 .07803345V.44140626L.05899048 .43040467Z"/>
<path id="font_4_3" d="M.35598756 .68333438V.6473236C.4229889 .6473236 .43099977 .6403351 .43099977 .59135439V.38438417C.3939972 .4203949 .34599305 .44140626 .29100038 .44140626 .1579895 .44140626 .04598999 .34136964 .04598999 .21531677 .04598999 .09025574 .1519928-.009765625 .2789917-.009765625 .36099244-.009765625 .4099884 .034240724 .4269867 .052246095V-.009765625L.58099368 .00022888184V.036239625C.5139923 .036239625 .5059967 .04324341 .5059967 .09225464V.69433596L.35598756 .68333438M.4269867 .105270389C.40098573 .058242799 .34999085 .018234253 .2849884 .018234253 .22898865 .018234253 .18899536 .051239015 .16899109 .08026123 .14898682 .11026001 .13699341 .15028382 .13699341 .21430969 .13699341 .23731995 .13699341 .3123474 .17799378 .359375 .21798706 .40438844 .2669983 .4133911 .29599 .4133911 .34399415 .4133911 .3869934 .39138795 .4149933 .3553772 .4269867 .33937074 .4269867 .33836366 .4269867 .3193512V.105270389Z"/>
<path id="font_3_3" d="M.48599244 .6046295C.49299623 .63360598 .49499513 .63661196 .5169983 .63861086 .5219879 .63960269 .5569916 .63960269 .57699587 .63960269 .6380005 .63960269 .6639862 .63960269 .68899539 .63160708 .73399356 .61761477 .73599246 .5886383 .73599246 .5526581 .73599246 .53666689 .73599246 .52368167 .72898867 .4717102L.72698977 .46072389C.72698977 .45072938 .73399356 .4457245 .74398806 .4457245 .7589874 .4457245 .7609863 .45472718 .7630005 .47071839L.7899933 .66160586C.7899933 .6756134 .7779999 .6756134 .7599945 .6756134H.14498902C.11999512 .6756134 .117996219 .6756134 .11099243 .65460208L.04798889 .4777069C.04699707 .4737091 .042999269 .46472169 .042999269 .4597168 .042999269 .455719 .04499817 .4457245 .05999756 .4457245 .07299805 .4457245 .07499695 .45072938 .08099365 .4697113 .13899231 .62960818 .17199707 .63960269 .32398988 .63960269H.3659973C.3959961 .63960269 .39698792 .63861086 .39698792 .62960818 .39698792 .62861636 .39698792 .62361147 .3929901 .6086273L.26098634 .082962039C.2519989 .04598999 .24899292 .035995485 .14399719 .035995485 .10798645 .035995485 .09899902 .035995485 .09899902 .01399231 .09899902 .010986328 .100997928 0 .115997318 0 .14399719 0 .17399597 .0029907227 .20199585 .0029907227 .22999573 .0029907227 .2599945 .0039978029 .28799439 .0039978029 .31599427 .0039978029 .34999085 .0039978029 .37799073 .0029907227 .40499879 .0019989014 .43499757 0 .46199037 0 .46998597 0 .4850006 0 .4850006 .021987915 .4850006 .035995485 .47499085 .035995485 .44400025 .035995485 .4249878 .035995485 .40499879 .036987306 .38598634 .037994386 .35198976 .040985109 .34999085 .04498291 .34999085 .05697632 .34999085 .0639801 .34999085 .065979007 .35398866 .07997131L.48599244 .6046295Z"/>
</defs>
<use data-text="&#x00b7;" xlink:href="#font_1_1" transform="matrix(9.9626,0,0,-9.962899,.18800354,11.426924)"/>
<use data-text="&#x00b7;" xlink:href="#font_1_1" transform="matrix(9.9626,0,0,-9.962899,4.6014406,11.426924)"/>
<use data-text="&#x00b7;" xlink:href="#font_1_1" transform="matrix(9.9626,0,0,-9.962899,9.024841,11.426924)"/>
<use data-text="C" xlink:href="#font_2_1" transform="matrix(9.9626,0,0,-9.962899,56.264009,11.426924)"/>
<use data-text="n" xlink:href="#font_3_4" transform="matrix(6.9738,0,0,-6.9740097,63.38501,12.92197)"/>
<use data-text="+" xlink:href="#font_4_1" transform="matrix(6.9738,0,0,-6.9740097,68.31,12.92197)"/>
<use data-text="1" xlink:href="#font_4_2" transform="matrix(6.9738,0,0,-6.9740097,74.426029,12.92197)"/>
<use data-text="(" xlink:href="#font_5_1" transform="matrix(9.9626,0,0,-9.962899,78.89499,11.426924)"/>
<use data-text="X" xlink:href="#font_2_2" transform="matrix(9.9626,0,0,-9.962899,82.76898,11.426924)"/>
<use data-text=")" xlink:href="#font_5_2" transform="matrix(9.9626,0,0,-9.962899,91.80499,11.426924)"/>
<use data-text="C" xlink:href="#font_2_1" transform="matrix(9.9626,0,0,-9.962899,140.133,11.426924)"/>
<use data-text="n" xlink:href="#font_3_4" transform="matrix(6.9738,0,0,-6.9740097,147.254,12.92197)"/>
<use data-text="(" xlink:href="#font_5_1" transform="matrix(9.9626,0,0,-9.962899,152.677,11.426924)"/>
<use data-text="X" xlink:href="#font_2_2" transform="matrix(9.9626,0,0,-9.962899,156.551,11.426924)"/>
<use data-text=")" xlink:href="#font_5_2" transform="matrix(9.9626,0,0,-9.962899,165.586,11.426924)"/>
<use data-text="C" xlink:href="#font_2_1" transform="matrix(9.9626,0,0,-9.962899,213.91397,11.426924)"/>
<use data-text="n" xlink:href="#font_3_4" transform="matrix(6.9738,0,0,-6.9740097,221.03498,12.92197)"/>
<use data-text="&#x2212;" xlink:href="#font_6_1" transform="matrix(6.9738,0,0,-6.9740097,225.95899,12.92197)"/>
<use data-text="1" xlink:href="#font_4_2" transform="matrix(6.9738,0,0,-6.9740097,232.18598,12.92197)"/>
<use data-text="(" xlink:href="#font_5_1" transform="matrix(9.9626,0,0,-9.962899,236.65598,11.426924)"/>
<use data-text="X" xlink:href="#font_2_2" transform="matrix(9.9626,0,0,-9.962899,240.52997,11.426924)"/>
<use data-text=")" xlink:href="#font_5_2" transform="matrix(9.9626,0,0,-9.962899,249.56494,11.426924)"/>
<use data-text="&#x00b7;" xlink:href="#font_1_1" transform="matrix(9.9626,0,0,-9.962899,297.89295,11.426924)"/>
<use data-text="&#x00b7;" xlink:href="#font_1_1" transform="matrix(9.9626,0,0,-9.962899,302.3064,11.426924)"/>
<use data-text="&#x00b7;" xlink:href="#font_1_1" transform="matrix(9.9626,0,0,-9.962899,306.7298,11.426924)"/>
<use data-text="&#x00b7;" xlink:href="#font_1_1" transform="matrix(9.9626,0,0,-9.962899,.18800354,55.59025)"/>
<use data-text="&#x00b7;" xlink:href="#font_1_1" transform="matrix(9.9626,0,0,-9.962899,4.6014406,55.59025)"/>
<use data-text="&#x00b7;" xlink:href="#font_1_1" transform="matrix(9.9626,0,0,-9.962899,9.024841,55.59025)"/>
<use data-text="C" xlink:href="#font_2_1" transform="matrix(9.9626,0,0,-9.962899,56.264009,55.59025)"/>
<use data-text="n" xlink:href="#font_3_4" transform="matrix(6.9738,0,0,-6.9740097,63.38501,57.084299)"/>
<use data-text="+" xlink:href="#font_4_1" transform="matrix(6.9738,0,0,-6.9740097,68.31,57.084299)"/>
<use data-text="1" xlink:href="#font_4_2" transform="matrix(6.9738,0,0,-6.9740097,74.426029,57.084299)"/>
<use data-text="(" xlink:href="#font_5_1" transform="matrix(9.9626,0,0,-9.962899,78.89499,55.59025)"/>
<use data-text="X" xlink:href="#font_2_2" transform="matrix(9.9626,0,0,-9.962899,82.76898,55.59025)"/>
<use data-text=")" xlink:href="#font_5_2" transform="matrix(9.9626,0,0,-9.962899,91.80499,55.59025)"/>
<use data-text="C" xlink:href="#font_2_1" transform="matrix(9.9626,0,0,-9.962899,140.133,55.59025)"/>
<use data-text="n" xlink:href="#font_3_4" transform="matrix(6.9738,0,0,-6.9740097,147.254,57.084299)"/>
<use data-text="(" xlink:href="#font_5_1" transform="matrix(9.9626,0,0,-9.962899,152.677,55.59025)"/>
<use data-text="X" xlink:href="#font_2_2" transform="matrix(9.9626,0,0,-9.962899,156.551,55.59025)"/>
<use data-text=")" xlink:href="#font_5_2" transform="matrix(9.9626,0,0,-9.962899,165.586,55.59025)"/>
<use data-text="C" xlink:href="#font_2_1" transform="matrix(9.9626,0,0,-9.962899,213.91397,55.59025)"/>
<use data-text="n" xlink:href="#font_3_4" transform="matrix(6.9738,0,0,-6.9740097,221.03498,57.084299)"/>
<use data-text="&#x2212;" xlink:href="#font_6_1" transform="matrix(6.9738,0,0,-6.9740097,225.95899,57.084299)"/>
<use data-text="1" xlink:href="#font_4_2" transform="matrix(6.9738,0,0,-6.9740097,232.18598,57.084299)"/>
<use data-text="(" xlink:href="#font_5_1" transform="matrix(9.9626,0,0,-9.962899,236.65598,55.59025)"/>
<use data-text="X" xlink:href="#font_2_2" transform="matrix(9.9626,0,0,-9.962899,240.52997,55.59025)"/>
<use data-text=")" xlink:href="#font_5_2" transform="matrix(9.9626,0,0,-9.962899,249.56494,55.59025)"/>
<use data-text="&#x00b7;" xlink:href="#font_1_1" transform="matrix(9.9626,0,0,-9.962899,297.89295,55.59025)"/>
<use data-text="&#x00b7;" xlink:href="#font_1_1" transform="matrix(9.9626,0,0,-9.962899,302.3064,55.59025)"/>
<use data-text="&#x00b7;" xlink:href="#font_1_1" transform="matrix(9.9626,0,0,-9.962899,306.7298,55.59025)"/>
<path transform="matrix(1,0,0,-1.00003,154.855,31.01751)" stroke-width=".39848" stroke-linecap="butt" stroke-miterlimit="10" stroke-linejoin="miter" fill="none" stroke="#000000" d="M-138.54959 22.08098H-103.48055"/>
<path transform="matrix(1,0,0,-1.00003,51.573686,8.935865)" stroke-width=".39848" stroke-linecap="round" stroke-linejoin="round" fill="none" stroke="#000000" d="M-2.07213 2.39091C-1.69356 .95633-.84995 .27893 0 0-.84995-.27893-1.69356-.95633-2.07213-2.39091"/>
<use data-text="&#x2202;" xlink:href="#font_3_1" transform="matrix(6.9738,0,0,-6.9740097,31.697007,6.589775)"/>
<path transform="matrix(1,0,0,-1.00003,154.855,31.01751)" stroke-width=".39848" stroke-linecap="butt" stroke-miterlimit="10" stroke-linejoin="miter" fill="none" stroke="#000000" d="M-54.68016 22.08098H-19.61111"/>
<path transform="matrix(1,0,0,-1.00003,135.44313,8.935865)" stroke-width=".39848" stroke-linecap="round" stroke-linejoin="round" fill="none" stroke="#000000" d="M-2.07213 2.39091C-1.69356 .95633-.84995 .27893 0 0-.84995-.27893-1.69356-.95633-2.07213-2.39091"/>
<use data-text="&#x2202;" xlink:href="#font_3_1" transform="matrix(6.9738,0,0,-6.9740097,115.567,6.589775)"/>
<path transform="matrix(1,0,0,-1.00003,154.855,31.01751)" stroke-width=".39848" stroke-linecap="butt" stroke-miterlimit="10" stroke-linejoin="miter" fill="none" stroke="#000000" d="M-78.88112 13.25046V-12.85199"/>
<path transform="matrix(0,1.00003,1,0,75.97388,44.069124)" stroke-width=".39848" stroke-linecap="round" stroke-linejoin="round" fill="none" stroke="#000000" d="M-2.07213 2.39091C-1.69356 .95633-.84995 .27893 0 0-.84995-.27893-1.69356-.95633-2.07213-2.39091"/>
<use data-text="S" xlink:href="#font_3_2" transform="matrix(6.9738,0,0,-6.9740097,55.472,33.023569)"/>
<use data-text="&#x2212;" xlink:href="#font_6_1" transform="matrix(6.9738,0,0,-6.9740097,60.744997,33.023569)"/>
<use data-text="i" xlink:href="#font_4_4" transform="matrix(6.9738,0,0,-6.9740097,66.97099,33.023569)"/>
<use data-text="d" xlink:href="#font_4_3" transform="matrix(6.9738,0,0,-6.9740097,69.223529,33.023569)"/>
<path transform="matrix(1,0,0,-1.00003,154.855,31.01751)" stroke-width=".39848" stroke-linecap="butt" stroke-miterlimit="10" stroke-linejoin="miter" fill="none" stroke="#000000" d="M19.10193 22.08098H54.17097"/>
<path transform="matrix(1,0,0,-1.00003,209.22522,8.935865)" stroke-width=".39848" stroke-linecap="round" stroke-linejoin="round" fill="none" stroke="#000000" d="M-2.07213 2.39091C-1.69356 .95633-.84995 .27893 0 0-.84995-.27893-1.69356-.95633-2.07213-2.39091"/>
<use data-text="&#x2202;" xlink:href="#font_3_1" transform="matrix(6.9738,0,0,-6.9740097,189.349,6.589775)"/>
<path transform="matrix(1,0,0,-1.00003,154.855,31.01751)" stroke-width=".39848" stroke-linecap="butt" stroke-miterlimit="10" stroke-linejoin="miter" fill="none" stroke="#000000" d="M-.05534 13.25046V-12.85199"/>
<path transform="matrix(0,1.00003,1,0,154.79965,44.069124)" stroke-width=".39848" stroke-linecap="round" stroke-linejoin="round" fill="none" stroke="#000000" d="M-2.07213 2.39091C-1.69356 .95633-.84995 .27893 0 0-.84995-.27893-1.69356-.95633-2.07213-2.39091"/>
<use data-text="S" xlink:href="#font_3_2" transform="matrix(6.9738,0,0,-6.9740097,134.298,33.023569)"/>
<use data-text="&#x2212;" xlink:href="#font_6_1" transform="matrix(6.9738,0,0,-6.9740097,139.57099,33.023569)"/>
<use data-text="i" xlink:href="#font_4_4" transform="matrix(6.9738,0,0,-6.9740097,145.797,33.023569)"/>
<use data-text="d" xlink:href="#font_4_3" transform="matrix(6.9738,0,0,-6.9740097,148.04953,33.023569)"/>
<path transform="matrix(1,0,0,-1.00003,154.855,31.01751)" stroke-width=".39848" stroke-linecap="butt" stroke-dasharray="2.78941,1.59395" stroke-miterlimit="10" stroke-linejoin="miter" fill="none" stroke="#000000" d="M-15.80988 13.25046-62.77678-13.05576"/>
<path transform="matrix(-.87244,.4886647,.48865,.8724662,91.9044,44.171007)" stroke-width=".39848" stroke-linecap="round" stroke-linejoin="round" fill="none" stroke="#000000" d="M-2.07213 2.39091C-1.69356 .95633-.84995 .27893 0 0-.84995-.27893-1.69356-.95633-2.07213-2.39091"/>
<use data-text="T" xlink:href="#font_3_3" transform="matrix(6.9738,0,0,-6.9740097,107.26399,28.67144)"/>
<path transform="matrix(1,0,0,-1.00003,154.855,31.01751)" stroke-width=".39848" stroke-linecap="butt" stroke-miterlimit="10" stroke-linejoin="miter" fill="none" stroke="#000000" d="M103.08206 22.08098H138.15113"/>
<path transform="matrix(1,0,0,-1.00003,293.20536,8.935865)" stroke-width=".39848" stroke-linecap="round" stroke-linejoin="round" fill="none" stroke="#000000" d="M-2.07213 2.39091C-1.69356 .95633-.84995 .27893 0 0-.84995-.27893-1.69356-.95633-2.07213-2.39091"/>
<use data-text="&#x2202;" xlink:href="#font_3_1" transform="matrix(6.9738,0,0,-6.9740097,273.32899,6.589775)"/>
<path transform="matrix(1,0,0,-1.00003,154.855,31.01751)" stroke-width=".39848" stroke-linecap="butt" stroke-miterlimit="10" stroke-linejoin="miter" fill="none" stroke="#000000" d="M78.82576 13.25046V-12.85199"/>
<path transform="matrix(0,1.00003,1,0,233.68076,44.069124)" stroke-width=".39848" stroke-linecap="round" stroke-linejoin="round" fill="none" stroke="#000000" d="M-2.07213 2.39091C-1.69356 .95633-.84995 .27893 0 0-.84995-.27893-1.69356-.95633-2.07213-2.39091"/>
<use data-text="S" xlink:href="#font_3_2" transform="matrix(6.9738,0,0,-6.9740097,213.179,33.023569)"/>
<use data-text="&#x2212;" xlink:href="#font_6_1" transform="matrix(6.9738,0,0,-6.9740097,218.452,33.023569)"/>
<use data-text="i" xlink:href="#font_4_4" transform="matrix(6.9738,0,0,-6.9740097,224.678,33.023569)"/>
<use data-text="d" xlink:href="#font_4_3" transform="matrix(6.9738,0,0,-6.9740097,226.93053,33.023569)"/>
<path transform="matrix(1,0,0,-1.00003,154.855,31.01751)" stroke-width=".39848" stroke-linecap="butt" stroke-dasharray="2.78941,1.59395" stroke-miterlimit="10" stroke-linejoin="miter" fill="none" stroke="#000000" d="M63.06004 13.25046 16.06006-13.05586"/>
<path transform="matrix(-.87257,.48840467,.48839,.8725962,170.74123,44.171056)" stroke-width=".39848" stroke-linecap="round" stroke-linejoin="round" fill="none" stroke="#000000" d="M-2.07213 2.39091C-1.69356 .95633-.84995 .27893 0 0-.84995-.27893-1.69356-.95633-2.07213-2.39091"/>
<use data-text="T" xlink:href="#font_3_3" transform="matrix(6.9738,0,0,-6.9740097,186.117,28.67144)"/>
<path transform="matrix(1,0,0,-1.00003,154.855,31.01751)" stroke-width=".39848" stroke-linecap="butt" stroke-dasharray="2.78941,1.59395" stroke-miterlimit="10" stroke-linejoin="miter" fill="none" stroke="#000000" d="M138.80582 15.74115 93.1611-13.03795"/>
<path transform="matrix(-.84586,.533326,.53331,.8458854,247.8476,44.162115)" stroke-width=".39848" stroke-linecap="round" stroke-linejoin="round" fill="none" stroke="#000000" d="M-2.07213 2.39091C-1.69356 .95633-.84995 .27893 0 0-.84995-.27893-1.69356-.95633-2.07213-2.39091"/>
<use data-text="T" xlink:href="#font_3_3" transform="matrix(6.9738,0,0,-6.9740097,262.546,27.425402)"/>
<path transform="matrix(1,0,0,-1.00003,154.855,31.01751)" stroke-width=".39848" stroke-linecap="butt" stroke-miterlimit="10" stroke-linejoin="miter" fill="none" stroke="#000000" d="M-138.54959-22.08098H-103.48055"/>
<path transform="matrix(1,0,0,-1.00003,51.573686,53.09915)" stroke-width=".39848" stroke-linecap="round" stroke-linejoin="round" fill="none" stroke="#000000" d="M-2.07213 2.39091C-1.69356 .95633-.84995 .27893 0 0-.84995-.27893-1.69356-.95633-2.07213-2.39091"/>
<use data-text="&#x2202;" xlink:href="#font_3_1" transform="matrix(6.9738,0,0,-6.9740097,31.697007,60.28839)"/>
<path transform="matrix(1,0,0,-1.00003,154.855,31.01751)" stroke-width=".39848" stroke-linecap="butt" stroke-miterlimit="10" stroke-linejoin="miter" fill="none" stroke="#000000" d="M-54.68016-22.08098H-19.61111"/>
<path transform="matrix(1,0,0,-1.00003,135.44313,53.09915)" stroke-width=".39848" stroke-linecap="round" stroke-linejoin="round" fill="none" stroke="#000000" d="M-2.07213 2.39091C-1.69356 .95633-.84995 .27893 0 0-.84995-.27893-1.69356-.95633-2.07213-2.39091"/>
<use data-text="&#x2202;" xlink:href="#font_3_1" transform="matrix(6.9738,0,0,-6.9740097,115.567,60.28839)"/>
<path transform="matrix(1,0,0,-1.00003,154.855,31.01751)" stroke-width=".39848" stroke-linecap="butt" stroke-miterlimit="10" stroke-linejoin="miter" fill="none" stroke="#000000" d="M19.10193-22.08098H54.17097"/>
<path transform="matrix(1,0,0,-1.00003,209.22522,53.09915)" stroke-width=".39848" stroke-linecap="round" stroke-linejoin="round" fill="none" stroke="#000000" d="M-2.07213 2.39091C-1.69356 .95633-.84995 .27893 0 0-.84995-.27893-1.69356-.95633-2.07213-2.39091"/>
<use data-text="&#x2202;" xlink:href="#font_3_1" transform="matrix(6.9738,0,0,-6.9740097,189.349,60.28839)"/>
<path transform="matrix(1,0,0,-1.00003,154.855,31.01751)" stroke-width=".39848" stroke-linecap="butt" stroke-miterlimit="10" stroke-linejoin="miter" fill="none" stroke="#000000" d="M103.08206-22.08098H138.15113"/>
<path transform="matrix(1,0,0,-1.00003,293.20536,53.09915)" stroke-width=".39848" stroke-linecap="round" stroke-linejoin="round" fill="none" stroke="#000000" d="M-2.07213 2.39091C-1.69356 .95633-.84995 .27893 0 0-.84995-.27893-1.69356-.95633-2.07213-2.39091"/>
<use data-text="&#x2202;" xlink:href="#font_3_1" transform="matrix(6.9738,0,0,-6.9740097,273.32899,60.28839)"/>
</svg>
