<svg xmlns="http://www.w3.org/2000/svg" xmlns:xlink="http://www.w3.org/1999/xlink" xmlns:inkscape="http://www.inkscape.org/namespaces/inkscape" version="1.1" width="169" height="90" viewBox="0 0 169 90">
<defs>
<path id="font_1_2" d="M.1789856 .114868167C.13899231 .047973634 .099990848 .033981325 .055999757 .0309906 .04399109 .02999878 .034988405 .02999878 .034988405 .010986328 .034988405 .004989624 .039993287 0 .04798889 0 .07499695 0 .10598755 .0029907227 .13398743 .0029907227 .16699219 .0029907227 .20199585 0 .23399353 0 .23999024 0 .25299073 0 .25299073 .018997193 .25299073 .02999878 .24398804 .0309906 .23699951 .0309906 .21398926 .032989503 .18998719 .04096985 .18998719 .06593323 .18998719 .077926639 .19599915 .088897708 .20399475 .102890018L.27999879 .23068238H.5309906C.5329895 .2097168 .5469971 .07392883 .5469971 .063949588 .5469971 .033981325 .49499513 .0309906 .47499085 .0309906 .46099855 .0309906 .45098878 .0309906 .45098878 .010986328 .45098878 0 .46299745 0 .46499635 0 .5059967 0 .548996 .0029907227 .58999636 .0029907227 .61499026 .0029907227 .6779938 0 .7029877 0 .70899966 0 .72099307 0 .72099307 .019989014 .72099307 .0309906 .71099856 .0309906 .69799807 .0309906 .6359863 .0309906 .6359863 .037979127 .6329956 .06694031L.57199099 .691803C.56999209 .71180728 .56999209 .7158203 .5529938 .7158203 .5369873 .7158203 .5329895 .7088165 .5269928 .69880679L.1789856 .114868167M.29899598 .26168824 .49598695 .5917816 .5279999 .26168824H.29899598Z"/>
<path id="font_1_4" d="M.4850006 .41075135 .40098573 .6096344C.397995 .61763 .3959961 .6216278 .3959961 .6226196 .3959961 .62861636 .41299439 .6476135 .45498658 .6516113 .46499635 .65260317 .47499085 .6536102 .47499085 .6706085 .47499085 .6826172 .46299745 .6826172 .45999146 .6826172 .4189911 .6826172 .37599183 .6796112 .33399964 .6796112 .30899049 .6796112 .24699402 .6826172 .22200012 .6826172 .21598816 .6826172 .20399475 .6826172 .20399475 .6626129 .20399475 .6516113 .21398926 .6516113 .22698975 .6516113 .2869873 .6516113 .29299928 .6416168 .3019867 .6196289L.41999818 .34080506 .20899964 .11393738 .19599915 .10295105C.14698792 .049987794 .099990848 .033996583 .04899597 .0309906 .035995485 .02999878 .026992798 .02999878 .026992798 .010986328 .026992798 .009994507 .026992798 0 .039993287 0 .069992069 0 .102996829 .0029907227 .13398743 .0029907227 .17098999 .0029907227 .20999146 0 .24598694 0 .2519989 0 .2639923 0 .2639923 .019989014 .2639923 .02999878 .2539978 .0309906 .2519989 .0309906 .24299622 .03199768 .21199036 .033996583 .21199036 .061965944 .21199036 .07795715 .22698975 .093948367 .23899842 .10694885L.34098817 .21487427 .43099977 .31282044 .5319977 .07395935C.5359955 .06297302 .5369873 .061965944 .5369873 .05996704 .5369873 .051986696 .5179901 .034988405 .47898866 .0309906 .46798707 .02999878 .45899964 .0289917 .45899964 .011993408 .45899964 0 .46998597 0 .47399903 0 .5019989 0 .57199099 .0029907227 .59999087 .0029907227 .625 .0029907227 .6859894 0 .71099856 0 .71798709 0 .7299957 0 .7299957 .018997193 .7299957 .0309906 .7200012 .0309906 .71199038 .0309906 .644989 .03199768 .6429901 .034988405 .6259918 .07496643 .58699038 .16790772 .519989 .32380677 .49699403 .3837738 .5649872 .45373536 .66999819 .5726471 .70199587 .6006317 .73098757 .62461856 .7689972 .64860537 .82899478 .6516113 .84199526 .65260317 .8509979 .65260317 .8509979 .6716156 .8509979 .6726074 .8509979 .6826172 .83799746 .6826172 .80799868 .6826172 .7749939 .6796112 .74398806 .6796112 .70700076 .6796112 .6689911 .6826172 .6329956 .6826172 .6269989 .6826172 .6139984 .6826172 .6139984 .6626129 .6139984 .65560916 .61898806 .65260317 .6259918 .6516113 .6349945 .65060427 .66600039 .64860537 .66600039 .6206207 .66600039 .6066284 .6549988 .5936432 .6469879 .5846405L.4850006 .41075135Z"/>
<path id="font_2_1" d="M.3889923 .27801515 .18899536 .47720338C.1769867 .48919679 .1749878 .49121095 .16699219 .49121095 .15699768 .49121095 .14698792 .48220826 .14698792 .47120667 .14698792 .46420289 .14898682 .46218873 .1599884 .45118714L.3600006 .24998474 .1599884 .048797609C.14898682 .03779602 .14698792 .03578186 .14698792 .028778077 .14698792 .01777649 .15699768 .0087890629 .16699219 .0087890629 .1749878 .0087890629 .1769867 .010787964 .18899536 .022781373L.3880005 .2219696 .59498599 .014785767C.5970001 .0137786869 .60398867 .0087890629 .6100006 .0087890629 .621994 .0087890629 .6299896 .01777649 .6299896 .028778077 .6299896 .030776978 .6299896 .03479004 .6269989 .039794923 .6259918 .041793825 .46699525 .19894409 .4169922 .24998474L.59999087 .4331665C.6049957 .43917848 .6199951 .45217896 .625 .45819093 .6259918 .46018983 .6299896 .46420289 .6299896 .47120667 .6299896 .48220826 .621994 .49121095 .6100006 .49121095 .60198977 .49121095 .59799197 .48719789 .58699038 .4761963L.3889923 .27801515Z"/>
<path id="font_3_3" d="M.25498963-.25V-.21000672H.1579895V.70999148H.25498963V.75H.117996219V-.25H.25498963Z"/>
<path id="font_3_1" d="M.45999146 .31976319C.45999146 .39982606 .45498658 .47988893 .41999818 .5539398 .37399293 .65000918 .2919922 .6660156 .25 .6660156 .18998719 .6660156 .116989139 .64001467 .07598877 .54693606 .04399109 .47789 .038986207 .39982606 .038986207 .31976319 .038986207 .24472046 .042999269 .15464783 .083999637 .07859802 .1269989-.0024719239 .19999695-.022460938 .24899292-.022460938 .30299378-.022460938 .3789978-.0014648438 .4229889 .09359741 .45498658 .16265869 .45999146 .2407074 .45999146 .31976319M.24899292-.00047302247C.20999146-.00047302247 .15098572 .024551392 .1329956 .12062073 .12199402 .18066406 .12199402 .2727356 .12199402 .3317871 .12199402 .39582826 .12199402 .46188355 .12998963 .5159149 .14898682 .63500979 .22399903 .64401248 .24899292 .64401248 .28199769 .64401248 .34799195 .6259918 .36698915 .52693179 .3769989 .47088624 .3769989 .39482118 .3769989 .3317871 .3769989 .25672914 .3769989 .18867493 .3659973 .12461853 .35099793 .029556275 .2939911-.00047302247 .24899292-.00047302247Z"/>
<path id="font_1_1" d="M.20298767 .0009918213C.20298767 .066986087 .17799378 .10598755 .13899231 .10598755 .10598755 .10598755 .085998538 .08099365 .085998538 .052993776 .085998538 .025985718 .10598755 0 .13899231 0 .15098572 0 .1639862 .0039978029 .17399597 .0129852299 .1769867 .01499939 .17799378 .015991211 .1789856 .015991211 .17999268 .015991211 .18099976 .01499939 .18099976 .0009918213 .18099976-.07316589 .1459961-.13328552 .11299133-.16635132 .101989749-.17736817 .101989749-.17936707 .101989749-.18237305 .101989749-.18936157 .10699463-.19335938 .11199951-.19335938 .12298584-.19335938 .20298767-.116256717 .20298767 .0009918213Z"/>
<path id="font_3_2" d="M.2939911 .64004519C.2939911 .66400149 .2939911 .6660156 .2709961 .6660156 .20899964 .60227969 .12098694 .60227969 .08898926 .60227969V.57128909C.10899353 .57128909 .16799927 .57128909 .21998596 .5972748V.07902527C.21998596 .042999269 .21699524 .0309906 .1269989 .0309906H.09498596V0C.12998963 .0029907227 .21699524 .0029907227 .25698854 .0029907227 .29699708 .0029907227 .38398744 .0029907227 .4189911 0V.0309906H.3869934C.29699708 .0309906 .2939911 .041992189 .2939911 .07902527V.64004519Z"/>
<path id="font_3_4" d="M.15899658 .75H.021987915V.70999148H.11898804V-.21000672H.021987915V-.25H.15899658V.75Z"/>
<path id="font_1_3" d="M.9259949 .6056366C.93499758 .6416168 .93699648 .6516113 1.0119934 .6516113 1.0349884 .6516113 1.0439911 .6516113 1.0439911 .6716156 1.0439911 .6826172 1.0339966 .6826172 1.0169983 .6826172H.8849945C.85899356 .6826172 .8580017 .6826172 .84599307 .66360476L.48098756 .093948367 .40299989 .65960696C.3999939 .6826172 .397995 .6826172 .37199403 .6826172H.23498535C.21598816 .6826172 .20498657 .6826172 .20498657 .66360476 .20498657 .6516113 .21398926 .6516113 .23399353 .6516113 .24699402 .6516113 .2649994 .65060427 .2769928 .6496124 .29299928 .6476135 .29899598 .64460757 .29899598 .6336212 .29899598 .6296234 .2979889 .62661746 .29499818 .614624L.16799927 .10594177C.1579895 .065963748 .14099121 .033996583 .05999756 .0309906 .054992677 .0309906 .041992189 .02999878 .041992189 .011993408 .041992189 .0029907227 .04798889 0 .055999757 0 .08799744 0 .12298584 .0029907227 .1559906 .0029907227 .18998719 .0029907227 .22599793 0 .25898744 0 .2639923 0 .2769928 0 .2769928 .019989014 .2769928 .0309906 .2659912 .0309906 .25898744 .0309906 .20199585 .03199768 .19099427 .051986696 .19099427 .07496643 .19099427 .081954959 .19198609 .08695984 .19499207 .09794617L.33099366 .64260867H.33198548L.41799928 .022994996C.41999818 .010986328 .42099 0 .43299867 0 .44400025 0 .44999696 .010986328 .45498658 .017990113L.85899356 .65060427H.8600006L.71699526 .07795715C.70700076 .038986207 .7049866 .0309906 .6259918 .0309906 .60899356 .0309906 .59799197 .0309906 .59799197 .011993408 .59799197 0 .6100006 0 .61299136 0 .6409912 0 .70899966 .0029907227 .7369995 .0029907227 .7779999 .0029907227 .82099917 0 .8619995 0 .8679962 0 .8809967 0 .8809967 .019989014 .8809967 .0309906 .871994 .0309906 .8529968 .0309906 .81599429 .0309906 .7879944 .0309906 .7879944 .048980714 .7879944 .052978517 .7879944 .054977418 .79299929 .07296753L.9259949 .6056366Z"/>
<path id="font_4_2" d="M.20599365 .11984253C.17098999 .06594849 .13899231 .039978029 .07998657 .035995485 .069992069 .034988405 .056991579 .034988405 .056991579 .01499939 .056991579 .0039978029 .06599426 0 .070999149 0 .09700012 0 .12998963 .0039978029 .15699768 .0039978029 .18899536 .0039978029 .22999573 0 .2599945 0 .2649994 0 .27999879 0 .27999879 .021987915 .27999879 .034988405 .2669983 .035995485 .2630005 .035995485 .25498963 .036987306 .21899414 .038986207 .21899414 .06594849 .21899414 .077926639 .22898865 .09489441 .23399353 .103881839L.31399537 .22766114H.59999087L.6239929 .061950685C.6199951 .051971437 .6139984 .035995485 .5549927 .035995485 .54299929 .035995485 .5289917 .035995485 .5289917 .01399231 .5289917 .009994507 .5319977 0 .54499819 0 .57398989 0 .644989 .0039978029 .673996 .0039978029 .69200137 .0039978029 .71499636 .0029907227 .73298647 .0029907227 .7509918 .0019989014 .7719879 0 .7899933 0 .8029938 0 .80999758 .0079956059 .80999758 .020996094 .80999758 .035995485 .7979889 .035995485 .7819977 .035995485 .723999 .035995485 .7220001 .04397583 .71899417 .06793213L.6309967 .6848755C.6279907 .70588687 .6259918 .7128906 .6069946 .7128906 .58799746 .7128906 .58200076 .70388796 .57299807 .6898804L.20599365 .11984253M.33799745 .26367188 .5479889 .5908356 .59498599 .26367188H.33799745Z"/>
<path id="font_4_4" d="M.32398988 .6253052C.32398988 .64131167 .31199647 .66329959 .28399659 .66329959 .25698854 .66329959 .22799683 .6372986 .22799683 .6083069 .22799683 .5913086 .24099732 .5703125 .2679901 .5703125 .29699708 .5703125 .32398988 .5983124 .32398988 .6253052M.11999512 .117263797C.115997318 .104263309 .11099243 .09225464 .11099243 .07525635 .11099243 .02822876 .15098572-.009765625 .20599365-.009765625 .30599977-.009765625 .34999085 .12828064 .34999085 .14328003 .34999085 .15628052 .33699037 .15628052 .33399964 .15628052 .31999208 .15628052 .31900025 .15028382 .31498719 .13928223 .2919922 .059249879 .24798584 .018234253 .20899964 .018234253 .18899536 .018234253 .18399048 .031234742 .18399048 .053237916 .18399048 .07624817 .19099427 .09526062 .19999695 .117263797 .20999146 .14428711 .22099304 .17129517 .23199463 .1973114 .24099732 .22131348 .2769928 .3123474 .2809906 .32435609 .28399659 .33436585 .2869873 .3463745 .2869873 .35636903 .2869873 .4033966 .24699402 .44140626 .19198609 .44140626 .09298706 .44140626 .04699707 .3053589 .04699707 .28834535 .04699707 .27534486 .06098938 .27534486 .06399536 .27534486 .07798767 .27534486 .07899475 .28033448 .08198547 .29135133 .10798645 .37738038 .1519928 .4133911 .18899536 .4133911 .20498657 .4133911 .21398926 .4053955 .21398926 .37838746 .21398926 .3553772 .20799256 .34036256 .18299866 .27833558L.11999512 .117263797Z"/>
<path id="font_5_1" d="M.6009979 .31976319C.6009979 .3918152 .6009979 .6660156 .33999635 .6660156 .07899475 .6660156 .07899475 .3918152 .07899475 .31976319 .07899475 .2467041 .07899475-.022460938 .33999635-.022460938 .6009979-.022460938 .6009979 .2467041 .6009979 .31976319M.33999635 .010528564C.30299378 .010528564 .21899414 .023544312 .19400025 .12461853 .17999268 .17866516 .1789856 .24971009 .1789856 .33177186 .1789856 .405838 .1789856 .47488404 .19499207 .5319214 .21998596 .6159973 .29699708 .63301089 .33999635 .63301089 .4139862 .63301089 .46699525 .5949707 .4869995 .5249176 .5009918 .47387696 .5009918 .39082337 .5009918 .33177186 .5009918 .26371766 .5009918 .18266297 .48599244 .12261963 .45999146 .025543213 .37998963 .010528564 .33999635 .010528564Z"/>
<path id="font_4_7" d="M.24899292 .10601807C.23899842 .072021488 .20599365 .018234253 .15499878 .018234253 .1519928 .018234253 .12199402 .018234253 .100997928 .03215027 .14199829 .04508972 .14498902 .08100891 .14498902 .087020877 .14498902 .10900879 .12799073 .12402344 .10499573 .12402344 .07699585 .12402344 .04798889 .10002136 .04798889 .0630188 .04798889 .01322937 .10398865-.009765625 .15299988-.009765625 .19898987-.009765625 .23999024 .019226075 .2649994 .061019899 .2889862 .008224487 .34399415-.009765625 .38398744-.009765625 .49899293-.009765625 .55999758 .11502075 .55999758 .14305115 .55999758 .15608216 .5469971 .15608216 .5439911 .15608216 .5299988 .15608216 .5289917 .15107727 .5249939 .13905335 .5039978 .07002258 .44400025 .018234253 .3880005 .018234253 .34799195 .018234253 .32699586 .04508972 .32699586 .08302307 .32699586 .10900879 .35099793 .20018006 .3789978 .31140138 .39898683 .38841249 .44400025 .4133911 .47698976 .4133911 .47898866 .4133911 .5099945 .4133911 .5309906 .39941407 .49899293 .39041139 .4869995 .3624115 .4869995 .34440614 .4869995 .32240296 .5039978 .30740357 .5269928 .30740357 .5499878 .30740357 .58299258 .32640077 .58299258 .3684082 .58299258 .4243927 .5189972 .44140626 .47898866 .44140626 .42900086 .44140626 .3889923 .4084015 .36698915 .3704071 .34899903 .4113922 .30299378 .44140626 .24699402 .44140626 .1349945 .44140626 .070999149 .31840516 .070999149 .2883606 .070999149 .27534486 .084991458 .27534486 .08799744 .27534486 .100997928 .27534486 .101989749 .27934266 .10699463 .29237367 .13198853 .3704071 .19499207 .4133911 .24398804 .4133911 .2769928 .4133911 .3039856 .395401 .3039856 .3474121 .3039856 .32740785 .2919922 .27734376 .2829895 .24327088L.24899292 .10601807Z"/>
<path id="font_6_2" d="M.12599182 .2263794C.15699768 .2263794 .15699768 .24838257 .15699768 .25038148 .15699768 .26138307 .15098572 .27539063 .12599182 .27539063V.4029541C.12599182 .41690064 .12599182 .44189454 .101989749 .44189454 .07699585 .44189454 .07699585 .4179077 .07699585 .4029541V.098083499C.07699585 .08305359 .07699585 .059051515 .101989749 .059051515 .12599182 .059051515 .12599182 .08406067 .12599182 .098083499V.2263794Z"/>
<path id="font_6_1" d="M.91999819 .2263794C.7939911 .13398743 .7769928 .0028076173 .7769928 .0018157959 .7769928-.013183594 .7869873-.013183594 .8009949-.013183594 .81900027-.013183594 .82199099-.013183594 .82699587 .0038146973 .83299258 .028808594 .848999 .092819217 .901001 .14805603 .95899966 .20930481 1.0089874 .2243805 1.0509949 .23738098 1.0569916 .23937989 1.0609894 .24537659 1.0609894 .25038148 1.0609894 .26037599 1.0549927 .26239015 1.0419922 .26638795 .897995 .3123169 .8470001 .41412355 .82598879 .502121 .82199099 .51412966 .8149872 .51412966 .8009949 .51412966 .7869873 .51412966 .7769928 .51412966 .7769928 .49913026 .7769928 .49713136 .7869873 .43013 .83599856 .3612213 .85899356 .32728578 .8869934 .29933167 .91999819 .27539063H.116989139C.100997928 .27539063 .07699585 .27539063 .07699585 .25138856 .07699585 .2263794 .099990848 .2263794 .116989139 .2263794H.91999819Z"/>
<path id="font_7_1" d="M.35499574 .75C.16499329 .61598208 .114990238 .40397645 .114990238 .25097657 .114990238 .10997009 .15699768-.10902405 .35499574-.24902344 .36299134-.24902344 .375-.24902344 .375-.23703003 .375-.23103333 .37199403-.22903443 .36499024-.22203064 .23199463-.10203552 .18299866 .067977908 .18299866 .24996948 .18299866 .519989 .28599549 .65197756 .36799623 .72598269 .37199403 .7299957 .375 .73298647 .375 .73799136 .375 .75 .36299134 .75 .35499574 .75Z"/>
<path id="font_4_1" d="M.21099854 .015991211C.21099854-.03907776 .20098877-.10321045 .1329956-.16732788 .1289978-.17134094 .12599182-.17434693 .12599182-.17933655 .12599182-.18634033 .13398743-.19334412 .13999939-.19334412 .1539917-.19334412 .23899842-.113220218 .23899842 .005996704 .23899842 .067993167 .21499634 .114990238 .16899109 .114990238 .13598633 .114990238 .11199951 .08898926 .11199951 .057998659 .11199951 .025985718 .1349945 0 .16999817 0 .19400025 0 .20999146 .015991211 .21099854 .015991211Z"/>
<path id="font_7_3" d="M.5159912 .31925965C.5159912 .42918397 .5029907 .50813296 .45700074 .5780945 .42599488 .62405398 .3639984 .6640625 .28399659 .6640625 .051986696 .6640625 .051986696 .39120484 .051986696 .31925965 .051986696 .2472992 .051986696-.01953125 .28399659-.01953125 .5159912-.01953125 .5159912 .2472992 .5159912 .31925965M.28399659 .008468628C.23799134 .008468628 .1769867 .035446168 .15699768 .117385867 .14299011 .17634583 .14299011 .25830079 .14299011 .33224488 .14299011 .40519715 .14299011 .4811554 .1579895 .53611758 .1789856 .6150665 .24299622 .63604739 .28399659 .63604739 .33799745 .63604739 .3899994 .6030731 .4079895 .545105 .42399598 .4911499 .4249878 .41918946 .4249878 .33224488 .4249878 .25830079 .4249878 .18434143 .4119873 .12138367 .3919983 .030441285 .32398988 .008468628 .28399659 .008468628Z"/>
<path id="font_7_2" d="M.08999634 .75C.08299255 .75 .070999149 .75 .070999149 .73799136 .070999149 .73298647 .07398987 .7299957 .07998657 .72299197 .1659851 .64398196 .2619934 .5089874 .2619934 .25097657 .2619934 .04197693 .19699097-.11602783 .08898926-.21403504 .07199097-.23103333 .070999149-.23202515 .070999149-.23703003 .070999149-.24203491 .07398987-.24902344 .083999637-.24902344 .09599304-.24902344 .19099427-.18302918 .25698854-.058029176 .30099488 .024978638 .32998658 .13298035 .32998658 .24996948 .32998658 .39097596 .28799439 .60998538 .08999634 .75Z"/>
<path id="font_4_3" d="M.42199708 .38238526C.40098573 .41540528 .36698915 .44140626 .31900025 .44140626 .19099427 .44140626 .06098938 .300354 .06098938 .15628052 .06098938 .059249879 .12599182-.009765625 .21199036-.009765625 .2659912-.009765625 .31399537 .021224976 .35398866 .0602417 .37298585 .00022888184 .43099977-.009765625 .45700074-.009765625 .49299623-.009765625 .5179901 .01222229 .5359955 .04324341 .55799868 .08226013 .57099917 .13928223 .57099917 .14328003 .57099917 .15628052 .55799868 .15628052 .5549927 .15628052 .54100039 .15628052 .5399933 .15228272 .5329895 .12527466 .5209961 .07725525 .5019989 .018234253 .45999146 .018234253 .43399049 .018234253 .4269867 .040237428 .4269867 .06724548 .4269867 .08425903 .43499757 .120269779 .44198609 .14628601 .44898988 .17329407 .45899964 .21430969 .46398927 .23632813L.48399354 .3123474C.48999024 .33836366 .5019989 .38539125 .5019989 .39038087 .5019989 .4123993 .48399354 .4223938 .46798707 .4223938 .45098878 .4223938 .42799378 .4104004 .42199708 .38238526M.35798646 .12527466C.35099793 .09725952 .32899476 .07725525 .30699159 .058242799 .2979889 .050247194 .2579956 .018234253 .21499634 .018234253 .17799378 .018234253 .14199829 .04423523 .14199829 .11526489 .14199829 .16828919 .17098999 .27833558 .19400025 .31835938 .23999024 .39839173 .29100038 .4133911 .31900025 .4133911 .3889923 .4133911 .4079895 .33737184 .4079895 .32635499 .4079895 .32235719 .4059906 .3153534 .40499879 .3123474L.35798646 .12527466Z"/>
<path id="font_4_6" d="M.24598694 .39465333H.34799195C.36698915 .39465333 .37998963 .39465333 .37998963 .4166565 .37998963 .43066407 .36698915 .43066407 .34999085 .43066407H.25498963L.2919922 .57850649C.29299928 .58351138 .29499818 .588501 .29499818 .5924988 .29499818 .6104889 .2809906 .6244812 .26098634 .6244812 .23599243 .6244812 .22099304 .6074829 .21398926 .58151248 .20698548 .5565338 .21998596 .6044922 .17599488 .43066407H.07398987C.054992677 .43066407 .041992189 .43066407 .041992189 .4086609 .041992189 .39465333 .053985597 .39465333 .07199097 .39465333H.16699219L.10798645 .15901184C.101989749 .13404846 .09298706 .098098758 .09298706 .085128787 .09298706 .0262146 .14299011-.009765625 .19999695-.009765625 .31098939-.009765625 .37399293 .13005066 .37399293 .14303589 .37399293 .15602112 .36099244 .15602112 .35798646 .15602112 .34599305 .15602112 .34498597 .15402222 .33699037 .13703919 .30899049 .074142459 .2579956 .018234253 .20298767 .018234253 .18199158 .018234253 .16799927 .031204224 .16799927 .06715393 .16799927 .07713318 .17199707 .098098758 .17399597 .10809326L.24598694 .39465333Z"/>
<path id="font_4_5" d="M.23498535 .2023468C.23599243 .2083435 .25898744 .29840089 .26098634 .30340577 .2630005 .31140138 .2919922 .36140443 .32398988 .3854065 .33499146 .3934021 .3619995 .4133911 .40499879 .4133911 .4149933 .4133911 .43998719 .4123993 .45999146 .39941407 .42799378 .39041139 .41600038 .3624115 .41600038 .34440614 .41600038 .32240296 .43299867 .30740357 .45599366 .30740357 .47898866 .30740357 .5119934 .32640077 .5119934 .3684082 .5119934 .4203949 .45700074 .44140626 .4059906 .44140626 .35398866 .44140626 .30899049 .4203949 .2649994 .3704071 .24699402 .43139649 .18598938 .44140626 .1619873 .44140626 .125 .44140626 .099990848 .418396 .083999637 .39041139 .06098938 .3514099 .04699707 .293396 .04699707 .2883911 .04699707 .27539063 .06098938 .27539063 .06399536 .27539063 .07798767 .27539063 .07899475 .2783966 .085998538 .30540467 .100997928 .3664093 .11999512 .4133911 .15899658 .4133911 .18499756 .4133911 .19198609 .3914032 .19198609 .3644104 .19198609 .3454132 .18299866 .30841065 .17599488 .28138734 .16899109 .25437928 .15899658 .21334839 .1539917 .19132996L.12199402 .06326294C.117996219 .050247194 .11199951 .025238038 .11199951 .022232056 .11199951 .00022888184 .12998963-.009765625 .1459961-.009765625 .16099549-.009765625 .18099976-.00077819827 .18899536 .019226075 .19099427 .025238038 .20199585 .06925964 .20799256 .09428406L.23498535 .2023468Z"/>
</defs>
<use data-text="A" xlink:href="#font_1_2" transform="matrix(9.963197,0,0,-9.963397,17.24118,9.058685)"/>
<use data-text="X" xlink:href="#font_1_4" transform="matrix(9.963197,0,0,-9.963397,89.31752,9.058685)"/>
<use data-text="A" xlink:href="#font_1_2" transform="matrix(9.963197,0,0,-9.963397,1.189209,41.7663)"/>
<use data-text="&#x00d7;" xlink:href="#font_2_1" transform="matrix(9.963197,0,0,-9.963397,10.875793,41.7663)"/>
<use data-text="[" xlink:href="#font_3_3" transform="matrix(9.963197,0,0,-9.963397,20.839402,41.7663)"/>
<use data-text="0" xlink:href="#font_3_1" transform="matrix(9.963197,0,0,-9.963397,23.599198,41.7663)"/>
<use data-text="," xlink:href="#font_1_1" transform="matrix(9.963197,0,0,-9.963397,28.58786,41.7663)"/>
<use data-text="1" xlink:href="#font_3_2" transform="matrix(9.963197,0,0,-9.963397,33.016115,41.7663)"/>
<use data-text="]" xlink:href="#font_3_4" transform="matrix(9.963197,0,0,-9.963397,37.99771,41.7663)"/>
<use data-text="X" xlink:href="#font_1_4" transform="matrix(9.963197,0,0,-9.963397,73.26555,41.7663)"/>
<use data-text="&#x00d7;" xlink:href="#font_2_1" transform="matrix(9.963197,0,0,-9.963397,84.51521,41.7663)"/>
<use data-text="[" xlink:href="#font_3_3" transform="matrix(9.963197,0,0,-9.963397,94.478809,41.7663)"/>
<use data-text="0" xlink:href="#font_3_1" transform="matrix(9.963197,0,0,-9.963397,97.23863,41.7663)"/>
<use data-text="," xlink:href="#font_1_1" transform="matrix(9.963197,0,0,-9.963397,102.22829,41.7663)"/>
<use data-text="1" xlink:href="#font_3_2" transform="matrix(9.963197,0,0,-9.963397,106.65553,41.7663)"/>
<use data-text="]" xlink:href="#font_3_4" transform="matrix(9.963197,0,0,-9.963397,111.63713,41.7663)"/>
<use data-text="M" xlink:href="#font_1_3" transform="matrix(9.963197,0,0,-9.963397,146.90598,76.300067)"/>
<use data-text="A" xlink:href="#font_4_2" transform="matrix(6.9742186,0,0,-6.974358,156.57157,77.79418)"/>
<path transform="matrix(1.00006,0,0,-1.00008,82.12609,40.02216)" stroke-width=".39848" stroke-linecap="butt" stroke-miterlimit="10" stroke-linejoin="miter" fill="none" stroke="#000000" d="M-51.48106 33.45203H2.30016"/>
<path transform="matrix(-1.00006,-0,0,-1.00008,30.641945,6.5674555)" stroke-width=".39848" stroke-linecap="round" stroke-miterlimit="10" stroke-linejoin="miter" fill="none" stroke="#000000" d="M0 1.95256C.68224 1.95256 1.2353 1.51546 1.2353 .97627 1.2353 .43709 .68224 0 0 0"/>
<path transform="matrix(1.00006,0,0,-1.00008,84.62563,6.5674555)" stroke-width=".39848" stroke-linecap="round" stroke-linejoin="round" fill="none" stroke="#000000" d="M-2.07213 2.39091C-1.69356 .95633-.84995 .27893 0 0-.84995-.27893-1.69356-.95633-2.07213-2.39091"/>
<path transform="matrix(1.00006,0,0,-1.00008,82.12609,40.02216)" stroke-width=".39848" stroke-linecap="butt" stroke-miterlimit="10" stroke-linejoin="miter" fill="none" stroke="#000000" d="M-61.14485 27.1122V9.97617"/>
<path transform="matrix(0,1.00008,1.00006,0,20.977574,30.244448)" stroke-width=".39848" stroke-linecap="round" stroke-linejoin="round" fill="none" stroke="#000000" d="M-2.07213 2.39091C-1.69356 .95633-.84995 .27893 0 0-.84995-.27893-1.69356-.95633-2.07213-2.39091"/>
<use data-text="i" xlink:href="#font_4_4" transform="matrix(6.9742186,0,0,-6.974358,11.923874,23.484839)"/>
<use data-text="0" xlink:href="#font_5_1" transform="matrix(4.9815986,0,0,-4.9816987,14.743042,24.480919)"/>
<path transform="matrix(1.00006,0,0,-1.00008,82.12609,40.02216)" stroke-width=".39848" stroke-linecap="butt" stroke-miterlimit="10" stroke-linejoin="miter" fill="none" stroke="#000000" d="M11.70967 27.1122V9.97617"/>
<path transform="matrix(0,1.00008,1.00006,0,93.836467,30.244448)" stroke-width=".39848" stroke-linecap="round" stroke-linejoin="round" fill="none" stroke="#000000" d="M-2.07213 2.39091C-1.69356 .95633-.84995 .27893 0 0-.84995-.27893-1.69356-.95633-2.07213-2.39091"/>
<use data-text="i" xlink:href="#font_4_4" transform="matrix(6.9742186,0,0,-6.974358,96.18294,23.484839)"/>
<use data-text="0" xlink:href="#font_5_1" transform="matrix(4.9815986,0,0,-4.9816987,99.002109,24.480919)"/>
<path transform="matrix(1.00006,0,0,-1.00008,82.12609,40.02216)" stroke-width=".39848" stroke-linecap="butt" stroke-miterlimit="10" stroke-linejoin="miter" fill="none" stroke="#000000" d="M20.7207 30.57422C48.7403 21.39748 65.01454 3.23622 70.99521-25.22787"/>
<path transform="matrix(.20562233,.9786783,.9786587,-.20562646,153.16654,65.44704)" stroke-width=".39848" stroke-linecap="round" stroke-linejoin="round" fill="none" stroke="#000000" d="M-2.07213 2.39091C-1.69356 .95633-.84995 .27893 0 0-.84995-.27893-1.69356-.95633-2.07213-2.39091"/>
<use data-text="x" xlink:href="#font_4_7" transform="matrix(6.9742186,0,0,-6.974358,138.60848,26.074044)"/>
<use data-text="&#xfffd;" xlink:href="#font_6_2" transform="matrix(6.9742186,0,0,-6.974358,143.12674,26.074044)"/>
<use data-text="&#x2192;" xlink:href="#font_6_1" transform="matrix(6.9742186,0,0,-6.974358,143.12674,26.074044)"/>
<use data-text="(" xlink:href="#font_7_1" transform="matrix(6.9742186,0,0,-6.974358,151.07022,26.074044)"/>
<use data-text="x" xlink:href="#font_4_7" transform="matrix(6.9742186,0,0,-6.974358,154.18341,26.074044)"/>
<use data-text="," xlink:href="#font_4_1" transform="matrix(6.9742186,0,0,-6.974358,158.69574,26.074044)"/>
<use data-text="0" xlink:href="#font_7_3" transform="matrix(6.9742186,0,0,-6.974358,161.06783,26.074044)"/>
<use data-text=")" xlink:href="#font_7_2" transform="matrix(6.9742186,0,0,-6.974358,165.03617,26.074044)"/>
<path transform="matrix(1.00006,0,0,-1.00008,82.12609,40.02216)" stroke-width=".39848" stroke-linecap="butt" stroke-miterlimit="10" stroke-linejoin="miter" fill="none" stroke="#000000" d="M-35.42996 .7472H-13.75092"/>
<path transform="matrix(-1.00006,-0,0,-1.00008,46.694009,39.2749)" stroke-width=".39848" stroke-linecap="round" stroke-miterlimit="10" stroke-linejoin="miter" fill="none" stroke="#000000" d="M0 1.95256C.68224 1.95256 1.2353 1.51546 1.2353 .97627 1.2353 .43709 .68224 0 0 0"/>
<path transform="matrix(1.00006,0,0,-1.00008,68.5736,39.2749)" stroke-width=".39848" stroke-linecap="round" stroke-linejoin="round" fill="none" stroke="#000000" d="M-2.07213 2.39091C-1.69356 .95633-.84995 .27893 0 0-.84995-.27893-1.69356-.95633-2.07213-2.39091"/>
<path transform="matrix(1.00006,0,0,-1.00008,82.12609,40.02216)" stroke-width=".39848" stroke-linecap="butt" stroke-miterlimit="10" stroke-linejoin="miter" fill="none" stroke="#000000" d="M-52.15373-8.08331C-19.77672-39.96042 16.48894-49.37712 59.89981-37.38257"/>
<path transform="matrix(.9638778,-.2663213,-.26631598,-.96389707,142.22153,77.35466)" stroke-width=".39848" stroke-linecap="round" stroke-linejoin="round" fill="none" stroke="#000000" d="M-2.07213 2.39091C-1.69356 .95633-.84995 .27893 0 0-.84995-.27893-1.69356-.95633-2.07213-2.39091"/>
<use data-text="(" xlink:href="#font_7_1" transform="matrix(6.9742186,0,0,-6.974358,39.770555,86.7739)"/>
<use data-text="a" xlink:href="#font_4_3" transform="matrix(6.9742186,0,0,-6.974358,42.884737,86.7739)"/>
<use data-text="," xlink:href="#font_4_1" transform="matrix(6.9742186,0,0,-6.974358,47.201784,86.7739)"/>
<use data-text="t" xlink:href="#font_4_6" transform="matrix(6.9742186,0,0,-6.974358,49.56604,86.7739)"/>
<use data-text=")" xlink:href="#font_7_2" transform="matrix(6.9742186,0,0,-6.974358,52.58232,86.7739)"/>
<use data-text="&#xfffd;" xlink:href="#font_6_2" transform="matrix(6.9742186,0,0,-6.974358,55.69551,86.7739)"/>
<use data-text="&#x2192;" xlink:href="#font_6_1" transform="matrix(6.9742186,0,0,-6.974358,55.69551,86.7739)"/>
<use data-text="(" xlink:href="#font_7_1" transform="matrix(6.9742186,0,0,-6.974358,63.638978,86.7739)"/>
<use data-text="a" xlink:href="#font_4_3" transform="matrix(6.9742186,0,0,-6.974358,66.75218,86.7739)"/>
<use data-text="," xlink:href="#font_4_1" transform="matrix(6.9742186,0,0,-6.974358,71.06923,86.7739)"/>
<use data-text="t" xlink:href="#font_4_6" transform="matrix(6.9742186,0,0,-6.974358,73.43349,86.7739)"/>
<use data-text=")" xlink:href="#font_7_2" transform="matrix(6.9742186,0,0,-6.974358,76.44977,86.7739)"/>
<path transform="matrix(1.00006,0,0,-1.00008,82.12609,40.02216)" stroke-width=".39848" stroke-linecap="butt" stroke-dasharray="2.78941,1.59395" stroke-miterlimit="10" stroke-linejoin="miter" fill="none" stroke="#000000" d="M27.33835-8.08331 59.93694-26.49455"/>
<path transform="matrix(.87072226,.49179933,.49178947,-.87073966,142.2401,66.61681)" stroke-width=".39848" stroke-linecap="round" stroke-linejoin="round" fill="none" stroke="#000000" d="M-2.07213 2.39091C-1.69356 .95633-.84995 .27893 0 0-.84995-.27893-1.69356-.95633-2.07213-2.39091"/>
<use data-text="r" xlink:href="#font_4_5" transform="matrix(6.9742186,0,0,-6.974358,128.28586,55.06436)"/>
</svg>
