<svg xmlns="http://www.w3.org/2000/svg" xmlns:xlink="http://www.w3.org/1999/xlink" xmlns:inkscape="http://www.inkscape.org/namespaces/inkscape" version="1.1" width="119" height="75" viewBox="0 0 119 75">
<defs>
<path id="font_1_2" d="M.4850006 .41075135 .40098573 .6096344C.397995 .61763 .3959961 .6216278 .3959961 .6226196 .3959961 .62861636 .41299439 .6476135 .45498658 .6516113 .46499635 .65260317 .47499085 .6536102 .47499085 .6706085 .47499085 .6826172 .46299745 .6826172 .45999146 .6826172 .4189911 .6826172 .37599183 .6796112 .33399964 .6796112 .30899049 .6796112 .24699402 .6826172 .22200012 .6826172 .21598816 .6826172 .20399475 .6826172 .20399475 .6626129 .20399475 .6516113 .21398926 .6516113 .22698975 .6516113 .2869873 .6516113 .29299928 .6416168 .3019867 .6196289L.41999818 .34080506 .20899964 .11393738 .19599915 .10295105C.14698792 .049987794 .099990848 .033996583 .04899597 .0309906 .035995485 .02999878 .026992798 .02999878 .026992798 .010986328 .026992798 .009994507 .026992798 0 .039993287 0 .069992069 0 .102996829 .0029907227 .13398743 .0029907227 .17098999 .0029907227 .20999146 0 .24598694 0 .2519989 0 .2639923 0 .2639923 .019989014 .2639923 .02999878 .2539978 .0309906 .2519989 .0309906 .24299622 .03199768 .21199036 .033996583 .21199036 .061965944 .21199036 .07795715 .22698975 .093948367 .23899842 .10694885L.34098817 .21487427 .43099977 .31282044 .5319977 .07395935C.5359955 .06297302 .5369873 .061965944 .5369873 .05996704 .5369873 .051986696 .5179901 .034988405 .47898866 .0309906 .46798707 .02999878 .45899964 .0289917 .45899964 .011993408 .45899964 0 .46998597 0 .47399903 0 .5019989 0 .57199099 .0029907227 .59999087 .0029907227 .625 .0029907227 .6859894 0 .71099856 0 .71798709 0 .7299957 0 .7299957 .018997193 .7299957 .0309906 .7200012 .0309906 .71199038 .0309906 .644989 .03199768 .6429901 .034988405 .6259918 .07496643 .58699038 .16790772 .519989 .32380677 .49699403 .3837738 .5649872 .45373536 .66999819 .5726471 .70199587 .6006317 .73098757 .62461856 .7689972 .64860537 .82899478 .6516113 .84199526 .65260317 .8509979 .65260317 .8509979 .6716156 .8509979 .6726074 .8509979 .6826172 .83799746 .6826172 .80799868 .6826172 .7749939 .6796112 .74398806 .6796112 .70700076 .6796112 .6689911 .6826172 .6329956 .6826172 .6269989 .6826172 .6139984 .6826172 .6139984 .6626129 .6139984 .65560916 .61898806 .65260317 .6259918 .6516113 .6349945 .65060427 .66600039 .64860537 .66600039 .6206207 .66600039 .6066284 .6549988 .5936432 .6469879 .5846405L.4850006 .41075135Z"/>
<path id="font_2_1" d="M.61099246 .6046295C.61099246 .6456146 .61099246 .6516113 .6879883 .6516113 .70700076 .6516113 .71398928 .6516113 .71398928 .66760256 .71398928 .6826172 .70399478 .6826172 .69699099 .6826172 .6689911 .6826172 .5970001 .6796112 .56900027 .6796112 .5479889 .6796112 .526001 .680603 .5049896 .680603 .48399354 .680603 .46199037 .6826172 .44099427 .6826172 .43399049 .6826172 .42399598 .6826172 .42399598 .66760256 .42399598 .6516113 .42999269 .6516113 .45498658 .6516113 .5269928 .6516113 .5269928 .64460757 .5269928 .6046295V.0309906H.22200012V.6046295C.22200012 .6456146 .22200012 .6516113 .29899598 .6516113 .31799317 .6516113 .32499696 .6516113 .32499696 .66760256 .32499696 .6826172 .31498719 .6826172 .30799867 .6826172 .27999879 .6826172 .20799256 .6796112 .17999268 .6796112 .15899658 .6796112 .13699341 .680603 .115997318 .680603 .09498596 .680603 .07299805 .6826172 .051986696 .6826172 .04499817 .6826172 .034988405 .6826172 .034988405 .66760256 .034988405 .6516113 .040985109 .6516113 .06599426 .6516113 .13798523 .6516113 .13798523 .64460757 .13798523 .6046295V.07795715C.13798523 .036987306 .13798523 .0309906 .06098938 .0309906 .041992189 .0309906 .034988405 .0309906 .034988405 .01499939 .034988405 0 .041992189 0 .06298828 0H.6859894C.70700076 0 .71398928 0 .71398928 .01499939 .71398928 .0309906 .70799258 .0309906 .68299868 .0309906 .61099246 .0309906 .61099246 .037994386 .61099246 .07795715V.6046295Z"/>
<path id="font_3_1" d="M.7829895 .6436157C.79100039 .6516113 .7969971 .6586151 .7969971 .6716156 .7969971 .6826172 .78900149 .6826172 .769989 .6826172H.30299378C.2769928 .6826172 .27598573 .6816101 .269989 .6626129L.21398926 .4827118C.20999146 .47071839 .20999146 .46972657 .20999146 .46672059 .20999146 .46173097 .21398926 .45272828 .22698975 .45272828 .23999024 .45272828 .24198914 .45872499 .24499512 .46871949 .29299928 .6096344 .37098695 .64660647 .5 .64660647H.6799927L.09700012 .04399109C.08999634 .036987306 .07998657 .026992798 .07998657 .010986328 .07998657 0 .08898926 0 .10699463 0H.59098818C.61698916 0 .6179962 .0009918213 .6239929 .019989014L.69599917 .24285889C.69999697 .25585938 .69999697 .25785829 .69999697 .2588501 .69999697 .25985719 .69999697 .2728424 .6839905 .2728424 .67099 .2728424 .6689911 .2688446 .6619873 .24685669 .6159973 .109954837 .5649872 .039993287 .3909912 .039993287H.19999695L.7829895 .6436157Z"/>
<path id="font_1_3" d="M.5970001 .5686493 .61099246 .5826416C.6409912 .6126251 .673996 .64660647 .74198916 .6516113 .7529907 .65260317 .7619934 .65260317 .7619934 .6706085 .7619934 .6786041 .7569885 .6826172 .7489929 .6826172 .72299197 .6826172 .69400027 .6796112 .6669922 .6796112 .6339874 .6796112 .598999 .6826172 .5669861 .6826172 .5609894 .6826172 .5479889 .6826172 .5479889 .66360476 .5479889 .65260317 .55799868 .6516113 .5629883 .6516113 .56999209 .6516113 .598999 .6496124 .598999 .62861636 .598999 .6116333 .57598879 .5856476 .57199099 .5806427L.33999635 .31381227 .22999573 .6106262C.22399903 .62461856 .22399903 .62661746 .22399903 .6276245 .22399903 .6516113 .272995 .6516113 .2829895 .6516113 .29699708 .6516113 .30699159 .6516113 .30699159 .6716156 .30699159 .6826172 .29499818 .6826172 .2919922 .6826172 .2639923 .6826172 .19400025 .6796112 .1659851 .6796112 .14099121 .6796112 .07899475 .6826172 .053985597 .6826172 .04798889 .6826172 .034988405 .6826172 .034988405 .6626129 .034988405 .6516113 .04499817 .6516113 .057998659 .6516113 .117996219 .6516113 .12199402 .64260867 .1309967 .61763L.2539978 .28883363C.25498963 .28582765 .2579956 .2748413 .2579956 .27183534 .2579956 .2688446 .21798706 .107940677 .21299744 .08995056 .19999695 .034988405 .19898987 .03199768 .11898804 .0309906 .099990848 .0309906 .09199524 .0309906 .09199524 .010986328 .09199524 0 .10398865 0 .10598755 0 .13398743 0 .20399475 .0029907227 .23199463 .0029907227 .2599945 .0029907227 .33198548 0 .3600006 0 .36698915 0 .3789978 0 .3789978 .019989014 .3789978 .0309906 .36999513 .0309906 .35099793 .0309906 .34899903 .0309906 .32998658 .0309906 .31298829 .032989503 .2919922 .034988405 .28599549 .036987306 .28599549 .048980714 .28599549 .05596924 .29499818 .09095764 .2999878 .11193848L.33499146 .2528534C.33999635 .27183534 .34098817 .2748413 .34899903 .28382875L.5970001 .5686493Z"/>
<path id="font_1_1" d="M.30299378 .3157959H.47299195C.61499026 .3157959 .7539978 .41973878 .7539978 .53167727 .7539978 .6086273 .6879883 .6826172 .5569916 .6826172H.23298645C.21398926 .6826172 .20298767 .6826172 .20298767 .66360476 .20298767 .6516113 .21199036 .6516113 .23199463 .6516113 .24499512 .6516113 .2630005 .65060427 .2749939 .6496124 .29100038 .6476135 .29699708 .64460757 .29699708 .6336212 .29699708 .6296234 .29599 .62661746 .29299928 .614624L.15899658 .07795715C.14898682 .038986207 .14698792 .0309906 .067993167 .0309906 .050994874 .0309906 .039993287 .0309906 .039993287 .011993408 .039993287 0 .051986696 0 .054992677 0 .08299255 0 .1539917 .0029907227 .18199158 .0029907227 .20298767 .0029907227 .22499085 .0019989014 .24598694 .0019989014 .2679901 .0019989014 .2899933 0 .31098939 0 .31799317 0 .33099366 0 .33099366 .019989014 .33099366 .0309906 .32199098 .0309906 .30299378 .0309906 .2659912 .0309906 .23799134 .0309906 .23799134 .048980714 .23799134 .054977418 .23999024 .05996704 .24099732 .065963748L.30299378 .3157959M.375 .6136322C.38398744 .64860537 .38598634 .6516113 .42900086 .6516113H.5249939C.60798647 .6516113 .6609955 .62461856 .6609955 .55566409 .6609955 .5166931 .6409912 .43074037 .60198977 .39476014 .5519867 .34977723 .49198915 .34179688 .44799806 .34179688H.30699159L.375 .6136322Z"/>
<path id="font_4_1" d="M.21899414 .65885928C.21899414 .69485476 .18798828 .7138672 .1619873 .7138672 .1329956 .7138672 .10398865 .69285586 .10398865 .65885928L.14299011 .21783448C.14498902 .1958313 .147995 .1938324 .1619873 .1938324 .1749878 .1938324 .17799378 .1958313 .17999268 .21684265L.21899414 .65885928M.21899414 .057998659C.21899414 .08898926 .19299317 .114990238 .1619873 .114990238 .1269989 .114990238 .10398865 .08699036 .10398865 .057998659 .10398865 .022994996 .13198853 0 .16099549 0 .19400025 0 .21899414 .024993897 .21899414 .057998659Z"/>
<path id="font_3_2" d="M.32398988 .6253052C.32398988 .64131167 .31199647 .66329959 .28399659 .66329959 .25698854 .66329959 .22799683 .6372986 .22799683 .6083069 .22799683 .5913086 .24099732 .5703125 .2679901 .5703125 .29699708 .5703125 .32398988 .5983124 .32398988 .6253052M.11999512 .117263797C.115997318 .104263309 .11099243 .09225464 .11099243 .07525635 .11099243 .02822876 .15098572-.009765625 .20599365-.009765625 .30599977-.009765625 .34999085 .12828064 .34999085 .14328003 .34999085 .15628052 .33699037 .15628052 .33399964 .15628052 .31999208 .15628052 .31900025 .15028382 .31498719 .13928223 .2919922 .059249879 .24798584 .018234253 .20899964 .018234253 .18899536 .018234253 .18399048 .031234742 .18399048 .053237916 .18399048 .07624817 .19099427 .09526062 .19999695 .117263797 .20999146 .14428711 .22099304 .17129517 .23199463 .1973114 .24099732 .22131348 .2769928 .3123474 .2809906 .32435609 .28399659 .33436585 .2869873 .3463745 .2869873 .35636903 .2869873 .4033966 .24699402 .44140626 .19198609 .44140626 .09298706 .44140626 .04699707 .3053589 .04699707 .28834535 .04699707 .27534486 .06098938 .27534486 .06399536 .27534486 .07798767 .27534486 .07899475 .28033448 .08198547 .29135133 .10798645 .37738038 .1519928 .4133911 .18899536 .4133911 .20498657 .4133911 .21398926 .4053955 .21398926 .37838746 .21398926 .3553772 .20799256 .34036256 .18299866 .27833558L.11999512 .117263797Z"/>
<path id="font_5_1" d="M.651001 .38078309 .86499026 .57066348C.9249878 .62461856 .9779968 .6356201 1.0379944 .637619 1.052002 .63861086 1.0579987 .65560916 1.0579987 .66560366 1.0579987 .6746063 1.0499878 .6826172 1.0410004 .6826172 1.0249939 .6826172 1.0049896 .6796112 .98799136 .6796112 .97099307 .6796112 .9529877 .6786041 .9359894 .6786041 .91400149 .6786041 .8929901 .6796112 .871994 .6796112 .8529968 .6796112 .8299866 .6826172 .8109894 .6826172 .80400088 .6826172 .7869873 .6826172 .7869873 .65460208 .7869873 .64060977 .7979889 .637619 .80599978 .637619 .81999209 .63661196 .83799746 .63261416 .83799746 .61763 .83799746 .6036377 .82899478 .5956421 .7969971 .56666567L.6299896 .41575624 .5079956 .6196289C.5239868 .63261416 .5439911 .63661196 .56199648 .637619 .56799319 .637619 .58499148 .63861086 .58499148 .66560366 .58499148 .6776123 .57499697 .6826172 .5669861 .6826172 .5439911 .6826172 .5179901 .6796112 .49499513 .6796112 .47200013 .6796112 .44799806 .6786041 .4249878 .6786041 .4039917 .6786041 .38198854 .6796112 .36099244 .6796112 .33999635 .6796112 .31799317 .6826172 .2979889 .6826172 .2809906 .6826172 .27398683 .6706085 .27398683 .65460208 .27398683 .637619 .2889862 .637619 .30699159 .637619 .37298585 .637619 .3789978 .62661746 .3880005 .6116333L.548996 .34280396 .30699159 .12394714C.3039856 .12094116 .29499818 .11494446 .29100038 .11294556 .25 .07896423 .21099854 .04798889 .115997318 .04499817 .09799194 .04399109 .09700012 .018997193 .09700012 .016998291 .09700012 .005996704 .10598755 0 .11299133 0 .12998963 0 .14898682 .0029907227 .1659851 .0029907227 .18299866 .0029907227 .20098877 .0039978029 .21798706 .0039978029 .23999024 .0039978029 .26098634 .0029907227 .28199769 .0029907227 .3019867 .0029907227 .32398988 0 .34399415 0 .35798646 0 .36799623 .0069885256 .36799623 .027999878 .36799623 .04399109 .35299684 .04499817 .34899903 .04499817 .32099916 .04699707 .31698609 .05899048 .31698609 .064971927 .31698609 .07597351 .33099366 .09196472 .33299256 .094955448 .33799745 .09996033 .5309906 .2718506 .56900027 .3078308L.70899966 .07597351C.71099856 .07197571 .71499636 .065979007 .71499636 .0639801 .71499636 .0599823 .69799807 .04699707 .6619873 .04499817 .6559906 .04499817 .6389923 .04399109 .6389923 .016998291 .6389923 .005996704 .6469879 0 .6569977 0 .6799927 0 .70599368 .0029907227 .72898867 .0029907227 .7519989 .0029907227 .776001 .0039978029 .798996 .0039978029 .81999209 .0039978029 .84199526 .0029907227 .86299136 .0029907227 .8829956 .0029907227 .9059906 0 .9259949 0 .94299319 0 .94999697 .011993408 .94999697 .027999878 .94999697 .04499817 .93499758 .04499817 .9169922 .04499817 .85198977 .04499817 .84599307 .055984498 .83699038 .06997681L.651001 .38078309Z"/>
<path id="font_5_2" d="M.7969971 .55766299 .82499697 .5806427C.85198977 .6026306 .8909912 .6336212 .96099856 .637619 .97499087 .63861086 .9889984 .63861086 .9889984 .66560366 .9889984 .6796112 .97698977 .6826172 .97299197 .6826172 .95899966 .6826172 .94299319 .6796112 .9279938 .6796112 .9129944 .6796112 .8969879 .6786041 .8809967 .6786041L.82199099 .6796112C.8049927 .6796112 .7849884 .6826172 .7679901 .6826172 .7549896 .6826172 .74398806 .6756134 .74398806 .65460208 .74398806 .64060977 .7559967 .637619 .7630005 .637619 .7879944 .63661196 .7939911 .63061526 .7939911 .6236267 .7939911 .6096344 .769989 .5876465 .7619934 .5796509L.49798585 .32681275 .34298707 .6116333C.33699037 .6216278 .33699037 .6236267 .33699037 .62461856 .33699037 .637619 .37998963 .637619 .3880005 .637619 .40299989 .637619 .4189911 .637619 .4189911 .66560366 .4189911 .6776123 .40899659 .6826172 .40098573 .6826172 .37799073 .6826172 .35198976 .6796112 .32899476 .6796112 .30499269 .6796112 .2809906 .6786041 .25698854 .6786041 .23599243 .6786041 .21398926 .6796112 .19299317 .6796112 .17999268 .6796112 .12998963 .6826172 .1289978 .6826172 .114990238 .6826172 .10499573 .6756134 .10499573 .65460208 .10499573 .637619 .11898804 .637619 .13699341 .637619 .20098877 .637619 .20498657 .63061526 .21699524 .6086273L.3999939 .2738495 .35499574 .09095764C.34298707 .04598999 .33799745 .04499817 .2639923 .04499817 .24099732 .04499817 .22499085 .04499817 .22499085 .016998291 .22499085 .008987427 .23199463 0 .24299622 0 .2639923 0 .28799439 .0029907227 .30999757 .0029907227 .33399964 .0029907227 .35798646 .0039978029 .38198854 .0039978029 .40699769 .0039978029 .43099977 .0029907227 .45599366 .0029907227 .47799684 .0029907227 .5029907 0 .5239868 0 .5309906 0 .548996 0 .548996 .027999878 .548996 .04499817 .5349884 .04499817 .5159912 .04499817 .5139923 .04499817 .48999024 .04499817 .47299195 .04699707 .44799806 .04899597 .44699098 .049987794 .44699098 .0579834 .44699098 .064971927 .44699098 .066970828 .45899964 .111953739L.49899293 .2728424 .7969971 .55766299Z"/>
</defs>
<use data-text="X" xlink:href="#font_1_2" transform="matrix(9.9626,0,0,-9.963098,42.724,8.058807)"/>
<use data-text="&#x2a3f;" xlink:href="#font_2_1" transform="matrix(9.9626,0,0,-9.963098,53.972993,8.058807)"/>
<use data-text="Z" xlink:href="#font_3_1" transform="matrix(6.9738,0,0,-6.9741489,61.444993,9.553879)"/>
<use data-text="Y" xlink:href="#font_1_3" transform="matrix(9.9626,0,0,-9.963098,70.07399,8.058807)"/>
<use data-text="X" xlink:href="#font_1_2" transform="matrix(9.9626,0,0,-9.963098,1.1899872,41.59548)"/>
<use data-text="Y" xlink:href="#font_1_3" transform="matrix(9.9626,0,0,-9.963098,110.57001,41.59548)"/>
<use data-text="P" xlink:href="#font_1_1" transform="matrix(9.9626,0,0,-9.963098,56.507997,73.637088)"/>
<path transform="matrix(1,0,0,-1.00005,59.878999,37.44327)" stroke-width=".39848" stroke-linecap="butt" stroke-miterlimit="10" stroke-linejoin="miter" fill="none" stroke="#000000" d="M.51888 24.04037V-25.13628"/>
<path transform="matrix(0,1.00005,1,0,60.397878,62.780069)" stroke-width=".39848" stroke-linecap="round" stroke-linejoin="round" fill="none" stroke="#000000" d="M-2.07213 2.39091C-1.69356 .95633-.84995 .27893 0 0-.84995-.27893-1.69356-.95633-2.07213-2.39091"/>
<use data-text="!" xlink:href="#font_4_1" transform="matrix(6.9738,0,0,-6.9741489,62.743997,40.61243)"/>
<path transform="matrix(1,0,0,-1.00005,59.878999,37.44327)" stroke-width=".39848" stroke-linecap="butt" stroke-miterlimit="10" stroke-linejoin="miter" fill="none" stroke="#000000" d="M-45.16055 3.86214-12.59068 23.8321"/>
<path transform="matrix(.85246,-.5226961,-.52267,-.8525026,47.458158,13.505846)" stroke-width=".39848" stroke-linecap="round" stroke-linejoin="round" fill="none" stroke="#000000" d="M-2.07213 2.39091C-1.69356 .95633-.84995 .27893 0 0-.84995-.27893-1.69356-.95633-2.07213-2.39091"/>
<use data-text="i" xlink:href="#font_3_2" transform="matrix(6.9738,0,0,-6.9741489,19.584,20.143408)"/>
<use data-text="X" xlink:href="#font_5_1" transform="matrix(4.9813,0,0,-4.981549,22.403,21.14546)"/>
<path transform="matrix(1,0,0,-1.00005,59.878999,37.44327)" stroke-width=".39848" stroke-linecap="butt" stroke-miterlimit="10" stroke-linejoin="miter" fill="none" stroke="#000000" d="M-45.16055-6.93661-8.20804-28.59183"/>
<path transform="matrix(.86272,.50559529,.50557,-.8627631,51.84285,66.137248)" stroke-width=".39848" stroke-linecap="round" stroke-linejoin="round" fill="none" stroke="#000000" d="M-2.07213 2.39091C-1.69356 .95633-.84995 .27893 0 0-.84995-.27893-1.69356-.95633-2.07213-2.39091"/>
<path transform="matrix(1,0,0,-1.00005,59.878999,37.44327)" stroke-width=".39848" stroke-linecap="butt" stroke-miterlimit="10" stroke-linejoin="miter" fill="none" stroke="#000000" d="M46.19833 3.59427 13.50636 23.83066"/>
<path transform="matrix(-.85025,-.5263263,-.5263,.8502925,73.21596,13.506577)" stroke-width=".39848" stroke-linecap="round" stroke-linejoin="round" fill="none" stroke="#000000" d="M-2.07213 2.39091C-1.69356 .95633-.84995 .27893 0 0-.84995-.27893-1.69356-.95633-2.07213-2.39091"/>
<use data-text="i" xlink:href="#font_3_2" transform="matrix(6.9738,0,0,-6.9741489,91.908,20.277413)"/>
<use data-text="Y" xlink:href="#font_5_2" transform="matrix(4.9813,0,0,-4.981549,94.727,21.279465)"/>
<path transform="matrix(1,0,0,-1.00005,59.878999,37.44327)" stroke-width=".39848" stroke-linecap="butt" stroke-miterlimit="10" stroke-linejoin="miter" fill="none" stroke="#000000" d="M46.19833-6.68008 9.24498-28.54102"/>
<path transform="matrix(-.86063,.50916549,.50914,.86067298,68.95253,66.08717)" stroke-width=".39848" stroke-linecap="round" stroke-linejoin="round" fill="none" stroke="#000000" d="M-2.07213 2.39091C-1.69356 .95633-.84995 .27893 0 0-.84995-.27893-1.69356-.95633-2.07213-2.39091"/>
</svg>
