<svg xmlns="http://www.w3.org/2000/svg" xmlns:xlink="http://www.w3.org/1999/xlink" xmlns:inkscape="http://www.inkscape.org/namespaces/inkscape" version="1.1" width="226" height="51" viewBox="0 0 226 51">
<defs>
<path id="font_1_3" d="M.644989 .69506838C.644989 .69807437 .6429901 .7050781 .6339874 .7050781 .6289978 .7050781 .6279907 .70407107 .6159973 .6900635L.56799319 .6330414C.5419922 .68006899 .48999024 .7050781 .4249878 .7050781 .2979889 .7050781 .17799378 .58999636 .17799378 .4689026 .17799378 .38783265 .23098755 .34179688 .28199769 .32678224L.3889923 .2987671C.42599488 .2897644 .48098756 .27474977 .48098756 .19267273 .48098756 .1026001 .39898683 .008529663 .30099488 .008529663 .23699951 .008529663 .12599182 .030548096 .12599182 .15464783 .12599182 .17866516 .1309967 .2026825 .13198853 .20869446 .1329956 .21269226 .13398743 .21369934 .13398743 .21569824 .13398743 .22570801 .1269989 .22669983 .12199402 .22669983 .116989139 .22669983 .114990238 .22570801 .11199951 .22270203 .10798645 .21870423 .051986696-.009475708 .051986696-.012466431 .051986696-.018463135 .056991579-.022460938 .06298828-.022460938 .067993167-.022460938 .068984989-.021469117 .08099365-.007461548L.12998963 .049560548C.17298889-.008468628 .24099732-.022460938 .29899598-.022460938 .43499757-.022460938 .5529938 .11061096 .5529938 .2347107 .5529938 .30377198 .5189972 .33779908 .5039978 .35180665 .48098756 .37483216 .46598817 .37882997 .3769989 .40185548 .35499574 .40785218 .31900025 .41786195 .30999757 .41986085 .2829895 .42886354 .24899292 .457901 .24899292 .51094058 .24899292 .59199526 .32899476 .677063 .42399598 .677063 .5069885 .677063 .56799319 .6340332 .56799319 .52194216 .56799319 .48991395 .56399539 .47190858 .56399539 .4658966 .56399539 .4649048 .56399539 .45588685 .57598879 .45588685 .58599856 .45588685 .58699038 .45889283 .59098818 .47590638L.644989 .69506838Z"/>
<path id="font_2_1" d="M.12199402 .06324768C.117996219 .050247194 .11199951 .025222779 .11199951 .022232056 .11199951 .00022888184 .12998963-.009765625 .1459961-.009765625 .1639862-.009765625 .17999268 .0032196046 .18499756 .01222229 .18998719 .021224976 .19799805 .053237916 .20298767 .07424927 .20799256 .09326172 .21899414 .13928223 .22499085 .16429138 .23098755 .18629456 .23699951 .20831299 .24198914 .23132324 .25299073 .27233888 .25498963 .28033448 .28399659 .32136537 .31199647 .3613739 .35899354 .4133911 .43399049 .4133911 .49198915 .4133911 .49299623 .36238099 .49299623 .34336854 .49299623 .28334046 .44999696 .17228699 .43399049 .13027954 .4229889 .102264408 .4189911 .09326172 .4189911 .07624817 .4189911 .023223877 .46299745-.009765625 .5139923-.009765625 .6139984-.009765625 .6579895 .12828064 .6579895 .14328003 .6579895 .15628052 .644989 .15628052 .6419983 .15628052 .6279907 .15628052 .6269989 .15028382 .6230011 .13928223 .59999087 .059249879 .5569916 .018234253 .5169983 .018234253 .49598695 .018234253 .49198915 .032226564 .49198915 .053237916 .49198915 .07624817 .49699403 .089263919 .5149994 .13427735 .5269928 .1652832 .56799319 .2713318 .56799319 .32736207 .56799319 .4243927 .4909973 .44140626 .43798829 .44140626 .35499574 .44140626 .29899598 .39038087 .2689972 .3503723 .2619934 .41940309 .20298767 .44140626 .1619873 .44140626 .11898804 .44140626 .09599304 .4104004 .08299255 .38739015 .06098938 .3503723 .04699707 .29335023 .04699707 .28834535 .04699707 .27534486 .06098938 .27534486 .06399536 .27534486 .07798767 .27534486 .07899475 .27833558 .085998538 .3053589 .100997928 .36437989 .11999512 .4133911 .15899658 .4133911 .18499756 .4133911 .19198609 .39138795 .19198609 .36437989 .19198609 .34536744 .18299866 .3083496 .17599488 .28134156 .16899109 .2543335 .15899658 .21331787 .1539917 .19129944L.12199402 .06324768Z"/>
<path id="font_3_1" d="M.74398806 .2263794C.7599945 .2263794 .7839966 .2263794 .7839966 .25038148 .7839966 .27539063 .7609863 .27539063 .74398806 .27539063H.147995C.13198853 .27539063 .10798645 .27539063 .10798645 .25138856 .10798645 .2263794 .1309967 .2263794 .147995 .2263794H.74398806Z"/>
<path id="font_4_1" d="M.33499146 .63612368C.33499146 .6630554 .33299256 .6640625 .30499269 .6640625 .24099732 .6014404 .1499939 .6004486 .10899353 .6004486V.5644531C.1329956 .5644531 .19898987 .5644531 .2539978 .592453V.08203125C.2539978 .04899597 .2539978 .035995485 .1539917 .035995485H.115997318V0C.13398743 .0009918213 .25698854 .0039978029 .2939911 .0039978029 .32499696 .0039978029 .45098878 .0009918213 .47299195 0V.035995485H.43499757C.33499146 .035995485 .33499146 .04899597 .33499146 .08203125V.63612368Z"/>
<path id="font_1_2" d="M.43899537 .71199038C.44400025 .72499087 .44400025 .72898867 .44400025 .7299957 .44400025 .7409973 .43499757 .75 .42399598 .75 .4169922 .75 .4099884 .746994 .40699769 .7409973L.05999756-.21200562C.054992677-.2250061 .054992677-.2290039 .054992677-.23001099 .054992677-.24101258 .06399536-.25 .07499695-.25 .08799744-.25 .09098816-.24301148 .09700012-.22601319L.43899537 .71199038Z"/>
<path id="font_5_1" d="M.33099366-.2400055C.33099366-.23701477 .33099366-.23500061 .31399537-.21800232 .18899536-.0920105 .15699768 .09700012 .15699768 .25 .15699768 .42399598 .19499207 .59799197 .31799317 .72299197 .33099366 .73498538 .33099366 .7369995 .33099366 .73999026 .33099366 .746994 .32699586 .75 .32099916 .75 .31098939 .75 .22099304 .6819916 .1619873 .5549927 .11099243 .44499208 .09899902 .33399964 .09899902 .25 .09899902 .17199707 .10998535 .050994874 .16499329-.06201172 .22499085-.18501282 .31098939-.25 .32099916-.25 .32699586-.25 .33099366-.24700928 .33099366-.2400055Z"/>
<path id="font_1_4" d="M.33399964 .30233766C.33999635 .32835389 .36299134 .42037965 .43299867 .42037965 .43798829 .42037965 .46199037 .42037965 .48298646 .40734864 .45498658 .402359 .43499757 .37734986 .43499757 .35334779 .43499757 .33735658 .44599916 .31835938 .47299195 .31835938 .49499513 .31835938 .5269928 .3363495 .5269928 .37635804 .5269928 .42837525 .46798707 .4423828 .43399049 .4423828 .37599183 .4423828 .34098817 .38935853 .32899476 .36634828 .3039856 .43237306 .25 .4423828 .22099304 .4423828 .116989139 .4423828 .05999756 .3133545 .05999756 .28834535 .05999756 .27833558 .069992069 .27833558 .07199097 .27833558 .07998657 .27833558 .08299255 .28033448 .084991458 .28933717 .11898804 .39535523 .18499756 .42037965 .21899414 .42037965 .23799134 .42037965 .272995 .4113617 .272995 .35334779 .272995 .32235719 .2559967 .25532533 .21899414 .11528015 .20298767 .053268434 .16799927 .011245728 .12399292 .011245728 .117996219 .011245728 .09498596 .011245728 .07398987 .024276734 .09899902 .029266358 .12098694 .05027771 .12098694 .07827759 .12098694 .105270389 .09899902 .11328125 .083999637 .11328125 .053985597 .11328125 .0289917 .08728027 .0289917 .055267335 .0289917 .009246826 .07899475-.0107421879 .12298584-.0107421879 .18899536-.0107421879 .22499085 .059280397 .22799683 .0652771 .23999024 .028274537 .27598573-.0107421879 .33599855-.0107421879 .43899537-.0107421879 .49598695 .118270877 .49598695 .14328003 .49598695 .1532898 .4869995 .1532898 .48399354 .1532898 .47499085 .1532898 .47299195 .14929199 .47099305 .14228821 .43798829 .03527832 .36999513 .011245728 .33799745 .011245728 .29899598 .011245728 .2829895 .043273927 .2829895 .07727051 .2829895 .09927368 .2889862 .121276859 .2999878 .16529846L.33399964 .30233766Z"/>
<path id="font_6_2" d="M.7220001 .33418275C.7220001 .3561859 .71598818 .36618043 .70799258 .36618043 .7029877 .36618043 .69499209 .35917665 .69400027 .34017945 .6899872 .24397278 .6239929 .18881226 .55400088 .18881226 .4909973 .18881226 .44299317 .2319336 .3939972 .2750702 .34298707 .32118226 .29100038 .3671875 .22299195 .3671875 .11399841 .3671875 .054992677 .25701905 .054992677 .165802 .054992677 .13380432 .067993167 .13380432 .068984989 .13380432 .07998657 .13380432 .08299255 .1538086 .08299255 .15679932 .08699036 .26704408 .1619873 .3111725 .22299195 .3111725 .28599549 .3111725 .33399964 .26805116 .3829956 .22491455 .43399049 .17880249 .48599244 .1328125 .55400088 .1328125 .6629944 .1328125 .7220001 .2429657 .7220001 .33418275Z"/>
<path id="font_6_1" d="M.6589966 .23046875C.6759949 .23046875 .69400027 .23046875 .69400027 .25045777 .69400027 .27046205 .6759949 .27046205 .6589966 .27046205H.117996219C.100997928 .27046205 .08299255 .27046205 .08299255 .25045777 .08299255 .23046875 .100997928 .23046875 .117996219 .23046875H.6589966Z"/>
<path id="font_5_2" d="M.2889862 .25C.2889862 .32798768 .27799989 .44898988 .22299195 .56199648 .16299439 .68499758 .07699585 .75 .066986087 .75 .06098938 .75 .056991579 .74598696 .056991579 .73999026 .056991579 .7369995 .056991579 .73498538 .07598877 .71699526 .17399597 .6179962 .23098755 .45899964 .23098755 .25 .23098755 .07899475 .19400025-.09700012 .069992069-.2230072 .056991579-.23500061 .056991579-.23701477 .056991579-.2400055 .056991579-.2460022 .06098938-.25 .066986087-.25 .07699585-.25 .16699219-.18200684 .22599793-.055007936 .2769928 .054992677 .2889862 .16600037 .2889862 .25Z"/>
<path id="font_7_2" d="M.2679901 .31362916H.3039856L.45399476 .08192444C.46398927 .06594849 .48799134 .026992798 .49899293 .011993408 .5059967 0 .5089874 0 .5319977 0H.66999819C.6879883 0 .7029877 0 .7029877 .017990113 .7029877 .025985718 .69699099 .032989503 .6879883 .034988405 .651001 .04298401 .60198977 .10890198 .5779877 .14085388 .57099917 .15083313 .5209961 .2167511 .45399476 .32463075 .54299929 .34062196 .6289978 .37861634 .6289978 .4975891 .6289978 .63656619 .48199464 .6845703 .3639984 .6845703H.049987794C.03199768 .6845703 .015991211 .6845703 .015991211 .66656497 .015991211 .64956668 .034988405 .64956668 .042999269 .64956668 .099990848 .64956668 .10499573 .64256289 .10499573 .5925751V.091918949C.10499573 .04197693 .099990848 .034988405 .042999269 .034988405 .034988405 .034988405 .015991211 .034988405 .015991211 .017990113 .015991211 0 .03199768 0 .049987794 0H.32398988C.34199525 0 .35699464 0 .35699464 .017990113 .35699464 .034988405 .33999635 .034988405 .32899476 .034988405 .27198792 .034988405 .2679901 .04298401 .2679901 .091918949V.31362916M.46099855 .36262513C.4889984 .39961244 .49198915 .4526062 .49198915 .4965973 .49198915 .5445862 .48599244 .59757998 .45399476 .63856509 .49499513 .6295624 .59399417 .5985718 .59399417 .4975891 .59399417 .43260194 .56399539 .3816223 .46099855 .36262513M.2679901 .59558108C.2679901 .61657717 .2679901 .64956668 .32998658 .64956668 .4149933 .64956668 .45700074 .614563 .45700074 .4965973 .45700074 .36761476 .42599488 .3486328 .2679901 .3486328V.59558108M.13198853 .034988405C.13999939 .052963258 .13999939 .08093262 .13999939 .089920047V.594574C.13999939 .6045685 .13999939 .6315613 .13198853 .64956668H.24598694C.23298645 .6335602 .23298645 .61357119 .23298645 .5985718V.089920047C.23298645 .079940799 .23298645 .052963258 .24099732 .034988405H.13198853M.34498597 .31362916C.35198976 .31462098 .35598756 .31562806 .3639984 .31562806 .3789978 .31562806 .40098573 .31762696 .41600038 .31962586 .43099977 .2956543 .5389862 .117889408 .621994 .034988405H.5249939L.34498597 .31362916Z"/>
<path id="font_7_3" d="M.12998963 .42112733C.117996219 .43112184 .115997318 .43112184 .11099243 .43112184 .100997928 .43112184 .09098816 .42312623 .09098816 .4111328 .09098816 .40112306 .09700012 .39611817 .10598755 .39012147L.6459961-.0129852299C.6579895-.021987915 .6639862-.021987915 .66600039-.021987915 .6759949-.021987915 .6859894-.013977051 .6859894-.0019836426 .6859894 .008010864 .67900088 .013015747 .67099 .01902771L.12998963 .42112733Z"/>
<path id="font_6_3" d="M.2829895 .6169281C.2829895 .6569519 .30899049 .72099307 .41799928 .7279968 .4229889 .72898867 .4269867 .73298647 .4269867 .7389984 .4269867 .75 .4189911 .75 .4079895 .75 .30799867 .75 .21699524 .6989746 .21598816 .62493899V.3968048C.21598816 .3577881 .21598816 .32577516 .17599488 .29275514 .14099121 .2637329 .102996829 .261734 .08099365 .2607422 .07598877 .2597351 .07199097 .2557373 .07199097 .2497406 .07199097 .23973084 .07798767 .23973084 .08799744 .23873902 .1539917 .23474121 .20199585 .19876099 .21299744 .14978028 .21598816 .13879395 .21598816 .13679505 .21598816 .10081482V-.097076419C.21598816-.13905335 .21598816-.17103577 .2639923-.2090149 .30299378-.23901367 .36898805-.25 .4079895-.25 .4189911-.25 .4269867-.25 .4269867-.23901367 .4269867-.2290039 .42099-.2290039 .41099549-.22801209 .34799195-.22401428 .29899598-.19203186 .28599549-.14105225 .2829895-.13206482 .2829895-.13006592 .2829895-.09408569V.11579895C.2829895 .16177368 .2749939 .17877198 .24299622 .2107544 .22200012 .23173523 .19299317 .24172974 .16499329 .2497406 .24699402 .2727356 .2829895 .31877137 .2829895 .37680055V.6169281Z"/>
<path id="font_5_3" d="M.45999146 .31976319C.45999146 .39982606 .45498658 .47988893 .41999818 .5539398 .37399293 .65000918 .2919922 .6660156 .25 .6660156 .18998719 .6660156 .116989139 .64001467 .07598877 .54693606 .04399109 .47789 .038986207 .39982606 .038986207 .31976319 .038986207 .24472046 .042999269 .15464783 .083999637 .07859802 .1269989-.0024719239 .19999695-.022460938 .24899292-.022460938 .30299378-.022460938 .3789978-.0014648438 .4229889 .09359741 .45498658 .16265869 .45999146 .2407074 .45999146 .31976319M.24899292-.00047302247C.20999146-.00047302247 .15098572 .024551392 .1329956 .12062073 .12199402 .18066406 .12199402 .2727356 .12199402 .3317871 .12199402 .39582826 .12199402 .46188355 .12998963 .5159149 .14898682 .63500979 .22399903 .64401248 .24899292 .64401248 .28199769 .64401248 .34799195 .6259918 .36698915 .52693179 .3769989 .47088624 .3769989 .39482118 .3769989 .3317871 .3769989 .25672914 .3769989 .18867493 .3659973 .12461853 .35099793 .029556275 .2939911-.00047302247 .24899292-.00047302247Z"/>
<path id="font_6_4" d="M.21598816-.11706543C.21598816-.15704346 .18998719-.2210083 .08099365-.22801209 .07598877-.2290039 .07199097-.23300171 .07199097-.23901367 .07199097-.25 .08299255-.25 .09199524-.25 .18899536-.25 .28199769-.20101929 .2829895-.12506104V.10282898C.2829895 .14179993 .2829895 .17378235 .32299806 .20677185 .35798646 .23576355 .3959961 .23776245 .41799928 .23875427 .4229889 .23976135 .4269867 .24375916 .4269867 .24975586 .4269867 .25976563 .42099 .25976563 .41099549 .26075746 .34498597 .26475526 .29699708 .30078126 .28599549 .34980775 .2829895 .36080934 .2829895 .36280824 .2829895 .39883424V.5969238C.2829895 .63894656 .2829895 .6709595 .23498535 .7089844 .19499207 .73999026 .12599182 .75 .09199524 .75 .08299255 .75 .07199097 .75 .07199097 .7389984 .07199097 .72898867 .07798767 .72898867 .08799744 .72798159 .15098572 .72398379 .19999695 .6919708 .21299744 .64094546 .21598816 .63194277 .21598816 .62994387 .21598816 .59391787V.38381959C.21598816 .33779908 .22399903 .32078553 .2559967 .28877259 .2769928 .26776124 .30599977 .25775147 .33399964 .24975586 .2519989 .22676087 .21598816 .18078614 .21598816 .12281799V-.11706543Z"/>
<path id="font_1_1" d="M.35699464 .29231263C.397995 .18730164 .44599916 .034301759 .46199037 .011291504 .47799684-.010696411 .48799134-.010696411 .5149994-.010696411H.5369873C.5469971-.00970459 .5479889-.0037078858 .5479889-.0007019043 .5479889 .0023040772 .54599 .0043029787 .54299929 .008300781 .5329895 .019302369 .5269928 .034301759 .519989 .05430603L.31599427 .62332156C.29499818 .68133547 .24099732 .69433596 .19400025 .69433596 .18899536 .69433596 .17599488 .69433596 .17599488 .68333438 .17599488 .6753235 .18399048 .6733246 .18499756 .6733246 .21798706 .6673279 .22499085 .6613312 .25 .59332278L.34700013 .32130433 .070999149 .047302247C.05899048 .03529358 .052993776 .029296875 .052993776 .016296387 .052993776-.0007019043 .066986087-.0126953129 .08299255-.0126953129 .09899902-.0126953129 .10798645-.0017089844 .115997318 .008300781L.35699464 .29231263Z"/>
<path id="font_7_1" d="M.2619934 .30778504C.2659912 .30778504 .2869873 .30778504 .2889862 .3067932H.32299806C.526001 .3067932 .598999 .40174867 .598999 .49667359 .598999 .63856509 .47099305 .6845703 .34199525 .6845703H.049987794C.03199768 .6845703 .015991211 .6845703 .015991211 .66656497 .015991211 .64956668 .034988405 .64956668 .042999269 .64956668 .09498596 .64956668 .09899902 .64157107 .09899902 .5926056V.09194946C.09899902 .04298401 .09498596 .034988405 .04399109 .034988405 .033996583 .034988405 .015991211 .034988405 .015991211 .017990113 .015991211 0 .03199768 0 .049987794 0H.31799317C.33599855 0 .35099793 0 .35099793 .017990113 .35099793 .034988405 .33399964 .034988405 .32299806 .034988405 .2659912 .034988405 .2619934 .04298401 .2619934 .09194946V.30778504M.4269867 .3527832C.45899964 .39474488 .46199037 .45770265 .46199037 .49768067 .46199037 .55062869 .45700074 .6035919 .43099977 .64056399 .48599244 .62757876 .56399539 .5975952 .56399539 .49667359 .56399539 .4267273 .5189972 .37576295 .4269867 .3527832M.2619934 .5955963C.2619934 .6155853 .2619934 .64956668 .32199098 .64956668 .3939972 .64956668 .4269867 .62257388 .4269867 .49768067 .4269867 .3547821 .37399293 .3427887 .31199647 .3427887H.2619934V.5955963M.12599182 .034988405C.13398743 .052978517 .13398743 .07696533 .13398743 .08995056V.5946045C.13398743 .6075897 .13398743 .63157656 .12599182 .64956668H.23999024C.22698975 .63357546 .22698975 .6135864 .22698975 .5986023V.08995056C.22698975 .079956058 .22698975 .052978517 .23498535 .034988405H.12599182Z"/>
</defs>
<use data-text="S" xlink:href="#font_1_3" transform="matrix(9.962799,0,0,-9.963098,9.906921,10.359867)"/>
<use data-text="n" xlink:href="#font_2_1" transform="matrix(6.97394,0,0,-6.9741489,16.590058,6.744686)"/>
<use data-text="&#x2212;" xlink:href="#font_3_1" transform="matrix(6.97394,0,0,-6.9741489,21.515168,6.744686)"/>
<use data-text="1" xlink:href="#font_4_1" transform="matrix(6.97394,0,0,-6.9741489,27.741288,6.744686)"/>
<use data-text="S" xlink:href="#font_1_3" transform="matrix(9.962799,0,0,-9.963098,85.04944,10.359867)"/>
<use data-text="n" xlink:href="#font_2_1" transform="matrix(6.97394,0,0,-6.9741489,91.732578,6.744686)"/>
<use data-text="&#x2212;" xlink:href="#font_3_1" transform="matrix(6.97394,0,0,-6.9741489,96.65765,6.744686)"/>
<use data-text="1" xlink:href="#font_4_1" transform="matrix(6.97394,0,0,-6.9741489,102.884799,6.744686)"/>
<use data-text="/" xlink:href="#font_1_2" transform="matrix(9.962799,0,0,-9.963098,107.35385,10.359867)"/>
<use data-text="(" xlink:href="#font_5_1" transform="matrix(9.962799,0,0,-9.963098,112.33597,10.359867)"/>
<use data-text="x" xlink:href="#font_1_4" transform="matrix(9.962799,0,0,-9.963098,116.21002,10.359867)"/>
<use data-text="&#x223c;" xlink:href="#font_6_2" transform="matrix(9.962799,0,0,-9.963098,124.6712,10.359867)"/>
<use data-text="&#x2212;" xlink:href="#font_6_1" transform="matrix(9.962799,0,0,-9.963098,135.172,10.359867)"/>
<use data-text="x" xlink:href="#font_1_4" transform="matrix(9.962799,0,0,-9.963098,142.93656,10.359867)"/>
<use data-text=")" xlink:href="#font_5_2" transform="matrix(9.962799,0,0,-9.963098,148.63068,10.359867)"/>
<use data-text="R" xlink:href="#font_7_2" transform="matrix(9.962799,0,0,-9.963098,1.1887512,46.979696)"/>
<use data-text="n" xlink:href="#font_2_1" transform="matrix(6.97394,0,0,-6.9741489,8.383911,43.364515)"/>
<use data-text="&#x2216;" xlink:href="#font_7_3" transform="matrix(9.962799,0,0,-9.963098,16.021058,46.979696)"/>
<use data-text="{" xlink:href="#font_6_3" transform="matrix(9.962799,0,0,-9.963098,25.983262,46.979696)"/>
<use data-text="0" xlink:href="#font_5_3" transform="matrix(9.962799,0,0,-9.963098,30.965348,46.979696)"/>
<use data-text="}" xlink:href="#font_6_4" transform="matrix(9.962799,0,0,-9.963098,35.94644,46.979696)"/>
<use data-text="(" xlink:href="#font_5_1" transform="matrix(9.962799,0,0,-9.963098,73.42619,46.979696)"/>
<use data-text="R" xlink:href="#font_7_2" transform="matrix(9.962799,0,0,-9.963098,77.301258,46.979696)"/>
<use data-text="n" xlink:href="#font_2_1" transform="matrix(6.97394,0,0,-6.9741489,84.496417,43.364515)"/>
<use data-text="&#x2216;" xlink:href="#font_7_3" transform="matrix(9.962799,0,0,-9.963098,92.13356,46.979696)"/>
<use data-text="{" xlink:href="#font_6_3" transform="matrix(9.962799,0,0,-9.963098,102.09578,46.979696)"/>
<use data-text="0" xlink:href="#font_5_3" transform="matrix(9.962799,0,0,-9.963098,107.077869,46.979696)"/>
<use data-text="}" xlink:href="#font_6_4" transform="matrix(9.962799,0,0,-9.963098,112.058948,46.979696)"/>
<use data-text=")" xlink:href="#font_5_2" transform="matrix(9.962799,0,0,-9.963098,117.04002,46.979696)"/>
<use data-text="/" xlink:href="#font_1_2" transform="matrix(9.962799,0,0,-9.963098,120.915119,46.979696)"/>
<use data-text="(" xlink:href="#font_5_1" transform="matrix(9.962799,0,0,-9.963098,125.896198,46.979696)"/>
<use data-text="x" xlink:href="#font_1_4" transform="matrix(9.962799,0,0,-9.963098,129.77028,46.979696)"/>
<use data-text="&#x223c;" xlink:href="#font_6_2" transform="matrix(9.962799,0,0,-9.963098,138.23244,46.979696)"/>
<use data-text="&#x03bb;" xlink:href="#font_1_1" transform="matrix(9.962799,0,0,-9.963098,148.74864,46.979696)"/>
<use data-text="x" xlink:href="#font_1_4" transform="matrix(9.962799,0,0,-9.963098,154.55696,46.979696)"/>
<use data-text=")" xlink:href="#font_5_2" transform="matrix(9.962799,0,0,-9.963098,160.25389,46.979696)"/>
<use data-text="R" xlink:href="#font_7_2" transform="matrix(9.962799,0,0,-9.963098,196.62865,46.979696)"/>
<use data-text="P" xlink:href="#font_7_1" transform="matrix(9.962799,0,0,-9.963098,203.8218,46.979696)"/>
<use data-text="n" xlink:href="#font_2_1" transform="matrix(6.97394,0,0,-6.9741489,209.91191,42.579477)"/>
<use data-text="&#x2212;" xlink:href="#font_3_1" transform="matrix(6.97394,0,0,-6.9741489,214.83699,42.579477)"/>
<use data-text="1" xlink:href="#font_4_1" transform="matrix(6.97394,0,0,-6.9741489,221.0641,42.579477)"/>
<path transform="matrix(1.00002,0,0,-1.00005,113.362,25.859642)" stroke-width=".39848" stroke-linecap="butt" stroke-miterlimit="10" stroke-linejoin="miter" fill="none" stroke="#000000" d="M-76.6562 17.99017H-33.202"/>
<path transform="matrix(1.00002,0,0,-1.00005,80.35858,7.868574)" stroke-width=".39848" stroke-linecap="round" stroke-linejoin="round" fill="none" stroke="#000000" d="M-2.07213 2.39091C-1.69356 .95633-.84995 .27893 0 0-.84995-.27893-1.69356-.95633-2.07213-2.39091"/>
<path transform="matrix(1.00002,0,0,-1.00005,113.362,25.859642)" stroke-width=".39848" stroke-linecap="butt" stroke-miterlimit="10" stroke-linejoin="miter" fill="none" stroke="#000000" d="M-92.30164 10.21582V-9.39883"/>
<path transform="matrix(0,-1.00005,1.00002,0,21.05851,15.6433119)" stroke-width=".39848" stroke-linecap="round" stroke-miterlimit="10" stroke-linejoin="miter" fill="none" stroke="#000000" d="M0 1.95256C.68224 1.95256 1.2353 1.51546 1.2353 .97627 1.2353 .43709 .68224 0 0 0"/>
<path transform="matrix(0,1.00005,1.00002,0,21.05851,35.45819)" stroke-width=".39848" stroke-linecap="round" stroke-linejoin="round" fill="none" stroke="#000000" d="M-2.07213 2.39091C-1.69356 .95633-.84995 .27893 0 0-.84995-.27893-1.69356-.95633-2.07213-2.39091"/>
<path transform="matrix(1.00002,0,0,-1.00005,113.362,25.859642)" stroke-width=".39848" stroke-linecap="butt" stroke-miterlimit="10" stroke-linejoin="miter" fill="none" stroke="#000000" d="M5.4172 9.15967V-9.39883"/>
<path transform="matrix(0,1.00005,1.00002,0,118.77931,35.45819)" stroke-width=".39848" stroke-linecap="round" stroke-linejoin="round" fill="none" stroke="#000000" d="M-2.07213 2.39091C-1.69356 .95633-.84995 .27893 0 0-.84995-.27893-1.69356-.95633-2.07213-2.39091"/>
<path transform="matrix(1.00002,0,0,-1.00005,113.362,25.859642)" stroke-width=".39848" stroke-linecap="butt" stroke-miterlimit="10" stroke-linejoin="miter" fill="none" stroke="#000000" d="M-67.93881-18.6278H-44.82521"/>
<path transform="matrix(1.00002,0,0,-1.00005,68.73512,44.488374)" stroke-width=".39848" stroke-linecap="round" stroke-linejoin="round" fill="none" stroke="#000000" d="M-2.07213 2.39091C-1.69356 .95633-.84995 .27893 0 0-.84995-.27893-1.69356-.95633-2.07213-2.39091"/>
<path transform="matrix(1.00002,0,0,-1.00005,113.362,25.859642)" stroke-width="2.33075" stroke-linecap="butt" stroke-miterlimit="10" stroke-linejoin="miter" fill="none" stroke="#000000" d="M55.26115-18.6278H78.77324"/>
<path transform="matrix(1.00002,0,0,-1.00005,113.362,25.859642)" stroke-width="1.53377" stroke-linecap="butt" stroke-miterlimit="10" stroke-linejoin="miter" fill="none" stroke="#ffffff" d="M55.26115-18.6278H78.77324"/>
</svg>
