<svg xmlns="http://www.w3.org/2000/svg" xmlns:xlink="http://www.w3.org/1999/xlink" xmlns:inkscape="http://www.inkscape.org/namespaces/inkscape" version="1.1" width="64" height="48" viewBox="0 0 64 48">
<defs>
<path id="font_1_3" d="M.4850006 .41075135 .40098573 .6096344C.397995 .61763 .3959961 .6216278 .3959961 .6226196 .3959961 .62861636 .41299439 .6476135 .45498658 .6516113 .46499635 .65260317 .47499085 .6536102 .47499085 .6706085 .47499085 .6826172 .46299745 .6826172 .45999146 .6826172 .4189911 .6826172 .37599183 .6796112 .33399964 .6796112 .30899049 .6796112 .24699402 .6826172 .22200012 .6826172 .21598816 .6826172 .20399475 .6826172 .20399475 .6626129 .20399475 .6516113 .21398926 .6516113 .22698975 .6516113 .2869873 .6516113 .29299928 .6416168 .3019867 .6196289L.41999818 .34080506 .20899964 .11393738 .19599915 .10295105C.14698792 .049987794 .099990848 .033996583 .04899597 .0309906 .035995485 .02999878 .026992798 .02999878 .026992798 .010986328 .026992798 .009994507 .026992798 0 .039993287 0 .069992069 0 .102996829 .0029907227 .13398743 .0029907227 .17098999 .0029907227 .20999146 0 .24598694 0 .2519989 0 .2639923 0 .2639923 .019989014 .2639923 .02999878 .2539978 .0309906 .2519989 .0309906 .24299622 .03199768 .21199036 .033996583 .21199036 .061965944 .21199036 .07795715 .22698975 .093948367 .23899842 .10694885L.34098817 .21487427 .43099977 .31282044 .5319977 .07395935C.5359955 .06297302 .5369873 .061965944 .5369873 .05996704 .5369873 .051986696 .5179901 .034988405 .47898866 .0309906 .46798707 .02999878 .45899964 .0289917 .45899964 .011993408 .45899964 0 .46998597 0 .47399903 0 .5019989 0 .57199099 .0029907227 .59999087 .0029907227 .625 .0029907227 .6859894 0 .71099856 0 .71798709 0 .7299957 0 .7299957 .018997193 .7299957 .0309906 .7200012 .0309906 .71199038 .0309906 .644989 .03199768 .6429901 .034988405 .6259918 .07496643 .58699038 .16790772 .519989 .32380677 .49699403 .3837738 .5649872 .45373536 .66999819 .5726471 .70199587 .6006317 .73098757 .62461856 .7689972 .64860537 .82899478 .6516113 .84199526 .65260317 .8509979 .65260317 .8509979 .6716156 .8509979 .6726074 .8509979 .6826172 .83799746 .6826172 .80799868 .6826172 .7749939 .6796112 .74398806 .6796112 .70700076 .6796112 .6689911 .6826172 .6329956 .6826172 .6269989 .6826172 .6139984 .6826172 .6139984 .6626129 .6139984 .65560916 .61898806 .65260317 .6259918 .6516113 .6349945 .65060427 .66600039 .64860537 .66600039 .6206207 .66600039 .6066284 .6549988 .5936432 .6469879 .5846405L.4850006 .41075135Z"/>
<path id="font_1_4" d="M.5970001 .5686493 .61099246 .5826416C.6409912 .6126251 .673996 .64660647 .74198916 .6516113 .7529907 .65260317 .7619934 .65260317 .7619934 .6706085 .7619934 .6786041 .7569885 .6826172 .7489929 .6826172 .72299197 .6826172 .69400027 .6796112 .6669922 .6796112 .6339874 .6796112 .598999 .6826172 .5669861 .6826172 .5609894 .6826172 .5479889 .6826172 .5479889 .66360476 .5479889 .65260317 .55799868 .6516113 .5629883 .6516113 .56999209 .6516113 .598999 .6496124 .598999 .62861636 .598999 .6116333 .57598879 .5856476 .57199099 .5806427L.33999635 .31381227 .22999573 .6106262C.22399903 .62461856 .22399903 .62661746 .22399903 .6276245 .22399903 .6516113 .272995 .6516113 .2829895 .6516113 .29699708 .6516113 .30699159 .6516113 .30699159 .6716156 .30699159 .6826172 .29499818 .6826172 .2919922 .6826172 .2639923 .6826172 .19400025 .6796112 .1659851 .6796112 .14099121 .6796112 .07899475 .6826172 .053985597 .6826172 .04798889 .6826172 .034988405 .6826172 .034988405 .6626129 .034988405 .6516113 .04499817 .6516113 .057998659 .6516113 .117996219 .6516113 .12199402 .64260867 .1309967 .61763L.2539978 .28883363C.25498963 .28582765 .2579956 .2748413 .2579956 .27183534 .2579956 .2688446 .21798706 .107940677 .21299744 .08995056 .19999695 .034988405 .19898987 .03199768 .11898804 .0309906 .099990848 .0309906 .09199524 .0309906 .09199524 .010986328 .09199524 0 .10398865 0 .10598755 0 .13398743 0 .20399475 .0029907227 .23199463 .0029907227 .2599945 .0029907227 .33198548 0 .3600006 0 .36698915 0 .3789978 0 .3789978 .019989014 .3789978 .0309906 .36999513 .0309906 .35099793 .0309906 .34899903 .0309906 .32998658 .0309906 .31298829 .032989503 .2919922 .034988405 .28599549 .036987306 .28599549 .048980714 .28599549 .05596924 .29499818 .09095764 .2999878 .11193848L.33499146 .2528534C.33999635 .27183534 .34098817 .2748413 .34899903 .28382875L.5970001 .5686493Z"/>
<path id="font_1_2" d="M.19198609 .052993776C.19198609 .08198547 .16799927 .10598755 .13899231 .10598755 .10998535 .10598755 .085998538 .08198547 .085998538 .052993776 .085998538 .023986817 .10998535 0 .13899231 0 .16799927 0 .19198609 .023986817 .19198609 .052993776Z"/>
<path id="font_1_1" d="M.57499697 .5688782C.57499697 .64401248 .519989 .70606997 .43899537 .70606997 .3809967 .70606997 .35299684 .6900635 .31799317 .664032 .2630005 .62397769 .20799256 .5268097 .18899536 .4506836L.02999878-.18434143C.0289917-.18833924 .033996583-.19433594 .041992189-.19433594 .049987794-.19433594 .052993776-.19233704 .053985597-.18934632L.12399292 .08711243C.14299011 .027236939 .18699646-.009719849 .2599945-.009719849 .33299256-.009719849 .4079895 .025238038 .45298768 .06915283 .5009918 .11505127 .5329895 .17892456 .5329895 .2527771 .5329895 .32461549 .49598695 .37652589 .45999146 .40159608 .5179901 .43466188 .57499697 .49676515 .57499697 .5688782M.394989 .40260316C.38198854 .3975525 .37098695 .39553834 .34700013 .39553834 .33299256 .39553834 .31298829 .39453126 .30299378 .39956666 .30499269 .4096527 .34098817 .4076538 .35198976 .4076538 .37298585 .4076538 .38198854 .4076538 .394989 .40260316M.5189972 .59191897C.5189972 .5218048 .48098756 .44969178 .42900086 .4186554 .4019928 .4286499 .38198854 .43066407 .35198976 .43066407 .33099366 .43066407 .2749939 .43165589 .2749939 .39855958 .27398683 .37052918 .32598878 .3735199 .34399415 .3735199 .3809967 .3735199 .3959961 .37452699 .42599488 .3865204 .46398927 .35057069 .46899415 .31962586 .46998597 .27372743 .47200013 .21585083 .44799806 .14100647 .41999818 .1020813 .3809967 .048202516 .31399537 .012268066 .25698854 .012268066 .18099976 .012268066 .14299011 .07014465 .14299011 .14100647 .14299011 .15098572 .14299011 .16595459 .147995 .184906L.21199036 .43766786C.23399353 .5238037 .30599977 .68307498 .42599488 .68307498 .48399354 .68307498 .5189972 .6520233 .5189972 .59191897Z"/>
<path id="font_2_2" d="M.40699769 .39465333H.5049896C.5249939 .39465333 .5379944 .39465333 .5379944 .4166565 .5379944 .43066407 .5249939 .43066407 .5069885 .43066407H.4139862C.43699647 .5580139 .44499208 .6040497 .45298768 .63305667 .45799256 .6550598 .47999574 .6760864 .5039978 .6760864 .5049896 .6760864 .5319977 .6760864 .5509949 .6640625 .5099945 .651062 .5069885 .61505129 .5069885 .60905459 .5069885 .5870514 .5239868 .572052 .5469971 .572052 .57398989 .572052 .60398867 .59506228 .60398867 .63305667 .60398867 .6790924 .5549927 .70410159 .5039978 .70410159 .45999146 .70410159 .41099549 .6790924 .38398744 .62905886 .3639984 .5920563 .35598756 .5469818 .33499146 .43066407H.2559967C.23599243 .43066407 .22299195 .43066407 .22299195 .4086609 .22299195 .39465333 .23599243 .39465333 .2539978 .39465333H.32798768C.32699586 .38865663 .2639923 .028869629 .23999024-.078063968 .23498535-.10006714 .21798706-.17610169 .16999817-.17610169 .16899109-.17610169 .14498902-.17610169 .12599182-.1640625 .16699219-.15107727 .16999817-.11506653 .16999817-.109069827 .16999817-.08706665 .15299988-.07206726 .12998963-.07206726 .102996829-.07206726 .07299805-.095077518 .07299805-.1330719 .07299805-.17811585 .11999512-.20410156 .16999817-.20410156 .23399353-.20410156 .27799989-.13807678 .2899933-.11607361 .32598878-.049087526 .34899903 .07385254 .35099793 .08584595L.40699769 .39465333Z"/>
<path id="font_2_1" d="M.5589905 .27233888C.56599429 .300354 .5669861 .3043518 .5669861 .32736207 .5669861 .34336854 .5669861 .38539125 .5299988 .4143982 .5130005 .42739869 .48399354 .44140626 .43699647 .44140626 .394989 .44140626 .33299256 .43040467 .2679901 .35136415 .26098634 .4263916 .19299317 .44140626 .1619873 .44140626 .12298584 .44140626 .09899902 .41540528 .08299255 .38838197 .06298828 .35437013 .04699707 .29434205 .04699707 .28834535 .04699707 .2753296 .06098938 .2753296 .06399536 .2753296 .07798767 .2753296 .07899475 .27833558 .085998538 .30534364 .100997928 .3633728 .11999512 .4133911 .15899658 .4133911 .18499756 .4133911 .19198609 .39138795 .19198609 .36437989 .19198609 .34536744 .18299866 .3083496 .17599488 .28134156 .16899109 .2543335 .15899658 .21330261 .1539917 .19129944L.12199402 .06324768C.117996219 .050231935 .11199951 .025222779 .11199951 .022216797 .11199951 .00021362305 .12998963-.009796143 .1459961-.009796143 .1639862-.009796143 .17999268 .0032196046 .18499756 .01222229 .18998719 .021224976 .19799805 .053237916 .20298767 .07424927 .20799256 .09324646 .21899414 .13926697 .22499085 .16429138 .23098755 .18629456 .23699951 .20829773 .24198914 .23132324 .25299073 .27433778 .25299073 .27633668 .272995 .30734254 .30499269 .35636903 .35499574 .4133911 .43299867 .4133911 .4889984 .4133911 .49198915 .3673706 .49198915 .34336854 .49198915 .31636048 .48999024 .30734254 .4850006 .28834535L.37199403-.16085816C.36799623-.1758728 .36799623-.18086243 .36799623-.1818695 .36799623-.20387268 .38598634-.21386719 .4019928-.21386719 .43798829-.21386719 .44699098-.1798706 .44999696-.16586304L.5589905 .27233888Z"/>
<path id="font_3_1" d="M.651001 .38078309 .86499026 .57066348C.9249878 .62461856 .9779968 .6356201 1.0379944 .637619 1.052002 .63861086 1.0579987 .65560916 1.0579987 .66560366 1.0579987 .6746063 1.0499878 .6826172 1.0410004 .6826172 1.0249939 .6826172 1.0049896 .6796112 .98799136 .6796112 .97099307 .6796112 .9529877 .6786041 .9359894 .6786041 .91400149 .6786041 .8929901 .6796112 .871994 .6796112 .8529968 .6796112 .8299866 .6826172 .8109894 .6826172 .80400088 .6826172 .7869873 .6826172 .7869873 .65460208 .7869873 .64060977 .7979889 .637619 .80599978 .637619 .81999209 .63661196 .83799746 .63261416 .83799746 .61763 .83799746 .6036377 .82899478 .5956421 .7969971 .56666567L.6299896 .41575624 .5079956 .6196289C.5239868 .63261416 .5439911 .63661196 .56199648 .637619 .56799319 .637619 .58499148 .63861086 .58499148 .66560366 .58499148 .6776123 .57499697 .6826172 .5669861 .6826172 .5439911 .6826172 .5179901 .6796112 .49499513 .6796112 .47200013 .6796112 .44799806 .6786041 .4249878 .6786041 .4039917 .6786041 .38198854 .6796112 .36099244 .6796112 .33999635 .6796112 .31799317 .6826172 .2979889 .6826172 .2809906 .6826172 .27398683 .6706085 .27398683 .65460208 .27398683 .637619 .2889862 .637619 .30699159 .637619 .37298585 .637619 .3789978 .62661746 .3880005 .6116333L.548996 .34280396 .30699159 .12394714C.3039856 .12094116 .29499818 .11494446 .29100038 .11294556 .25 .07896423 .21099854 .04798889 .115997318 .04499817 .09799194 .04399109 .09700012 .018997193 .09700012 .016998291 .09700012 .005996704 .10598755 0 .11299133 0 .12998963 0 .14898682 .0029907227 .1659851 .0029907227 .18299866 .0029907227 .20098877 .0039978029 .21798706 .0039978029 .23999024 .0039978029 .26098634 .0029907227 .28199769 .0029907227 .3019867 .0029907227 .32398988 0 .34399415 0 .35798646 0 .36799623 .0069885256 .36799623 .027999878 .36799623 .04399109 .35299684 .04499817 .34899903 .04499817 .32099916 .04699707 .31698609 .05899048 .31698609 .064971927 .31698609 .07597351 .33099366 .09196472 .33299256 .094955448 .33799745 .09996033 .5309906 .2718506 .56900027 .3078308L.70899966 .07597351C.71099856 .07197571 .71499636 .065979007 .71499636 .0639801 .71499636 .0599823 .69799807 .04699707 .6619873 .04499817 .6559906 .04499817 .6389923 .04399109 .6389923 .016998291 .6389923 .005996704 .6469879 0 .6569977 0 .6799927 0 .70599368 .0029907227 .72898867 .0029907227 .7519989 .0029907227 .776001 .0039978029 .798996 .0039978029 .81999209 .0039978029 .84199526 .0029907227 .86299136 .0029907227 .8829956 .0029907227 .9059906 0 .9259949 0 .94299319 0 .94999697 .011993408 .94999697 .027999878 .94999697 .04499817 .93499758 .04499817 .9169922 .04499817 .85198977 .04499817 .84599307 .055984498 .83699038 .06997681L.651001 .38078309Z"/>
<path id="font_4_1" d="M.28399659 .69433596 .1349945 .5611572 .15699768 .53515627 .28399659 .6343231 .41099549 .53515627 .43299867 .5611572 .28399659 .69433596Z"/>
</defs>
<use data-text="X" xlink:href="#font_1_3" transform="matrix(9.962799,0,0,-9.963098,9.399864,12.78294)"/>
<use data-text="Y" xlink:href="#font_1_4" transform="matrix(9.962799,0,0,-9.963098,54.015764,12.78294)"/>
<use data-text="." xlink:href="#font_1_2" transform="matrix(9.962799,0,0,-9.963098,60.342134,12.78294)"/>
<use data-text="&#x03b2;" xlink:href="#font_1_1" transform="matrix(9.962799,0,0,-9.963098,6.3198015,44.935548)"/>
<use data-text="X" xlink:href="#font_1_3" transform="matrix(9.962799,0,0,-9.963098,12.46685,44.935548)"/>
<path transform="matrix(1.00002,0,0,-1.00005,34.720384,26.42362)" stroke-width=".39848" stroke-linecap="butt" stroke-miterlimit="10" stroke-linejoin="miter" fill="none" stroke="#000000" d="M-11.79063 16.13103H14.40346"/>
<path transform="matrix(1.00002,0,0,-1.00005,49.323366,10.291786)" stroke-width=".39848" stroke-linecap="round" stroke-linejoin="round" fill="none" stroke="#000000" d="M-2.07213 2.39091C-1.69356 .95633-.84995 .27893 0 0-.84995-.27893-1.69356-.95633-2.07213-2.39091"/>
<use data-text="f" xlink:href="#font_2_2" transform="matrix(6.97394,0,0,-6.9741489,33.892366,6.58963)"/>
<path transform="matrix(1.00002,0,0,-1.00005,34.720384,26.42362)" stroke-width=".39848" stroke-linecap="butt" stroke-miterlimit="10" stroke-linejoin="miter" fill="none" stroke="#000000" d="M-20.80167 9.79121V-7.34482"/>
<path transform="matrix(0,1.00005,1.00002,0,13.918297,33.96805)" stroke-width=".39848" stroke-linecap="round" stroke-linejoin="round" fill="none" stroke="#000000" d="M-2.07213 2.39091C-1.69356 .95633-.84995 .27893 0 0-.84995-.27893-1.69356-.95633-2.07213-2.39091"/>
<use data-text="&#x03b7;" xlink:href="#font_2_1" transform="matrix(6.97394,0,0,-6.9741489,1.0427094,26.22261)"/>
<use data-text="X" xlink:href="#font_3_1" transform="matrix(4.9813997,0,0,-4.981549,5.147789,27.224659)"/>
<path transform="matrix(1.00002,0,0,-1.00005,34.720384,26.42362)" stroke-width=".39848" stroke-linecap="butt" stroke-dasharray="2.78941,1.59395" stroke-miterlimit="10" stroke-linejoin="miter" fill="none" stroke="#000000" d="M-9.30875-7.74329 14.72339 9.55841"/>
<path transform="matrix(.8115263,-.5842692,-.5842517,-.81155058,49.605745,16.748337)" stroke-width=".39848" stroke-linecap="round" stroke-linejoin="round" fill="none" stroke="#000000" d="M-2.07213 2.39091C-1.69356 .95633-.84995 .27893 0 0-.84995-.27893-1.69356-.95633-2.07213-2.39091"/>
<use data-text="&#x02c6;" xlink:href="#font_4_1" transform="matrix(6.97394,0,0,-6.9741489,41.56951,32.589929)"/>
<use data-text="f" xlink:href="#font_2_2" transform="matrix(6.97394,0,0,-6.9741489,39.93548,34.43002)"/>
</svg>
