<svg xmlns="http://www.w3.org/2000/svg" xmlns:xlink="http://www.w3.org/1999/xlink" xmlns:inkscape="http://www.inkscape.org/namespaces/inkscape" version="1.1" width="223" height="51" viewBox="0 0 223 51">
<defs>
<path id="font_1_3" d="M.45999146 .31976319C.45999146 .39982606 .45498658 .47988893 .41999818 .5539398 .37399293 .65000918 .2919922 .6660156 .25 .6660156 .18998719 .6660156 .116989139 .64001467 .07598877 .54693606 .04399109 .47789 .038986207 .39982606 .038986207 .31976319 .038986207 .24472046 .042999269 .15464783 .083999637 .07859802 .1269989-.0024719239 .19999695-.022460938 .24899292-.022460938 .30299378-.022460938 .3789978-.0014648438 .4229889 .09359741 .45498658 .16265869 .45999146 .2407074 .45999146 .31976319M.24899292-.00047302247C.20999146-.00047302247 .15098572 .024551392 .1329956 .12062073 .12199402 .18066406 .12199402 .2727356 .12199402 .3317871 .12199402 .39582826 .12199402 .46188355 .12998963 .5159149 .14898682 .63500979 .22399903 .64401248 .24899292 .64401248 .28199769 .64401248 .34799195 .6259918 .36698915 .52693179 .3769989 .47088624 .3769989 .39482118 .3769989 .3317871 .3769989 .25672914 .3769989 .18867493 .3659973 .12461853 .35099793 .029556275 .2939911-.00047302247 .24899292-.00047302247Z"/>
<path id="font_2_3" d="M.7599945 .69506838C.7599945 .69807437 .7579956 .7050781 .7489929 .7050781 .74598696 .7050781 .7449951 .70407107 .73399356 .69306948L.6639862 .61602786C.6549988 .6300354 .60899356 .7050781 .49798585 .7050781 .2749939 .7050781 .049987794 .48391725 .049987794 .25172425 .049987794 .08659363 .16799927-.022460938 .32099916-.022460938 .4079895-.022460938 .48399354 .017532349 .5369873 .063583377 .6299896 .14564514 .6469879 .2367096 .6469879 .23971558 .6469879 .24972534 .6369934 .24972534 .6349945 .24972534 .6289978 .24972534 .6239929 .24772644 .621994 .23971558 .61299136 .21069336 .58999636 .13963318 .5209961 .081588748 .45199586 .025543213 .3889923 .008529663 .33699037 .008529663 .24699402 .008529663 .14099121 .060577394 .14099121 .21670532 .14099121 .27374269 .1619873 .43588258 .2619934 .55296328 .32299806 .62402346 .4169922 .67407229 .5059967 .67407229 .60798647 .67407229 .6669922 .5970001 .6669922 .48091126 .6669922 .44088746 .6639862 .43988038 .6639862 .4298706 .6639862 .41986085 .6749878 .41986085 .67900088 .41986085 .69200137 .41986085 .69200137 .42185975 .69699099 .43988038L.7599945 .69506838Z"/>
<path id="font_3_3" d="M.12199402 .06324768C.117996219 .050247194 .11199951 .025222779 .11199951 .022232056 .11199951 .00022888184 .12998963-.009765625 .1459961-.009765625 .1639862-.009765625 .17999268 .0032196046 .18499756 .01222229 .18998719 .021224976 .19799805 .053237916 .20298767 .07424927 .20799256 .09326172 .21899414 .13928223 .22499085 .16429138 .23098755 .18629456 .23699951 .20831299 .24198914 .23132324 .25299073 .27233888 .25498963 .28033448 .28399659 .32136537 .31199647 .3613739 .35899354 .4133911 .43399049 .4133911 .49198915 .4133911 .49299623 .36238099 .49299623 .34336854 .49299623 .28334046 .44999696 .17228699 .43399049 .13027954 .4229889 .102264408 .4189911 .09326172 .4189911 .07624817 .4189911 .023223877 .46299745-.009765625 .5139923-.009765625 .6139984-.009765625 .6579895 .12828064 .6579895 .14328003 .6579895 .15628052 .644989 .15628052 .6419983 .15628052 .6279907 .15628052 .6269989 .15028382 .6230011 .13928223 .59999087 .059249879 .5569916 .018234253 .5169983 .018234253 .49598695 .018234253 .49198915 .032226564 .49198915 .053237916 .49198915 .07624817 .49699403 .089263919 .5149994 .13427735 .5269928 .1652832 .56799319 .2713318 .56799319 .32736207 .56799319 .4243927 .4909973 .44140626 .43798829 .44140626 .35499574 .44140626 .29899598 .39038087 .2689972 .3503723 .2619934 .41940309 .20298767 .44140626 .1619873 .44140626 .11898804 .44140626 .09599304 .4104004 .08299255 .38739015 .06098938 .3503723 .04699707 .29335023 .04699707 .28834535 .04699707 .27534486 .06098938 .27534486 .06399536 .27534486 .07798767 .27534486 .07899475 .27833558 .085998538 .3053589 .100997928 .36437989 .11999512 .4133911 .15899658 .4133911 .18499756 .4133911 .19198609 .39138795 .19198609 .36437989 .19198609 .34536744 .18299866 .3083496 .17599488 .28134156 .16899109 .2543335 .15899658 .21331787 .1539917 .19129944L.12199402 .06324768Z"/>
<path id="font_1_1" d="M.33099366-.2400055C.33099366-.23701477 .33099366-.23500061 .31399537-.21800232 .18899536-.0920105 .15699768 .09700012 .15699768 .25 .15699768 .42399598 .19499207 .59799197 .31799317 .72299197 .33099366 .73498538 .33099366 .7369995 .33099366 .73999026 .33099366 .746994 .32699586 .75 .32099916 .75 .31098939 .75 .22099304 .6819916 .1619873 .5549927 .11099243 .44499208 .09899902 .33399964 .09899902 .25 .09899902 .17199707 .10998535 .050994874 .16499329-.06201172 .22499085-.18501282 .31098939-.25 .32099916-.25 .32699586-.25 .33099366-.24700928 .33099366-.2400055Z"/>
<path id="font_2_2" d="M.1789856 .114868167C.13899231 .047973634 .099990848 .033981325 .055999757 .0309906 .04399109 .02999878 .034988405 .02999878 .034988405 .010986328 .034988405 .004989624 .039993287 0 .04798889 0 .07499695 0 .10598755 .0029907227 .13398743 .0029907227 .16699219 .0029907227 .20199585 0 .23399353 0 .23999024 0 .25299073 0 .25299073 .018997193 .25299073 .02999878 .24398804 .0309906 .23699951 .0309906 .21398926 .032989503 .18998719 .04096985 .18998719 .06593323 .18998719 .077926639 .19599915 .088897708 .20399475 .102890018L.27999879 .23068238H.5309906C.5329895 .2097168 .5469971 .07392883 .5469971 .063949588 .5469971 .033981325 .49499513 .0309906 .47499085 .0309906 .46099855 .0309906 .45098878 .0309906 .45098878 .010986328 .45098878 0 .46299745 0 .46499635 0 .5059967 0 .548996 .0029907227 .58999636 .0029907227 .61499026 .0029907227 .6779938 0 .7029877 0 .70899966 0 .72099307 0 .72099307 .019989014 .72099307 .0309906 .71099856 .0309906 .69799807 .0309906 .6359863 .0309906 .6359863 .037979127 .6329956 .06694031L.57199099 .691803C.56999209 .71180728 .56999209 .7158203 .5529938 .7158203 .5369873 .7158203 .5329895 .7088165 .5269928 .69880679L.1789856 .114868167M.29899598 .26168824 .49598695 .5917816 .5279999 .26168824H.29899598Z"/>
<path id="font_1_2" d="M.2889862 .25C.2889862 .32798768 .27799989 .44898988 .22299195 .56199648 .16299439 .68499758 .07699585 .75 .066986087 .75 .06098938 .75 .056991579 .74598696 .056991579 .73999026 .056991579 .7369995 .056991579 .73498538 .07598877 .71699526 .17399597 .6179962 .23098755 .45899964 .23098755 .25 .23098755 .07899475 .19400025-.09700012 .069992069-.2230072 .056991579-.23500061 .056991579-.23701477 .056991579-.2400055 .056991579-.2460022 .06098938-.25 .066986087-.25 .07699585-.25 .16699219-.18200684 .22599793-.055007936 .2769928 .054992677 .2889862 .16600037 .2889862 .25Z"/>
<path id="font_2_4" d="M.4850006 .41075135 .40098573 .6096344C.397995 .61763 .3959961 .6216278 .3959961 .6226196 .3959961 .62861636 .41299439 .6476135 .45498658 .6516113 .46499635 .65260317 .47499085 .6536102 .47499085 .6706085 .47499085 .6826172 .46299745 .6826172 .45999146 .6826172 .4189911 .6826172 .37599183 .6796112 .33399964 .6796112 .30899049 .6796112 .24699402 .6826172 .22200012 .6826172 .21598816 .6826172 .20399475 .6826172 .20399475 .6626129 .20399475 .6516113 .21398926 .6516113 .22698975 .6516113 .2869873 .6516113 .29299928 .6416168 .3019867 .6196289L.41999818 .34080506 .20899964 .11393738 .19599915 .10295105C.14698792 .049987794 .099990848 .033996583 .04899597 .0309906 .035995485 .02999878 .026992798 .02999878 .026992798 .010986328 .026992798 .009994507 .026992798 0 .039993287 0 .069992069 0 .102996829 .0029907227 .13398743 .0029907227 .17098999 .0029907227 .20999146 0 .24598694 0 .2519989 0 .2639923 0 .2639923 .019989014 .2639923 .02999878 .2539978 .0309906 .2519989 .0309906 .24299622 .03199768 .21199036 .033996583 .21199036 .061965944 .21199036 .07795715 .22698975 .093948367 .23899842 .10694885L.34098817 .21487427 .43099977 .31282044 .5319977 .07395935C.5359955 .06297302 .5369873 .061965944 .5369873 .05996704 .5369873 .051986696 .5179901 .034988405 .47898866 .0309906 .46798707 .02999878 .45899964 .0289917 .45899964 .011993408 .45899964 0 .46998597 0 .47399903 0 .5019989 0 .57199099 .0029907227 .59999087 .0029907227 .625 .0029907227 .6859894 0 .71099856 0 .71798709 0 .7299957 0 .7299957 .018997193 .7299957 .0309906 .7200012 .0309906 .71199038 .0309906 .644989 .03199768 .6429901 .034988405 .6259918 .07496643 .58699038 .16790772 .519989 .32380677 .49699403 .3837738 .5649872 .45373536 .66999819 .5726471 .70199587 .6006317 .73098757 .62461856 .7689972 .64860537 .82899478 .6516113 .84199526 .65260317 .8509979 .65260317 .8509979 .6716156 .8509979 .6726074 .8509979 .6826172 .83799746 .6826172 .80799868 .6826172 .7749939 .6796112 .74398806 .6796112 .70700076 .6796112 .6689911 .6826172 .6329956 .6826172 .6269989 .6826172 .6139984 .6826172 .6139984 .6626129 .6139984 .65560916 .61898806 .65260317 .6259918 .6516113 .6349945 .65060427 .66600039 .64860537 .66600039 .6206207 .66600039 .6066284 .6549988 .5936432 .6469879 .5846405L.4850006 .41075135Z"/>
<path id="font_2_1" d="M.20298767 .0009918213C.20298767 .066986087 .17799378 .10598755 .13899231 .10598755 .10598755 .10598755 .085998538 .08099365 .085998538 .052993776 .085998538 .025985718 .10598755 0 .13899231 0 .15098572 0 .1639862 .0039978029 .17399597 .0129852299 .1769867 .01499939 .17799378 .015991211 .1789856 .015991211 .17999268 .015991211 .18099976 .01499939 .18099976 .0009918213 .18099976-.07316589 .1459961-.13328552 .11299133-.16635132 .101989749-.17736817 .101989749-.17936707 .101989749-.18237305 .101989749-.18936157 .10699463-.19335938 .11199951-.19335938 .12298584-.19335938 .20298767-.116256717 .20298767 .0009918213Z"/>
<path id="font_4_1" d="M.74398806 .2263794C.7599945 .2263794 .7839966 .2263794 .7839966 .25038148 .7839966 .27539063 .7609863 .27539063 .74398806 .27539063H.147995C.13198853 .27539063 .10798645 .27539063 .10798645 .25138856 .10798645 .2263794 .1309967 .2263794 .147995 .2263794H.74398806Z"/>
<path id="font_5_2" d="M.33499146 .63612368C.33499146 .6630554 .33299256 .6640625 .30499269 .6640625 .24099732 .6014404 .1499939 .6004486 .10899353 .6004486V.5644531C.1329956 .5644531 .19898987 .5644531 .2539978 .592453V.08203125C.2539978 .04899597 .2539978 .035995485 .1539917 .035995485H.115997318V0C.13398743 .0009918213 .25698854 .0039978029 .2939911 .0039978029 .32499696 .0039978029 .45098878 .0009918213 .47299195 0V.035995485H.43499757C.33499146 .035995485 .33499146 .04899597 .33499146 .08203125V.63612368Z"/>
<path id="font_3_1" d="M.115997318 .20831299C.10598755 .17630005 .07398987 .103256229 .07398987 .07525635 .07398987 .035232545 .10499573-.009765625 .17199707-.009765625 .21699524-.009765625 .2679901 .008224487 .30899049 .041229249 .36499024 .087249759 .37399293 .14128113 .37399293 .14328003 .37399293 .15628052 .36099244 .15628052 .35798646 .15628052 .34498597 .15628052 .34298707 .15228272 .33898927 .13728333 .31399537 .0642395 .23498535 .018234253 .17399597 .018234253 .1599884 .018234253 .14698792 .021224976 .14698792 .053237916 .14698792 .0602417 .14698792 .07525635 .15899658 .105270389 .21299744 .24932862 .24899292 .4053955 .24899292 .4093933 .24899292 .42739869 .23498535 .44140626 .21499634 .44140626 .19599915 .44140626 .1789856 .42739869 .17298889 .41539 .1659851 .39639283 .15699768 .34835816 .15098572 .32936097 .14498902 .3133545 .13398743 .27033998 .1289978 .25431825L.115997318 .20831299Z"/>
<path id="font_6_1" d="M.3809967-.023864747V-.12182617C.3809967-.1388092 .3809967-.15480042 .397995-.15480042 .3999939-.15480042 .4139862-.15180969 .4189911-.14581299 .4229889-.1408081 .4229889-.1368103 .4229889-.11882019V-.010879517C.43399049-.007873535 .44699098-.0038757325 .45700074 .00012207031 .47200013 .0051116945 .47200013 .009109497 .47200013 .033096315V.064086917C.47200013 .08308411 .47200013 .097076419 .45498658 .097076419 .44799806 .097076419 .42900086 .09007263 .4229889 .08807373V.41990663C.43399049 .4229126 .44699098 .4269104 .45700074 .4309082 .47200013 .43589784 .47200013 .43989564 .47200013 .46388246V.49487306C.47200013 .513855 .47200013 .5278473 .45498658 .5278473 .44799806 .5278473 .42900086 .52085879 .4229889 .51885989V.68577578C.4229889 .7027588 .4229889 .71777346 .4059906 .71777346 .40499879 .71777346 .3899994 .7157593 .3849945 .7097626 .3809967 .70477297 .3809967 .7007599 .3809967 .6827698V.5058594L.21598816 .45489503V.6218109C.21598816 .63879397 .21598816 .65478518 .19898987 .65478518 .19699097 .65478518 .18299866 .65179446 .17799378 .6457977 .17399597 .64079287 .17399597 .63679507 .17399597 .61880496V.44189454C.16299439 .4389038 .14898682 .434906 .13999939 .4309082 .125 .42590333 .125 .41990663 .125 .3979187V.3669281C.125 .34794618 .125 .33395387 .14199829 .33395387 .14898682 .33395387 .16799927 .34094239 .17399597 .34294129V.011108398C.16299439 .008117676 .14898682 .004119873 .13999939 .00012207031 .125-.0048828127 .125-.010879517 .125-.03286743V-.06384277C.125-.082839969 .125-.096832279 .14199829-.096832279 .14898682-.096832279 .16799927-.08982849 .17399597-.08782959V-.18579102C.17399597-.20277405 .17399597-.21777344 .19099427-.21777344 .19198609-.21777344 .20698548-.21577454 .21199036-.20977783 .21598816-.20478821 .21598816-.20077515 .21598816-.18278504V-.07484436L.3809967-.023864747M.3809967 .4069214V.0750885L.21598816 .024108887V.35594178L.3809967 .4069214Z"/>
<path id="font_3_2" d="M.5249939 .33813478C.5109863 .3960724 .46598817 .4560547 .37199403 .4560547 .23199463 .4560547 .115997318 .35112 .07998657 .2612152 .07398987 .24423218 .05999756 .20327759 .05999756 .16331482 .05999756 .09437561 .11399841-.01953125 .269989-.01953125 .5289917-.01953125 .6339874 .30317689 .6339874 .4450531 .6339874 .61631777 .5219879 .7138672 .3880005 .7138672 .22499085 .7138672 .17999268 .58436587 .17999268 .55336 .17999268 .5453644 .18499756 .5173645 .21998596 .5173645 .25498963 .5173645 .27598573 .54837039 .27598573 .57237246 .27598573 .59936526 .2559967 .6083679 .23699951 .6103668 .2869873 .6848602 .36898805 .6848602 .38598634 .6848602 .46099855 .6848602 .5499878 .63816836 .5499878 .4962616 .5499878 .4530487 .54499819 .4180603 .526001 .33813478H.5249939M.27198792 .012466431C.15899658 .012466431 .1459961 .09738159 .1459961 .12834168 .1459961 .16731262 .17298889 .265213 .18299866 .29019166 .20098877 .33613587 .2630005 .42803956 .37599183 .42803956 .47299195 .42803956 .5049896 .35212709 .5049896 .2921753 .5049896 .22525025 .43998719 .012466431 .27198792 .012466431Z"/>
<path id="font_3_4" d="M.5089874 .4123993C.5099945 .4163971 .5109863 .4223938 .5109863 .42739869 .5109863 .4333954 .5069885 .44140626 .49798585 .44140626 .48799134 .44140626 .44599916 .4073944 .42599488 .37538148 .41600038 .39538575 .3829956 .44140626 .31900025 .44140626 .19099427 .44140626 .06098938 .300354 .06098938 .15628052 .06098938 .059249879 .12599182-.009765625 .21199036-.009765625 .2689972-.009765625 .31599427 .026229859 .33799745 .04524231 .33699037 .042236329 .30599977-.08406067 .3019867-.101119998 .28799439-.15634156 .2869873-.15733338 .22499085-.15834046 .21299744-.15834046 .19898987-.15834046 .19898987-.18034363 .19898987-.18634033 .20399475-.19433594 .21398926-.19433594 .24699402-.19433594 .28399659-.19033814 .31799317-.19033814 .35198976-.19033814 .3939972-.19433594 .4249878-.19433594 .43399049-.19433594 .44499208-.19134522 .44499208-.17234802 .44499208-.15834046 .43099977-.15834046 .4189911-.15834046 .39698792-.15834046 .36999513-.15834046 .36999513-.14630127 .36999513-.14328003 .36999513-.14128113 .375-.12420654L.5089874 .4123993M.35798646 .12626648C.35299684 .10926819 .35299684 .10726929 .33999635 .09126282 .30099488 .04524231 .2539978 .018234253 .21499634 .018234253 .17799378 .018234253 .14199829 .04423523 .14199829 .11526489 .14199829 .16828919 .17098999 .27833558 .19400025 .31835938 .23999024 .39839173 .29100038 .4133911 .31900025 .4133911 .3889923 .4133911 .4079895 .33636476 .4079895 .32635499 .4079895 .32136537 .4059906 .3153534 .40499879 .3113556L.35798646 .12626648Z"/>
<path id="font_5_1" d="M.48298646 .55574038V.59375H.084991458V.55574038H.48298646Z"/>
<path id="font_7_1" d="M.3849945 .27598573C.3869934 .29595948 .40299989 .42385865 .40299989 .43284608 .40299989 .45083619 .3880005 .46484376 .36799623 .46484376 .34700013 .46484376 .33299256 .44883729 .33299256 .4338379 .33299256 .42385865 .34799195 .29696656 .35099793 .27598573L.19599915 .36889649C.18598938 .3748932 .18199158 .37789918 .17298889 .37789918 .15699768 .37789918 .13899231 .36289979 .13899231 .34092713 .13899231 .3249359 .14898682 .3149414 .1599884 .31095887 .21499634 .28897096 .27198792 .26898194 .32798768 .25 .27198792 .22901917 .17999268 .19604492 .16299439 .1890564 .1559906 .18606568 .13899231 .18006897 .13899231 .15808106 .13899231 .1361084 .15699768 .12110901 .17298889 .12110901 .18399048 .12110901 .21499634 .1401062 .35099793 .22302246 .34799195 .20204163 .33299256 .075149539 .33299256 .06517029 .33299256 .0501709 .34700013 .034179689 .36799623 .034179689 .3880005 .034179689 .40299989 .048171998 .40299989 .06616211 .40299989 .075149539 .3869934 .2030487 .3849945 .22302246L.54299929 .1281128C.5499878 .12411499 .55400088 .12110901 .5629883 .12110901 .57899478 .12110901 .5970001 .1361084 .5970001 .15808106 .5970001 .17407227 .58699038 .18406677 .57598879 .18806458 .5209961 .21003723 .46398927 .23002625 .4079895 .24900818 .46398927 .269989 .55599978 .30296327 .57299807 .30995179 .5799866 .3129425 .5970001 .3189392 .5970001 .34092713 .5970001 .36289979 .57899478 .37789918 .5629883 .37789918 .55400088 .37789918 .5499878 .3748932 .5399933 .36889649L.3849945 .27598573Z"/>
</defs>
<use data-text="0" xlink:href="#font_1_3" transform="matrix(9.962799,0,0,-9.9626,1.1887512,11.611998)"/>
<use data-text="C" xlink:href="#font_2_3" transform="matrix(9.962799,0,0,-9.9626,31.813355,11.611998)"/>
<use data-text="n" xlink:href="#font_3_3" transform="matrix(6.97394,0,0,-6.9738,38.933504,13.105997)"/>
<use data-text="(" xlink:href="#font_1_1" transform="matrix(9.962799,0,0,-9.9626,44.356615,11.611998)"/>
<use data-text="A" xlink:href="#font_2_2" transform="matrix(9.962799,0,0,-9.9626,48.231676,11.611998)"/>
<use data-text=")" xlink:href="#font_1_2" transform="matrix(9.962799,0,0,-9.9626,55.703844,11.611998)"/>
<use data-text="C" xlink:href="#font_2_3" transform="matrix(9.962799,0,0,-9.9626,90.319538,11.611998)"/>
<use data-text="n" xlink:href="#font_3_3" transform="matrix(6.97394,0,0,-6.9738,97.43965,13.105997)"/>
<use data-text="(" xlink:href="#font_1_1" transform="matrix(9.962799,0,0,-9.9626,102.86278,11.611998)"/>
<use data-text="X" xlink:href="#font_2_4" transform="matrix(9.962799,0,0,-9.9626,106.73784,11.611998)"/>
<use data-text=")" xlink:href="#font_1_2" transform="matrix(9.962799,0,0,-9.9626,115.773029,11.611998)"/>
<use data-text="C" xlink:href="#font_2_3" transform="matrix(9.962799,0,0,-9.9626,150.38877,11.611998)"/>
<use data-text="n" xlink:href="#font_3_3" transform="matrix(6.97394,0,0,-6.9738,157.50989,13.105997)"/>
<use data-text="(" xlink:href="#font_1_1" transform="matrix(9.962799,0,0,-9.9626,162.93302,11.611998)"/>
<use data-text="X" xlink:href="#font_2_4" transform="matrix(9.962799,0,0,-9.9626,166.80707,11.611998)"/>
<use data-text="," xlink:href="#font_2_1" transform="matrix(9.962799,0,0,-9.9626,175.27545,11.611998)"/>
<use data-text="A" xlink:href="#font_2_2" transform="matrix(9.962799,0,0,-9.9626,179.69895,11.611998)"/>
<use data-text=")" xlink:href="#font_1_2" transform="matrix(9.962799,0,0,-9.9626,187.18949,11.611998)"/>
<use data-text="0" xlink:href="#font_1_3" transform="matrix(9.962799,0,0,-9.9626,216.70604,11.611998)"/>
<use data-text="0" xlink:href="#font_1_3" transform="matrix(9.962799,0,0,-9.9626,1.1887512,46.807)"/>
<use data-text="C" xlink:href="#font_2_3" transform="matrix(9.962799,0,0,-9.9626,26.714249,46.807)"/>
<use data-text="n" xlink:href="#font_3_3" transform="matrix(6.97394,0,0,-6.9738,33.834398,48.300996)"/>
<use data-text="&#x2212;" xlink:href="#font_4_1" transform="matrix(6.97394,0,0,-6.9738,38.75946,48.300996)"/>
<use data-text="1" xlink:href="#font_5_2" transform="matrix(6.97394,0,0,-6.9738,44.986604,48.300996)"/>
<use data-text="(" xlink:href="#font_1_1" transform="matrix(9.962799,0,0,-9.9626,49.45569,46.807)"/>
<use data-text="A" xlink:href="#font_2_2" transform="matrix(9.962799,0,0,-9.9626,53.33075,46.807)"/>
<use data-text=")" xlink:href="#font_1_2" transform="matrix(9.962799,0,0,-9.9626,60.802888,46.807)"/>
<use data-text="C" xlink:href="#font_2_3" transform="matrix(9.962799,0,0,-9.9626,85.22043,46.807)"/>
<use data-text="n" xlink:href="#font_3_3" transform="matrix(6.97394,0,0,-6.9738,92.340549,48.300996)"/>
<use data-text="&#x2212;" xlink:href="#font_4_1" transform="matrix(6.97394,0,0,-6.9738,97.265628,48.300996)"/>
<use data-text="1" xlink:href="#font_5_2" transform="matrix(6.97394,0,0,-6.9738,103.49274,48.300996)"/>
<use data-text="(" xlink:href="#font_1_1" transform="matrix(9.962799,0,0,-9.9626,107.96182,46.807)"/>
<use data-text="X" xlink:href="#font_2_4" transform="matrix(9.962799,0,0,-9.9626,111.83591,46.807)"/>
<use data-text=")" xlink:href="#font_1_2" transform="matrix(9.962799,0,0,-9.9626,120.8721,46.807)"/>
<use data-text="C" xlink:href="#font_2_3" transform="matrix(9.962799,0,0,-9.9626,145.28966,46.807)"/>
<use data-text="n" xlink:href="#font_3_3" transform="matrix(6.97394,0,0,-6.9738,152.41078,48.300996)"/>
<use data-text="&#x2212;" xlink:href="#font_4_1" transform="matrix(6.97394,0,0,-6.9738,157.33589,48.300996)"/>
<use data-text="1" xlink:href="#font_5_2" transform="matrix(6.97394,0,0,-6.9738,163.563,48.300996)"/>
<use data-text="(" xlink:href="#font_1_1" transform="matrix(9.962799,0,0,-9.9626,168.03209,46.807)"/>
<use data-text="X" xlink:href="#font_2_4" transform="matrix(9.962799,0,0,-9.9626,171.90615,46.807)"/>
<use data-text="," xlink:href="#font_2_1" transform="matrix(9.962799,0,0,-9.9626,180.37453,46.807)"/>
<use data-text="A" xlink:href="#font_2_2" transform="matrix(9.962799,0,0,-9.9626,184.79802,46.807)"/>
<use data-text=")" xlink:href="#font_1_2" transform="matrix(9.962799,0,0,-9.9626,192.28853,46.807)"/>
<use data-text="0" xlink:href="#font_1_3" transform="matrix(9.962799,0,0,-9.9626,216.70604,46.807)"/>
<path transform="matrix(1.00002,0,0,-1,111.43996,26.719)" stroke-width=".39848" stroke-linecap="butt" stroke-miterlimit="10" stroke-linejoin="miter" fill="none" stroke="#000000" d="M-100.77393 17.59776H-84.51659"/>
<path transform="matrix(1.00002,0,0,-1,27.120919,9.121241)" stroke-width=".39848" stroke-linecap="round" stroke-linejoin="round" fill="none" stroke="#000000" d="M-2.07213 2.39091C-1.69356 .95633-.84995 .27893 0 0-.84995-.27893-1.69356-.95633-2.07213-2.39091"/>
<path transform="matrix(1.00002,0,0,-1,111.43996,26.719)" stroke-width=".39848" stroke-linecap="butt" stroke-miterlimit="10" stroke-linejoin="miter" fill="none" stroke="#000000" d="M-47.36713 17.59776H-26.01077"/>
<path transform="matrix(1.00002,0,0,-1,85.6279,9.121241)" stroke-width=".39848" stroke-linecap="round" stroke-linejoin="round" fill="none" stroke="#000000" d="M-2.07213 2.39091C-1.69356 .95633-.84995 .27893 0 0-.84995-.27893-1.69356-.95633-2.07213-2.39091"/>
<use data-text="&#x03b9;" xlink:href="#font_3_1" transform="matrix(6.97394,0,0,-6.9738,71.73816,4.7490007)"/>
<use data-text="&#x266f;" xlink:href="#font_6_1" transform="matrix(4.9813997,0,0,-4.9813,74.68622,5.8060009)"/>
<path transform="matrix(1.00002,0,0,-1,111.43996,26.719)" stroke-width=".39848" stroke-linecap="butt" stroke-miterlimit="10" stroke-linejoin="miter" fill="none" stroke="#000000" d="M-65.74261 8.76724V-8.36877"/>
<path transform="matrix(0,1,1.00002,0,45.69603,35.28701)" stroke-width=".39848" stroke-linecap="round" stroke-linejoin="round" fill="none" stroke="#000000" d="M-2.07213 2.39091C-1.69356 .95633-.84995 .27893 0 0-.84995-.27893-1.69356-.95633-2.07213-2.39091"/>
<use data-text="&#x2202;" xlink:href="#font_3_2" transform="matrix(6.97394,0,0,-6.9738,48.042695,29.14)"/>
<path transform="matrix(1.00002,0,0,-1,111.43996,26.719)" stroke-width=".39848" stroke-linecap="butt" stroke-miterlimit="10" stroke-linejoin="miter" fill="none" stroke="#000000" d="M12.70227 17.59776H34.05861"/>
<path transform="matrix(1.00002,0,0,-1,145.69849,9.121241)" stroke-width=".39848" stroke-linecap="round" stroke-linejoin="round" fill="none" stroke="#000000" d="M-2.07213 2.39091C-1.69356 .95633-.84995 .27893 0 0-.84995-.27893-1.69356-.95633-2.07213-2.39091"/>
<use data-text="q" xlink:href="#font_3_4" transform="matrix(6.97394,0,0,-6.9738,133.0694,5.4190008)"/>
<path transform="matrix(1.00002,0,0,-1,111.43996,26.719)" stroke-width=".39848" stroke-linecap="butt" stroke-miterlimit="10" stroke-linejoin="miter" fill="none" stroke="#000000" d="M-6.45502 8.76724V-8.36877"/>
<path transform="matrix(0,1,1.00002,0,104.98481,35.28701)" stroke-width=".39848" stroke-linecap="round" stroke-linejoin="round" fill="none" stroke="#000000" d="M-2.07213 2.39091C-1.69356 .95633-.84995 .27893 0 0-.84995-.27893-1.69356-.95633-2.07213-2.39091"/>
<use data-text="&#x2202;" xlink:href="#font_3_2" transform="matrix(6.97394,0,0,-6.9738,107.33087,29.14)"/>
<path transform="matrix(1.00002,0,0,-1,111.43996,26.719)" stroke-width=".39848" stroke-linecap="butt" stroke-miterlimit="10" stroke-linejoin="miter" fill="none" stroke="#000000" d="M84.11812 17.59776H100.37544"/>
<path transform="matrix(1.00002,0,0,-1,212.01667,9.121241)" stroke-width=".39848" stroke-linecap="round" stroke-linejoin="round" fill="none" stroke="#000000" d="M-2.07213 2.39091C-1.69356 .95633-.84995 .27893 0 0-.84995-.27893-1.69356-.95633-2.07213-2.39091"/>
<path transform="matrix(1.00002,0,0,-1,111.43996,26.719)" stroke-width=".39848" stroke-linecap="butt" stroke-miterlimit="10" stroke-linejoin="miter" fill="none" stroke="#000000" d="M59.2876 8.76724V-8.36877"/>
<path transform="matrix(0,1,1.00002,0,170.72875,35.28701)" stroke-width=".39848" stroke-linecap="round" stroke-linejoin="round" fill="none" stroke="#000000" d="M-2.07213 2.39091C-1.69356 .95633-.84995 .27893 0 0-.84995-.27893-1.69356-.95633-2.07213-2.39091"/>
<use data-text="&#x00af;" xlink:href="#font_5_1" transform="matrix(6.97394,0,0,-6.9738,174.0742,27.801)"/>
<use data-text="&#x2202;" xlink:href="#font_3_2" transform="matrix(6.97394,0,0,-6.9738,173.0752,29.641)"/>
<path transform="matrix(1.00002,0,0,-1,111.43996,26.719)" stroke-width="6.44092" stroke-linecap="butt" stroke-miterlimit="10" stroke-linejoin="miter" fill="none" stroke="#ffffff" d="M34.45709 15.98524C.58525 13.30232-19.09578 7.46086-48.94788-8.76724"/>
<path transform="matrix(1.00002,0,0,-1,111.43996,26.719)" stroke-width=".39848" stroke-linecap="butt" stroke-dasharray="2.78941,1.59395" stroke-miterlimit="10" stroke-linejoin="miter" fill="none" stroke="#000000" d="M34.45709 15.98524C.58525 13.30232-19.09578 7.46086-48.59781-8.57695"/>
<path transform="matrix(-.8785376,.47757,.47757957,.87852,62.66614,35.391099)" stroke-width=".39848" stroke-linecap="round" stroke-linejoin="round" fill="none" stroke="#000000" d="M-2.07213 2.39091C-1.69356 .95633-.84995 .27893 0 0-.84995-.27893-1.69356-.95633-2.07213-2.39091"/>
<path transform="matrix(1.00002,0,0,-1,111.43996,26.719)" d="M-15.10956 3.6218H-2.3960305V13.755011H-15.10956Z" fill="#ffffff"/>
<use data-text="&#x2202;" xlink:href="#font_3_2" transform="matrix(6.97394,0,0,-6.9738,98.4767,19.954)"/>
<use data-text="&#x2217;" xlink:href="#font_7_1" transform="matrix(4.9813997,0,0,-4.9813,102.73079,20.95)"/>
<path transform="matrix(1.00002,0,0,-1,111.43996,26.719)" stroke-width=".39848" stroke-linecap="butt" stroke-miterlimit="10" stroke-linejoin="miter" fill="none" stroke="#000000" d="M-100.77393-17.59776H-89.61562"/>
<path transform="matrix(1.00002,0,0,-1,22.021798,44.316759)" stroke-width=".39848" stroke-linecap="round" stroke-linejoin="round" fill="none" stroke="#000000" d="M-2.07213 2.39091C-1.69356 .95633-.84995 .27893 0 0-.84995-.27893-1.69356-.95633-2.07213-2.39091"/>
<path transform="matrix(1.00002,0,0,-1,111.43996,26.719)" stroke-width=".39848" stroke-linecap="butt" stroke-miterlimit="10" stroke-linejoin="miter" fill="none" stroke="#000000" d="M-42.26811-17.59776H-31.10979"/>
<path transform="matrix(1.00002,0,0,-1,80.528789,44.316759)" stroke-width=".39848" stroke-linecap="round" stroke-linejoin="round" fill="none" stroke="#000000" d="M-2.07213 2.39091C-1.69356 .95633-.84995 .27893 0 0-.84995-.27893-1.69356-.95633-2.07213-2.39091"/>
<use data-text="&#x03b9;" xlink:href="#font_3_1" transform="matrix(6.97394,0,0,-6.9738,71.73816,39.945)"/>
<use data-text="&#x266f;" xlink:href="#font_6_1" transform="matrix(4.9813997,0,0,-4.9813,74.68622,41.002)"/>
<path transform="matrix(1.00002,0,0,-1,111.43996,26.719)" stroke-width=".39848" stroke-linecap="butt" stroke-miterlimit="10" stroke-linejoin="miter" fill="none" stroke="#000000" d="M17.80128-17.59776H28.9596"/>
<path transform="matrix(1.00002,0,0,-1,140.59937,44.316759)" stroke-width=".39848" stroke-linecap="round" stroke-linejoin="round" fill="none" stroke="#000000" d="M-2.07213 2.39091C-1.69356 .95633-.84995 .27893 0 0-.84995-.27893-1.69356-.95633-2.07213-2.39091"/>
<use data-text="q" xlink:href="#font_3_4" transform="matrix(6.97394,0,0,-6.9738,133.0694,40.614999)"/>
<path transform="matrix(1.00002,0,0,-1,111.43996,26.719)" stroke-width=".39848" stroke-linecap="butt" stroke-miterlimit="10" stroke-linejoin="miter" fill="none" stroke="#000000" d="M89.21713-17.59776H100.37544"/>
<path transform="matrix(1.00002,0,0,-1,212.01667,44.316759)" stroke-width=".39848" stroke-linecap="round" stroke-linejoin="round" fill="none" stroke="#000000" d="M-2.07213 2.39091C-1.69356 .95633-.84995 .27893 0 0-.84995-.27893-1.69356-.95633-2.07213-2.39091"/>
</svg>
