<svg xmlns="http://www.w3.org/2000/svg" xmlns:xlink="http://www.w3.org/1999/xlink" xmlns:inkscape="http://www.inkscape.org/namespaces/inkscape" version="1.1" width="282" height="62" viewBox="0 0 282 62">
<defs>
<path id="font_1_1" d="M.19198609 .2502594C.19198609 .2792511 .16799927 .30325318 .13899231 .30325318 .10998535 .30325318 .085998538 .2792511 .085998538 .2502594 .085998538 .22125244 .10998535 .19726563 .13899231 .19726563 .16799927 .19726563 .19198609 .22125244 .19198609 .2502594Z"/>
<path id="font_2_3" d="M.7630005 .60565188C.7719879 .6416168 .7739868 .6516113 .8470001 .6516113 .8730011 .6516113 .8809967 .6516113 .8809967 .6716156 .8809967 .6826172 .8699951 .6826172 .86698916 .6826172 .83898928 .6826172 .7669983 .6796112 .7389984 .6796112 .70999148 .6796112 .6389923 .6826172 .6100006 .6826172 .60198977 .6826172 .59098818 .6826172 .59098818 .6626129 .59098818 .6516113 .59999087 .6516113 .61898806 .6516113 .62098696 .6516113 .6399994 .6516113 .6569977 .6496124 .6749878 .6476135 .6839905 .6466217 .6839905 .6336212 .6839905 .6296234 .68299868 .6276245 .6799927 .6146393L.6199951 .37083436H.31498719L.37399293 .60565188C.3829956 .6416168 .38598634 .6516113 .45799256 .6516113 .48399354 .6516113 .49198915 .6516113 .49198915 .6716156 .49198915 .6826172 .48098756 .6826172 .47799684 .6826172 .44999696 .6826172 .37799073 .6796112 .34999085 .6796112 .32099916 .6796112 .25 .6826172 .22099304 .6826172 .21299744 .6826172 .20199585 .6826172 .20199585 .6626129 .20199585 .6516113 .21099854 .6516113 .22999573 .6516113 .23199463 .6516113 .25099183 .6516113 .2679901 .6496124 .28599549 .6476135 .29499818 .6466217 .29499818 .6336212 .29499818 .6296234 .2939911 .6266327 .29100038 .6146393L.15699768 .07797241C.14698792 .038986207 .14498902 .0309906 .06599426 .0309906 .04798889 .0309906 .038986207 .0309906 .038986207 .010986328 .038986207 0 .050994874 0 .052993776 0 .08099365 0 .1519928 .0029907227 .17999268 .0029907227 .20098877 .0029907227 .22299195 .0019989014 .24398804 .0019989014 .2659912 .0019989014 .28799439 0 .30899049 0 .31698609 0 .32899476 0 .32899476 .019989014 .32899476 .0309906 .31999208 .0309906 .30099488 .0309906 .2639923 .0309906 .23599243 .0309906 .23599243 .048980714 .23599243 .054977418 .23799134 .0599823 .23899842 .065979007L.30699159 .33984376H.6119995C.56999209 .17391968 .5469971 .07896423 .54299929 .0639801 .5329895 .03199768 .5139923 .0309906 .45199586 .0309906 .43699647 .0309906 .42799378 .0309906 .42799378 .010986328 .42799378 0 .43998719 0 .44198609 0 .46998597 0 .54100039 .0029907227 .56900027 .0029907227 .58999636 .0029907227 .6119995 .0019989014 .6329956 .0019989014 .6549988 .0019989014 .6769867 0 .69799807 0 .70599368 0 .71798709 0 .71798709 .019989014 .71798709 .0309906 .70899966 .0309906 .6899872 .0309906 .6529999 .0309906 .625 .0309906 .625 .048980714 .625 .054977418 .6269989 .0599823 .6279907 .065979007L.7630005 .60565188Z"/>
<path id="font_3_7" d="M.12199402 .06324768C.117996219 .050247194 .11199951 .025222779 .11199951 .022232056 .11199951 .00022888184 .12998963-.009765625 .1459961-.009765625 .1639862-.009765625 .17999268 .0032196046 .18499756 .01222229 .18998719 .021224976 .19799805 .053237916 .20298767 .07424927 .20799256 .09326172 .21899414 .13928223 .22499085 .16429138 .23098755 .18629456 .23699951 .20831299 .24198914 .23132324 .25299073 .27233888 .25498963 .28033448 .28399659 .32136537 .31199647 .3613739 .35899354 .4133911 .43399049 .4133911 .49198915 .4133911 .49299623 .36238099 .49299623 .34336854 .49299623 .28334046 .44999696 .17228699 .43399049 .13027954 .4229889 .102264408 .4189911 .09326172 .4189911 .07624817 .4189911 .023223877 .46299745-.009765625 .5139923-.009765625 .6139984-.009765625 .6579895 .12828064 .6579895 .14328003 .6579895 .15628052 .644989 .15628052 .6419983 .15628052 .6279907 .15628052 .6269989 .15028382 .6230011 .13928223 .59999087 .059249879 .5569916 .018234253 .5169983 .018234253 .49598695 .018234253 .49198915 .032226564 .49198915 .053237916 .49198915 .07624817 .49699403 .089263919 .5149994 .13427735 .5269928 .1652832 .56799319 .2713318 .56799319 .32736207 .56799319 .4243927 .4909973 .44140626 .43798829 .44140626 .35499574 .44140626 .29899598 .39038087 .2689972 .3503723 .2619934 .41940309 .20298767 .44140626 .1619873 .44140626 .11898804 .44140626 .09599304 .4104004 .08299255 .38739015 .06098938 .3503723 .04699707 .29335023 .04699707 .28834535 .04699707 .27534486 .06098938 .27534486 .06399536 .27534486 .07798767 .27534486 .07899475 .27833558 .085998538 .3053589 .100997928 .36437989 .11999512 .4133911 .15899658 .4133911 .18499756 .4133911 .19198609 .39138795 .19198609 .36437989 .19198609 .34536744 .18299866 .3083496 .17599488 .28134156 .16899109 .2543335 .15899658 .21331787 .1539917 .19129944L.12199402 .06324768Z"/>
<path id="font_4_1" d="M.33099366-.2400055C.33099366-.23701477 .33099366-.23500061 .31399537-.21800232 .18899536-.0920105 .15699768 .09700012 .15699768 .25 .15699768 .42399598 .19499207 .59799197 .31799317 .72299197 .33099366 .73498538 .33099366 .7369995 .33099366 .73999026 .33099366 .746994 .32699586 .75 .32099916 .75 .31098939 .75 .22099304 .6819916 .1619873 .5549927 .11099243 .44499208 .09899902 .33399964 .09899902 .25 .09899902 .17199707 .10998535 .050994874 .16499329-.06201172 .22499085-.18501282 .31098939-.25 .32099916-.25 .32699586-.25 .33099366-.24700928 .33099366-.2400055Z"/>
<path id="font_2_1" d="M.1789856 .114868167C.13899231 .047973634 .099990848 .033981325 .055999757 .0309906 .04399109 .02999878 .034988405 .02999878 .034988405 .010986328 .034988405 .004989624 .039993287 0 .04798889 0 .07499695 0 .10598755 .0029907227 .13398743 .0029907227 .16699219 .0029907227 .20199585 0 .23399353 0 .23999024 0 .25299073 0 .25299073 .018997193 .25299073 .02999878 .24398804 .0309906 .23699951 .0309906 .21398926 .032989503 .18998719 .04096985 .18998719 .06593323 .18998719 .077926639 .19599915 .088897708 .20399475 .102890018L.27999879 .23068238H.5309906C.5329895 .2097168 .5469971 .07392883 .5469971 .063949588 .5469971 .033981325 .49499513 .0309906 .47499085 .0309906 .46099855 .0309906 .45098878 .0309906 .45098878 .010986328 .45098878 0 .46299745 0 .46499635 0 .5059967 0 .548996 .0029907227 .58999636 .0029907227 .61499026 .0029907227 .6779938 0 .7029877 0 .70899966 0 .72099307 0 .72099307 .019989014 .72099307 .0309906 .71099856 .0309906 .69799807 .0309906 .6359863 .0309906 .6359863 .037979127 .6329956 .06694031L.57199099 .691803C.56999209 .71180728 .56999209 .7158203 .5529938 .7158203 .5369873 .7158203 .5329895 .7088165 .5269928 .69880679L.1789856 .114868167M.29899598 .26168824 .49598695 .5917816 .5279999 .26168824H.29899598Z"/>
<path id="font_1_3" d="M.61099246 .37960816C.61099246 .5316467 .45799256 .59765627 .33299256 .59765627 .20298767 .59765627 .054992677 .5276489 .054992677 .38061524V.013534546C.054992677-.004470825 .054992677-.022460938 .07499695-.022460938 .09498596-.022460938 .09498596-.004470825 .09498596 .013534546V.37561036C.09498596 .52565 .2579956 .5576477 .33299256 .5576477 .37799073 .5576477 .44099427 .548645 .49398805 .5146332 .57099917 .4656372 .57099917 .40161134 .57099917 .37460328V.013534546C.57099917-.004470825 .57099917-.022460938 .59098818-.022460938 .61099246-.022460938 .61099246-.004470825 .61099246 .013534546V.37960816Z"/>
<path id="font_2_2" d="M.1599884 .07795715C.1499939 .038986207 .147995 .0309906 .068984989 .0309906 .051986696 .0309906 .041992189 .0309906 .041992189 .010986328 .041992189 0 .050994874 0 .068984989 0H.42599488C.58399966 0 .70199587 .11791992 .70199587 .21585083 .70199587 .28778077 .6439972 .3457489 .5469971 .35673524 .651001 .37573243 .7559967 .44970704 .7559967 .5446625 .7559967 .6186218 .6899872 .6826172 .56999209 .6826172H.23399353C.21499634 .6826172 .20498657 .6826172 .20498657 .6626129 .20498657 .6516113 .21398926 .6516113 .23298645 .6516113 .23498535 .6516113 .2539978 .6516113 .2709961 .6496124 .2889862 .6476135 .2979889 .64660647 .2979889 .6336212 .2979889 .6296234 .29699708 .62661746 .2939911 .614624L.1599884 .07795715M.31098939 .36573792 .37298585 .6136322C.38198854 .64860537 .38398744 .6516113 .4269867 .6516113H.55599978C.6439972 .6516113 .6649933 .5926361 .6649933 .5486603 .6649933 .46069337 .57899478 .36573792 .45700074 .36573792H.31098939M.2659912 .0309906C.2519989 .0309906 .25 .0309906 .24398804 .03199768 .23399353 .032989503 .23098755 .033996583 .23098755 .04197693 .23098755 .04498291 .23098755 .04698181 .23599243 .064971927L.30499269 .34375H.49398805C.58999636 .34375 .60899356 .2698059 .60899356 .22683716 .60899356 .12791443 .519989 .0309906 .4019928 .0309906H.2659912Z"/>
<path id="font_4_2" d="M.2889862 .25C.2889862 .32798768 .27799989 .44898988 .22299195 .56199648 .16299439 .68499758 .07699585 .75 .066986087 .75 .06098938 .75 .056991579 .74598696 .056991579 .73999026 .056991579 .7369995 .056991579 .73498538 .07598877 .71699526 .17399597 .6179962 .23098755 .45899964 .23098755 .25 .23098755 .07899475 .19400025-.09700012 .069992069-.2230072 .056991579-.23500061 .056991579-.23701477 .056991579-.2400055 .056991579-.2460022 .06098938-.25 .066986087-.25 .07699585-.25 .16699219-.18200684 .22599793-.055007936 .2769928 .054992677 .2889862 .16600037 .2889862 .25Z"/>
<path id="font_1_2" d="M.7220001 .25027467C.7220001 .43411256 .57199099 .5830078 .3889923 .5830078 .20298767 .5830078 .054992677 .43211366 .054992677 .25027467 .054992677 .066101077 .20498657-.08300781 .3880005-.08300781 .57398989-.08300781 .7220001 .068099979 .7220001 .25027467M.07998657 .26327516C.08999634 .43112184 .21998596 .55000308 .37599183 .55799868V.26327516H.07998657M.40098573 .55799868C.55799868 .55000308 .68699648 .43011476 .69699099 .26327516H.40098573V.55799868M.37599183-.058013917C.22099304-.05000305 .08999634 .067108158 .07998657 .23828125H.37599183V-.058013917M.69699099 .23828125C.68699648 .067108158 .5549927-.05000305 .40098573-.058013917V.23828125H.69699099Z"/>
<path id="font_2_4" d="M.4850006 .41075135 .40098573 .6096344C.397995 .61763 .3959961 .6216278 .3959961 .6226196 .3959961 .62861636 .41299439 .6476135 .45498658 .6516113 .46499635 .65260317 .47499085 .6536102 .47499085 .6706085 .47499085 .6826172 .46299745 .6826172 .45999146 .6826172 .4189911 .6826172 .37599183 .6796112 .33399964 .6796112 .30899049 .6796112 .24699402 .6826172 .22200012 .6826172 .21598816 .6826172 .20399475 .6826172 .20399475 .6626129 .20399475 .6516113 .21398926 .6516113 .22698975 .6516113 .2869873 .6516113 .29299928 .6416168 .3019867 .6196289L.41999818 .34080506 .20899964 .11393738 .19599915 .10295105C.14698792 .049987794 .099990848 .033996583 .04899597 .0309906 .035995485 .02999878 .026992798 .02999878 .026992798 .010986328 .026992798 .009994507 .026992798 0 .039993287 0 .069992069 0 .102996829 .0029907227 .13398743 .0029907227 .17098999 .0029907227 .20999146 0 .24598694 0 .2519989 0 .2639923 0 .2639923 .019989014 .2639923 .02999878 .2539978 .0309906 .2519989 .0309906 .24299622 .03199768 .21199036 .033996583 .21199036 .061965944 .21199036 .07795715 .22698975 .093948367 .23899842 .10694885L.34098817 .21487427 .43099977 .31282044 .5319977 .07395935C.5359955 .06297302 .5369873 .061965944 .5369873 .05996704 .5369873 .051986696 .5179901 .034988405 .47898866 .0309906 .46798707 .02999878 .45899964 .0289917 .45899964 .011993408 .45899964 0 .46998597 0 .47399903 0 .5019989 0 .57199099 .0029907227 .59999087 .0029907227 .625 .0029907227 .6859894 0 .71099856 0 .71798709 0 .7299957 0 .7299957 .018997193 .7299957 .0309906 .7200012 .0309906 .71199038 .0309906 .644989 .03199768 .6429901 .034988405 .6259918 .07496643 .58699038 .16790772 .519989 .32380677 .49699403 .3837738 .5649872 .45373536 .66999819 .5726471 .70199587 .6006317 .73098757 .62461856 .7689972 .64860537 .82899478 .6516113 .84199526 .65260317 .8509979 .65260317 .8509979 .6716156 .8509979 .6726074 .8509979 .6826172 .83799746 .6826172 .80799868 .6826172 .7749939 .6796112 .74398806 .6796112 .70700076 .6796112 .6689911 .6826172 .6329956 .6826172 .6269989 .6826172 .6139984 .6826172 .6139984 .6626129 .6139984 .65560916 .61898806 .65260317 .6259918 .6516113 .6349945 .65060427 .66600039 .64860537 .66600039 .6206207 .66600039 .6066284 .6549988 .5936432 .6469879 .5846405L.4850006 .41075135Z"/>
<path id="font_5_1" d="M.74398806 .2263794C.7599945 .2263794 .7839966 .2263794 .7839966 .25038148 .7839966 .27539063 .7609863 .27539063 .74398806 .27539063H.147995C.13198853 .27539063 .10798645 .27539063 .10798645 .25138856 .10798645 .2263794 .1309967 .2263794 .147995 .2263794H.74398806Z"/>
<path id="font_6_4" d="M.33499146 .63612368C.33499146 .6630554 .33299256 .6640625 .30499269 .6640625 .24099732 .6014404 .1499939 .6004486 .10899353 .6004486V.5644531C.1329956 .5644531 .19898987 .5644531 .2539978 .592453V.08203125C.2539978 .04899597 .2539978 .035995485 .1539917 .035995485H.115997318V0C.13398743 .0009918213 .25698854 .0039978029 .2939911 .0039978029 .32499696 .0039978029 .45098878 .0009918213 .47299195 0V.035995485H.43499757C.33499146 .035995485 .33499146 .04899597 .33499146 .08203125V.63612368Z"/>
<path id="font_6_1" d="M.35499574 .75C.16499329 .61598208 .114990238 .40397645 .114990238 .25097657 .114990238 .10997009 .15699768-.10902405 .35499574-.24902344 .36299134-.24902344 .375-.24902344 .375-.23703003 .375-.23103333 .37199403-.22903443 .36499024-.22203064 .23199463-.10203552 .18299866 .067977908 .18299866 .24996948 .18299866 .519989 .28599549 .65197756 .36799623 .72598269 .37199403 .7299957 .375 .73298647 .375 .73799136 .375 .75 .36299134 .75 .35499574 .75Z"/>
<path id="font_3_4" d="M.32398988 .6253052C.32398988 .64131167 .31199647 .66329959 .28399659 .66329959 .25698854 .66329959 .22799683 .6372986 .22799683 .6083069 .22799683 .5913086 .24099732 .5703125 .2679901 .5703125 .29699708 .5703125 .32398988 .5983124 .32398988 .6253052M.11999512 .117263797C.115997318 .104263309 .11099243 .09225464 .11099243 .07525635 .11099243 .02822876 .15098572-.009765625 .20599365-.009765625 .30599977-.009765625 .34999085 .12828064 .34999085 .14328003 .34999085 .15628052 .33699037 .15628052 .33399964 .15628052 .31999208 .15628052 .31900025 .15028382 .31498719 .13928223 .2919922 .059249879 .24798584 .018234253 .20899964 .018234253 .18899536 .018234253 .18399048 .031234742 .18399048 .053237916 .18399048 .07624817 .19099427 .09526062 .19999695 .117263797 .20999146 .14428711 .22099304 .17129517 .23199463 .1973114 .24099732 .22131348 .2769928 .3123474 .2809906 .32435609 .28399659 .33436585 .2869873 .3463745 .2869873 .35636903 .2869873 .4033966 .24699402 .44140626 .19198609 .44140626 .09298706 .44140626 .04699707 .3053589 .04699707 .28834535 .04699707 .27534486 .06098938 .27534486 .06399536 .27534486 .07798767 .27534486 .07899475 .28033448 .08198547 .29135133 .10798645 .37738038 .1519928 .4133911 .18899536 .4133911 .20498657 .4133911 .21398926 .4053955 .21398926 .37838746 .21398926 .3553772 .20799256 .34036256 .18299866 .27833558L.11999512 .117263797Z"/>
<path id="font_7_1" d="M.3849945 .27598573C.3869934 .29595948 .40299989 .42385865 .40299989 .43284608 .40299989 .45083619 .3880005 .46484376 .36799623 .46484376 .34700013 .46484376 .33299256 .44883729 .33299256 .4338379 .33299256 .42385865 .34799195 .29696656 .35099793 .27598573L.19599915 .36889649C.18598938 .3748932 .18199158 .37789918 .17298889 .37789918 .15699768 .37789918 .13899231 .36289979 .13899231 .34092713 .13899231 .3249359 .14898682 .3149414 .1599884 .31095887 .21499634 .28897096 .27198792 .26898194 .32798768 .25 .27198792 .22901917 .17999268 .19604492 .16299439 .1890564 .1559906 .18606568 .13899231 .18006897 .13899231 .15808106 .13899231 .1361084 .15699768 .12110901 .17298889 .12110901 .18399048 .12110901 .21499634 .1401062 .35099793 .22302246 .34799195 .20204163 .33299256 .075149539 .33299256 .06517029 .33299256 .0501709 .34700013 .034179689 .36799623 .034179689 .3880005 .034179689 .40299989 .048171998 .40299989 .06616211 .40299989 .075149539 .3869934 .2030487 .3849945 .22302246L.54299929 .1281128C.5499878 .12411499 .55400088 .12110901 .5629883 .12110901 .57899478 .12110901 .5970001 .1361084 .5970001 .15808106 .5970001 .17407227 .58699038 .18406677 .57598879 .18806458 .5209961 .21003723 .46398927 .23002625 .4079895 .24900818 .46398927 .269989 .55599978 .30296327 .57299807 .30995179 .5799866 .3129425 .5970001 .3189392 .5970001 .34092713 .5970001 .36289979 .57899478 .37789918 .5629883 .37789918 .55400088 .37789918 .5499878 .3748932 .5399933 .36889649L.3849945 .27598573Z"/>
<path id="font_3_1" d="M.21099854 .015991211C.21099854-.03907776 .20098877-.10321045 .1329956-.16732788 .1289978-.17134094 .12599182-.17434693 .12599182-.17933655 .12599182-.18634033 .13398743-.19334412 .13999939-.19334412 .1539917-.19334412 .23899842-.113220218 .23899842 .005996704 .23899842 .067993167 .21499634 .114990238 .16899109 .114990238 .13598633 .114990238 .11199951 .08898926 .11199951 .057998659 .11199951 .025985718 .1349945 0 .16999817 0 .19400025 0 .20999146 .015991211 .21099854 .015991211Z"/>
<path id="font_3_5" d="M.43899537 .6253052C.43899537 .64230349 .42599488 .66329959 .39898683 .66329959 .36999513 .66329959 .34298707 .6352997 .34298707 .6083069 .34298707 .5923004 .35499574 .5703125 .3829956 .5703125 .4099884 .5703125 .43899537 .5962982 .43899537 .6253052M.22698975-.04901123C.20999146-.11804199 .15699768-.17610169 .09799194-.17610169 .084991458-.17610169 .07299805-.17408753 .06199646-.17004395 .08799744-.15803528 .09599304-.1340332 .09599304-.11903381 .09599304-.09503174 .07699585-.08203125 .056991579-.08203125 .025985718-.08203125 0-.10903931 0-.14103699 0-.17910767 .038986207-.20410156 .09899902-.20410156 .15899658-.20410156 .27598573-.16804505 .30699159-.04600525L.39698792 .31230165C.3999939 .32331849 .4019928 .33232118 .4019928 .34733583 .4019928 .40238954 .35499574 .44140626 .29499818 .44140626 .18399048 .44140626 .11999512 .30230714 .11999512 .2882843 .11999512 .27526856 .13398743 .27526856 .13699341 .27526856 .14898682 .27526856 .1499939 .27827455 .15699768 .29328919 .18199158 .35134889 .23399353 .4133911 .2919922 .4133911 .31698609 .4133911 .32598878 .39637757 .32598878 .36434938 .32598878 .35334779 .32398988 .33932496 .32299806 .33433534L.22698975-.04901123Z"/>
<path id="font_6_2" d="M.08999634 .75C.08299255 .75 .070999149 .75 .070999149 .73799136 .070999149 .73298647 .07398987 .7299957 .07998657 .72299197 .1659851 .64398196 .2619934 .5089874 .2619934 .25097657 .2619934 .04197693 .19699097-.11602783 .08898926-.21403504 .07199097-.23103333 .070999149-.23202515 .070999149-.23703003 .070999149-.24203491 .07398987-.24902344 .083999637-.24902344 .09599304-.24902344 .19099427-.18302918 .25698854-.058029176 .30099488 .024978638 .32998658 .13298035 .32998658 .24996948 .32998658 .39097596 .28799439 .60998538 .08999634 .75Z"/>
<path id="font_3_6" d="M.31298829 .66430667C.31399537 .66630557 .31698609 .67930606 .31698609 .68029788 .31698609 .68530276 .31298829 .6943054 .30099488 .6943054 .2809906 .6943054 .19799805 .6863098 .17298889 .6843109 .16499329 .68330386 .15098572 .682312 .15098572 .66130068 .15098572 .64730837 .16499329 .64730837 .1769867 .64730837 .22499085 .64730837 .22499085 .64030459 .22499085 .63230898 .22499085 .62532046 .22299195 .61932376 .22099304 .61032107L.07998657 .04425049C.07499695 .026229859 .07499695 .024230957 .07499695 .022232056 .07499695 .007232666 .08699036-.009765625 .10899353-.009765625 .13598633-.009765625 .14898682 .010223389 .15499878 .03224182 .15699768 .036239625 .19999695 .21234131 .20399475 .22636414 .2749939 .21936035 .33198548 .19633484 .33198548 .14430237 .33198548 .13929749 .33198548 .1342926 .32998658 .124298099 .32598878 .10928345 .32598878 .104278568 .32598878 .09327698 .32598878 .022232056 .38398744-.009765625 .43199159-.009765625 .5289917-.009765625 .5589905 .14230347 .5589905 .14331055 .5589905 .15631104 .54599 .15631104 .54299929 .15631104 .5289917 .15631104 .5279999 .15130615 .522995 .1322937 .5109863 .089263919 .48399354 .018234253 .43499757 .018234253 .4079895 .018234253 .3999939 .04324341 .3999939 .07026672 .3999939 .087265018 .3999939 .089263919 .4059906 .11528015 .40699769 .11828613 .41099549 .13529969 .41099549 .14630127 .41099549 .23536682 .29100038 .24937439 .24899292 .25238038 .27799989 .27038575 .31498719 .30340577 .33198548 .31840516 .3829956 .3664093 .43299867 .4133911 .4889984 .4133911 .5009918 .4133911 .5139923 .4104004 .5219879 .40040589 .47898866 .3934021 .46998597 .35940553 .46998597 .34440614 .46998597 .32240296 .4869995 .30740357 .5099945 .30740357 .5369873 .30740357 .5669861 .32940675 .5669861 .37139894 .5669861 .4044037 .54299929 .44140626 .48999024 .44140626 .43299867 .44140626 .3809967 .40040589 .32998658 .3534088 .28799439 .31340028 .25498963 .2823944 .21398926 .26538087L.31298829 .66430667Z"/>
<path id="font_6_3" d="M.46299745 .2263794H.7689972C.7819977 .2263794 .80599978 .2263794 .80599978 .25038148 .80599978 .27539063 .7829895 .27539063 .7689972 .27539063H.46299745V.5821533C.46299745 .59513857 .46299745 .6191406 .43899537 .6191406 .4139862 .6191406 .4139862 .5961304 .4139862 .5821533V.27539063H.10699463C.09399414 .27539063 .069992069 .27539063 .069992069 .25138856 .069992069 .2263794 .09298706 .2263794 .10699463 .2263794H.4139862V-.08114624C.4139862-.09416199 .4139862-.11816406 .43798829-.11816406 .46299745-.11816406 .46299745-.09516907 .46299745-.08114624V.2263794Z"/>
<path id="font_3_3" d="M.11898804 .13723755C.1289978 .072265628 .1619873-.01171875 .24699402-.01171875 .2789917-.01171875 .31498719 .0012664795 .35099793 .024276734 .36799623 .03427124 .41999818 .071258548 .41999818 .08325195 .41999818 .08924866 .41299439 .102249149 .4039917 .102249149 .39898683 .102249149 .39698792 .102249149 .38198854 .087249759 .33898927 .04927063 .29299928 .016281128 .24798584 .016281128 .17999268 .016281128 .17999268 .13323975 .17999268 .15223694 .17999268 .16523743 .17999268 .16723633 .18199158 .18623352 .18299866 .19622803 .18299866 .19822693 .19499207 .20922852 .25 .2612152 .43899537 .443161 .43899537 .6171112 .43899537 .6321106 .43899537 .70410159 .37298585 .70410159 .2899933 .70410159 .22299195 .575119 .20698548 .5451355 .16299439 .4601593 .13999939 .37817384 .1289978 .32818605 .11399841 .2612152 .11399841 .22621155 .11399841 .17723084 .10699463 .17022705 .049987794 .11924744 .039993287 .11125183 .023986817 .09725952 .022994996 .09625244 .022994996 .09025574 .022994996 .08325195 .03199768 .072265628 .039993287 .072265628 .04699707 .072265628 .07398987 .09725952 .08099365 .10424805L.11898804 .13723755M.19099427 .25120545C.20899964 .35317994 .28799439 .6760864 .37199403 .6760864 .394989 .6760864 .40699769 .6600952 .40699769 .624115 .40699769 .6121216 .40699769 .5231323 .32099916 .400177 .269989 .32818605 .21499634 .27420045 .19099427 .25120545Z"/>
<path id="font_3_2" d="M.5249939 .33813478C.5109863 .3960724 .46598817 .4560547 .37199403 .4560547 .23199463 .4560547 .115997318 .35112 .07998657 .2612152 .07398987 .24423218 .05999756 .20327759 .05999756 .16331482 .05999756 .09437561 .11399841-.01953125 .269989-.01953125 .5289917-.01953125 .6339874 .30317689 .6339874 .4450531 .6339874 .61631777 .5219879 .7138672 .3880005 .7138672 .22499085 .7138672 .17999268 .58436587 .17999268 .55336 .17999268 .5453644 .18499756 .5173645 .21998596 .5173645 .25498963 .5173645 .27598573 .54837039 .27598573 .57237246 .27598573 .59936526 .2559967 .6083679 .23699951 .6103668 .2869873 .6848602 .36898805 .6848602 .38598634 .6848602 .46099855 .6848602 .5499878 .63816836 .5499878 .4962616 .5499878 .4530487 .54499819 .4180603 .526001 .33813478H.5249939M.27198792 .012466431C.15899658 .012466431 .1459961 .09738159 .1459961 .12834168 .1459961 .16731262 .17298889 .265213 .18299866 .29019166 .20098877 .33613587 .2630005 .42803956 .37599183 .42803956 .47299195 .42803956 .5049896 .35212709 .5049896 .2921753 .5049896 .22525025 .43998719 .012466431 .27198792 .012466431Z"/>
</defs>
<use data-text="&#x00b7;" xlink:href="#font_1_1" transform="matrix(9.962799,0,0,-9.962799,.9939575,13.558994)"/>
<use data-text="&#x00b7;" xlink:href="#font_1_1" transform="matrix(9.962799,0,0,-9.962799,5.4074709,13.558994)"/>
<use data-text="&#x00b7;" xlink:href="#font_1_1" transform="matrix(9.962799,0,0,-9.962799,9.830963,13.558994)"/>
<use data-text="H" xlink:href="#font_2_3" transform="matrix(9.962799,0,0,-9.962799,38.259675,13.558994)"/>
<use data-text="n" xlink:href="#font_3_7" transform="matrix(6.97394,0,0,-6.97394,46.54187,15.053022)"/>
<use data-text="(" xlink:href="#font_4_1" transform="matrix(9.962799,0,0,-9.962799,51.964967,13.558994)"/>
<use data-text="A" xlink:href="#font_2_1" transform="matrix(9.962799,0,0,-9.962799,55.83905,13.558994)"/>
<use data-text="&#x2229;" xlink:href="#font_1_3" transform="matrix(9.962799,0,0,-9.962799,65.52524,13.558994)"/>
<use data-text="B" xlink:href="#font_2_2" transform="matrix(9.962799,0,0,-9.962799,74.38043,13.558994)"/>
<use data-text=")" xlink:href="#font_4_2" transform="matrix(9.962799,0,0,-9.962799,82.43759,13.558994)"/>
<use data-text="H" xlink:href="#font_2_3" transform="matrix(9.962799,0,0,-9.962799,122.152378,13.558994)"/>
<use data-text="n" xlink:href="#font_3_7" transform="matrix(6.97394,0,0,-6.97394,130.43454,15.053022)"/>
<use data-text="(" xlink:href="#font_4_1" transform="matrix(9.962799,0,0,-9.962799,135.85767,13.558994)"/>
<use data-text="A" xlink:href="#font_2_1" transform="matrix(9.962799,0,0,-9.962799,139.73172,13.558994)"/>
<use data-text=")" xlink:href="#font_4_2" transform="matrix(9.962799,0,0,-9.962799,147.20386,13.558994)"/>
<use data-text="&#x2295;" xlink:href="#font_1_2" transform="matrix(9.962799,0,0,-9.962799,153.29199,13.558994)"/>
<use data-text="H" xlink:href="#font_2_3" transform="matrix(9.962799,0,0,-9.962799,163.25522,13.558994)"/>
<use data-text="n" xlink:href="#font_3_7" transform="matrix(6.97394,0,0,-6.97394,171.53638,15.053022)"/>
<use data-text="(" xlink:href="#font_4_1" transform="matrix(9.962799,0,0,-9.962799,176.9595,13.558994)"/>
<use data-text="B" xlink:href="#font_2_2" transform="matrix(9.962799,0,0,-9.962799,180.83457,13.558994)"/>
<use data-text=")" xlink:href="#font_4_2" transform="matrix(9.962799,0,0,-9.962799,188.89072,13.558994)"/>
<use data-text="H" xlink:href="#font_2_3" transform="matrix(9.962799,0,0,-9.962799,228.60547,13.558994)"/>
<use data-text="n" xlink:href="#font_3_7" transform="matrix(6.97394,0,0,-6.97394,236.88764,15.053022)"/>
<use data-text="(" xlink:href="#font_4_1" transform="matrix(9.962799,0,0,-9.962799,242.31073,13.558994)"/>
<use data-text="X" xlink:href="#font_2_4" transform="matrix(9.962799,0,0,-9.962799,246.18482,13.558994)"/>
<use data-text=")" xlink:href="#font_4_2" transform="matrix(9.962799,0,0,-9.962799,255.21997,13.558994)"/>
<use data-text="H" xlink:href="#font_2_3" transform="matrix(9.962799,0,0,-9.962799,33.160585,39.78752)"/>
<use data-text="n" xlink:href="#font_3_7" transform="matrix(6.97394,0,0,-6.97394,41.44278,41.28255)"/>
<use data-text="&#x2212;" xlink:href="#font_5_1" transform="matrix(6.97394,0,0,-6.97394,46.366884,41.28255)"/>
<use data-text="1" xlink:href="#font_6_4" transform="matrix(6.97394,0,0,-6.97394,52.593996,41.28255)"/>
<use data-text="(" xlink:href="#font_4_1" transform="matrix(9.962799,0,0,-9.962799,57.06308,39.78752)"/>
<use data-text="A" xlink:href="#font_2_1" transform="matrix(9.962799,0,0,-9.962799,60.93814,39.78752)"/>
<use data-text="&#x2229;" xlink:href="#font_1_3" transform="matrix(9.962799,0,0,-9.962799,70.62436,39.78752)"/>
<use data-text="B" xlink:href="#font_2_2" transform="matrix(9.962799,0,0,-9.962799,79.47955,39.78752)"/>
<use data-text=")" xlink:href="#font_4_2" transform="matrix(9.962799,0,0,-9.962799,87.53671,39.78752)"/>
<use data-text="H" xlink:href="#font_2_3" transform="matrix(9.962799,0,0,-9.962799,111.95416,39.78752)"/>
<use data-text="n" xlink:href="#font_3_7" transform="matrix(6.97394,0,0,-6.97394,120.23633,41.28255)"/>
<use data-text="&#x2212;" xlink:href="#font_5_1" transform="matrix(6.97394,0,0,-6.97394,125.16141,41.28255)"/>
<use data-text="1" xlink:href="#font_6_4" transform="matrix(6.97394,0,0,-6.97394,131.38755,41.28255)"/>
<use data-text="(" xlink:href="#font_4_1" transform="matrix(9.962799,0,0,-9.962799,135.85764,39.78752)"/>
<use data-text="A" xlink:href="#font_2_1" transform="matrix(9.962799,0,0,-9.962799,139.73172,39.78752)"/>
<use data-text=")" xlink:href="#font_4_2" transform="matrix(9.962799,0,0,-9.962799,147.20386,39.78752)"/>
<use data-text="&#x2295;" xlink:href="#font_1_2" transform="matrix(9.962799,0,0,-9.962799,153.29199,39.78752)"/>
<use data-text="H" xlink:href="#font_2_3" transform="matrix(9.962799,0,0,-9.962799,163.25519,39.78752)"/>
<use data-text="n" xlink:href="#font_3_7" transform="matrix(6.97394,0,0,-6.97394,171.53638,41.28255)"/>
<use data-text="&#x2212;" xlink:href="#font_5_1" transform="matrix(6.97394,0,0,-6.97394,176.46146,41.28255)"/>
<use data-text="1" xlink:href="#font_6_4" transform="matrix(6.97394,0,0,-6.97394,182.68857,41.28255)"/>
<use data-text="(" xlink:href="#font_4_1" transform="matrix(9.962799,0,0,-9.962799,187.15769,39.78752)"/>
<use data-text="B" xlink:href="#font_2_2" transform="matrix(9.962799,0,0,-9.962799,191.03177,39.78752)"/>
<use data-text=")" xlink:href="#font_4_2" transform="matrix(9.962799,0,0,-9.962799,199.0889,39.78752)"/>
<use data-text="H" xlink:href="#font_2_3" transform="matrix(9.962799,0,0,-9.962799,223.50635,39.78752)"/>
<use data-text="n" xlink:href="#font_3_7" transform="matrix(6.97394,0,0,-6.97394,231.78852,41.28255)"/>
<use data-text="&#x2212;" xlink:href="#font_5_1" transform="matrix(6.97394,0,0,-6.97394,236.71265,41.28255)"/>
<use data-text="1" xlink:href="#font_6_4" transform="matrix(6.97394,0,0,-6.97394,242.93976,41.28255)"/>
<use data-text="(" xlink:href="#font_4_1" transform="matrix(9.962799,0,0,-9.962799,247.40882,39.78752)"/>
<use data-text="X" xlink:href="#font_2_4" transform="matrix(9.962799,0,0,-9.962799,251.28388,39.78752)"/>
<use data-text=")" xlink:href="#font_4_2" transform="matrix(9.962799,0,0,-9.962799,260.31904,39.78752)"/>
<use data-text="&#x00b7;" xlink:href="#font_1_1" transform="matrix(9.962799,0,0,-9.962799,56.47406,62.972986)"/>
<use data-text="&#x00b7;" xlink:href="#font_1_1" transform="matrix(9.962799,0,0,-9.962799,60.887575,62.972986)"/>
<use data-text="&#x00b7;" xlink:href="#font_1_1" transform="matrix(9.962799,0,0,-9.962799,65.311069,62.972986)"/>
<path transform="matrix(1.00002,0,0,-1.00002,132.59654,34.52941)" stroke-width=".39848" stroke-linecap="butt" stroke-miterlimit="10" stroke-linejoin="miter" fill="none" stroke="#000000" d="M-115.48274 23.4615H-99.22542"/>
<path transform="matrix(1.00002,0,0,-1.00002,33.568384,11.067442)" stroke-width=".39848" stroke-linecap="round" stroke-linejoin="round" fill="none" stroke="#000000" d="M-2.07213 2.39091C-1.69356 .95633-.84995 .27893 0 0-.84995-.27893-1.69356-.95633-2.07213-2.39091"/>
<path transform="matrix(1.00002,0,0,-1.00002,132.59654,34.52941)" stroke-width=".39848" stroke-linecap="butt" stroke-miterlimit="10" stroke-linejoin="miter" fill="none" stroke="#000000" d="M-41.78864 23.4615H-15.33327"/>
<path transform="matrix(1.00002,0,0,-1.00002,117.46221,11.067442)" stroke-width=".39848" stroke-linecap="round" stroke-linejoin="round" fill="none" stroke="#000000" d="M-2.07213 2.39091C-1.69356 .95633-.84995 .27893 0 0-.84995-.27893-1.69356-.95633-2.07213-2.39091"/>
<use data-text="(" xlink:href="#font_6_1" transform="matrix(6.97394,0,0,-6.97394,89.601688,6.9778597)"/>
<use data-text="i" xlink:href="#font_3_4" transform="matrix(6.97394,0,0,-6.97394,92.71475,6.9778597)"/>
<use data-text="&#x2217;" xlink:href="#font_7_1" transform="matrix(4.9813997,0,0,-4.9813997,95.53381,7.973879)"/>
<use data-text="," xlink:href="#font_3_1" transform="matrix(6.97394,0,0,-6.97394,99.69891,6.9778597)"/>
<use data-text="&#x2212;" xlink:href="#font_5_1" transform="matrix(6.97394,0,0,-6.97394,102.06494,6.9778597)"/>
<use data-text="j" xlink:href="#font_3_5" transform="matrix(6.97394,0,0,-6.97394,108.29108,6.9778597)"/>
<use data-text="&#x2217;" xlink:href="#font_7_1" transform="matrix(4.9813997,0,0,-4.9813997,111.588169,7.973879)"/>
<use data-text=")" xlink:href="#font_6_2" transform="matrix(6.97394,0,0,-6.97394,115.753238,6.9778597)"/>
<path transform="matrix(1.00002,0,0,-1.00002,132.59654,34.52941)" stroke-width=".39848" stroke-linecap="butt" stroke-miterlimit="10" stroke-linejoin="miter" fill="none" stroke="#000000" d="M64.66394 23.4615H91.1193"/>
<path transform="matrix(1.00002,0,0,-1.00002,223.91692,11.067442)" stroke-width=".39848" stroke-linecap="round" stroke-linejoin="round" fill="none" stroke="#000000" d="M-2.07213 2.39091C-1.69356 .95633-.84995 .27893 0 0-.84995-.27893-1.69356-.95633-2.07213-2.39091"/>
<use data-text="k" xlink:href="#font_3_6" transform="matrix(6.97394,0,0,-6.97394,199.68088,7.7248747)"/>
<use data-text="&#x2217;" xlink:href="#font_7_1" transform="matrix(4.9813997,0,0,-4.9813997,203.91596,8.720894)"/>
<use data-text="+" xlink:href="#font_6_3" transform="matrix(6.97394,0,0,-6.97394,208.08106,7.7248747)"/>
<use data-text="&#x2113;" xlink:href="#font_3_3" transform="matrix(6.97394,0,0,-6.97394,214.19718,7.7248747)"/>
<use data-text="&#x2217;" xlink:href="#font_7_1" transform="matrix(4.9813997,0,0,-4.9813997,217.53223,8.720894)"/>
<path transform="matrix(1.00002,0,0,-1.00002,132.59654,34.52941)" stroke-width=".39848" stroke-linecap="butt" stroke-miterlimit="10" stroke-linejoin="miter" fill="none" stroke="#000000" d="M130.9933 19.98656C221.56659 4.01108-194.49925 19.13051-104.31837 3.22095"/>
<path transform="matrix(.98480978,.17372348,.17372348,-.98480978,28.472283,31.343008)" stroke-width=".39848" stroke-linecap="round" stroke-linejoin="round" fill="none" stroke="#000000" d="M-2.07213 2.39091C-1.69356 .95633-.84995 .27893 0 0-.84995-.27893-1.69356-.95633-2.07213-2.39091"/>
<use data-text="&#x2202;" xlink:href="#font_3_2" transform="matrix(6.97394,0,0,-6.97394,141.92073,30.148324)"/>
<use data-text="&#x2217;" xlink:href="#font_7_1" transform="matrix(4.9813997,0,0,-4.9813997,146.17482,31.144343)"/>
<path transform="matrix(1.00002,0,0,-1.00002,132.59654,34.52941)" stroke-width=".39848" stroke-linecap="butt" stroke-miterlimit="10" stroke-linejoin="miter" fill="none" stroke="#000000" d="M-36.68962-2.76744H-25.53131"/>
<path transform="matrix(1.00002,0,0,-1.00002,107.26398,37.296907)" stroke-width=".39848" stroke-linecap="round" stroke-linejoin="round" fill="none" stroke="#000000" d="M-2.07213 2.39091C-1.69356 .95633-.84995 .27893 0 0-.84995-.27893-1.69356-.95633-2.07213-2.39091"/>
<path transform="matrix(1.00002,0,0,-1.00002,132.59654,34.52941)" stroke-width=".39848" stroke-linecap="butt" stroke-miterlimit="10" stroke-linejoin="miter" fill="none" stroke="#000000" d="M74.86197-2.76744H86.02028"/>
<path transform="matrix(1.00002,0,0,-1.00002,218.81778,37.296907)" stroke-width=".39848" stroke-linecap="round" stroke-linejoin="round" fill="none" stroke="#000000" d="M-2.07213 2.39091C-1.69356 .95633-.84995 .27893 0 0-.84995-.27893-1.69356-.95633-2.07213-2.39091"/>
<path transform="matrix(1.00002,0,0,-1.00002,132.59654,34.52941)" stroke-width=".39848" stroke-linecap="butt" stroke-miterlimit="10" stroke-linejoin="miter" fill="none" stroke="#000000" d="M136.09232-7.14351C219.64302-21.87874-164.16329-9.40332-81.00497-24.06786"/>
<path transform="matrix(.9848197,.17365347,.17365347,-.9848197,51.786149,58.632345)" stroke-width=".39848" stroke-linecap="round" stroke-linejoin="round" fill="none" stroke="#000000" d="M-2.07213 2.39091C-1.69356 .95633-.84995 .27893 0 0-.84995-.27893-1.69356-.95633-2.07213-2.39091"/>
</svg>
