<svg xmlns="http://www.w3.org/2000/svg" xmlns:xlink="http://www.w3.org/1999/xlink" xmlns:inkscape="http://www.inkscape.org/namespaces/inkscape" version="1.1" width="292" height="165" viewBox="0 0 292 165">
<defs>
<path id="font_1_3" d="M.48098756 .3693695C.48098756 .43937684 .44400025 .44337464 .43499757 .44337464 .4099884 .44337464 .38398744 .41638185 .38398744 .39337159 .38398744 .3783722 .3929901 .37036134 .3999939 .36436463 .4269867 .33935548 .43598939 .30734254 .43598939 .28134156 .43598939 .23731995 .37298585 .014251709 .25698854 .014251709 .18199158 .014251709 .18199158 .08427429 .18199158 .10227966 .18199158 .14529419 .19599915 .19630432 .23098755 .28733827 .24699402 .3293457 .25099183 .33935548 .25099183 .35835267 .25099183 .40737916 .21398926 .4423828 .16499329 .4423828 .068984989 .4423828 .0289917 .30033876 .0289917 .28833009 .0289917 .2793274 .035995485 .27633668 .042999269 .27633668 .053985597 .27633668 .054992677 .28233338 .05899048 .29533387 .07998657 .36836244 .11999512 .41737367 .1619873 .41737367 .18199158 .41737367 .18598938 .40437318 .18598938 .3843689 .18598938 .36735536 .18199158 .34934999 .17298889 .3253479 .13699341 .22932434 .11299133 .16529846 .11299133 .11528015 .11299133 .021255494 .18399048-.0107421879 .25299073-.0107421879 .42099-.0107421879 .48098756 .30534364 .48098756 .3693695Z"/>
<path id="font_2_1" d="M.79599 .22436524C.81199648 .22436524 .83699038 .22436524 .83699038 .2503662 .83699038 .2763672 .81199648 .2763672 .79599 .2763672H.1659851C.1499939 .2763672 .125 .2763672 .125 .2503662 .125 .22436524 .1499939 .22436524 .1659851 .22436524H.79599Z"/>
<path id="font_3_2" d="M.5499878 .31877137C.5499878 .39183045 .5499878 .66503909 .30499269 .66503909 .05999756 .66503909 .05999756 .39183045 .05999756 .31877137 .05999756 .2467041 .05999756-.021484375 .30499269-.021484375 .5499878-.021484375 .5499878 .2467041 .5499878 .31877137M.30499269 .010513306C.2630005 .010513306 .19499207 .030517579 .17098999 .113601688 .15499878 .17164612 .15499878 .2697296 .15499878 .33177186 .15499878 .39883424 .15499878 .4758911 .16899109 .52993777 .19400025 .6200104 .269989 .6330261 .30499269 .6330261 .35099793 .6330261 .4169922 .6110077 .43899537 .5349426 .45399476 .48190309 .45498658 .408844 .45498658 .33177186 .45498658 .26771546 .45498658 .16664124 .43798829 .1105957 .4099884 .023513794 .33799745 .010513306 .30499269 .010513306Z"/>
<path id="font_3_3" d="M.35899354 .6349335C.35899354 .66503909 .35499574 .66503909 .32499696 .66503909 .25898744 .60058596 .15699768 .60058596 .12098694 .60058596V.5615845C.14698792 .5615845 .21299744 .5615845 .272995 .58958438V.08496094C.272995 .051986696 .272995 .038986207 .16999817 .038986207H.1269989V0C.18199158 .0039978029 .2599945 .0039978029 .31599427 .0039978029 .37199403 .0039978029 .44999696 .0039978029 .5049896 0V.038986207H.46199037C.35899354 .038986207 .35899354 .051986696 .35899354 .08496094V.6349335Z"/>
<path id="font_3_4" d="M.5379944 .18702698H.5009918C.49899293 .17301941 .4889984 .10699463 .47399903 .09599304 .46699525 .08999634 .38598634 .08999634 .37199403 .08999634H.18499756L.31298829 .19403076C.34700013 .22103882 .43598939 .28504945 .46699525 .31506349 .49699403 .3450775 .5379944 .39608766 .5379944 .46710206 .5379944 .5920563 .4249878 .66503909 .29100038 .66503909 .1619873 .66503909 .07199097 .58006289 .07199097 .48609925 .07199097 .43510438 .114990238 .42910768 .12599182 .42910768 .15098572 .42910768 .17999268 .44709779 .17999268 .48310853 .17999268 .50509646 .16699219 .5371094 .12298584 .5371094 .1459961 .5880585 .20698548 .6260376 .27598573 .6260376 .3809967 .6260376 .43699647 .5480957 .43699647 .46710206 .43699647 .39608766 .3899994 .32305909 .31999208 .25904847L.08299255 .041992189C.07299805 .03199768 .07199097 .0309906 .07199097 0H.5069885L.5379944 .18702698Z"/>
<path id="font_3_1" d="M.49299623 .22436524H.81599429C.8299866 .22436524 .8549957 .22436524 .8549957 .2503662 .8549957 .2763672 .8299866 .2763672 .81599429 .2763672H.49299623V.60014346C.49299623 .61413577 .49299623 .63912966 .46699525 .63912966 .44099427 .63912966 .44099427 .61413577 .44099427 .60014346V.2763672H.117996219C.10398865 .2763672 .07899475 .2763672 .07899475 .2503662 .07899475 .22436524 .10398865 .22436524 .117996219 .22436524H.44099427V-.10014343C.44099427-.11416626 .44099427-.13917542 .46699525-.13917542 .49299623-.13917542 .49299623-.11416626 .49299623-.10014343V.22436524Z"/>
<path id="font_1_1" d="M.30299378 .36865235H.47599793C.4889984 .36865235 .526001 .36865235 .526001 .4046631 .526001 .43066407 .5039978 .43066407 .4850006 .43066407H.19599915C.17199707 .43066407 .13699341 .43066407 .08999634 .38365174 .06298828 .3566742 .026992798 .30177308 .026992798 .29379273 .026992798 .2828064 .037994386 .2828064 .040985109 .2828064 .04899597 .2828064 .050994874 .2848053 .056991579 .29478456 .10598755 .36865235 .16699219 .36865235 .18699646 .36865235H.2709961L.16899109 .038223268C.1639862 .023254395 .1639862 .021255494 .1639862 .01626587 .1639862 .0012664795 .17298889-.01171875 .19499207-.01171875 .22399903-.01171875 .23399353 .012268066 .23799134 .031234742L.30299378 .36865235Z"/>
<path id="font_4_1" d="M.6269989 .3795929C.6269989 .5326233 .47200013 .5996399 .34199525 .5996399 .21199036 .5996399 .056991579 .5326233 .056991579 .3795929V.014541626C.056991579-.0024719239 .056991579-.022460938 .07798767-.022460938 .099990848-.022460938 .099990848-.0034637452 .099990848 .014541626V.37660218C.099990848 .5226288 .2630005 .5566406 .34199525 .5566406 .41999818 .5566406 .58399966 .5236206 .58399966 .37660218V.014541626C.58399966-.0024719239 .58399966-.022460938 .6049957-.022460938 .6269989-.022460938 .6269989-.0034637452 .6269989 .014541626V.3795929Z"/>
<path id="font_5_1" d="M.70799258 .3310089C.7220001 .3310089 .7409973 .3310089 .7409973 .35202027 .7409973 .37402345 .71899417 .37402345 .70399478 .37402345H.09399414C.07899475 .37402345 .056991579 .37402345 .056991579 .35202027 .056991579 .3310089 .07699585 .3310089 .08999634 .3310089H.70799258M.70399478 .12695313C.71899417 .12695313 .7409973 .12695313 .7409973 .14894104 .7409973 .1699524 .7220001 .1699524 .70799258 .1699524H.08999634C.07699585 .1699524 .056991579 .1699524 .056991579 .14894104 .056991579 .12695313 .07899475 .12695313 .09399414 .12695313H.70399478Z"/>
<path id="font_5_2" d="M.2619934-.25V-.20700073H.16299439V.7069855H.2619934V.75H.11999512V-.25H.2619934Z"/>
<path id="font_1_2" d="M.18199158 .015991211C.18199158-.017044068 .18199158-.09921265 .10798645-.17036438 .101989749-.17636109 .101989749-.17736817 .101989749-.18136597 .101989749-.18836975 .10899353-.19335938 .114990238-.19335938 .12599182-.19335938 .20698548-.115249637 .20698548 .0019989014 .20698548 .06399536 .18499756 .10798645 .14199829 .10798645 .10798645 .10798645 .08799744 .08198547 .08799744 .053985597 .08799744 .025985718 .10798645 0 .14199829 0 .15699768 0 .17199707 .004989624 .18199158 .015991211Z"/>
<path id="font_5_3" d="M.1639862-.25V.75H.021987915V.7069855H.12098694V-.20700073H.021987915V-.25H.1639862Z"/>
<path id="font_6_98" d="M.36999513 .12831116C.36999513 .17330933 .34999085 .20030213 .32798768 .22329712 .2939911 .25628663 .2579956 .26327516 .18399048 .2772827 .1579895 .28227235 .084991458 .29527284 .084991458 .35224916 .084991458 .38424684 .10798645 .426239 .19898987 .426239 .30699159 .426239 .31399537 .34326173 .31599427 .31826783 .31698609 .3062744 .31698609 .3002777 .32998658 .3002777 .34399415 .3002777 .34399415 .30726625 .34399415 .32626344V.4222412C.34399415 .4392395 .34399415 .4482422 .33198548 .4482422 .32699586 .4482422 .32499696 .4482422 .31199647 .43623353 .30999757 .43423463 .30099488 .42523194 .29499818 .4202423 .2639923 .44223023 .23298645 .4482422 .19898987 .4482422 .066986087 .4482422 .033996583 .37524415 .033996583 .32426454 .033996583 .29226686 .04798889 .26628114 .070999149 .24429322 .10499573 .21330261 .14299011 .20629883 .19400025 .19729615 .24499512 .18730164 .2619934 .18431092 .28399659 .16731262 .2939911 .15931702 .31900025 .14031983 .31900025 .10229492 .31900025 .014251709 .21798706 .014251709 .20399475 .014251709 .101989749 .014251709 .07598877 .0993042 .06399536 .15332031 .06098938 .16331482 .05999756 .16931153 .04798889 .16931153 .033996583 .16931153 .033996583 .16131592 .033996583 .14331055V.01524353C.033996583-.0017547608 .033996583-.0107421879 .04598999-.0107421879 .051986696-.0107421879 .052993776-.009750366 .070999149 .009246826 .07499695 .01524353 .085998538 .028259278 .09098816 .03326416 .1329956-.007751465 .1789856-.0107421879 .20399475-.0107421879 .32699586-.0107421879 .36999513 .061279298 .36999513 .12831116Z"/>
<path id="font_6_63" d="M.5469971 0V.0309906C.49598695 .03125 .47099305 .03125 .46998597 .0622406V.25431825C.46998597 .3373413 .46998597 .36636354 .44198609 .4013672 .4189911 .42938233 .3809967 .4423828 .33099366 .4423828 .2639923 .4423828 .21499634 .40737916 .18399048 .35134889H.18299866V.69433596L.034988405 .6826172V.6516113C.102996829 .6516113 .11199951 .64463809 .11199951 .59580996V.077041629C.11199951 .0309906 .100997928 .0309906 .034988405 .0309906V0C.08198547 .0019989014 .100997928 .0029907227 .14898682 .0029907227 .19699097 .0029907227 .20999146 .0019989014 .2630005 0V.0309906C.19699097 .0309906 .18598938 .0309906 .18598938 .077041629V.2592163C.18598938 .36532594 .26098634 .41737367 .32398988 .41737367 .3829956 .41737367 .3959961 .3683319 .3959961 .30825807V.077041629C.3959961 .0309906 .3849945 .0309906 .31900025 .0309906V0C.3659973 .0019989014 .3849945 .0029907227 .43299867 .0029907227 .48098756 .0029907227 .49398805 .0019989014 .5469971 0Z"/>
<path id="font_6_28" d="M.49699403 .089141849V.14515686H.46899415V.090148929C.46899415 .07914734 .46899415 .029129029 .43299867 .029129029 .39698792 .029129029 .39698792 .07714844 .39698792 .09315491V.26818849C.39698792 .32521058 .39698792 .3592224 .35198976 .40022279 .31498719 .43322755 .2669983 .4482422 .21699524 .4482422 .1329956 .4482422 .06298828 .40623475 .06298828 .34220887 .06298828 .311203 .083999637 .2942047 .10998535 .2942047 .13699341 .2942047 .1559906 .31420899 .1559906 .34020997 .1559906 .3832245 .11099243 .38822938 .11099243 .38822938 .13798523 .41423036 .18598938 .42323304 .21499634 .42323304 .2659912 .42323304 .32299806 .3852234 .32299806 .29719544V.26419068C.2689972 .26219178 .19400025 .2571869 .1269989 .22518921 .054992677 .19017029 .032989503 .13816834 .032989503 .09814453 .032989503 .01625061 .12998963-.0107421879 .19699097-.0107421879 .27999879-.0107421879 .31799317 .04425049 .33198548 .072250369 .33699037 .030136109 .3659973-.005859375 .40899659-.005859375 .43399049-.005859375 .49699403 .009140015 .49699403 .08912659V.089141849M.32299806 .14112854C.32299806 .04425049 .24798584 .014251709 .20399475 .014251709 .15699768 .014251709 .11299133 .04824829 .11299133 .098236087 .11299133 .16423035 .16999817 .23422241 .32299806 .24023438V.14112854Z"/>
<path id="font_6_96" d="M.37298585 .3798828C.37298585 .41236878 .34298707 .4423828 .2979889 .4423828 .23799134 .4423828 .19599915 .40037538 .17298889 .33787538H.17199707V.4423828L.02999878 .43066407V.3996582C.09799194 .3996582 .10699463 .3927307 .10699463 .34387208V.07698059C.10699463 .0309906 .09599304 .0309906 .02999878 .0309906V0C.08299255 .0019989014 .09599304 .0029907227 .14698792 .0029907227L.27398683 0V.0309906H.2539978C.18099976 .0309906 .17799378 .041992189 .17799378 .07897949V.22891236C.17799378 .26989747 .18899536 .4166565 .30299378 .4166565V.4156494C.30099488 .4146576 .2849884 .40264894 .2849884 .37887574 .2849884 .35186769 .30599977 .33486939 .32899476 .33486939 .34999085 .33486939 .37298585 .34986878 .37298585 .3798828Z"/>
<path id="font_6_50" d="M.4269867 .11936951C.4269867 .12637329 .42199708 .13237 .41299439 .13237 .40299989 .13237 .3999939 .12536621 .39898683 .12136841 .36499024 .019256592 .27598573 .01725769 .26098634 .01725769 .21299744 .01725769 .17199707 .044281007 .14898682 .078323367 .115997318 .12736511 .114990238 .18743897 .114990238 .22949219H.3999939C.42199708 .22949219 .4269867 .22949219 .4269867 .25048829 .4269867 .35333253 .37098695 .4482422 .24299622 .4482422 .12298584 .4482422 .0289917 .3443451 .0289917 .22047425 .0289917 .08932495 .13398743-.0107421879 .2559967-.0107421879 .37799073-.0107421879 .4269867 .096343997 .4269867 .11936951M.35899354 .253479H.115997318C.125 .40725709 .21499634 .42323304 .24299622 .42323304 .2979889 .42323304 .35798646 .38130189 .35899354 .253479Z"/>
<path id="font_6_47" d="M.5399933 0V.0309906C.47200013 .0309906 .46299745 .037994386 .46299745 .087020877V.69433596L.31498719 .6826172V.6516113C.3829956 .6516113 .3919983 .64463809 .3919983 .59580996V.38339234C.3869934 .38938905 .34199525 .4423828 .2639923 .4423828 .14099121 .4423828 .033996583 .3443756 .033996583 .21525574 .033996583 .09013367 .13398743-.0107421879 .25299073-.0107421879 .32598878-.0107421879 .37098695 .03224182 .3889923 .053115846V-.0107421879L.5399933 0M.3889923 .12011719C.3889923 .10211182 .3889923 .099121097 .37399293 .078125 .34298707 .033218385 .29699708 .014251709 .25698854 .014251709 .21398926 .014251709 .17399597 .038208009 .147995 .0801239 .12199402 .12312317 .11999512 .18218994 .11999512 .21421814 .11999512 .26127626 .12599182 .3143463 .1519928 .35438539 .17399597 .38638307 .21499634 .41737367 .2679901 .41737367 .30999757 .41737367 .34999085 .39637757 .3769989 .35839845 .3889923 .3423767 .3889923 .34136964 .3889923 .32235719V.12011719Z"/>
<path id="font_6_59" d="M.49899293 .40338136C.49899293 .42237855 .4850006 .45336915 .44499208 .45336915 .41600038 .45336915 .37098695 .4423828 .33599855 .40637208 .30899049 .42837525 .269989 .4423828 .22799683 .4423828 .1329956 .4423828 .06098938 .3743744 .06098938 .29537965 .06098938 .2443695 .09098816 .20837403 .10699463 .19337464 .10499573 .19137573 .07699585 .15637207 .07699585 .11038208 .07699585 .07637024 .09298706 .040374757 .11999512 .022369385 .068984989 .005874634 .0289917-.03111267 .0289917-.07809448 .0289917-.14907837 .12799073-.20605469 .2559967-.20605469 .3789978-.20605469 .48399354-.15307617 .48399354-.07609558 .48399354-.035110475 .46499635 .008880615 .42799378 .03288269 .37199403 .067871097 .31399537 .067871097 .21899414 .067871097 .19898987 .067871097 .16699219 .067871097 .15899658 .069885257 .12998963 .075927738 .11099243 .1031189 .11099243 .13534546 .11099243 .15142823 .115997318 .16642761 .125 .1794281 .1499939 .16343689 .18099976 .1484375 .22698975 .1484375 .32199098 .1484375 .3939972 .21643067 .3939972 .29542542 .3939972 .34443666 .3659973 .37843324 .35299684 .39242555 .3929901 .42843629 .43998719 .42843629 .45199586 .42843629 .44699098 .4254303 .43899537 .42042542 .43899537 .4024353 .43899537 .39143373 .44599916 .37243653 .46899415 .37243653 .48298646 .37243653 .49899293 .38243104 .49899293 .40342713V.40338136M.31698609 .29542542C.31698609 .27243043 .31698609 .1754303 .22698975 .1754303 .13798523 .17520142 .13798523 .27326966 .13798523 .2952881 .13798523 .3223114 .13999939 .35632325 .15699768 .38034059 .17199707 .4003601 .19898987 .41537477 .22698975 .41537477 .31698609 .41537477 .31698609 .31829835 .31698609 .2952881V.29542542M.42799378-.07698059C.42799378-.1340332 .35099793-.17906189 .25698854-.17906189 .15899658-.17912293 .084991458-.13212586 .084991458-.07711792 .084991458-.06112671 .09498596 .0048828127 .18099976 .0048828127H.272995C.30499269 .0048828127 .42799378 .0038757325 .42799378-.07711792V-.07698059Z"/>
</defs>
<path transform="matrix(1.00009,0,0,-1.00002,15.791069,149.41674)" d="M0 0H119.07587V89.3069H0Z" fill="#f5f5f5"/>
<path transform="matrix(1.00009,0,0,-1.00002,15.791069,149.41674)" d="M0 89.3069H119.07587L80.3761 133.96038Z" fill="#f9f9f9"/>
<path transform="matrix(1.00009,0,0,-1.00002,15.791069,149.41674)" stroke-width=".79701" stroke-linecap="round" stroke-linejoin="round" fill="none" stroke="#000000" d="M0 0H119.07587V89.3069H0Z"/>
<path transform="matrix(1.00009,0,0,-1.00002,15.791069,149.41674)" stroke-width=".79701" stroke-linecap="round" stroke-linejoin="round" fill="none" stroke="#000000" d="M0 89.3069 80.3761 133.96038 119.07587 89.3069"/>
<path transform="matrix(1.00009,0,0,-1.00002,15.791069,149.41674)" stroke-width=".79701" stroke-linecap="round" stroke-dasharray="2.98883,2.98883" stroke-linejoin="round" fill="none" stroke="#000000" d="M0 0 80.3761 44.65343"/>
<path transform="matrix(1.00009,0,0,-1.00002,15.791069,149.41674)" stroke-width=".79701" stroke-linecap="round" stroke-dasharray="2.98883,2.98883" stroke-linejoin="round" fill="none" stroke="#000000" d="M119.07587 0 80.3761 44.65343"/>
<path transform="matrix(1.00009,0,0,-1.00002,15.791069,149.41674)" stroke-width=".79701" stroke-linecap="round" stroke-dasharray="2.98883,2.98883" stroke-linejoin="round" fill="none" stroke="#000000" d="M80.3761 44.65343V133.96038"/>
<path transform="matrix(1.00009,0,0,-1.00002,15.791069,149.41674)" stroke-width="1.19553" stroke-linecap="round" stroke-linejoin="round" fill="none" stroke="#600060" d="M0 0 80.3761 133.96038"/>
<path transform="matrix(1.00009,0,0,-1.00002,15.791069,149.41674)" stroke-width="1.19553" stroke-linecap="round" stroke-linejoin="round" fill="none" stroke="#d96c00" d="M119.07587 0 80.3761 133.96038"/>
<path transform="matrix(1.00009,0,0,-1.00002,15.791069,149.41674)" stroke-width="1.19553" stroke-linecap="round" stroke-linejoin="round" fill="none" stroke="#0000b3" d="M0 0 119.07587 89.3069"/>
<path transform="matrix(1.00009,0,0,-1.00002,15.791069,149.41674)" d="M1.98756 0C1.98756 1.0977 1.0977 1.98756 0 1.98756-1.0977 1.98756-1.98756 1.0977-1.98756 0-1.98756-1.0977-1.0977-1.98756 0-1.98756 1.0977-1.98756 1.98756-1.0977 1.98756 0ZM0 0"/>
<path transform="matrix(1.00009,0,0,-1.00002,15.791069,149.41674)" d="M121.06345 0C121.06345 1.0977 120.17358 1.98756 119.07587 1.98756 117.97816 1.98756 117.0883 1.0977 117.0883 0 117.0883-1.0977 117.97816-1.98756 119.07587-1.98756 120.17358-1.98756 121.06345-1.0977 121.06345 0ZM119.07587 0"/>
<path transform="matrix(1.00009,0,0,-1.00002,15.791069,149.41674)" d="M82.36368 44.65343C82.36368 45.75114 81.47382 46.641 80.3761 46.641 79.2784 46.641 78.38853 45.75114 78.38853 44.65343 78.38853 43.55573 79.2784 42.66586 80.3761 42.66586 81.47382 42.66586 82.36368 43.55573 82.36368 44.65343ZM80.3761 44.65343"/>
<path transform="matrix(1.00009,0,0,-1.00002,15.791069,149.41674)" d="M1.98756 89.3069C1.98756 90.4046 1.0977 91.29446 0 91.29446-1.0977 91.29446-1.98756 90.4046-1.98756 89.3069-1.98756 88.2092-1.0977 87.31934 0 87.31934 1.0977 87.31934 1.98756 88.2092 1.98756 89.3069ZM0 89.3069"/>
<path transform="matrix(1.00009,0,0,-1.00002,15.791069,149.41674)" d="M121.06345 89.3069C121.06345 90.4046 120.17358 91.29446 119.07587 91.29446 117.97816 91.29446 117.0883 90.4046 117.0883 89.3069 117.0883 88.2092 117.97816 87.31934 119.07587 87.31934 120.17358 87.31934 121.06345 88.2092 121.06345 89.3069ZM119.07587 89.3069"/>
<path transform="matrix(1.00009,0,0,-1.00002,15.791069,149.41674)" d="M82.36368 133.96038C82.36368 135.05808 81.47382 135.94794 80.3761 135.94794 79.2784 135.94794 78.38853 135.05808 78.38853 133.96038 78.38853 132.86267 79.2784 131.97281 80.3761 131.97281 81.47382 131.97281 82.36368 132.86267 82.36368 133.96038ZM80.3761 133.96038"/>
<use data-text="v" xlink:href="#font_1_3" transform="matrix(8.967207,0,0,-8.966579,1.2177582,160.67395)"/>
<use data-text="&#x2212;" xlink:href="#font_2_1" transform="matrix(5.978138,0,0,-5.97772,6.0161898,156.75589)"/>
<use data-text="0" xlink:href="#font_3_2" transform="matrix(5.978138,0,0,-5.97772,5.6941606,162.952)"/>
<use data-text="v" xlink:href="#font_1_3" transform="matrix(8.967207,0,0,-8.966579,138.3981,160.67395)"/>
<use data-text="&#x2212;" xlink:href="#font_2_1" transform="matrix(5.978138,0,0,-5.97772,143.19654,156.75589)"/>
<use data-text="1" xlink:href="#font_3_3" transform="matrix(5.978138,0,0,-5.97772,142.87451,162.952)"/>
<use data-text="v" xlink:href="#font_1_3" transform="matrix(8.967207,0,0,-8.966579,101.6868,107.4919)"/>
<use data-text="&#x2212;" xlink:href="#font_2_1" transform="matrix(5.978138,0,0,-5.97772,106.48523,103.57382)"/>
<use data-text="2" xlink:href="#font_3_4" transform="matrix(5.978138,0,0,-5.97772,106.1632,109.76994)"/>
<use data-text="v" xlink:href="#font_1_3" transform="matrix(8.967207,0,0,-8.966579,1.3837738,54.309823)"/>
<use data-text="+" xlink:href="#font_3_1" transform="matrix(5.978138,0,0,-5.97772,6.182205,50.391748)"/>
<use data-text="0" xlink:href="#font_3_2" transform="matrix(5.978138,0,0,-5.97772,5.860176,56.587869)"/>
<use data-text="v" xlink:href="#font_1_3" transform="matrix(8.967207,0,0,-8.966579,138.3981,54.309823)"/>
<use data-text="+" xlink:href="#font_3_1" transform="matrix(5.978138,0,0,-5.97772,143.19654,50.391748)"/>
<use data-text="1" xlink:href="#font_3_3" transform="matrix(5.978138,0,0,-5.97772,142.87451,56.587869)"/>
<use data-text="v" xlink:href="#font_1_3" transform="matrix(8.967207,0,0,-8.966579,90.73081,9.655945)"/>
<use data-text="+" xlink:href="#font_3_1" transform="matrix(5.978138,0,0,-5.97772,95.52924,5.7378695)"/>
<use data-text="2" xlink:href="#font_3_4" transform="matrix(5.978138,0,0,-5.97772,95.207218,11.9339909)"/>
<path transform="matrix(1.00009,0,0,-1.00002,15.791069,149.41674)" stroke-width="1.19553" stroke-linecap="round" stroke-linejoin="round" fill="none" stroke="#0000b3" d="M166.67989 101.1982H184.53859"/>
<use data-text="&#x03c4;" xlink:href="#font_1_1" transform="matrix(8.967207,0,0,-8.966579,206.84326,50.946763)"/>
<use data-text="0" xlink:href="#font_3_2" transform="matrix(5.978138,0,0,-5.97772,210.90064,51.94278)"/>
<use data-text="&#x2229;" xlink:href="#font_4_1" transform="matrix(8.967207,0,0,-8.966579,217.10019,50.946763)"/>
<use data-text="&#x03c4;" xlink:href="#font_1_1" transform="matrix(8.967207,0,0,-8.966579,225.29193,50.946763)"/>
<use data-text="1" xlink:href="#font_3_3" transform="matrix(5.978138,0,0,-5.97772,229.34929,51.94278)"/>
<use data-text="=" xlink:href="#font_5_1" transform="matrix(8.967207,0,0,-8.966579,236.0609,50.946763)"/>
<use data-text="[" xlink:href="#font_5_2" transform="matrix(8.967207,0,0,-8.966579,245.78134,50.946763)"/>
<use data-text="v" xlink:href="#font_1_3" transform="matrix(8.967207,0,0,-8.966579,248.349,50.946763)"/>
<use data-text="&#x2212;" xlink:href="#font_2_1" transform="matrix(5.978138,0,0,-5.97772,253.14745,47.028688)"/>
<use data-text="0" xlink:href="#font_3_2" transform="matrix(5.978138,0,0,-5.97772,252.82541,53.224809)"/>
<use data-text="," xlink:href="#font_1_2" transform="matrix(8.967207,0,0,-8.966579,259.40199,50.946763)"/>
<use data-text="v" xlink:href="#font_1_3" transform="matrix(8.967207,0,0,-8.966579,263.49104,50.946763)"/>
<use data-text="+" xlink:href="#font_3_1" transform="matrix(5.978138,0,0,-5.97772,268.2968,47.028688)"/>
<use data-text="1" xlink:href="#font_3_3" transform="matrix(5.978138,0,0,-5.97772,267.97477,53.224809)"/>
<use data-text="," xlink:href="#font_1_2" transform="matrix(8.967207,0,0,-8.966579,274.38536,50.946763)"/>
<use data-text="v" xlink:href="#font_1_3" transform="matrix(8.967207,0,0,-8.966579,278.47438,50.946763)"/>
<use data-text="+" xlink:href="#font_3_1" transform="matrix(5.978138,0,0,-5.97772,283.28016,47.028688)"/>
<use data-text="2" xlink:href="#font_3_4" transform="matrix(5.978138,0,0,-5.97772,282.9581,53.224809)"/>
<use data-text="]" xlink:href="#font_5_3" transform="matrix(8.967207,0,0,-8.966579,289.36869,50.946763)"/>
<path transform="matrix(1.00009,0,0,-1.00002,15.791069,149.41674)" stroke-width="1.19553" stroke-linecap="round" stroke-linejoin="round" fill="none" stroke="#600060" d="M166.67989 80.36331H184.53859"/>
<use data-text="s" xlink:href="#font_6_98" transform="matrix(8.967207,0,0,-8.966579,206.84326,71.78117)"/>
<use data-text="h" xlink:href="#font_6_63" transform="matrix(8.967207,0,0,-8.966579,210.47499,71.78117)"/>
<use data-text="a" xlink:href="#font_6_28" transform="matrix(8.967207,0,0,-8.966579,215.59526,71.78117)"/>
<use data-text="r" xlink:href="#font_6_96" transform="matrix(8.967207,0,0,-8.966579,220.2044,71.78117)"/>
<use data-text="e" xlink:href="#font_6_50" transform="matrix(8.967207,0,0,-8.966579,223.80922,71.78117)"/>
<use data-text="d" xlink:href="#font_6_47" transform="matrix(8.967207,0,0,-8.966579,227.90723,71.78117)"/>
<use data-text="e" xlink:href="#font_6_50" transform="matrix(8.967207,0,0,-8.966579,236.10326,71.78117)"/>
<use data-text="d" xlink:href="#font_6_47" transform="matrix(8.967207,0,0,-8.966579,240.20127,71.78117)"/>
<use data-text="g" xlink:href="#font_6_59" transform="matrix(8.967207,0,0,-8.966579,245.32154,71.78117)"/>
<use data-text="e" xlink:href="#font_6_50" transform="matrix(8.967207,0,0,-8.966579,249.9307,71.78117)"/>
<use data-text="v" xlink:href="#font_1_3" transform="matrix(8.967207,0,0,-8.966579,257.1048,71.78117)"/>
<use data-text="&#x2212;" xlink:href="#font_2_1" transform="matrix(5.978138,0,0,-5.97772,261.90324,67.8631)"/>
<use data-text="0" xlink:href="#font_3_2" transform="matrix(5.978138,0,0,-5.97772,261.58119,74.05922)"/>
<use data-text="v" xlink:href="#font_1_3" transform="matrix(8.967207,0,0,-8.966579,268.15779,71.78117)"/>
<use data-text="+" xlink:href="#font_3_1" transform="matrix(5.978138,0,0,-5.97772,272.95625,67.8631)"/>
<use data-text="2" xlink:href="#font_3_4" transform="matrix(5.978138,0,0,-5.97772,272.63423,74.05922)"/>
<path transform="matrix(1.00009,0,0,-1.00002,15.791069,149.41674)" stroke-width="1.19553" stroke-linecap="round" stroke-linejoin="round" fill="none" stroke="#d96c00" d="M166.67989 59.52843H184.53859"/>
<use data-text="&#x03c4;" xlink:href="#font_1_1" transform="matrix(8.967207,0,0,-8.966579,206.84326,92.61659)"/>
<use data-text="1" xlink:href="#font_3_3" transform="matrix(5.978138,0,0,-5.97772,210.90064,93.61261)"/>
<use data-text="&#x2229;" xlink:href="#font_4_1" transform="matrix(8.967207,0,0,-8.966579,217.10019,92.61659)"/>
<use data-text="&#x03c4;" xlink:href="#font_1_1" transform="matrix(8.967207,0,0,-8.966579,225.29193,92.61659)"/>
<use data-text="2" xlink:href="#font_3_4" transform="matrix(5.978138,0,0,-5.97772,229.34929,93.61261)"/>
<use data-text="=" xlink:href="#font_5_1" transform="matrix(8.967207,0,0,-8.966579,236.0609,92.61659)"/>
<use data-text="[" xlink:href="#font_5_2" transform="matrix(8.967207,0,0,-8.966579,245.78134,92.61659)"/>
<use data-text="v" xlink:href="#font_1_3" transform="matrix(8.967207,0,0,-8.966579,248.349,92.61659)"/>
<use data-text="&#x2212;" xlink:href="#font_2_1" transform="matrix(5.978138,0,0,-5.97772,253.14745,88.69852)"/>
<use data-text="0" xlink:href="#font_3_2" transform="matrix(5.978138,0,0,-5.97772,252.82541,94.89464)"/>
<use data-text="," xlink:href="#font_1_2" transform="matrix(8.967207,0,0,-8.966579,259.40199,92.61659)"/>
<use data-text="v" xlink:href="#font_1_3" transform="matrix(8.967207,0,0,-8.966579,263.49104,92.61659)"/>
<use data-text="&#x2212;" xlink:href="#font_2_1" transform="matrix(5.978138,0,0,-5.97772,268.2968,88.69852)"/>
<use data-text="1" xlink:href="#font_3_3" transform="matrix(5.978138,0,0,-5.97772,267.97477,94.89464)"/>
<use data-text="," xlink:href="#font_1_2" transform="matrix(8.967207,0,0,-8.966579,274.55137,92.61659)"/>
<use data-text="v" xlink:href="#font_1_3" transform="matrix(8.967207,0,0,-8.966579,278.64039,92.61659)"/>
<use data-text="+" xlink:href="#font_3_1" transform="matrix(5.978138,0,0,-5.97772,283.44618,88.69852)"/>
<use data-text="2" xlink:href="#font_3_4" transform="matrix(5.978138,0,0,-5.97772,283.1241,94.89464)"/>
<use data-text="]" xlink:href="#font_5_3" transform="matrix(8.967207,0,0,-8.966579,289.5347,92.61659)"/>
</svg>
