<svg xmlns="http://www.w3.org/2000/svg" xmlns:xlink="http://www.w3.org/1999/xlink" xmlns:inkscape="http://www.inkscape.org/namespaces/inkscape" version="1.1" width="159" height="47" viewBox="0 0 159 47">
<defs>
<path id="font_1_1" d="M.37399293 .6046295C.3829956 .64060977 .38598634 .6516113 .47999574 .6516113 .5099945 .6516113 .5179901 .6516113 .5179901 .6706085 .5179901 .6826172 .5069885 .6826172 .5019989 .6826172 .46899415 .6826172 .3869934 .6796112 .35398866 .6796112 .32398988 .6796112 .25099183 .6826172 .22099304 .6826172 .21398926 .6826172 .20199585 .6826172 .20199585 .6626129 .20199585 .6516113 .21099854 .6516113 .22999573 .6516113 .23199463 .6516113 .25099183 .6516113 .2679901 .6496124 .28599549 .6476135 .29499818 .64660647 .29499818 .6336212 .29499818 .6296234 .2939911 .62661746 .29100038 .614624L.15699768 .07795715C.14698792 .038986207 .14498902 .0309906 .06599426 .0309906 .04899597 .0309906 .038986207 .0309906 .038986207 .010986328 .038986207 0 .04798889 0 .06599426 0H.5289917C.5529938 0 .55400088 0 .55999758 .016998291L.6389923 .23286438C.6429901 .24386597 .6429901 .24586487 .6429901 .24685669 .6429901 .2508545 .6399994 .25785829 .6309967 .25785829 .621994 .25785829 .62098696 .2528534 .6139984 .23686219 .5799866 .14492798 .5359955 .0309906 .36299134 .0309906H.2689972C.25498963 .0309906 .25299073 .0309906 .24699402 .03199768 .23699951 .032989503 .23399353 .033996583 .23399353 .041992189 .23399353 .04498291 .23399353 .04698181 .23899842 .064971927L.37399293 .6046295Z"/>
<path id="font_1_2" d="M.375 .6136017C.3809967 .63760378 .38398744 .6476135 .40299989 .65060427 .4119873 .6516113 .44400025 .6516113 .46398927 .6516113 .5349884 .6516113 .6459961 .6516113 .6459961 .5525818 .6459961 .51856997 .6299896 .44955445 .59098818 .41055299 .5649872 .38453675 .5119934 .35253907 .42199708 .35253907H.30999757L.375 .6136017M.5189972 .33953858C.6199951 .3615265 .7389984 .43154908 .7389984 .5325775 .7389984 .61860659 .6489868 .6826172 .5179901 .6826172H.23298645C.21299744 .6826172 .20399475 .6826172 .20399475 .6626129 .20399475 .6516113 .21299744 .6516113 .23199463 .6516113 .23399353 .6516113 .25299073 .6516113 .269989 .6496124 .28799439 .6476135 .29699708 .64660647 .29699708 .63360598 .29699708 .62960818 .29599 .6266022 .29299928 .6145935L.15899658 .07752991C.14898682 .038528444 .14698792 .030532837 .067993167 .030532837 .049987794 .030532837 .040985109 .030532837 .040985109 .010528564 .040985109-.00047302247 .052993776-.00047302247 .054992677-.00047302247 .08299255-.00047302247 .15299988 .002532959 .18099976 .002532959 .20899964 .002532959 .27999879-.00047302247 .30799867-.00047302247 .31599427-.00047302247 .32798768-.00047302247 .32798768 .01953125 .32798768 .030532837 .31900025 .030532837 .2999878 .030532837 .2630005 .030532837 .23498535 .030532837 .23498535 .048538209 .23498535 .054534913 .23699951 .059524537 .23799134 .0655365L.3039856 .3305359H.4229889C.5139923 .3305359 .5319977 .27453614 .5319977 .23953247 .5319977 .22453308 .5239868 .19352722 .5179901 .17053223 .5109863 .14253235 .5019989 .105529788 .5019989 .08552551 .5019989-.022460938 .621994-.022460938 .6349945-.022460938 .7200012-.022460938 .7549896 .07853699 .7549896 .0925293 .7549896 .104537967 .74398806 .104537967 .7429962 .104537967 .73399356 .104537967 .7319946 .09753418 .7299957 .090530399 .7049866 .016525269 .6619873-.00047302247 .6389923-.00047302247 .60598757-.00047302247 .598999 .021530152 .598999 .060531618 .598999 .091537479 .6049957 .14253235 .60899356 .17453003 .61099246 .1885376 .61299136 .20753479 .61299136 .2215271 .61299136 .2985382 .54599 .3295288 .5189972 .33953858Z"/>
<path id="font_2_3" d="M.4119873 .600708C.42099 .63668826 .42399598 .64668276 .5159912 .64668276 .5469971 .64668276 .5569916 .64668276 .5569916 .6686859 .5569916 .66967776 .55599978 .6826782 .5399933 .6826782 .5169983 .6826782 .48999024 .6806793 .46598817 .6796875 .44099427 .6786804 .41099549 .6786804 .38598634 .6786804 .36499024 .6786804 .33799745 .6796875 .31698609 .6796875 .29599 .6796875 .27198792 .6826782 .2519989 .6826782 .24598694 .6826782 .23098755 .6826782 .23098755 .66067507 .23098755 .64668276 .24299622 .64668276 .2630005 .64668276 .2639923 .64668276 .2829895 .64668276 .30099488 .64468386 .32199098 .64268496 .32398988 .64068606 .32398988 .6306915 .32398988 .6286926 .32398988 .623703 .31999208 .6087036L.18699646 .07797241C.17799378 .04399109 .17599488 .035995485 .09899902 .035995485 .08198547 .035995485 .068984989 .035995485 .068984989 .01499939 .068984989 0 .08099365 0 .09899902 0H.60198977C.6269989 0 .6279907 .0009918213 .6359863 .019989014 .6459961 .04698181 .72099307 .2408905 .72099307 .24888611 .72099307 .25187684 .71899417 .26287843 .70399478 .26287843 .69200137 .26287843 .6899872 .25787355 .6839905 .24188233 .6459961 .14694214 .60198977 .035995485 .4189911 .035995485H.30599977C.2749939 .035995485 .27398683 .036987306 .27398683 .04598999 .27398683 .04698181 .27398683 .051986696 .27799989 .066970828L.4119873 .600708Z"/>
<path id="font_2_1" d="M.5589905 .27233888C.56599429 .300354 .5669861 .3043518 .5669861 .32736207 .5669861 .34336854 .5669861 .38539125 .5299988 .4143982 .5130005 .42739869 .48399354 .44140626 .43699647 .44140626 .394989 .44140626 .33299256 .43040467 .2679901 .35136415 .26098634 .4263916 .19299317 .44140626 .1619873 .44140626 .12298584 .44140626 .09899902 .41540528 .08299255 .38838197 .06298828 .35437013 .04699707 .29434205 .04699707 .28834535 .04699707 .2753296 .06098938 .2753296 .06399536 .2753296 .07798767 .2753296 .07899475 .27833558 .085998538 .30534364 .100997928 .3633728 .11999512 .4133911 .15899658 .4133911 .18499756 .4133911 .19198609 .39138795 .19198609 .36437989 .19198609 .34536744 .18299866 .3083496 .17599488 .28134156 .16899109 .2543335 .15899658 .21330261 .1539917 .19129944L.12199402 .06324768C.117996219 .050231935 .11199951 .025222779 .11199951 .022216797 .11199951 .00021362305 .12998963-.009796143 .1459961-.009796143 .1639862-.009796143 .17999268 .0032196046 .18499756 .01222229 .18998719 .021224976 .19799805 .053237916 .20298767 .07424927 .20799256 .09324646 .21899414 .13926697 .22499085 .16429138 .23098755 .18629456 .23699951 .20829773 .24198914 .23132324 .25299073 .27433778 .25299073 .27633668 .272995 .30734254 .30499269 .35636903 .35499574 .4133911 .43299867 .4133911 .4889984 .4133911 .49198915 .3673706 .49198915 .34336854 .49198915 .31636048 .48999024 .30734254 .4850006 .28834535L.37199403-.16085816C.36799623-.1758728 .36799623-.18086243 .36799623-.1818695 .36799623-.20387268 .38598634-.21386719 .4019928-.21386719 .43798829-.21386719 .44699098-.1798706 .44999696-.16586304L.5589905 .27233888Z"/>
<path id="font_3_2" d="M.21099854 .6168213C.21099854 .645813 .18699646 .6738281 .15299988 .6738281 .12298584 .6738281 .09599304 .64982607 .09599304 .6168213 .09599304 .5808258 .125 .55882266 .15299988 .55882266 .18499756 .55882266 .21099854 .5838165 .21099854 .6168213M.05899048 .43040467V.39439393C.12199402 .39439393 .1309967 .38839723 .1309967 .3393402V.07904053C.1309967 .035995485 .12098694 .035995485 .055999757 .035995485V0C.057998659 0 .12799073 .0039978029 .16799927 .0039978029 .20298767 .0039978029 .23899842 .0029907227 .27398683 0V.035995485C.21598816 .035995485 .20599365 .035995485 .20599365 .07803345V.44140626L.05899048 .43040467Z"/>
<path id="font_3_1" d="M.35598756 .68333438V.6473236C.4229889 .6473236 .43099977 .6403351 .43099977 .59135439V.38438417C.3939972 .4203949 .34599305 .44140626 .29100038 .44140626 .1579895 .44140626 .04598999 .34136964 .04598999 .21531677 .04598999 .09025574 .1519928-.009765625 .2789917-.009765625 .36099244-.009765625 .4099884 .034240724 .4269867 .052246095V-.009765625L.58099368 .00022888184V.036239625C.5139923 .036239625 .5059967 .04324341 .5059967 .09225464V.69433596L.35598756 .68333438M.4269867 .105270389C.40098573 .058242799 .34999085 .018234253 .2849884 .018234253 .22898865 .018234253 .18899536 .051239015 .16899109 .08026123 .14898682 .11026001 .13699341 .15028382 .13699341 .21430969 .13699341 .23731995 .13699341 .3123474 .17799378 .359375 .21798706 .40438844 .2669983 .4133911 .29599 .4133911 .34399415 .4133911 .3869934 .39138795 .4149933 .3553772 .4269867 .33937074 .4269867 .33836366 .4269867 .3193512V.105270389Z"/>
<path id="font_4_1" d="M.47698976 .597641C.48298646 .6226196 .4889984 .63061526 .5139923 .6336212 .5419922 .637619 .56199648 .637619 .58898928 .637619 .61898806 .637619 .6319885 .637619 .6319885 .66560366 .6319885 .6766052 .6239929 .6826172 .61299136 .6826172 .58699038 .6826172 .5589905 .6796112 .5329895 .6796112 .5049896 .6796112 .47799684 .6786041 .44999696 .6786041 .42399598 .6786041 .397995 .6796112 .37298585 .6796112 .34999085 .6796112 .32398988 .6826172 .3019867 .6826172 .29499818 .6826172 .2769928 .6826172 .2769928 .65460208 .2769928 .637619 .2899933 .637619 .31399537 .637619 .32398988 .637619 .35699464 .637619 .37799073 .6316223 .37799073 .6196289 .37799073 .61763 .375 .6066284L.24398804 .082962039C.23599243 .052993776 .23498535 .04499817 .15899658 .04499817 .1329956 .04499817 .116989139 .04499817 .116989139 .016998291 .116989139 0 .1329956 0 .1499939 0H.71699526C.7429962 0 .74398806 .0009918213 .7529907 .022994996 .7630005 .04899597 .84199526 .24885559 .84199526 .2548523 .84199526 .26185609 .83699038 .2718506 .82099917 .2718506 .80599978 .2718506 .8049927 .2688446 .7939911 .24285889 .7409973 .11494446 .6769867 .04499817 .5119934 .04499817H.37298585C.36499024 .04499817 .35099793 .04499817 .34098817 .04699707 .34199525 .054992677 .34199525 .056991579 .34399415 .064971927L.47698976 .597641Z"/>
<path id="font_5_1" d="M.44099427 .7259979C.44099427 .72698977 .44400025 .73098757 .44400025 .73599246 .44400025 .73999026 .44198609 .75 .4269867 .75 .40699769 .75 .1499939 .58999636 .1499939 .25 .1499939-.08900452 .40699769-.25 .4269867-.25 .44198609-.25 .44400025-.2400055 .44400025-.23600769 .44400025-.2290039 .43998719-.22601319 .43598939-.2230072 .25898744-.08200073 .22698975 .12098694 .22698975 .25 .22698975 .49499513 .33999635 .6559906 .44099427 .7259979Z"/>
<path id="font_6_1" d="M.8799896 .2223053C.8959961 .2223053 .9229889 .2223053 .9229889 .25030519 .9229889 .2783203 .8959961 .2783203 .8799896 .2783203H.20298767C.18699646 .2783203 .1599884 .2783203 .1599884 .25030519 .1599884 .2223053 .18699646 .2223053 .20298767 .2223053H.8799896Z"/>
<path id="font_5_2" d="M.3909912 .25C.3909912 .58898928 .13398743 .75 .11399841 .75 .09799194 .75 .09799194 .73799136 .09799194 .73599246 .09799194 .73498538 .09799194 .72898867 .10398865 .72299197 .2539978 .60398867 .31399537 .42999269 .31399537 .25 .31399537 .1599884 .29699708 .06599426 .2630005-.01600647 .21499634-.13000489 .1519928-.18501282 .102996829-.2250061 .099990848-.227005 .09799194-.23200989 .09799194-.23600769 .09799194-.23800659 .09799194-.25 .11399841-.25 .13398743-.25 .3909912-.0900116 .3909912 .25Z"/>
<path id="font_2_2" d="M.1659851 .22332764C.20399475 .20831299 .23399353 .20831299 .2630005 .20831299 .29499818 .20831299 .35398866 .20831299 .35398866 .24537659 .35398866 .27238465 .31599427 .27638246 .272995 .27638246 .25898744 .27638246 .21598816 .27638246 .16699219 .25637818 .14399719 .26737977 .1289978 .2863617 .1289978 .3083191 .1289978 .3622284 .22599793 .39616395 .32699586 .39616395 .34298707 .39616395 .38598634 .39616395 .43099977 .36820985 .43699647 .3642273 .44299317 .35923768 .45098878 .35923768 .46499635 .35923768 .48298646 .37420655 .48298646 .39117433 .48298646 .41116334 .44999696 .4251709 .43099977 .4331665 .3880005 .45117188 .35299684 .45117188 .33799745 .45117188 .21598816 .45117188 .09498596 .3871765 .09498596 .30732728 .09498596 .26638795 .1329956 .24034119 .13398743 .2393341 .09700012 .21731568 .04699707 .1733551 .04699707 .11039734 .04699707 .037460329 .11898804-.01953125 .22999573-.01953125 .38198854-.01953125 .43598939 .07043457 .43598939 .08642578 .43598939 .09341431 .42999269 .09941101 .42199708 .09941101 .41600038 .09941101 .41299439 .09541321 .4099884 .091415408 .3849945 .052444459 .35198976 .035461427 .24598694 .035461427 .22099304 .035461427 .17399597 .035461427 .13798523 .049453737 .09799194 .064437869 .08099365 .091415408 .08099365 .11639404 .08099365 .13937378 .09799194 .18833924 .1659851 .22332764M.20999146 .24034119C.22099304 .24336243 .24099732 .24838257 .2709961 .24838257 .29299928 .24838257 .2979889 .24737549 .31799317 .24336243 .30299378 .23731995 .2999878 .23632813 .2630005 .23632813 .24798584 .23632813 .22799683 .23632813 .20999146 .24034119Z"/>
<path id="font_4_2" d="M.47698976 .60458377C.4850006 .63560488 .4850006 .63760378 .5269928 .63760378H.6409912C.7529907 .63760378 .8279877 .6105957 .8279877 .5315399 .8279877 .48851014 .80400088 .43347169 .7549896 .4004364 .74598696 .39544679 .68899539 .3584137 .56900027 .3584137H.4149933L.47698976 .60458377M.71099856 .34040834C.82398989 .36842347 .94099429 .4324646 .94099429 .52352908 .94099429 .6145935 .81799319 .6826172 .6599884 .6826172H.31399537C.2939911 .6826172 .2789917 .6826172 .2789917 .65460208 .2789917 .63760378 .29100038 .63760378 .31599427 .63760378 .32598878 .63760378 .35899354 .63760378 .37998963 .63160708 .37998963 .6195984 .37998963 .6175995 .3769989 .60658267L.24598694 .08291626C.23799134 .052978517 .23699951 .04498291 .1599884 .04498291 .1349945 .04498291 .11898804 .04498291 .11898804 .016998291 .11898804 .008987427 .12599182 0 .13699341 0 .1579895 0 .18199158 .0029907227 .20399475 .0029907227 .22799683 .0029907227 .2519989 .0039978029 .27598573 .0039978029 .30099488 .0039978029 .32499696 .0029907227 .34999085 .0029907227 .37199403 .0029907227 .39698792 0 .41799928 0 .42399598 0 .44299317 0 .44299317 .027999878 .44299317 .04498291 .42900086 .04498291 .4099884 .04498291 .4079895 .04498291 .38398744 .04498291 .36698915 .04698181 .34199525 .048980714 .34098817 .049972536 .34098817 .05796814 .34098817 .05996704 .34098817 .061950685 .34399415 .07192993L.40699769 .3244171H.5649872C.6380005 .3244171 .70899966 .2984314 .70899966 .2364502 .70899966 .22445679 .69999697 .1904602 .69400027 .16748047 .6879883 .14248657 .6799927 .11048889 .6799927 .09150696 .6799927-.004470825 .7819977-.022460938 .84399417-.022460938 .94299319-.022460938 .98999026 .07350159 .98999026 .09649658 .98999026 .11349487 .97499087 .11349487 .96899417 .11349487 .95399478 .11349487 .95199587 .10749817 .94699099 .09449768 .9299927 .043518068 .8860016 .0115356449 .848999 .0115356449 .82299807 .0115356449 .79499819 .01953125 .79499819 .08351135 .79499819 .10549927 .8029938 .1614685 .80599978 .1864624 .80999758 .2154541 .80999758 .2194519 .80999758 .22544861 .80999758 .30342103 .74198916 .32940675 .71099856 .34040834Z"/>
<path id="font_2_4" d="M.41299439 .6126709C.41999818 .640625 .42199708 .6436157 .44400025 .64660647H.5079956C.6009979 .64660647 .71598818 .64660647 .71598818 .5437927 .71598818 .50286868 .69699099 .43997193 .6499939 .40403749 .60899356 .37208558 .5469971 .35612489 .47799684 .35612489H.34899903L.41299439 .6126709M.59399417 .3401184C.71299746 .36810304 .81900027 .43997193 .81900027 .5288086 .81900027 .6146698 .71699526 .6826172 .57199099 .6826172H.2649994C.24598694 .6826172 .23298645 .6826172 .23298645 .660614 .23298645 .64660647 .24499512 .64660647 .2649994 .64660647 .2659912 .64660647 .2849884 .64660647 .30299378 .64460757 .32398988 .6426239 .32598878 .640625 .32598878 .63064578 .32598878 .62864688 .32598878 .6236572 .32199098 .6086731L.18899536 .07801819C.18099976 .04399109 .1789856 .035995485 .100997928 .035995485 .083999637 .035995485 .070999149 .035995485 .070999149 .01499939 .070999149 .004989624 .07798767 0 .08699036 0 .10598755 0 .1289978 .0029907227 .14898682 .0029907227 .16799927 .0029907227 .19699097 .0039978029 .21499634 .0039978029 .23498535 .0039978029 .2579956 .0029907227 .2789917 .0029907227 .2999878 .0029907227 .32499696 0 .34599305 0 .35099793 0 .36698915 0 .36698915 .020996094 .36698915 .035995485 .35699464 .035995485 .33399964 .035995485 .31799317 .035995485 .31399537 .035995485 .29599 .037994386 .27398683 .041000368 .27398683 .042999269 .27398683 .052993776 .27398683 .054000856 .27398683 .05999756 .27799989 .07501221L.34098817 .328125H.47698976C.5629883 .328125 .59999087 .2851715 .59999087 .23822022 .59999087 .22523499 .59098818 .19126892 .58599856 .16828919 .57398989 .12234497 .56999209 .10736084 .56999209 .09037781 .56999209 .011459351 .6429901-.01953125 .71699526-.01953125 .8089905-.01953125 .848999 .0783844 .848999 .09637451 .848999 .099365238 .8470001 .11035156 .83200076 .11035156 .81900027 .11035156 .81700137 .10336304 .81399539 .09336853 .7999878 .049423219 .7630005 .008468628 .72099307 .008468628 .69499209 .008468628 .6759949 .019454956 .6759949 .073394779 .6759949 .098358158 .6819916 .15031433 .6859894 .17727661 .6899872 .20425415 .6899872 .2142334 .6899872 .2242279 .6899872 .23622132 .6899872 .26818849 .6619873 .29815675 .6429901 .3191223 .6159973 .3321228 .59399417 .3401184Z"/>
</defs>
<use data-text="L" xlink:href="#font_1_1" transform="matrix(9.963098,0,0,-9.963098,1.1903534,12.704933)"/>
<use data-text="L" xlink:href="#font_1_1" transform="matrix(9.963098,0,0,-9.963098,40.470308,12.704933)"/>
<use data-text="R" xlink:href="#font_1_2" transform="matrix(9.963098,0,0,-9.963098,47.24521,12.704933)"/>
<use data-text="L" xlink:href="#font_1_1" transform="matrix(9.963098,0,0,-9.963098,54.876939,12.704933)"/>
<use data-text="R" xlink:href="#font_1_2" transform="matrix(9.963098,0,0,-9.963098,94.17297,12.704933)"/>
<use data-text="R" xlink:href="#font_1_2" transform="matrix(9.963098,0,0,-9.963098,134.31401,12.704933)"/>
<use data-text="L" xlink:href="#font_1_1" transform="matrix(9.963098,0,0,-9.963098,141.94573,12.704933)"/>
<use data-text="R" xlink:href="#font_1_2" transform="matrix(9.963098,0,0,-9.963098,148.72063,12.704933)"/>
<use data-text="L" xlink:href="#font_1_1" transform="matrix(9.963098,0,0,-9.963098,47.68167,44.747537)"/>
<use data-text="R" xlink:href="#font_1_2" transform="matrix(9.963098,0,0,-9.963098,141.52536,44.747537)"/>
<path transform="matrix(1.00005,0,0,-1.00005,78.78523,25.322566)" stroke-width="2.33075" stroke-linecap="butt" stroke-miterlimit="10" stroke-linejoin="miter" fill="none" stroke="#000000" d="M-66.31792 15.10707H-44.99527"/>
<path transform="matrix(1.00005,0,0,-1.00005,78.78523,25.322566)" stroke-width="1.53377" stroke-linecap="butt" stroke-miterlimit="10" stroke-linejoin="miter" fill="none" stroke="#ffffff" d="M-66.31792 15.10707H-44.99527"/>
<path transform="matrix(1.00005,0,0,-1.00005,33.787717,10.214741)" stroke-width=".39848" stroke-linecap="round" stroke-linejoin="round" fill="none" stroke="#000000" d="M-1.29459 2.56018C-.66663 1.20764 1.02406 .0483 1.99017 0 1.02406-.0483-.66663-1.20764-1.29459-2.56018"/>
<use data-text="L" xlink:href="#font_2_3" transform="matrix(6.9741489,0,0,-6.9741489,19.310257,6.5126249)"/>
<use data-text="&#x03b7;" xlink:href="#font_2_1" transform="matrix(6.9741489,0,0,-6.9741489,24.771012,6.5126249)"/>
<path transform="matrix(1.00005,0,0,-1.00005,78.78523,25.322566)" stroke-width="2.33075" stroke-linecap="butt" stroke-miterlimit="10" stroke-linejoin="miter" fill="none" stroke="#000000" d="M-66.31792 9.6743-37.3975-10.25966"/>
<path transform="matrix(1.00005,0,0,-1.00005,78.78523,25.322566)" stroke-width="1.53377" stroke-linecap="butt" stroke-miterlimit="10" stroke-linejoin="miter" fill="none" stroke="#ffffff" d="M-66.31792 9.6743-37.3975-10.25966"/>
<path transform="matrix(.8233611,.56751838,.56751838,-.8233611,41.385866,35.582719)" stroke-width=".39848" stroke-linecap="round" stroke-linejoin="round" fill="none" stroke="#000000" d="M-1.29459 2.56018C-.66663 1.20764 1.02406 .0483 1.99017 0 1.02406-.0483-.66663-1.20764-1.29459-2.56018"/>
<use data-text="i" xlink:href="#font_3_2" transform="matrix(6.9741489,0,0,-6.9741489,2.7714387,33.42597)"/>
<use data-text="d" xlink:href="#font_3_1" transform="matrix(6.9741489,0,0,-6.9741489,5.0240938,33.42597)"/>
<use data-text="L" xlink:href="#font_4_1" transform="matrix(4.981549,0,0,-4.981549,9.42778,34.760038)"/>
<use data-text="(" xlink:href="#font_5_1" transform="matrix(4.981549,0,0,-4.981549,14.188019,34.760038)"/>
<use data-text="&#x2212;" xlink:href="#font_6_1" transform="matrix(4.981549,0,0,-4.981549,16.886155,34.760038)"/>
<use data-text=")" xlink:href="#font_5_2" transform="matrix(4.981549,0,0,-4.981549,22.28241,34.760038)"/>
<path transform="matrix(1.00005,0,0,-1.00005,78.78523,25.322566)" stroke-width="2.33075" stroke-linecap="butt" stroke-miterlimit="10" stroke-linejoin="miter" fill="none" stroke="#000000" d="M-27.71162 8.76724V-6.57784"/>
<path transform="matrix(1.00005,0,0,-1.00005,78.78523,25.322566)" stroke-width="1.53377" stroke-linecap="butt" stroke-miterlimit="10" stroke-linejoin="miter" fill="none" stroke="#ffffff" d="M-27.71162 8.76724V-6.57784"/>
<path transform="matrix(0,1.00005,1.00005,0,51.072229,31.900734)" stroke-width=".39848" stroke-linecap="round" stroke-linejoin="round" fill="none" stroke="#000000" d="M-1.29459 2.56018C-.66663 1.20764 1.02406 .0483 1.99017 0 1.02406-.0483-.66663-1.20764-1.29459-2.56018"/>
<use data-text="&#x03b5;" xlink:href="#font_2_2" transform="matrix(6.9741489,0,0,-6.9741489,53.41897,25.534577)"/>
<use data-text="L" xlink:href="#font_4_1" transform="matrix(4.981549,0,0,-4.981549,57.183176,26.86864)"/>
<use data-text="(" xlink:href="#font_5_1" transform="matrix(4.981549,0,0,-4.981549,61.943399,26.86864)"/>
<use data-text="&#x2212;" xlink:href="#font_6_1" transform="matrix(4.981549,0,0,-4.981549,64.64153,26.86864)"/>
<use data-text=")" xlink:href="#font_5_2" transform="matrix(4.981549,0,0,-4.981549,70.03881,26.86864)"/>
<path transform="matrix(1.00005,0,0,-1.00005,78.78523,25.322566)" stroke-width="2.33075" stroke-linecap="butt" stroke-miterlimit="10" stroke-linejoin="miter" fill="none" stroke="#000000" d="M27.52266 15.10707H48.84532"/>
<path transform="matrix(1.00005,0,0,-1.00005,78.78523,25.322566)" stroke-width="1.53377" stroke-linecap="butt" stroke-miterlimit="10" stroke-linejoin="miter" fill="none" stroke="#ffffff" d="M27.52266 15.10707H48.84532"/>
<path transform="matrix(1.00005,0,0,-1.00005,127.632999,10.214741)" stroke-width=".39848" stroke-linecap="round" stroke-linejoin="round" fill="none" stroke="#000000" d="M-1.29459 2.56018C-.66663 1.20764 1.02406 .0483 1.99017 0 1.02406-.0483-.66663-1.20764-1.29459-2.56018"/>
<use data-text="&#x03b7;" xlink:href="#font_2_1" transform="matrix(6.9741489,0,0,-6.9741489,107.79768,5.288563)"/>
<use data-text="R" xlink:href="#font_4_2" transform="matrix(4.981549,0,0,-4.981549,111.90289,6.622629)"/>
<use data-text="(" xlink:href="#font_5_1" transform="matrix(4.981549,0,0,-4.981549,117.04115,6.622629)"/>
<use data-text="&#x2212;" xlink:href="#font_6_1" transform="matrix(4.981549,0,0,-4.981549,119.74028,6.622629)"/>
<use data-text=")" xlink:href="#font_5_2" transform="matrix(4.981549,0,0,-4.981549,125.13655,6.622629)"/>
<path transform="matrix(1.00005,0,0,-1.00005,78.78523,25.322566)" stroke-width="2.33075" stroke-linecap="butt" stroke-miterlimit="10" stroke-linejoin="miter" fill="none" stroke="#000000" d="M27.52266 9.4824 56.43254-10.08447"/>
<path transform="matrix(1.00005,0,0,-1.00005,78.78523,25.322566)" stroke-width="1.53377" stroke-linecap="butt" stroke-miterlimit="10" stroke-linejoin="miter" fill="none" stroke="#ffffff" d="M27.52266 9.4824 56.43254-10.08447"/>
<path transform="matrix(.8281714,.560498,.560498,-.8281714,135.2206,35.407529)" stroke-width=".39848" stroke-linecap="round" stroke-linejoin="round" fill="none" stroke="#000000" d="M-1.29459 2.56018C-.66663 1.20764 1.02406 .0483 1.99017 0 1.02406-.0483-.66663-1.20764-1.29459-2.56018"/>
<use data-text="i" xlink:href="#font_3_2" transform="matrix(6.9741489,0,0,-6.9741489,96.238109,33.42697)"/>
<use data-text="d" xlink:href="#font_3_1" transform="matrix(6.9741489,0,0,-6.9741489,98.49076,33.42697)"/>
<use data-text="R" xlink:href="#font_4_2" transform="matrix(4.981549,0,0,-4.981549,102.89445,34.761037)"/>
<use data-text="(" xlink:href="#font_5_1" transform="matrix(4.981549,0,0,-4.981549,108.03271,34.761037)"/>
<use data-text="&#x2212;" xlink:href="#font_6_1" transform="matrix(4.981549,0,0,-4.981549,110.73185,34.761037)"/>
<use data-text=")" xlink:href="#font_5_2" transform="matrix(4.981549,0,0,-4.981549,116.12812,34.761037)"/>
<path transform="matrix(1.00005,0,0,-1.00005,78.78523,25.322566)" stroke-width="2.33075" stroke-linecap="butt" stroke-miterlimit="10" stroke-linejoin="miter" fill="none" stroke="#000000" d="M66.55965 8.76724V-6.57784"/>
<path transform="matrix(1.00005,0,0,-1.00005,78.78523,25.322566)" stroke-width="1.53377" stroke-linecap="butt" stroke-miterlimit="10" stroke-linejoin="miter" fill="none" stroke="#ffffff" d="M66.55965 8.76724V-6.57784"/>
<path transform="matrix(0,1.00005,1.00005,0,145.3482,31.900734)" stroke-width=".39848" stroke-linecap="round" stroke-linejoin="round" fill="none" stroke="#000000" d="M-1.29459 2.56018C-.66663 1.20764 1.02406 .0483 1.99017 0 1.02406-.0483-.66663-1.20764-1.29459-2.56018"/>
<use data-text="R" xlink:href="#font_2_4" transform="matrix(6.9741489,0,0,-6.9741489,147.69467,27.705685)"/>
<use data-text="&#x03b5;" xlink:href="#font_2_2" transform="matrix(6.9741489,0,0,-6.9741489,153.72731,27.705685)"/>
</svg>
