<svg xmlns="http://www.w3.org/2000/svg" xmlns:xlink="http://www.w3.org/1999/xlink" xmlns:inkscape="http://www.inkscape.org/namespaces/inkscape" version="1.1" width="202" height="98" viewBox="0 0 202 98">
<defs>
<path id="font_1_5" d="M.644989 .69506838C.644989 .69807437 .6429901 .7050781 .6339874 .7050781 .6289978 .7050781 .6279907 .70407107 .6159973 .6900635L.56799319 .6330414C.5419922 .68006899 .48999024 .7050781 .4249878 .7050781 .2979889 .7050781 .17799378 .58999636 .17799378 .4689026 .17799378 .38783265 .23098755 .34179688 .28199769 .32678224L.3889923 .2987671C.42599488 .2897644 .48098756 .27474977 .48098756 .19267273 .48098756 .1026001 .39898683 .008529663 .30099488 .008529663 .23699951 .008529663 .12599182 .030548096 .12599182 .15464783 .12599182 .17866516 .1309967 .2026825 .13198853 .20869446 .1329956 .21269226 .13398743 .21369934 .13398743 .21569824 .13398743 .22570801 .1269989 .22669983 .12199402 .22669983 .116989139 .22669983 .114990238 .22570801 .11199951 .22270203 .10798645 .21870423 .051986696-.009475708 .051986696-.012466431 .051986696-.018463135 .056991579-.022460938 .06298828-.022460938 .067993167-.022460938 .068984989-.021469117 .08099365-.007461548L.12998963 .049560548C.17298889-.008468628 .24099732-.022460938 .29899598-.022460938 .43499757-.022460938 .5529938 .11061096 .5529938 .2347107 .5529938 .30377198 .5189972 .33779908 .5039978 .35180665 .48098756 .37483216 .46598817 .37882997 .3769989 .40185548 .35499574 .40785218 .31900025 .41786195 .30999757 .41986085 .2829895 .42886354 .24899292 .457901 .24899292 .51094058 .24899292 .59199526 .32899476 .677063 .42399598 .677063 .5069885 .677063 .56799319 .6340332 .56799319 .52194216 .56799319 .48991395 .56399539 .47190858 .56399539 .4658966 .56399539 .4649048 .56399539 .45588685 .57598879 .45588685 .58599856 .45588685 .58699038 .45889283 .59098818 .47590638L.644989 .69506838Z"/>
<path id="font_2_3" d="M.12199402 .06324768C.117996219 .050247194 .11199951 .025222779 .11199951 .022232056 .11199951 .00022888184 .12998963-.009765625 .1459961-.009765625 .1639862-.009765625 .17999268 .0032196046 .18499756 .01222229 .18998719 .021224976 .19799805 .053237916 .20298767 .07424927 .20799256 .09326172 .21899414 .13928223 .22499085 .16429138 .23098755 .18629456 .23699951 .20831299 .24198914 .23132324 .25299073 .27233888 .25498963 .28033448 .28399659 .32136537 .31199647 .3613739 .35899354 .4133911 .43399049 .4133911 .49198915 .4133911 .49299623 .36238099 .49299623 .34336854 .49299623 .28334046 .44999696 .17228699 .43399049 .13027954 .4229889 .102264408 .4189911 .09326172 .4189911 .07624817 .4189911 .023223877 .46299745-.009765625 .5139923-.009765625 .6139984-.009765625 .6579895 .12828064 .6579895 .14328003 .6579895 .15628052 .644989 .15628052 .6419983 .15628052 .6279907 .15628052 .6269989 .15028382 .6230011 .13928223 .59999087 .059249879 .5569916 .018234253 .5169983 .018234253 .49598695 .018234253 .49198915 .032226564 .49198915 .053237916 .49198915 .07624817 .49699403 .089263919 .5149994 .13427735 .5269928 .1652832 .56799319 .2713318 .56799319 .32736207 .56799319 .4243927 .4909973 .44140626 .43798829 .44140626 .35499574 .44140626 .29899598 .39038087 .2689972 .3503723 .2619934 .41940309 .20298767 .44140626 .1619873 .44140626 .11898804 .44140626 .09599304 .4104004 .08299255 .38739015 .06098938 .3503723 .04699707 .29335023 .04699707 .28834535 .04699707 .27534486 .06098938 .27534486 .06399536 .27534486 .07798767 .27534486 .07899475 .27833558 .085998538 .3053589 .100997928 .36437989 .11999512 .4133911 .15899658 .4133911 .18499756 .4133911 .19198609 .39138795 .19198609 .36437989 .19198609 .34536744 .18299866 .3083496 .17599488 .28134156 .16899109 .2543335 .15899658 .21331787 .1539917 .19129944L.12199402 .06324768Z"/>
<path id="font_3_1" d="M.74398806 .2263794C.7599945 .2263794 .7839966 .2263794 .7839966 .25038148 .7839966 .27539063 .7609863 .27539063 .74398806 .27539063H.147995C.13198853 .27539063 .10798645 .27539063 .10798645 .25138856 .10798645 .2263794 .1309967 .2263794 .147995 .2263794H.74398806Z"/>
<path id="font_4_2" d="M.33499146 .63612368C.33499146 .6630554 .33299256 .6640625 .30499269 .6640625 .24099732 .6014404 .1499939 .6004486 .10899353 .6004486V.5644531C.1329956 .5644531 .19898987 .5644531 .2539978 .592453V.08203125C.2539978 .04899597 .2539978 .035995485 .1539917 .035995485H.115997318V0C.13398743 .0009918213 .25698854 .0039978029 .2939911 .0039978029 .32499696 .0039978029 .45098878 .0009918213 .47299195 0V.035995485H.43499757C.33499146 .035995485 .33499146 .04899597 .33499146 .08203125V.63612368Z"/>
<path id="font_5_1" d="M.3889923 .27801515 .18899536 .47720338C.1769867 .48919679 .1749878 .49121095 .16699219 .49121095 .15699768 .49121095 .14698792 .48220826 .14698792 .47120667 .14698792 .46420289 .14898682 .46218873 .1599884 .45118714L.3600006 .24998474 .1599884 .048797609C.14898682 .03779602 .14698792 .03578186 .14698792 .028778077 .14698792 .01777649 .15699768 .0087890629 .16699219 .0087890629 .1749878 .0087890629 .1769867 .010787964 .18899536 .022781373L.3880005 .2219696 .59498599 .014785767C.5970001 .0137786869 .60398867 .0087890629 .6100006 .0087890629 .621994 .0087890629 .6299896 .01777649 .6299896 .028778077 .6299896 .030776978 .6299896 .03479004 .6269989 .039794923 .6259918 .041793825 .46699525 .19894409 .4169922 .24998474L.59999087 .4331665C.6049957 .43917848 .6199951 .45217896 .625 .45819093 .6259918 .46018983 .6299896 .46420289 .6299896 .47120667 .6299896 .48220826 .621994 .49121095 .6100006 .49121095 .60198977 .49121095 .59799197 .48719789 .58699038 .4761963L.3889923 .27801515Z"/>
<path id="font_6_3" d="M.25498963-.25V-.21000672H.1579895V.70999148H.25498963V.75H.117996219V-.25H.25498963Z"/>
<path id="font_6_1" d="M.45999146 .31976319C.45999146 .39982606 .45498658 .47988893 .41999818 .5539398 .37399293 .65000918 .2919922 .6660156 .25 .6660156 .18998719 .6660156 .116989139 .64001467 .07598877 .54693606 .04399109 .47789 .038986207 .39982606 .038986207 .31976319 .038986207 .24472046 .042999269 .15464783 .083999637 .07859802 .1269989-.0024719239 .19999695-.022460938 .24899292-.022460938 .30299378-.022460938 .3789978-.0014648438 .4229889 .09359741 .45498658 .16265869 .45999146 .2407074 .45999146 .31976319M.24899292-.00047302247C.20999146-.00047302247 .15098572 .024551392 .1329956 .12062073 .12199402 .18066406 .12199402 .2727356 .12199402 .3317871 .12199402 .39582826 .12199402 .46188355 .12998963 .5159149 .14898682 .63500979 .22399903 .64401248 .24899292 .64401248 .28199769 .64401248 .34799195 .6259918 .36698915 .52693179 .3769989 .47088624 .3769989 .39482118 .3769989 .3317871 .3769989 .25672914 .3769989 .18867493 .3659973 .12461853 .35099793 .029556275 .2939911-.00047302247 .24899292-.00047302247Z"/>
<path id="font_1_1" d="M.20298767 .0009918213C.20298767 .066986087 .17799378 .10598755 .13899231 .10598755 .10598755 .10598755 .085998538 .08099365 .085998538 .052993776 .085998538 .025985718 .10598755 0 .13899231 0 .15098572 0 .1639862 .0039978029 .17399597 .0129852299 .1769867 .01499939 .17799378 .015991211 .1789856 .015991211 .17999268 .015991211 .18099976 .01499939 .18099976 .0009918213 .18099976-.07316589 .1459961-.13328552 .11299133-.16635132 .101989749-.17736817 .101989749-.17936707 .101989749-.18237305 .101989749-.18936157 .10699463-.19335938 .11199951-.19335938 .12298584-.19335938 .20298767-.116256717 .20298767 .0009918213Z"/>
<path id="font_6_2" d="M.2939911 .64004519C.2939911 .66400149 .2939911 .6660156 .2709961 .6660156 .20899964 .60227969 .12098694 .60227969 .08898926 .60227969V.57128909C.10899353 .57128909 .16799927 .57128909 .21998596 .5972748V.07902527C.21998596 .042999269 .21699524 .0309906 .1269989 .0309906H.09498596V0C.12998963 .0029907227 .21699524 .0029907227 .25698854 .0029907227 .29699708 .0029907227 .38398744 .0029907227 .4189911 0V.0309906H.3869934C.29699708 .0309906 .2939911 .041992189 .2939911 .07902527V.64004519Z"/>
<path id="font_6_4" d="M.15899658 .75H.021987915V.70999148H.11898804V-.21000672H.021987915V-.25H.15899658V.75Z"/>
<path id="font_1_2" d="M.1789856 .114868167C.13899231 .047973634 .099990848 .033981325 .055999757 .0309906 .04399109 .02999878 .034988405 .02999878 .034988405 .010986328 .034988405 .004989624 .039993287 0 .04798889 0 .07499695 0 .10598755 .0029907227 .13398743 .0029907227 .16699219 .0029907227 .20199585 0 .23399353 0 .23999024 0 .25299073 0 .25299073 .018997193 .25299073 .02999878 .24398804 .0309906 .23699951 .0309906 .21398926 .032989503 .18998719 .04096985 .18998719 .06593323 .18998719 .077926639 .19599915 .088897708 .20399475 .102890018L.27999879 .23068238H.5309906C.5329895 .2097168 .5469971 .07392883 .5469971 .063949588 .5469971 .033981325 .49499513 .0309906 .47499085 .0309906 .46099855 .0309906 .45098878 .0309906 .45098878 .010986328 .45098878 0 .46299745 0 .46499635 0 .5059967 0 .548996 .0029907227 .58999636 .0029907227 .61499026 .0029907227 .6779938 0 .7029877 0 .70899966 0 .72099307 0 .72099307 .019989014 .72099307 .0309906 .71099856 .0309906 .69799807 .0309906 .6359863 .0309906 .6359863 .037979127 .6329956 .06694031L.57199099 .691803C.56999209 .71180728 .56999209 .7158203 .5529938 .7158203 .5369873 .7158203 .5329895 .7088165 .5269928 .69880679L.1789856 .114868167M.29899598 .26168824 .49598695 .5917816 .5279999 .26168824H.29899598Z"/>
<path id="font_1_3" d="M.15899658 .07795715C.14898682 .038986207 .14698792 .0309906 .067993167 .0309906 .050994874 .0309906 .039993287 .0309906 .039993287 .011993408 .039993287 0 .04899597 0 .067993167 0H.39898683C.6069946 0 .80400088 .21087647 .80400088 .42974855 .80400088 .5706482 .71899417 .6826172 .56900027 .6826172H.23298645C.21398926 .6826172 .20298767 .6826172 .20298767 .66360476 .20298767 .6516113 .21199036 .6516113 .23199463 .6516113 .24499512 .6516113 .2630005 .65060427 .2749939 .6496124 .29100038 .6476135 .29699708 .64460757 .29699708 .6336212 .29699708 .6296234 .29599 .62661746 .29299928 .614624L.15899658 .07795715M.375 .6136322C.38398744 .64860537 .38598634 .6516113 .42900086 .6516113H.5359955C.6339874 .6516113 .71699526 .5986328 .71699526 .46672059 .71699526 .41775514 .69699099 .25386048 .6119995 .1439209 .58299258 .10694885 .5039978 .0309906 .3809967 .0309906H.2679901C.2539978 .0309906 .2519989 .0309906 .24598694 .03199768 .23599243 .032989503 .23298645 .033996583 .23298645 .041992189 .23298645 .04498291 .23298645 .04698181 .23799134 .064971927L.375 .6136322Z"/>
<path id="font_1_6" d="M.4850006 .41075135 .40098573 .6096344C.397995 .61763 .3959961 .6216278 .3959961 .6226196 .3959961 .62861636 .41299439 .6476135 .45498658 .6516113 .46499635 .65260317 .47499085 .6536102 .47499085 .6706085 .47499085 .6826172 .46299745 .6826172 .45999146 .6826172 .4189911 .6826172 .37599183 .6796112 .33399964 .6796112 .30899049 .6796112 .24699402 .6826172 .22200012 .6826172 .21598816 .6826172 .20399475 .6826172 .20399475 .6626129 .20399475 .6516113 .21398926 .6516113 .22698975 .6516113 .2869873 .6516113 .29299928 .6416168 .3019867 .6196289L.41999818 .34080506 .20899964 .11393738 .19599915 .10295105C.14698792 .049987794 .099990848 .033996583 .04899597 .0309906 .035995485 .02999878 .026992798 .02999878 .026992798 .010986328 .026992798 .009994507 .026992798 0 .039993287 0 .069992069 0 .102996829 .0029907227 .13398743 .0029907227 .17098999 .0029907227 .20999146 0 .24598694 0 .2519989 0 .2639923 0 .2639923 .019989014 .2639923 .02999878 .2539978 .0309906 .2519989 .0309906 .24299622 .03199768 .21199036 .033996583 .21199036 .061965944 .21199036 .07795715 .22698975 .093948367 .23899842 .10694885L.34098817 .21487427 .43099977 .31282044 .5319977 .07395935C.5359955 .06297302 .5369873 .061965944 .5369873 .05996704 .5369873 .051986696 .5179901 .034988405 .47898866 .0309906 .46798707 .02999878 .45899964 .0289917 .45899964 .011993408 .45899964 0 .46998597 0 .47399903 0 .5019989 0 .57199099 .0029907227 .59999087 .0029907227 .625 .0029907227 .6859894 0 .71099856 0 .71798709 0 .7299957 0 .7299957 .018997193 .7299957 .0309906 .7200012 .0309906 .71199038 .0309906 .644989 .03199768 .6429901 .034988405 .6259918 .07496643 .58699038 .16790772 .519989 .32380677 .49699403 .3837738 .5649872 .45373536 .66999819 .5726471 .70199587 .6006317 .73098757 .62461856 .7689972 .64860537 .82899478 .6516113 .84199526 .65260317 .8509979 .65260317 .8509979 .6716156 .8509979 .6726074 .8509979 .6826172 .83799746 .6826172 .80799868 .6826172 .7749939 .6796112 .74398806 .6796112 .70700076 .6796112 .6689911 .6826172 .6329956 .6826172 .6269989 .6826172 .6139984 .6826172 .6139984 .6626129 .6139984 .65560916 .61898806 .65260317 .6259918 .6516113 .6349945 .65060427 .66600039 .64860537 .66600039 .6206207 .66600039 .6066284 .6549988 .5936432 .6469879 .5846405L.4850006 .41075135Z"/>
<path id="font_1_4" d="M.9259949 .6056366C.93499758 .6416168 .93699648 .6516113 1.0119934 .6516113 1.0349884 .6516113 1.0439911 .6516113 1.0439911 .6716156 1.0439911 .6826172 1.0339966 .6826172 1.0169983 .6826172H.8849945C.85899356 .6826172 .8580017 .6826172 .84599307 .66360476L.48098756 .093948367 .40299989 .65960696C.3999939 .6826172 .397995 .6826172 .37199403 .6826172H.23498535C.21598816 .6826172 .20498657 .6826172 .20498657 .66360476 .20498657 .6516113 .21398926 .6516113 .23399353 .6516113 .24699402 .6516113 .2649994 .65060427 .2769928 .6496124 .29299928 .6476135 .29899598 .64460757 .29899598 .6336212 .29899598 .6296234 .2979889 .62661746 .29499818 .614624L.16799927 .10594177C.1579895 .065963748 .14099121 .033996583 .05999756 .0309906 .054992677 .0309906 .041992189 .02999878 .041992189 .011993408 .041992189 .0029907227 .04798889 0 .055999757 0 .08799744 0 .12298584 .0029907227 .1559906 .0029907227 .18998719 .0029907227 .22599793 0 .25898744 0 .2639923 0 .2769928 0 .2769928 .019989014 .2769928 .0309906 .2659912 .0309906 .25898744 .0309906 .20199585 .03199768 .19099427 .051986696 .19099427 .07496643 .19099427 .081954959 .19198609 .08695984 .19499207 .09794617L.33099366 .64260867H.33198548L.41799928 .022994996C.41999818 .010986328 .42099 0 .43299867 0 .44400025 0 .44999696 .010986328 .45498658 .017990113L.85899356 .65060427H.8600006L.71699526 .07795715C.70700076 .038986207 .7049866 .0309906 .6259918 .0309906 .60899356 .0309906 .59799197 .0309906 .59799197 .011993408 .59799197 0 .6100006 0 .61299136 0 .6409912 0 .70899966 .0029907227 .7369995 .0029907227 .7779999 .0029907227 .82099917 0 .8619995 0 .8679962 0 .8809967 0 .8809967 .019989014 .8809967 .0309906 .871994 .0309906 .8529968 .0309906 .81599429 .0309906 .7879944 .0309906 .7879944 .048980714 .7879944 .052978517 .7879944 .054977418 .79299929 .07296753L.9259949 .6056366Z"/>
<path id="font_2_2" d="M.20599365 .11984253C.17098999 .06594849 .13899231 .039978029 .07998657 .035995485 .069992069 .034988405 .056991579 .034988405 .056991579 .01499939 .056991579 .0039978029 .06599426 0 .070999149 0 .09700012 0 .12998963 .0039978029 .15699768 .0039978029 .18899536 .0039978029 .22999573 0 .2599945 0 .2649994 0 .27999879 0 .27999879 .021987915 .27999879 .034988405 .2669983 .035995485 .2630005 .035995485 .25498963 .036987306 .21899414 .038986207 .21899414 .06594849 .21899414 .077926639 .22898865 .09489441 .23399353 .103881839L.31399537 .22766114H.59999087L.6239929 .061950685C.6199951 .051971437 .6139984 .035995485 .5549927 .035995485 .54299929 .035995485 .5289917 .035995485 .5289917 .01399231 .5289917 .009994507 .5319977 0 .54499819 0 .57398989 0 .644989 .0039978029 .673996 .0039978029 .69200137 .0039978029 .71499636 .0029907227 .73298647 .0029907227 .7509918 .0019989014 .7719879 0 .7899933 0 .8029938 0 .80999758 .0079956059 .80999758 .020996094 .80999758 .035995485 .7979889 .035995485 .7819977 .035995485 .723999 .035995485 .7220001 .04397583 .71899417 .06793213L.6309967 .6848755C.6279907 .70588687 .6259918 .7128906 .6069946 .7128906 .58799746 .7128906 .58200076 .70388796 .57299807 .6898804L.20599365 .11984253M.33799745 .26367188 .5479889 .5908356 .59498599 .26367188H.33799745Z"/>
<path id="font_2_1" d="M.31599427-.008773804C.32699586-.009765625 .33898927-.009765625 .34999085-.009765625 .5299988-.009765625 .69499209 .13726807 .69499209 .29534913 .69499209 .3843994 .6419983 .44140626 .56399539 .44140626 .42599488 .44140626 .35299684 .26533509 .32499696 .19029236 .31199647 .15327454 .2899933 .083236698 .28399659 .06422424 .17399597 .07923889 .10398865 .12927246 .10398865 .2033081 .10398865 .20429993 .10998535 .31636048 .19099427 .4064026 .19799805 .4133911 .19898987 .41540528 .19898987 .41940309 .19898987 .43139649 .18598938 .43139649 .18299866 .43139649 .17399597 .43139649 .16999817 .43139649 .15098572 .4093933 .09498596 .3403778 .068984989 .23632813 .068984989 .19329834 .068984989 .10424805 .13398743 .02722168 .2630005-.00077819827 .21299744-.15582276 .20698548-.17481995 .20698548-.18382263 .20698548-.21083069 .22999573-.21582031 .24099732-.21582031 .2519989-.21582031 .27198792-.20883179 .27999879-.1938324 .2869873-.17881775 .29599-.12780762 .31599427-.008773804M.32899476 .05923462C.34899903 .17428589 .35699464 .21931458 .40499879 .28434754 .44999696 .3453827 .5029907 .37339784 .5529938 .37339784 .621994 .37339784 .6589966 .32737733 .6589966 .27534486 .6589966 .17428589 .5329895 .05822754 .36099244 .05822754 .35198976 .05822754 .33799745 .05822754 .32899476 .05923462Z"/>
<path id="font_3_2" d="M.69999697 .46954347C.71099856 .48054505 .71398928 .48654176 .71398928 .49354554 .71398928 .509552 .70098879 .5185547 .6899872 .5185547 .6799927 .5185547 .6769867 .5155487 .6649933 .50354006L.44599916 .28547669 .22599793 .5045471C.21598816 .5145416 .21199036 .5185547 .20298767 .5185547 .18899536 .5185547 .17799378 .5075531 .17799378 .49354554 .17799378 .48454286 .18099976 .48153688 .19299317 .46954347L.41099549 .25146485 .19299317 .03340149C.1789856 .01939392 .17799378 .014389038 .17799378 .008392334 .17799378-.0056152346 .18899536-.016601563 .20298767-.016601563 .21199036-.016601563 .21499634-.01361084 .22599793-.002609253L.44599916 .21646118 .673996-.0116119389C.67900088-.014602661 .6839905-.016601563 .6899872-.016601563 .70098879-.016601563 .71398928-.0076141359 .71398928 .008392334 .71398928 .01638794 .71199038 .0184021 .70899966 .021392823 .70700076 .025390625 .5130005 .2194519 .48098756 .25047303L.69999697 .46954347Z"/>
<path id="font_4_5" d="M.21099854 .6168213C.21099854 .645813 .18699646 .6738281 .15299988 .6738281 .12298584 .6738281 .09599304 .64982607 .09599304 .6168213 .09599304 .5808258 .125 .55882266 .15299988 .55882266 .18499756 .55882266 .21099854 .5838165 .21099854 .6168213M.05899048 .43040467V.39439393C.12199402 .39439393 .1309967 .38839723 .1309967 .3393402V.07904053C.1309967 .035995485 .12098694 .035995485 .055999757 .035995485V0C.057998659 0 .12799073 .0039978029 .16799927 .0039978029 .20298767 .0039978029 .23899842 .0029907227 .27398683 0V.035995485C.21598816 .035995485 .20599365 .035995485 .20599365 .07803345V.44140626L.05899048 .43040467Z"/>
<path id="font_4_4" d="M.35598756 .68333438V.6473236C.4229889 .6473236 .43099977 .6403351 .43099977 .59135439V.38438417C.3939972 .4203949 .34599305 .44140626 .29100038 .44140626 .1579895 .44140626 .04598999 .34136964 .04598999 .21531677 .04598999 .09025574 .1519928-.009765625 .2789917-.009765625 .36099244-.009765625 .4099884 .034240724 .4269867 .052246095V-.009765625L.58099368 .00022888184V.036239625C.5139923 .036239625 .5059967 .04324341 .5059967 .09225464V.69433596L.35598756 .68333438M.4269867 .105270389C.40098573 .058242799 .34999085 .018234253 .2849884 .018234253 .22898865 .018234253 .18899536 .051239015 .16899109 .08026123 .14898682 .11026001 .13699341 .15028382 .13699341 .21430969 .13699341 .23731995 .13699341 .3123474 .17799378 .359375 .21798706 .40438844 .2669983 .4133911 .29599 .4133911 .34399415 .4133911 .3869934 .39138795 .4149933 .3553772 .4269867 .33937074 .4269867 .33836366 .4269867 .3193512V.105270389Z"/>
<path id="font_2_4" d="M.23498535 .2023468C.23599243 .2083435 .25898744 .29840089 .26098634 .30340577 .2630005 .31140138 .2919922 .36140443 .32398988 .3854065 .33499146 .3934021 .3619995 .4133911 .40499879 .4133911 .4149933 .4133911 .43998719 .4123993 .45999146 .39941407 .42799378 .39041139 .41600038 .3624115 .41600038 .34440614 .41600038 .32240296 .43299867 .30740357 .45599366 .30740357 .47898866 .30740357 .5119934 .32640077 .5119934 .3684082 .5119934 .4203949 .45700074 .44140626 .4059906 .44140626 .35398866 .44140626 .30899049 .4203949 .2649994 .3704071 .24699402 .43139649 .18598938 .44140626 .1619873 .44140626 .125 .44140626 .099990848 .418396 .083999637 .39041139 .06098938 .3514099 .04699707 .293396 .04699707 .2883911 .04699707 .27539063 .06098938 .27539063 .06399536 .27539063 .07798767 .27539063 .07899475 .2783966 .085998538 .30540467 .100997928 .3664093 .11999512 .4133911 .15899658 .4133911 .18499756 .4133911 .19198609 .3914032 .19198609 .3644104 .19198609 .3454132 .18299866 .30841065 .17599488 .28138734 .16899109 .25437928 .15899658 .21334839 .1539917 .19132996L.12199402 .06326294C.117996219 .050247194 .11199951 .025238038 .11199951 .022232056 .11199951 .00022888184 .12998963-.009765625 .1459961-.009765625 .16099549-.009765625 .18099976-.00077819827 .18899536 .019226075 .19099427 .025238038 .20199585 .06925964 .20799256 .09428406L.23498535 .2023468Z"/>
<path id="font_7_1" d="M.72698977 .68881228C.72299197 .70980837 .71899417 .7158203 .69699099 .7158203 .6729889 .7158203 .6669922 .70780947 .6569977 .69281008L.2649994 .124816898C.22299195 .063949588 .18798828 .04798889 .12298584 .04498291 .10398865 .04399109 .10398865 .017990113 .10398865 .016998291 .10398865 .0029907227 .115997318 0 .11999512 0 .13398743 0 .15098572 .0029907227 .16499329 .0029907227 .18199158 .0029907227 .19898987 .0039978029 .21598816 .0039978029 .23498535 .0039978029 .25299073 .0029907227 .2709961 .0029907227 .2889862 .0029907227 .30999757 0 .32798768 0 .33499146 0 .35198976 0 .35198976 .027999878 .35198976 .04399109 .33699037 .04498291 .33299256 .04498291 .32499696 .04498291 .28599549 .04698181 .28599549 .07093811 .28599549 .082901 .2979889 .099868778 .30499269 .10984802L.37799073 .21661377C.3829956 .22261048 .38398744 .2236023 .40299989 .2236023H.70599368C.70799258 .21162415 .70899966 .20663452 .71199038 .19467163 .71499636 .17671204 .7350006 .076919559 .7350006 .06694031 .7350006 .04498291 .6719971 .04498291 .6669922 .04498291 .6519928 .04498291 .6359863 .04498291 .6359863 .016998291 .6359863 .0069885256 .6429901 0 .6539917 0 .6749878 0 .69898989 .0029907227 .72099307 .0029907227 .7449951 .0029907227 .7679901 .0039978029 .7919922 .0039978029 .8129883 .0039978029 .83499148 .0029907227 .85598757 .0029907227 .8759918 .0029907227 .8989868 0 .9189911 0 .9359894 0 .94299319 .011993408 .94299319 .027999878 .94299319 .04498291 .9269867 .04498291 .9129944 .04498291 .8470001 .04498291 .84599307 .051971437 .84199526 .07392883L.72698977 .68881228M.6369934 .5927582 .69799807 .26860047H.4139862L.6369934 .5927582Z"/>
<path id="font_4_3" d="M.7679901 .3359375C.7829895 .3359375 .80599978 .3359375 .80599978 .3609314 .80599978 .38493348 .7819977 .38493348 .7689972 .38493348H.10699463C.09399414 .38493348 .069992069 .38493348 .069992069 .3609314 .069992069 .3359375 .09298706 .3359375 .10798645 .3359375H.7679901M.7689972 .11602783C.7819977 .11602783 .80599978 .11602783 .80599978 .1400299 .80599978 .16503906 .7829895 .16503906 .7679901 .16503906H.10798645C.09298706 .16503906 .069992069 .16503906 .069992069 .1400299 .069992069 .11602783 .09399414 .11602783 .10699463 .11602783H.7689972Z"/>
<path id="font_7_2" d="M.24598694 .082962039C.23799134 .052993776 .23699951 .04499817 .1599884 .04499817 .1349945 .04499817 .11898804 .04499817 .11898804 .016998291 .11898804 0 .1349945 0 .1519928 0H.55400088C.78900149 0 1.0279999 .18989563 1.0279999 .41175843 1.0279999 .5766449 .8959961 .6826172 .723999 .6826172H.31399537C.2939911 .6826172 .2789917 .6826172 .2789917 .65460208 .2789917 .637619 .29100038 .637619 .31599427 .637619 .32598878 .637619 .35899354 .637619 .37998963 .6316223 .37998963 .6196289 .37998963 .61763 .3769989 .6066284L.24598694 .082962039M.47698976 .6046295C.4850006 .6356201 .4850006 .637619 .5269928 .637619H.68499758C.7549896 .637619 .82199099 .6196289 .8639984 .5826416 .901001 .54867556 .9229889 .5076904 .9229889 .43774415 .9229889 .37478639 .8989868 .24786377 .82398989 .16390991 .7489929 .07997131 .6380005 .04499817 .5369873 .04499817H.37098695C.36299134 .04499817 .34899903 .04499817 .33898927 .04699707 .33999635 .055984498 .33999635 .0579834 .34199525 .064971927L.47698976 .6046295Z"/>
<path id="font_3_3" d="M.56900027 .6553345C.56900027 .68933108 .5629883 .69433596 .5289917 .69433596H.116989139C.099990848 .69433596 .07699585 .69433596 .07699585 .6693268 .07699585 .6453247 .100997928 .6453247 .116989139 .6453247H.519989V.37223817H.1349945C.117996219 .37223817 .09298706 .37223817 .09298706 .347229 .09298706 .3232422 .114990238 .3232422 .12998963 .3232422H.519989V.04899597H.116989139C.099990848 .04899597 .07699585 .04899597 .07699585 .023986817 .07699585 0 .100997928 0 .116989139 0H.5289917C.5629883 0 .56900027 .004989624 .56900027 .038986207V.6553345Z"/>
<path id="font_4_1" d="M.21899414 .65885928C.21899414 .69485476 .18798828 .7138672 .1619873 .7138672 .1329956 .7138672 .10398865 .69285586 .10398865 .65885928L.14299011 .21783448C.14498902 .1958313 .147995 .1938324 .1619873 .1938324 .1749878 .1938324 .17799378 .1958313 .17999268 .21684265L.21899414 .65885928M.21899414 .057998659C.21899414 .08898926 .19299317 .114990238 .1619873 .114990238 .1269989 .114990238 .10398865 .08699036 .10398865 .057998659 .10398865 .022994996 .13198853 0 .16099549 0 .19400025 0 .21899414 .024993897 .21899414 .057998659Z"/>
</defs>
<use data-text="S" xlink:href="#font_1_5" transform="matrix(9.963098,0,0,-9.963397,1.1893616,12.7849049)"/>
<use data-text="n" xlink:href="#font_2_3" transform="matrix(6.9741489,0,0,-6.974358,7.872696,9.168613)"/>
<use data-text="&#x2212;" xlink:href="#font_3_1" transform="matrix(6.9741489,0,0,-6.974358,12.797943,9.168613)"/>
<use data-text="1" xlink:href="#font_4_2" transform="matrix(6.9741489,0,0,-6.974358,19.024247,9.168613)"/>
<use data-text="&#x00d7;" xlink:href="#font_5_1" transform="matrix(9.963098,0,0,-9.963397,25.708588,12.7849049)"/>
<use data-text="[" xlink:href="#font_6_3" transform="matrix(9.963098,0,0,-9.963397,35.671098,12.7849049)"/>
<use data-text="0" xlink:href="#font_6_1" transform="matrix(9.963098,0,0,-9.963397,38.430849,12.7849049)"/>
<use data-text="," xlink:href="#font_1_1" transform="matrix(9.963098,0,0,-9.963397,43.4205,12.7849049)"/>
<use data-text="1" xlink:href="#font_6_2" transform="matrix(9.963098,0,0,-9.963397,47.848726,12.7849049)"/>
<use data-text="]" xlink:href="#font_6_4" transform="matrix(9.963098,0,0,-9.963397,52.83026,12.7849049)"/>
<use data-text="A" xlink:href="#font_1_2" transform="matrix(9.963098,0,0,-9.963397,100.83531,12.7849049)"/>
<use data-text="&#x00d7;" xlink:href="#font_5_1" transform="matrix(9.963098,0,0,-9.963397,110.521808,12.7849049)"/>
<use data-text="[" xlink:href="#font_6_3" transform="matrix(9.963098,0,0,-9.963397,120.48433,12.7849049)"/>
<use data-text="0" xlink:href="#font_6_1" transform="matrix(9.963098,0,0,-9.963397,123.244098,12.7849049)"/>
<use data-text="," xlink:href="#font_1_1" transform="matrix(9.963098,0,0,-9.963397,128.23369,12.7849049)"/>
<use data-text="1" xlink:href="#font_6_2" transform="matrix(9.963098,0,0,-9.963397,132.66191,12.7849049)"/>
<use data-text="]" xlink:href="#font_6_4" transform="matrix(9.963098,0,0,-9.963397,137.64348,12.7849049)"/>
<use data-text="D" xlink:href="#font_1_3" transform="matrix(9.963098,0,0,-9.963397,5.367569,47.98272)"/>
<use data-text="n" xlink:href="#font_2_3" transform="matrix(6.9741489,0,0,-6.974358,13.89299,44.36643)"/>
<use data-text="&#x00d7;" xlink:href="#font_5_1" transform="matrix(9.963098,0,0,-9.963397,21.530365,47.98272)"/>
<use data-text="[" xlink:href="#font_6_3" transform="matrix(9.963098,0,0,-9.963397,31.492859,47.98272)"/>
<use data-text="0" xlink:href="#font_6_1" transform="matrix(9.963098,0,0,-9.963397,34.25264,47.98272)"/>
<use data-text="," xlink:href="#font_1_1" transform="matrix(9.963098,0,0,-9.963397,39.24225,47.98272)"/>
<use data-text="1" xlink:href="#font_6_2" transform="matrix(9.963098,0,0,-9.963397,43.670457,47.98272)"/>
<use data-text="]" xlink:href="#font_6_4" transform="matrix(9.963098,0,0,-9.963397,48.651994,47.98272)"/>
<use data-text="X" xlink:href="#font_1_6" transform="matrix(9.963098,0,0,-9.963397,100.05328,47.98272)"/>
<use data-text="&#x00d7;" xlink:href="#font_5_1" transform="matrix(9.963098,0,0,-9.963397,111.30286,47.98272)"/>
<use data-text="[" xlink:href="#font_6_3" transform="matrix(9.963098,0,0,-9.963397,121.26636,47.98272)"/>
<use data-text="0" xlink:href="#font_6_1" transform="matrix(9.963098,0,0,-9.963397,124.02615,47.98272)"/>
<use data-text="," xlink:href="#font_1_1" transform="matrix(9.963098,0,0,-9.963397,129.01474,47.98272)"/>
<use data-text="1" xlink:href="#font_6_2" transform="matrix(9.963098,0,0,-9.963397,133.44297,47.98272)"/>
<use data-text="]" xlink:href="#font_6_4" transform="matrix(9.963098,0,0,-9.963397,138.4245,47.98272)"/>
<use data-text="M" xlink:href="#font_1_4" transform="matrix(9.963098,0,0,-9.963397,185.64856,82.51548)"/>
<use data-text="A" xlink:href="#font_2_2" transform="matrix(6.9741489,0,0,-6.974358,195.31406,84.010608)"/>
<path transform="matrix(1.00005,0,0,-1.00008,101.49837,44.341428)" stroke-width=".39848" stroke-linecap="butt" stroke-miterlimit="10" stroke-linejoin="miter" fill="none" stroke="#000000" d="M-41.4038 34.04645H-5.55298"/>
<path transform="matrix(1.00005,0,0,-1.00008,96.14437,10.292252)" stroke-width=".39848" stroke-linecap="round" stroke-linejoin="round" fill="none" stroke="#000000" d="M-2.07213 2.39091C-1.69356 .95633-.84995 .27893 0 0-.84995-.27893-1.69356-.95633-2.07213-2.39091"/>
<use data-text="&#x03c6;" xlink:href="#font_2_1" transform="matrix(6.9741489,0,0,-6.974358,69.15675,6.589405)"/>
<use data-text="&#x00d7;" xlink:href="#font_3_2" transform="matrix(6.9741489,0,0,-6.974358,74.39702,6.5904047)"/>
<use data-text="i" xlink:href="#font_4_5" transform="matrix(6.9741489,0,0,-6.974358,80.62433,6.589405)"/>
<use data-text="d" xlink:href="#font_4_4" transform="matrix(6.9741489,0,0,-6.974358,82.87698,6.589405)"/>
<path transform="matrix(1.00005,0,0,-1.00008,101.49837,44.341428)" stroke-width=".39848" stroke-linecap="butt" stroke-miterlimit="10" stroke-linejoin="miter" fill="none" stroke="#000000" d="M-73.1003 23.78139V8.07991"/>
<path transform="matrix(0,-1.00008,1.00005,0,28.39441,20.558136)" stroke-width=".39848" stroke-linecap="round" stroke-miterlimit="10" stroke-linejoin="miter" fill="none" stroke="#000000" d="M0 1.95256C.68224 1.95256 1.2353 1.51546 1.2353 .97627 1.2353 .43709 .68224 0 0 0"/>
<path transform="matrix(0,1.00008,1.00005,0,28.39441,36.460138)" stroke-width=".39848" stroke-linecap="round" stroke-linejoin="round" fill="none" stroke="#000000" d="M-2.07213 2.39091C-1.69356 .95633-.84995 .27893 0 0-.84995-.27893-1.69356-.95633-2.07213-2.39091"/>
<path transform="matrix(1.00005,0,0,-1.00008,101.49837,44.341428)" stroke-width=".39848" stroke-linecap="butt" stroke-miterlimit="10" stroke-linejoin="miter" fill="none" stroke="#000000" d="M19.12582 25.21594V8.07991"/>
<path transform="matrix(0,1.00008,1.00005,0,120.625148,36.460138)" stroke-width=".39848" stroke-linecap="round" stroke-linejoin="round" fill="none" stroke="#000000" d="M-2.07213 2.39091C-1.69356 .95633-.84995 .27893 0 0-.84995-.27893-1.69356-.95633-2.07213-2.39091"/>
<path transform="matrix(1.00005,0,0,-1.00008,101.49837,44.341428)" stroke-width=".39848" stroke-linecap="butt" stroke-miterlimit="10" stroke-linejoin="miter" fill="none" stroke="#000000" d="M43.40617 28.15236C69.9878 18.38707 84.99802 .38887 89.76393-27.12148"/>
<path transform="matrix(.17067853,.9853788,.98534926,-.17068365,191.30078,71.66139)" stroke-width=".39848" stroke-linecap="round" stroke-linejoin="round" fill="none" stroke="#000000" d="M-2.07213 2.39091C-1.69356 .95633-.84995 .27893 0 0-.84995-.27893-1.69356-.95633-2.07213-2.39091"/>
<use data-text="r" xlink:href="#font_2_4" transform="matrix(6.9741489,0,0,-6.974358,178.62323,33.87159)"/>
<use data-text="A" xlink:href="#font_7_1" transform="matrix(4.981549,0,0,-4.9816987,182.32242,34.873674)"/>
<use data-text="=" xlink:href="#font_4_3" transform="matrix(6.9741489,0,0,-6.974358,187.98169,33.87259)"/>
<use data-text="i" xlink:href="#font_4_5" transform="matrix(6.9741489,0,0,-6.974358,194.09803,33.87259)"/>
<use data-text="d" xlink:href="#font_4_4" transform="matrix(6.9741489,0,0,-6.974358,196.35068,33.87259)"/>
<path transform="matrix(1.00005,0,0,-1.00008,101.49837,44.341428)" stroke-width=".39848" stroke-linecap="butt" stroke-miterlimit="10" stroke-linejoin="miter" fill="none" stroke="#000000" d="M-45.58194-1.14906H-6.33475"/>
<path transform="matrix(1.00005,0,0,-1.00008,95.36255,45.490579)" stroke-width=".39848" stroke-linecap="round" stroke-linejoin="round" fill="none" stroke="#000000" d="M-2.07213 2.39091C-1.69356 .95633-.84995 .27893 0 0-.84995-.27893-1.69356-.95633-2.07213-2.39091"/>
<path transform="matrix(1.00005,0,0,-1.00008,101.49837,44.341428)" stroke-width=".39848" stroke-linecap="butt" stroke-miterlimit="10" stroke-linejoin="miter" fill="none" stroke="#000000" d="M-63.22351-9.97957C-20.68913-47.99629 25.4648-57.63153 79.27698-39.92867"/>
<path transform="matrix(.94991746,-.312505,-.31249563,-.949946,180.96855,84.21104)" stroke-width=".39848" stroke-linecap="round" stroke-linejoin="round" fill="none" stroke="#000000" d="M-2.07213 2.39091C-1.69356 .95633-.84995 .27893 0 0-.84995-.27893-1.69356-.95633-2.07213-2.39091"/>
<use data-text="r" xlink:href="#font_2_4" transform="matrix(6.9741489,0,0,-6.974358,93.097949,95.52753)"/>
<use data-text="D" xlink:href="#font_7_2" transform="matrix(4.981549,0,0,-4.9816987,96.797138,96.5296)"/>
<path transform="matrix(1.00005,0,0,-1.00008,101.49837,44.341428)" stroke-width=".39848" stroke-linecap="butt" stroke-dasharray="2.78941,1.59395" stroke-miterlimit="10" stroke-linejoin="miter" fill="none" stroke="#000000" d="M37.81534-9.97957 79.2952-29.57343"/>
<path transform="matrix(.9042052,.42711417,.42710135,-.9042323,180.97766,74.00231)" stroke-width=".39848" stroke-linecap="round" stroke-linejoin="round" fill="none" stroke="#000000" d="M-2.07213 2.39091C-1.69356 .95633-.84995 .27893 0 0-.84995-.27893-1.69356-.95633-2.07213-2.39091"/>
<use data-text="&#x2203;" xlink:href="#font_3_3" transform="matrix(6.9741489,0,0,-6.974358,162.58342,61.857828)"/>
<use data-text="!" xlink:href="#font_4_1" transform="matrix(6.9741489,0,0,-6.974358,167.09465,61.858827)"/>
<use data-text="r" xlink:href="#font_2_4" transform="matrix(6.9741489,0,0,-6.974358,170.71082,61.857828)"/>
</svg>
